<svg xmlns="http://www.w3.org/2000/svg" viewBox="0 0 177.7 209.81"><defs><style>.cls-1{fill:#8ff6ff;}.cls-1,.cls-2,.cls-3,.cls-4,.cls-5,.cls-6,.cls-7,.cls-8,.cls-9{stroke:#000;stroke-linecap:round;stroke-linejoin:round;}.cls-2{fill:#ccfbff;}.cls-3{fill:#3defff;}.cls-4{fill:#d58eff;}.cls-5{fill:#e5baff;}.cls-6{fill:#b942ff;}.cls-7{fill:#a8a8ff;}.cls-8{fill:#d1d1ff;}.cls-9{fill:#7a7aff;}</style></defs><g id="Layer_2" data-name="Layer 2"><g id="Layer_3" data-name="Layer 3"><polygon class="cls-1" points="177.2 26 133.03 0.5 88.85 26 133.03 49.2 177.2 26"/><polygon class="cls-2" points="133.03 158.33 177.2 132.82 177.2 26 133.03 49.2 133.03 158.33"/><polygon class="cls-3" points="133.03 49.2 88.85 26 88.85 132.82 133.03 158.33 133.03 49.2"/><polygon class="cls-4" points="133.03 88.68 88.85 63.18 44.67 88.68 88.85 111.88 133.03 88.68"/><polygon class="cls-5" points="88.85 183.8 133.03 158.3 133.03 88.68 88.85 111.88 88.85 183.8"/><polygon class="cls-6" points="88.85 111.88 44.67 88.68 44.67 158.3 88.85 183.8 88.85 111.88"/><polygon class="cls-7" points="88.85 132.79 44.67 107.29 0.5 132.79 44.67 155.99 88.85 132.79"/><polygon class="cls-8" points="44.67 209.31 88.85 183.8 88.85 132.79 44.67 155.99 44.67 209.31"/><polygon class="cls-9" points="44.67 155.99 0.5 132.79 0.5 183.8 44.67 209.31 44.67 155.99"/></g></g></svg>