<svg xmlns="http://www.w3.org/2000/svg" width="550" viewBox="0 0 621.87 689.49">
  <path
    d="M.5,453.68l.25.43L56.1,422.16l54.57,31.5L56.1,482.32.73,453.24l-.23.44.25.43-.25-.43-.23.44,55.6,29.2a.49.49,0,0,0,.47,0l55.6-29.2a.49.49,0,0,0,.27-.43.5.5,0,0,0-.25-.44l-55.61-32.1a.5.5,0,0,0-.5,0L.25,453.25a.5.5,0,0,0-.25.44.49.49,0,0,0,.27.43Z" />
  <path
    d="M56.1,550l.25-.43L1,517.6V454.51l54.6,28.67V550h.5l.25-.43-.25.43h.5V482.88a.49.49,0,0,0-.26-.44L.73,453.24a.5.5,0,0,0-.49,0,.51.51,0,0,0-.24.43v64.21a.5.5,0,0,0,.25.43l55.6,32.1a.5.5,0,0,0,.5,0,.47.47,0,0,0,.25-.43Z" />
  <path
    d="M56.1,482.88l.24.44,54.87-28.81V517.6L56.6,549.13V482.88h-.5l.24.44-.24-.44h-.5V550a.5.5,0,0,0,.75.43L112,518.32a.5.5,0,0,0,.25-.43V453.68a.49.49,0,0,0-.73-.44l-55.61,29.2a.49.49,0,0,0-.27.44Z" />
  <path
    d="M127.51,526l.25.43,55.35-32L237.68,526l-54.57,28.65-55.37-29.07-.23.44.25.43-.25-.43-.24.44,55.61,29.2a.47.47,0,0,0,.46,0L239,526.46a.5.5,0,0,0,0-.87l-55.6-32.11a.55.55,0,0,0-.5,0l-55.6,32.11a.5.5,0,0,0,0,.87Z" />
  <path
    d="M183.11,622.33l.25-.43-55.35-32V526.85l54.6,28.67v66.81h.5l.25-.43-.25.43h.5V555.22a.48.48,0,0,0-.27-.44l-55.6-29.2a.5.5,0,0,0-.49,0,.51.51,0,0,0-.24.43v64.21a.48.48,0,0,0,.25.43l55.6,32.1a.5.5,0,0,0,.5,0,.5.5,0,0,0,.25-.43Z" />
  <path
    d="M183.11,555.22l.23.44,54.87-28.81v63.09l-54.6,31.52V555.22h-.5l.23.44-.23-.44h-.5v67.11a.5.5,0,0,0,.25.43.5.5,0,0,0,.5,0l55.6-32.1a.48.48,0,0,0,.25-.43V526a.51.51,0,0,0-.24-.43.5.5,0,0,0-.49,0l-55.6,29.2a.48.48,0,0,0-.27.44Z" />
  <path
    d="M.5,315.28l.25.43,55.35-32,54.57,31.51L56.1,343.91.73,314.83l-.23.45.25.43-.25-.43-.23.44,55.6,29.2a.49.49,0,0,0,.47,0l55.6-29.2a.49.49,0,0,0,.27-.43.53.53,0,0,0-.25-.45l-55.61-32.1a.5.5,0,0,0-.5,0L.25,314.84a.53.53,0,0,0-.25.45.49.49,0,0,0,.27.43Z" />
  <path
    d="M56.1,411.59l.25-.44L1,379.2V316.1l54.6,28.68v66.81h.5l.25-.44-.25.44h.5V344.48a.51.51,0,0,0-.26-.45L.73,314.83a.5.5,0,0,0-.49,0,.5.5,0,0,0-.24.43v64.2a.52.52,0,0,0,.25.44L55.85,412a.5.5,0,0,0,.5,0,.48.48,0,0,0,.25-.43Z" />
  <path
    d="M56.1,344.48l.24.44,54.87-28.82v63.1L56.6,410.72V344.48h-.5l.24.44-.24-.44h-.5v67.11a.5.5,0,0,0,.25.43.5.5,0,0,0,.5,0L112,379.92a.52.52,0,0,0,.25-.44v-64.2a.5.5,0,0,0-.24-.43.5.5,0,0,0-.49,0L55.87,344a.52.52,0,0,0-.27.45Z" />
  <path
    d="M127.51,383.21l.25.43,55.35-31.95,54.57,31.5-54.57,28.66-55.37-29.08-.23.44.25.43-.25-.43-.24.44,55.61,29.2a.47.47,0,0,0,.46,0L239,383.65a.5.5,0,0,0,0-.87l-55.6-32.1a.5.5,0,0,0-.5,0l-55.6,32.1a.5.5,0,0,0,0,.87Z" />
  <path
    d="M183.11,479.52l.25-.43-55.35-32V384l54.6,28.67v66.81h.5l.25-.43-.25.43h.5V412.41a.48.48,0,0,0-.27-.44l-55.6-29.2a.5.5,0,0,0-.49,0,.51.51,0,0,0-.24.43v64.21a.48.48,0,0,0,.25.43l55.6,32.1a.5.5,0,0,0,.75-.43Z" />
  <path
    d="M183.11,412.41l.23.44L238.21,384v63.09l-54.6,31.53V412.41h-.5l.23.44-.23-.44h-.5v67.11a.5.5,0,0,0,.75.43l55.6-32.1a.48.48,0,0,0,.25-.43V383.21a.51.51,0,0,0-.24-.43.5.5,0,0,0-.49,0L182.88,412a.49.49,0,0,0-.27.44Z" />
  <path
    d="M366.29,32.6l.25-.43L310.94.07a.5.5,0,0,0-.5,0l-55.61,32.1a.5.5,0,0,0-.25.44.51.51,0,0,0,.27.44l55.6,29.19a.49.49,0,0,0,.47,0l55.6-29.19a.51.51,0,0,0,.27-.44.5.5,0,0,0-.25-.44l-.25.43-.23-.44L310.69,61.24,256.12,32.58l54.57-31.5L366,33l.25-.44-.23-.44Z" />
  <path
    d="M310.69,128.91l.25.44,55.6-32.11a.5.5,0,0,0,.25-.43V32.6a.49.49,0,0,0-.24-.42.48.48,0,0,0-.49,0l-55.61,29.2a.5.5,0,0,0-.26.44v67.11a.5.5,0,0,0,.75.44l-.25-.44h.5V62.1l54.6-28.67V96.52l-55.35,32,.25.43h0Z" />
  <path
    d="M310.69,61.8l.23-.44-55.61-29.2a.48.48,0,0,0-.49,0,.49.49,0,0,0-.24.42V96.81a.5.5,0,0,0,.25.43l55.61,32.11a.5.5,0,0,0,.5,0,.52.52,0,0,0,.25-.44V61.8a.52.52,0,0,0-.27-.44l-.23.44h-.5v66.25L255.58,96.52V33.43l54.87,28.81.24-.44h0Z" />
  <path
    d="M238.71,104.36l.25-.43-55.6-32.11a.5.5,0,0,0-.5,0l-55.6,32.11a.5.5,0,0,0,0,.87L182.88,134a.47.47,0,0,0,.46,0L239,104.8a.5.5,0,0,0,0-.87l-.25.43-.23-.44L183.11,133l-54.57-28.65,54.57-31.51,55.35,32,.25-.43-.23-.44Z" />
  <path
    d="M183.11,200.67l.25.43L239,169a.5.5,0,0,0,.25-.43V104.36a.5.5,0,0,0-.24-.43.48.48,0,0,0-.49,0l-55.6,29.2a.48.48,0,0,0-.27.44v67.11a.5.5,0,0,0,.25.43.5.5,0,0,0,.5,0l-.25-.43h.5V133.86l54.6-28.67v63.09l-55.35,32,.25.43h0Z" />
  <path
    d="M183.11,133.56l.23-.44-55.6-29.2a.5.5,0,0,0-.49,0,.5.5,0,0,0-.24.43v64.21a.5.5,0,0,0,.25.43l55.6,32.1a.5.5,0,0,0,.5,0,.48.48,0,0,0,.25-.43V133.56a.48.48,0,0,0-.27-.44l-.23.44h-.5V199.8L128,168.28V105.19L182.88,134l.23-.44h0Z" />
  <path
    d="M621.17,453.68l.25-.43-55.61-32.1a.5.5,0,0,0-.5,0l-55.6,32.1a.5.5,0,0,0-.25.44.49.49,0,0,0,.27.43l55.6,29.2a.49.49,0,0,0,.47,0l55.6-29.2a.51.51,0,0,0,.27-.43.5.5,0,0,0-.25-.44l-.25.43-.23-.44-55.38,29.07L511,453.66l54.56-31.5,55.36,31.95.25-.43-.23-.44Z" />
  <path
    d="M565.56,550l.25.43,55.61-32.1a.5.5,0,0,0,.25-.43V453.68a.49.49,0,0,0-.73-.44l-55.61,29.2a.49.49,0,0,0-.27.44V550a.5.5,0,0,0,.75.43l-.25-.43h.5V483.18l54.61-28.67V517.6l-55.36,32,.25.43h0Z" />
  <path
    d="M565.56,482.88l.24-.44-55.61-29.2a.49.49,0,0,0-.73.44v64.21a.48.48,0,0,0,.25.43l55.6,32.1a.5.5,0,0,0,.5,0,.47.47,0,0,0,.25-.43V482.88a.49.49,0,0,0-.26-.44l-.24.44h-.5v66.24l-54.6-31.52V454.51l54.87,28.81.23-.44h0Z" />
  <path
    d="M493.8,526l.25-.43-55.6-32.11a.55.55,0,0,0-.5,0l-55.61,32.11a.5.5,0,0,0-.25.44.51.51,0,0,0,.27.43l55.6,29.2a.49.49,0,0,0,.47,0l55.6-29.2a.49.49,0,0,0,.27-.43.5.5,0,0,0-.25-.44l-.25.43-.23-.44L438.2,554.65,383.63,526l54.57-31.5,55.35,32,.25-.43-.23-.44Z" />
  <path
    d="M438.2,622.33l.25.43,55.6-32.1a.48.48,0,0,0,.25-.43V526a.49.49,0,0,0-.73-.44L438,554.78a.49.49,0,0,0-.26.44v67.11a.48.48,0,0,0,.25.43.5.5,0,0,0,.5,0l-.25-.43h.5V555.52l54.6-28.67v63.09L438,621.9l.25.43h0Z" />
  <path
    d="M438.2,555.22l.23-.44-55.61-29.2a.49.49,0,0,0-.73.44v64.21a.5.5,0,0,0,.25.43L438,622.76a.5.5,0,0,0,.5,0,.5.5,0,0,0,.25-.43V555.22a.49.49,0,0,0-.27-.44l-.23.44h-.5v66.24l-54.61-31.52V526.85L438,555.66l.24-.44h0Z" />
  <path
    d="M366.29,592.68l.25-.43-55.6-32.11a.5.5,0,0,0-.5,0l-55.61,32.11a.5.5,0,0,0-.25.44.49.49,0,0,0,.27.43l55.6,29.2a.49.49,0,0,0,.47,0l55.6-29.2a.49.49,0,0,0,.27-.43.5.5,0,0,0-.25-.44l-.25.43-.23-.44-55.37,29.07-54.57-28.65,54.56-31.51,55.36,32,.25-.43-.23-.44Z" />
  <path
    d="M310.69,689l.25.43,55.6-32.1a.5.5,0,0,0,.25-.43V592.68a.49.49,0,0,0-.73-.44l-55.61,29.2a.49.49,0,0,0-.26.44V689a.47.47,0,0,0,.25.43.5.5,0,0,0,.5,0l-.25-.43h.5V622.18l54.6-28.67V656.6l-55.35,32,.25.43h0Z" />
  <path
    d="M310.69,621.88l.23-.44-55.61-29.2a.49.49,0,0,0-.73.44v64.21a.5.5,0,0,0,.25.43l55.61,32.1a.5.5,0,0,0,.75-.43V621.88a.49.49,0,0,0-.27-.44l-.23.44h-.5v66.25L255.58,656.6V593.51l54.87,28.81.24-.44h0Z" />
  <path
    d="M493.8,104.36l.25-.43-55.6-32.11a.5.5,0,0,0-.5,0l-55.61,32.11a.5.5,0,0,0-.25.44.51.51,0,0,0,.27.43L438,134a.49.49,0,0,0,.47,0L494,104.8a.49.49,0,0,0,.27-.43.5.5,0,0,0-.25-.44l-.25.43-.23-.44L438.2,133l-54.57-28.65L438.2,72.83l55.35,32,.25-.43-.23-.44Z" />
  <path
    d="M438.2,200.67l.25.43,55.6-32.1a.5.5,0,0,0,.25-.43V104.36a.5.5,0,0,0-.24-.43.48.48,0,0,0-.49,0L438,133.12a.49.49,0,0,0-.26.44v67.11a.48.48,0,0,0,.25.43.5.5,0,0,0,.5,0l-.25-.43h.5V133.86l54.6-28.67v63.09l-55.35,32,.25.43h0Z" />
  <path
    d="M438.2,133.56l.23-.44-55.61-29.2a.5.5,0,0,0-.49,0,.5.5,0,0,0-.24.43v64.21a.52.52,0,0,0,.25.43L438,201.1a.5.5,0,0,0,.5,0,.5.5,0,0,0,.25-.43V133.56a.49.49,0,0,0-.27-.44l-.23.44h-.5V199.8l-54.61-31.52V105.19L438,134l.24-.44h0Z" />
  <path
    d="M366.29,176.12l.25-.44-55.6-32.1a.5.5,0,0,0-.5,0l-55.61,32.1a.5.5,0,0,0,0,.88l55.6,29.2a.55.55,0,0,0,.47,0l55.6-29.2a.5.5,0,0,0,0-.88l-.25.44-.23-.45-55.37,29.08L256.12,176.1l54.57-31.51,55.35,32,.25-.43-.23-.45Z" />
  <path
    d="M310.69,272.43l.25.43,55.6-32.1a.52.52,0,0,0,.25-.44v-64.2a.5.5,0,0,0-.24-.43.5.5,0,0,0-.49,0l-55.61,29.2a.51.51,0,0,0-.26.44v67.12a.5.5,0,0,0,.75.43l-.25-.43h.5V205.62l54.6-28.68V240l-55.35,32,.25.44h0Z" />
  <path
    d="M310.69,205.31l.23-.44-55.61-29.2a.5.5,0,0,0-.49,0,.5.5,0,0,0-.24.43v64.2a.52.52,0,0,0,.25.44l55.61,32.1a.5.5,0,0,0,.5,0,.52.52,0,0,0,.25-.43V205.31a.52.52,0,0,0-.27-.44l-.23.44h-.5v66.25L255.58,240V176.94l54.87,28.82.24-.45h0Z" />
  <path
    d="M493.54,383.36l.25-.43L438.45,351a.5.5,0,0,0-.5,0L382.6,382.93a.5.5,0,0,0-.25.44.51.51,0,0,0,.27.43L438,412.87a.55.55,0,0,0,.47,0l55.34-29.07a.49.49,0,0,0,.27-.43.5.5,0,0,0-.25-.44l-.25.43-.23-.44L438.2,411.86l-54.31-28.52L438.2,352l55.09,31.8.25-.43-.23-.44Z" />
  <path
    d="M438.2,479.22l.25.43,55.34-31.95a.48.48,0,0,0,.25-.43V383.36a.49.49,0,0,0-.73-.44L438,412a.51.51,0,0,0-.26.44v66.8a.47.47,0,0,0,.25.43.5.5,0,0,0,.5,0l-.25-.43h.5V412.73L493,384.19V447L438,478.79l.25.43h0Z" />
  <path
    d="M438.2,412.42l.23-.44-55.35-29.06a.49.49,0,0,0-.73.44v63.91a.5.5,0,0,0,.25.43L438,479.65a.5.5,0,0,0,.75-.43v-66.8a.52.52,0,0,0-.27-.44l-.23.44h-.5v65.94L383.35,447V384.19L438,412.87l.24-.45h0Z" />
  <path
    d="M366.29,453.68l.25-.43-55.6-32.1a.5.5,0,0,0-.5,0l-55.61,32.1a.5.5,0,0,0-.25.44.49.49,0,0,0,.27.43l55.6,29.2a.49.49,0,0,0,.47,0l55.6-29.2a.49.49,0,0,0,.27-.43.5.5,0,0,0-.25-.44l-.25.43-.23-.44-55.37,29.07-54.57-28.65,54.57-31.5L366,454.11l.25-.43-.23-.44Z" />
  <path
    d="M310.69,550l.25.43,55.6-32.1a.5.5,0,0,0,.25-.43V453.68a.49.49,0,0,0-.73-.44l-55.61,29.2a.49.49,0,0,0-.26.44V550a.47.47,0,0,0,.25.43.5.5,0,0,0,.5,0l-.25-.43h.5V483.18l54.6-28.67V517.6l-55.35,32,.25.43h0Z" />
  <path
    d="M310.69,482.88l.23-.44-55.61-29.2a.49.49,0,0,0-.73.44v64.21a.5.5,0,0,0,.25.43l55.61,32.1a.5.5,0,0,0,.75-.43V482.88a.49.49,0,0,0-.27-.44l-.23.44h-.5v66.24L255.58,517.6V454.51l54.87,28.81.24-.44h0Z" />
  <path
    d="M621.17,176.12l.25-.44-55.61-32.1a.5.5,0,0,0-.5,0l-55.6,32.1a.5.5,0,0,0,0,.88l55.6,29.2a.55.55,0,0,0,.47,0l55.6-29.2a.52.52,0,0,0,.27-.43.5.5,0,0,0-.25-.45l-.25.44-.23-.45-55.38,29.08L511,176.1l54.56-31.51,55.36,32,.25-.43-.23-.45Z" />
  <path
    d="M565.56,272.43l.25.43,55.61-32.1a.52.52,0,0,0,.25-.44v-64.2a.5.5,0,0,0-.24-.43.5.5,0,0,0-.49,0l-55.61,29.2a.52.52,0,0,0-.27.44v67.12a.52.52,0,0,0,.25.43.5.5,0,0,0,.5,0l-.25-.43h.5V205.62l54.61-28.68V240l-55.36,32,.25.44h0Z" />
  <path
    d="M565.56,205.31l.24-.44-55.61-29.2a.5.5,0,0,0-.49,0,.5.5,0,0,0-.24.43v64.2a.5.5,0,0,0,.25.44l55.6,32.1a.5.5,0,0,0,.75-.43V205.31a.51.51,0,0,0-.26-.44l-.24.44h-.5v66.25L510.46,240V176.94l54.87,28.82.23-.45h0Z" />
  <path
    d="M493.8,243.86l.25-.43-55.6-32.11a.5.5,0,0,0-.5,0l-55.61,32.11a.5.5,0,0,0-.25.44.51.51,0,0,0,.27.43L438,273.5a.49.49,0,0,0,.47,0L494,244.3a.49.49,0,0,0,.27-.43.5.5,0,0,0-.25-.44l-.25.43-.23-.44L438.2,272.49l-54.57-28.65,54.57-31.51,55.35,32,.25-.43-.23-.44Z" />
  <path
    d="M438.2,340.17l.25.43,55.6-32.1a.48.48,0,0,0,.25-.43V243.86a.5.5,0,0,0-.24-.43.5.5,0,0,0-.49,0L438,272.62a.49.49,0,0,0-.26.44v67.11a.48.48,0,0,0,.25.43.5.5,0,0,0,.5,0l-.25-.43h.5V273.36l54.6-28.67v63.09l-55.35,32,.25.43h0Z" />
  <path
    d="M438.2,273.06l.23-.44-55.61-29.2a.5.5,0,0,0-.49,0,.5.5,0,0,0-.24.43v64.21a.5.5,0,0,0,.25.43L438,340.6a.5.5,0,0,0,.5,0,.5.5,0,0,0,.25-.43V273.06a.49.49,0,0,0-.27-.44l-.23.44h-.5V339.3l-54.61-31.52V244.69L438,273.5l.24-.44h0Z" />
  <path
    d="M366.29,315.28l.25-.44-55.6-32.1a.5.5,0,0,0-.5,0l-55.61,32.1a.53.53,0,0,0-.25.45.49.49,0,0,0,.27.43l55.6,29.2a.49.49,0,0,0,.47,0l55.6-29.2a.49.49,0,0,0,.27-.43.53.53,0,0,0-.25-.45l-.25.44-.23-.45-55.37,29.08-54.57-28.65,54.57-31.51,55.35,32,.25-.43-.23-.45Z" />
  <path
    d="M310.69,411.59l.25.43,55.6-32.1a.52.52,0,0,0,.25-.44v-64.2a.5.5,0,0,0-.24-.43.5.5,0,0,0-.49,0L310.45,344a.51.51,0,0,0-.26.45v67.11a.48.48,0,0,0,.25.43.5.5,0,0,0,.5,0l-.25-.43h.5V344.78l54.6-28.68v63.1l-55.35,31.95.25.44h0Z" />
  <path
    d="M310.69,344.48l.23-.45-55.61-29.2a.5.5,0,0,0-.49,0,.5.5,0,0,0-.24.43v64.2a.52.52,0,0,0,.25.44L310.44,412a.5.5,0,0,0,.5,0,.5.5,0,0,0,.25-.43V344.48a.52.52,0,0,0-.27-.45l-.23.45h-.5v66.24L255.58,379.2V316.1l54.87,28.82.24-.44h0Z" />
  <path
    d="M238.71,243.86l.25-.43-55.6-32.11a.5.5,0,0,0-.5,0l-55.6,32.11a.5.5,0,0,0,0,.87l55.61,29.2a.47.47,0,0,0,.46,0L239,244.3a.5.5,0,0,0,0-.87l-.25.43-.23-.44-55.37,29.07-54.57-28.65,54.57-31.51,55.35,32,.25-.43-.23-.44Z" />
  <path
    d="M183.11,273.06l.23-.44-55.6-29.2a.5.5,0,0,0-.49,0,.5.5,0,0,0-.24.43v64.21a.48.48,0,0,0,.25.43l55.6,32.1a.5.5,0,0,0,.5,0,.48.48,0,0,0,.25-.43V273.06a.48.48,0,0,0-.27-.44l-.23.44h-.5V339.3L128,307.78V244.69l54.87,28.81.23-.44h0Z" />
  <path
    d="M183.11,340.17l.25.43L239,308.5a.48.48,0,0,0,.25-.43V243.86a.5.5,0,0,0-.24-.43.5.5,0,0,0-.49,0l-55.6,29.2a.48.48,0,0,0-.27.44v67.11a.5.5,0,0,0,.25.43.5.5,0,0,0,.5,0l-.25-.43h.5V273.36l54.6-28.67v63.09l-55.35,32,.25.43h0Z" />
  <path
    d="M111.71,176.12l.25-.44-55.61-32.1a.5.5,0,0,0-.5,0L.25,175.68a.5.5,0,0,0,0,.88l55.6,29.2a.55.55,0,0,0,.47,0l55.6-29.2a.5.5,0,0,0,0-.88l-.25.44-.23-.45L56.1,204.75,1.54,176.1,56.1,144.59l55.36,32,.25-.43-.23-.45Z" />
  <path
    d="M56.1,272.43l.25.43L112,240.76a.52.52,0,0,0,.25-.44v-64.2a.5.5,0,0,0-.24-.43.5.5,0,0,0-.49,0l-55.61,29.2a.52.52,0,0,0-.27.44v67.12a.52.52,0,0,0,.25.43.5.5,0,0,0,.5,0l-.25-.43h.5V205.62l54.61-28.68V240L55.85,272l.25.44h0Z" />
  <path
    d="M56.1,205.31l.24-.44L.73,175.67a.5.5,0,0,0-.49,0,.5.5,0,0,0-.24.43v64.2a.52.52,0,0,0,.25.44l55.6,32.1a.5.5,0,0,0,.75-.43V205.31a.51.51,0,0,0-.26-.44l-.24.44h-.5v66.25L1,240V176.94l54.87,28.82.23-.45h0Z" />
  <path
    d="M510.16,315.28l.25.43,55.35-32,54.57,31.51-54.57,28.65-55.37-29.08-.23.45.25.43-.25-.43-.23.44,55.6,29.2a.49.49,0,0,0,.47,0l55.6-29.2a.49.49,0,0,0,.27-.43.53.53,0,0,0-.25-.45L566,282.74a.5.5,0,0,0-.5,0l-55.6,32.1a.53.53,0,0,0-.25.45.49.49,0,0,0,.27.43Z" />
  <path
    d="M565.76,411.59l.25-.44L510.66,379.2V316.1l54.6,28.68v66.81h.5l.25-.44-.25.44h.5V344.48A.51.51,0,0,0,566,344l-55.61-29.2a.5.5,0,0,0-.49,0,.5.5,0,0,0-.24.43v64.2a.52.52,0,0,0,.25.44l55.6,32.1a.5.5,0,0,0,.5,0,.48.48,0,0,0,.25-.43Z" />
  <path
    d="M565.76,344.48l.24.44,54.87-28.82v63.1l-54.61,31.52V344.48h-.5l.24.44-.24-.44h-.5v67.11a.5.5,0,0,0,.25.43.5.5,0,0,0,.5,0l55.61-32.1a.52.52,0,0,0,.25-.44v-64.2a.5.5,0,0,0-.24-.43.5.5,0,0,0-.49,0L565.53,344a.52.52,0,0,0-.27.45Z" />
</svg>