<svg xmlns="http://www.w3.org/2000/svg" xmlns:xlink="http://www.w3.org/1999/xlink" viewBox="0 0 497.29 464.96"><defs><style>.cubes-1,.cubes-10,.cubes-2,.cubes-3,.cubes-4,.cubes-5,.cubes-6{fill:none;}.cubes-1,.cubes-2,.cubes-3,.cubes-4,.cubes-5,.cubes-6{stroke-linecap:square;stroke-linejoin:round;stroke-width:0.98px;}.cubes-1{stroke:url(#Indigo_201);}.cubes-2{stroke:url(#Indigo_201-2);}.cubes-3{stroke:url(#Indigo_201-3);}.cubes-4{stroke:url(#Indigo_201-4);}.cubes-5{stroke:url(#Indigo_201-5);}.cubes-6{stroke:url(#Indigo_201-6);}.cubes-7{fill:url(#New_Gradient_Swatch_57);}.cubes-8{fill:url(#New_Gradient_Swatch_57-2);}.cubes-9{fill:url(#linear-gradient);}.cubes-11{fill:#b5a0ff;}.cubes-12{fill:#683bff;}.cubes-13{fill:#2d00ff;}.cubes-14{fill:#faefff;}.cubes-15{fill:#e9b4ff;}.cubes-16{fill:#d58eff;}.cubes-17{fill:#a2f6ff;}.cubes-18{fill:url(#New_Gradient_Swatch_56);}.cubes-19{fill:url(#New_Gradient_Swatch_56-2);}.cubes-20{fill:url(#linear-gradient-2);}.cubes-21{fill:url(#New_Gradient_Swatch_56-3);}.cubes-22{fill:url(#New_Gradient_Swatch_56-4);}.cubes-23{fill:url(#linear-gradient-3);}.cubes-24{fill:url(#New_Gradient_Swatch_56-5);}.cubes-25{fill:url(#New_Gradient_Swatch_56-6);}.cubes-26{fill:url(#linear-gradient-4);}.cubes-27{fill:url(#New_Gradient_Swatch_56-7);}.cubes-28{fill:url(#New_Gradient_Swatch_56-8);}.cubes-29{fill:url(#New_Gradient_Swatch_56-9);}.cubes-30{fill:url(#New_Gradient_Swatch_56-10);}.cubes-31{fill:url(#New_Gradient_Swatch_56-11);}.cubes-32{fill:url(#New_Gradient_Swatch_56-12);}.cubes-33{fill:url(#linear-gradient-5);}.cubes-34{fill:url(#New_Gradient_Swatch_56-13);}.cubes-35{fill:url(#New_Gradient_Swatch_56-14);}.cubes-36{fill:url(#linear-gradient-6);}.cubes-37{fill:url(#New_Gradient_Swatch_56-15);}.cubes-38{fill:url(#New_Gradient_Swatch_56-16);}.cubes-39{fill:url(#linear-gradient-7);}.cubes-40{fill:url(#New_Gradient_Swatch_56-17);}.cubes-41{fill:url(#New_Gradient_Swatch_56-18);}.cubes-42{fill:url(#linear-gradient-8);}.cubes-43{fill:url(#New_Gradient_Swatch_56-20);}.cubes-44{fill:url(#New_Gradient_Swatch_56-21);}.cubes-45{fill:url(#New_Gradient_Swatch_56-22);}.cubes-46{fill:url(#linear-gradient-9);}.cubes-47{fill:url(#New_Gradient_Swatch_56-23);}.cubes-48{fill:url(#linear-gradient-10);}.cubes-49{fill:url(#New_Gradient_Swatch_56-25);}.cubes-50{fill:url(#New_Gradient_Swatch_56-26);}.cubes-51{fill:url(#linear-gradient-11);}.cubes-52{fill:url(#New_Gradient_Swatch_56-28);}.cubes-53{fill:url(#New_Gradient_Swatch_56-29);}.cubes-54{fill:url(#New_Gradient_Swatch_56-30);}.cubes-55{fill:url(#linear-gradient-12);}.cubes-56{fill:url(#New_Gradient_Swatch_56-31);}.cubes-57{fill:url(#New_Gradient_Swatch_56-32);}.cubes-58{fill:url(#linear-gradient-13);}.cubes-59{fill:url(#New_Gradient_Swatch_56-33);}.cubes-60{fill:url(#New_Gradient_Swatch_56-34);}.cubes-61{fill:url(#New_Gradient_Swatch_56-35);}.cubes-62{fill:url(#New_Gradient_Swatch_56-36);}.cubes-63{fill:url(#linear-gradient-14);}.cubes-64{fill:url(#New_Gradient_Swatch_56-37);}.cubes-65{fill:url(#New_Gradient_Swatch_56-38);}.cubes-66{fill:url(#New_Gradient_Swatch_56-39);}.cubes-67{fill:url(#New_Gradient_Swatch_56-40);}.cubes-68{fill:url(#linear-gradient-15);}.cubes-69{fill:url(#New_Gradient_Swatch_56-41);}.cubes-70{fill:url(#New_Gradient_Swatch_56-42);}.cubes-71{fill:url(#linear-gradient-16);}.cubes-72{fill:url(#New_Gradient_Swatch_56-44);}.cubes-73{fill:url(#New_Gradient_Swatch_56-45);}.cubes-74{fill:url(#linear-gradient-17);}.cubes-75{fill:url(#New_Gradient_Swatch_56-47);}.cubes-76{fill:url(#New_Gradient_Swatch_56-48);}.cubes-77{fill:url(#linear-gradient-18);}.cubes-78{fill:url(#New_Gradient_Swatch_56-50);}.cubes-79{fill:url(#New_Gradient_Swatch_56-51);}.cubes-80{fill:url(#New_Gradient_Swatch_56-52);}.cubes-81{fill:url(#linear-gradient-19);}.cubes-82{fill:url(#New_Gradient_Swatch_56-54);}.cubes-83{fill:url(#New_Gradient_Swatch_56-55);}.cubes-84{fill:url(#New_Gradient_Swatch_56-56);}.cubes-85{fill:url(#New_Gradient_Swatch_56-57);}.cubes-86{fill:url(#linear-gradient-20);}.cubes-87{fill:url(#New_Gradient_Swatch_56-59);}.cubes-88{fill:url(#New_Gradient_Swatch_56-60);}.cubes-89{fill:url(#linear-gradient-21);}.cubes-90{fill:url(#New_Gradient_Swatch_56-61);}.cubes-91{fill:url(#linear-gradient-22);}.cubes-92{fill:url(#New_Gradient_Swatch_56-63);}.cubes-93{fill:url(#New_Gradient_Swatch_56-64);}.cubes-94{fill:url(#linear-gradient-23);}.cubes-95{fill:url(#New_Gradient_Swatch_56-66);}.cubes-96{fill:url(#linear-gradient-24);}.cubes-97{fill:url(#New_Gradient_Swatch_56-68);}.cubes-98{fill:url(#New_Gradient_Swatch_56-69);}.cubes-99{fill:url(#linear-gradient-25);}.cubes-100{fill:url(#New_Gradient_Swatch_56-70);}.cubes-101{fill:url(#New_Gradient_Swatch_56-71);}.cubes-102{fill:url(#linear-gradient-26);}</style><linearGradient id="Indigo_201" x1="288.71" y1="62.42" x2="330.75" y2="62.42" gradientUnits="userSpaceOnUse"><stop offset="0" stop-color="#a2f6ff"/><stop offset="0.5" stop-color="#b5a0ff"/><stop offset="1" stop-color="#b5a0ff"/></linearGradient><linearGradient id="Indigo_201-2" x1="290.89" y1="12.39" x2="373.74" y2="12.39" xlink:href="#Indigo_201"/><linearGradient id="Indigo_201-3" x1="333.88" y1="62.42" x2="375.66" y2="62.42" xlink:href="#Indigo_201"/><linearGradient id="Indigo_201-4" x1="300.41" y1="39.5" x2="330.02" y2="39.5" xlink:href="#Indigo_201"/><linearGradient id="Indigo_201-5" x1="336.01" y1="39.5" x2="365.62" y2="39.5" xlink:href="#Indigo_201"/><linearGradient id="Indigo_201-6" x1="332.52" y1="68.77" x2="333.5" y2="68.77" xlink:href="#Indigo_201"/><linearGradient id="New_Gradient_Swatch_57" x1="313.15" y1="332.83" x2="497.29" y2="332.83" gradientUnits="userSpaceOnUse"><stop offset="0" stop-color="#2d00ff"/><stop offset="0.43" stop-color="#2d00ff"/><stop offset="0.43" stop-color="#3002ff"/><stop offset="0.45" stop-color="#6031ff"/><stop offset="0.46" stop-color="#8a59ff"/><stop offset="0.48" stop-color="#ad7aff"/><stop offset="0.5" stop-color="#c794ff"/><stop offset="0.51" stop-color="#daa6ff"/><stop offset="0.53" stop-color="#e5b0ff"/><stop offset="0.55" stop-color="#e9b4ff"/><stop offset="0.61" stop-color="#e2a6ff"/><stop offset="0.69" stop-color="#da98ff"/><stop offset="0.8" stop-color="#d690ff"/><stop offset="1" stop-color="#d58eff"/></linearGradient><linearGradient id="New_Gradient_Swatch_57-2" x1="313.15" y1="253.09" x2="497.29" y2="253.09" xlink:href="#New_Gradient_Swatch_57"/><linearGradient id="linear-gradient" x1="431.97" y1="295.64" x2="359.66" y2="180.63" gradientUnits="userSpaceOnUse"><stop offset="0" stop-color="#a2f6ff"/><stop offset="0.5" stop-color="#b5a0ff"/><stop offset="0.57" stop-color="#b5a0ff"/><stop offset="0.98" stop-color="#b5a0ff"/></linearGradient><linearGradient id="New_Gradient_Swatch_56" x1="-229.68" y1="240.23" x2="-179.96" y2="240.23" gradientTransform="matrix(1.09, 0, 0, 1.09, 472.77, 161.09)" gradientUnits="userSpaceOnUse"><stop offset="0" stop-color="#e9b4ff"/><stop offset="0.43" stop-color="#e9b4ff"/><stop offset="0.45" stop-color="#c693ff"/><stop offset="0.47" stop-color="#a474ff"/><stop offset="0.49" stop-color="#8a5bff"/><stop offset="0.51" stop-color="#7749ff"/><stop offset="0.53" stop-color="#6c3eff"/><stop offset="0.55" stop-color="#683bff"/><stop offset="0.56" stop-color="#6a43ff"/><stop offset="0.59" stop-color="#776dff"/><stop offset="0.63" stop-color="#8392ff"/><stop offset="0.67" stop-color="#8db1ff"/><stop offset="0.71" stop-color="#94caff"/><stop offset="0.76" stop-color="#9adeff"/><stop offset="0.81" stop-color="#9fecff"/><stop offset="0.88" stop-color="#a1f4ff"/><stop offset="1" stop-color="#a2f6ff"/></linearGradient><linearGradient id="New_Gradient_Swatch_56-2" x1="-229.68" y1="223.91" x2="-179.96" y2="223.91" xlink:href="#New_Gradient_Swatch_56"/><linearGradient id="linear-gradient-2" x1="-193.32" y1="227.49" x2="-212.84" y2="196.44" gradientTransform="matrix(1.09, 0, 0, 1.09, 472.77, 161.09)" gradientUnits="userSpaceOnUse"><stop offset="0" stop-color="#2d00ff"/><stop offset="0.5" stop-color="#b5a0ff"/><stop offset="0.57" stop-color="#b5a0ff"/><stop offset="0.98" stop-color="#b5a0ff"/></linearGradient><linearGradient id="New_Gradient_Swatch_56-3" x1="-289.67" y1="240.23" x2="-239.95" y2="240.23" xlink:href="#New_Gradient_Swatch_56"/><linearGradient id="New_Gradient_Swatch_56-4" x1="-289.67" y1="223.91" x2="-239.95" y2="223.91" xlink:href="#New_Gradient_Swatch_56"/><linearGradient id="linear-gradient-3" x1="-265.33" y1="235.05" x2="-284.86" y2="204" xlink:href="#linear-gradient-2"/><linearGradient id="New_Gradient_Swatch_56-5" x1="-259.43" y1="176.85" x2="-209.71" y2="176.85" xlink:href="#New_Gradient_Swatch_56"/><linearGradient id="New_Gradient_Swatch_56-6" x1="-259.43" y1="164.82" x2="-209.71" y2="164.82" xlink:href="#New_Gradient_Swatch_56"/><linearGradient id="linear-gradient-4" x1="-227.35" y1="176.31" x2="-246.87" y2="145.26" xlink:href="#linear-gradient-2"/><linearGradient id="New_Gradient_Swatch_56-7" x1="-259.43" y1="262.55" x2="-209.71" y2="262.55" xlink:href="#New_Gradient_Swatch_56"/><linearGradient id="New_Gradient_Swatch_56-8" x1="-229.68" y1="247.16" x2="-179.96" y2="247.16" xlink:href="#New_Gradient_Swatch_56"/><linearGradient id="New_Gradient_Swatch_56-9" x1="-259.43" y1="247.16" x2="-209.71" y2="247.16" xlink:href="#New_Gradient_Swatch_56"/><linearGradient id="New_Gradient_Swatch_56-10" x1="-289.67" y1="247.02" x2="-239.95" y2="247.02" xlink:href="#New_Gradient_Swatch_56"/><linearGradient id="New_Gradient_Swatch_56-11" x1="-259.43" y1="247.02" x2="-209.71" y2="247.02" xlink:href="#New_Gradient_Swatch_56"/><linearGradient id="New_Gradient_Swatch_56-12" x1="-259.43" y1="244.9" x2="-209.71" y2="244.9" xlink:href="#New_Gradient_Swatch_56"/><linearGradient id="linear-gradient-5" x1="-231.17" y1="249.29" x2="-250.7" y2="218.24" xlink:href="#linear-gradient-2"/><linearGradient id="New_Gradient_Swatch_56-13" x1="-229.68" y1="239.52" x2="-179.96" y2="239.52" xlink:href="#New_Gradient_Swatch_56"/><linearGradient id="New_Gradient_Swatch_56-14" x1="-259.43" y1="239.52" x2="-209.71" y2="239.52" xlink:href="#New_Gradient_Swatch_56"/><linearGradient id="linear-gradient-6" x1="-219.28" y1="241.81" x2="-238.81" y2="210.76" xlink:href="#linear-gradient-2"/><linearGradient id="New_Gradient_Swatch_56-15" x1="-289.67" y1="239.37" x2="-239.95" y2="239.37" xlink:href="#New_Gradient_Swatch_56"/><linearGradient id="New_Gradient_Swatch_56-16" x1="-259.43" y1="239.37" x2="-209.71" y2="239.37" xlink:href="#New_Gradient_Swatch_56"/><linearGradient id="linear-gradient-7" x1="-239.23" y1="254.36" x2="-258.76" y2="223.31" xlink:href="#linear-gradient-2"/><linearGradient id="New_Gradient_Swatch_56-17" x1="-289.67" y1="198.46" x2="-239.95" y2="198.46" xlink:href="#New_Gradient_Swatch_56"/><linearGradient id="New_Gradient_Swatch_56-18" x1="-289.67" y1="214.78" x2="-239.95" y2="214.78" xlink:href="#New_Gradient_Swatch_56"/><linearGradient id="linear-gradient-8" x1="-258.72" y1="230.89" x2="-278.24" y2="199.84" xlink:href="#linear-gradient-2"/><linearGradient id="New_Gradient_Swatch_56-20" x1="-259.43" y1="189.48" x2="-209.71" y2="189.48" xlink:href="#New_Gradient_Swatch_56"/><linearGradient id="New_Gradient_Swatch_56-21" x1="-289.67" y1="189.48" x2="-239.95" y2="189.48" xlink:href="#New_Gradient_Swatch_56"/><linearGradient id="New_Gradient_Swatch_56-22" x1="-289.67" y1="182.15" x2="-239.95" y2="182.15" xlink:href="#New_Gradient_Swatch_56"/><linearGradient id="linear-gradient-9" x1="-262.04" y1="196.43" x2="-281.56" y2="165.38" xlink:href="#linear-gradient-2"/><linearGradient id="New_Gradient_Swatch_56-23" x1="-259.43" y1="182.15" x2="-209.71" y2="182.15" xlink:href="#New_Gradient_Swatch_56"/><linearGradient id="linear-gradient-10" x1="-249.29" y1="188.42" x2="-268.81" y2="157.36" xlink:href="#linear-gradient-2"/><linearGradient id="New_Gradient_Swatch_56-25" x1="-229.68" y1="198.46" x2="-179.96" y2="198.46" xlink:href="#New_Gradient_Swatch_56"/><linearGradient id="New_Gradient_Swatch_56-26" x1="-229.68" y1="214.78" x2="-179.96" y2="214.78" xlink:href="#New_Gradient_Swatch_56"/><linearGradient id="linear-gradient-11" x1="-192.82" y1="227.18" x2="-212.35" y2="196.13" xlink:href="#linear-gradient-2"/><linearGradient id="New_Gradient_Swatch_56-28" x1="-259.43" y1="189.48" x2="-209.71" y2="189.48" xlink:href="#New_Gradient_Swatch_56"/><linearGradient id="New_Gradient_Swatch_56-29" x1="-229.68" y1="189.48" x2="-179.96" y2="189.48" xlink:href="#New_Gradient_Swatch_56"/><linearGradient id="New_Gradient_Swatch_56-30" x1="-229.68" y1="182.15" x2="-179.96" y2="182.15" xlink:href="#New_Gradient_Swatch_56"/><linearGradient id="linear-gradient-12" x1="-193.07" y1="190.79" x2="-212.6" y2="159.74" xlink:href="#linear-gradient-2"/><linearGradient id="New_Gradient_Swatch_56-31" x1="-259.43" y1="182.11" x2="-209.71" y2="182.11" xlink:href="#New_Gradient_Swatch_56"/><linearGradient id="New_Gradient_Swatch_56-32" x1="-229.68" y1="182.11" x2="-179.96" y2="182.11" xlink:href="#New_Gradient_Swatch_56"/><linearGradient id="linear-gradient-13" x1="-205.66" y1="198.71" x2="-225.18" y2="167.65" xlink:href="#linear-gradient-2"/><linearGradient id="New_Gradient_Swatch_56-33" x1="-259.43" y1="217.63" x2="-209.71" y2="217.63" xlink:href="#New_Gradient_Swatch_56"/><linearGradient id="New_Gradient_Swatch_56-34" x1="-229.68" y1="225.4" x2="-179.96" y2="225.4" xlink:href="#New_Gradient_Swatch_56"/><linearGradient id="New_Gradient_Swatch_56-35" x1="-259.43" y1="225.4" x2="-209.71" y2="225.4" xlink:href="#New_Gradient_Swatch_56"/><linearGradient id="New_Gradient_Swatch_56-36" x1="-229.68" y1="222.15" x2="-179.96" y2="222.15" xlink:href="#New_Gradient_Swatch_56"/><linearGradient id="linear-gradient-14" x1="-209.09" y1="237.41" x2="-228.61" y2="206.36" xlink:href="#linear-gradient-2"/><linearGradient id="New_Gradient_Swatch_56-37" x1="-259.43" y1="222.15" x2="-209.71" y2="222.15" xlink:href="#New_Gradient_Swatch_56"/><linearGradient id="New_Gradient_Swatch_56-38" x1="-289.67" y1="225.4" x2="-239.95" y2="225.4" xlink:href="#New_Gradient_Swatch_56"/><linearGradient id="New_Gradient_Swatch_56-39" x1="-259.43" y1="225.4" x2="-209.71" y2="225.4" xlink:href="#New_Gradient_Swatch_56"/><linearGradient id="New_Gradient_Swatch_56-40" x1="-289.67" y1="222.08" x2="-239.95" y2="222.08" xlink:href="#New_Gradient_Swatch_56"/><linearGradient id="linear-gradient-15" x1="-249.03" y1="224.8" x2="-268.56" y2="193.75" xlink:href="#linear-gradient-2"/><linearGradient id="New_Gradient_Swatch_56-41" x1="-259.43" y1="222.08" x2="-209.71" y2="222.08" xlink:href="#New_Gradient_Swatch_56"/><linearGradient id="New_Gradient_Swatch_56-42" x1="-259.43" y1="232.1" x2="-209.71" y2="232.1" xlink:href="#New_Gradient_Swatch_56"/><linearGradient id="linear-gradient-16" x1="-225.98" y1="246.02" x2="-245.5" y2="214.97" xlink:href="#linear-gradient-2"/><linearGradient id="New_Gradient_Swatch_56-44" x1="-229.68" y1="232.11" x2="-179.96" y2="232.11" xlink:href="#New_Gradient_Swatch_56"/><linearGradient id="New_Gradient_Swatch_56-45" x1="-259.43" y1="232.11" x2="-209.71" y2="232.11" xlink:href="#New_Gradient_Swatch_56"/><linearGradient id="linear-gradient-17" x1="-219.1" y1="241.7" x2="-238.63" y2="210.65" xlink:href="#linear-gradient-2"/><linearGradient id="New_Gradient_Swatch_56-47" x1="-289.67" y1="232.1" x2="-239.95" y2="232.1" xlink:href="#New_Gradient_Swatch_56"/><linearGradient id="New_Gradient_Swatch_56-48" x1="-259.43" y1="232.1" x2="-209.71" y2="232.1" xlink:href="#New_Gradient_Swatch_56"/><linearGradient id="linear-gradient-18" x1="-232.87" y1="250.35" x2="-252.39" y2="219.3" xlink:href="#linear-gradient-2"/><linearGradient id="New_Gradient_Swatch_56-50" x1="-289.67" y1="207.44" x2="-239.95" y2="207.44" xlink:href="#New_Gradient_Swatch_56"/><linearGradient id="New_Gradient_Swatch_56-51" x1="-259.43" y1="207.44" x2="-209.71" y2="207.44" xlink:href="#New_Gradient_Swatch_56"/><linearGradient id="New_Gradient_Swatch_56-52" x1="-289.67" y1="214.78" x2="-239.95" y2="214.78" xlink:href="#New_Gradient_Swatch_56"/><linearGradient id="linear-gradient-19" x1="-249.07" y1="224.83" x2="-268.59" y2="193.77" xlink:href="#linear-gradient-2"/><linearGradient id="New_Gradient_Swatch_56-54" x1="-259.43" y1="214.78" x2="-209.71" y2="214.78" xlink:href="#New_Gradient_Swatch_56"/><linearGradient id="New_Gradient_Swatch_56-55" x1="-229.68" y1="207.44" x2="-179.96" y2="207.44" xlink:href="#New_Gradient_Swatch_56"/><linearGradient id="New_Gradient_Swatch_56-56" x1="-259.43" y1="207.44" x2="-209.71" y2="207.44" xlink:href="#New_Gradient_Swatch_56"/><linearGradient id="New_Gradient_Swatch_56-57" x1="-229.68" y1="214.78" x2="-179.96" y2="214.78" xlink:href="#New_Gradient_Swatch_56"/><linearGradient id="linear-gradient-20" x1="-202.34" y1="233.17" x2="-221.87" y2="202.12" xlink:href="#linear-gradient-2"/><linearGradient id="New_Gradient_Swatch_56-59" x1="-259.43" y1="214.78" x2="-209.71" y2="214.78" xlink:href="#New_Gradient_Swatch_56"/><linearGradient id="New_Gradient_Swatch_56-60" x1="-259.43" y1="209.62" x2="-209.71" y2="209.62" xlink:href="#New_Gradient_Swatch_56"/><linearGradient id="linear-gradient-21" x1="-231.27" y1="214.06" x2="-250.79" y2="183.01" xlink:href="#linear-gradient-2"/><linearGradient id="New_Gradient_Swatch_56-61" x1="-259.43" y1="196.82" x2="-209.71" y2="196.82" xlink:href="#New_Gradient_Swatch_56"/><linearGradient id="linear-gradient-22" x1="-225.98" y1="210.74" x2="-245.5" y2="179.68" xlink:href="#linear-gradient-2"/><linearGradient id="New_Gradient_Swatch_56-63" x1="-289.67" y1="203.96" x2="-239.95" y2="203.96" xlink:href="#New_Gradient_Swatch_56"/><linearGradient id="New_Gradient_Swatch_56-64" x1="-259.43" y1="203.96" x2="-209.71" y2="203.96" xlink:href="#New_Gradient_Swatch_56"/><linearGradient id="linear-gradient-23" x1="-239.23" y1="219.07" x2="-258.76" y2="188.02" xlink:href="#linear-gradient-2"/><linearGradient id="New_Gradient_Swatch_56-66" x1="-289.67" y1="196.82" x2="-239.95" y2="196.82" xlink:href="#New_Gradient_Swatch_56"/><linearGradient id="linear-gradient-24" x1="-232.87" y1="215.07" x2="-252.39" y2="184.02" xlink:href="#linear-gradient-2"/><linearGradient id="New_Gradient_Swatch_56-68" x1="-229.68" y1="204.03" x2="-179.96" y2="204.03" xlink:href="#New_Gradient_Swatch_56"/><linearGradient id="New_Gradient_Swatch_56-69" x1="-259.43" y1="204.03" x2="-209.71" y2="204.03" xlink:href="#New_Gradient_Swatch_56"/><linearGradient id="linear-gradient-25" x1="-219.11" y1="206.42" x2="-238.63" y2="175.36" xlink:href="#linear-gradient-2"/><linearGradient id="New_Gradient_Swatch_56-70" x1="-259.43" y1="196.82" x2="-209.71" y2="196.82" xlink:href="#New_Gradient_Swatch_56"/><linearGradient id="New_Gradient_Swatch_56-71" x1="-229.68" y1="196.82" x2="-179.96" y2="196.82" xlink:href="#New_Gradient_Swatch_56"/><linearGradient id="linear-gradient-26" x1="-219.1" y1="206.41" x2="-238.63" y2="175.36" xlink:href="#linear-gradient-2"/></defs><g id="Layer_2" data-name="Layer 2"><g id="Layer_3" data-name="Layer 3"><polyline class="cubes-1" points="289.2 28.23 289.2 73.58 330.08 96.42"/><polyline class="cubes-2" points="373.07 24.12 332.18 0.49 291.56 24.12"/><polyline class="cubes-3" points="334.55 96.42 375.17 73.58 375.17 28.23"/><line class="cubes-4" x1="329.36" y1="46.55" x2="301.07" y2="32.44"/><line class="cubes-5" x1="336.67" y1="46.55" x2="364.96" y2="32.44"/><line class="cubes-6" x1="333.01" y1="84.91" x2="333.01" y2="52.63"/><polygon class="cubes-7" points="405.22 306.25 313.15 253.09 313.15 359.4 405.22 412.56 497.29 359.4 497.29 253.09 405.22 306.25"/><polygon class="cubes-8" points="497.29 253.09 405.22 199.94 313.15 253.09 405.22 306.25 497.29 253.09"/><polygon class="cubes-9" points="497.29 253.09 405.22 199.94 313.15 253.09 405.22 306.25 497.29 253.09"/><polygon class="cubes-10" points="47.82 307.42 48.52 307.83 48.52 307.02 47.82 307.42"/><polygon class="cubes-10" points="23.93 293.79 24.26 293.98 24.26 293.6 23.93 293.79"/><rect class="cubes-10" x="59.64" y="351.27" height="9.79" transform="matrix(0.46, -0.89, 0.89, 0.46, -283.42, 243.38)"/><polygon class="cubes-10" points="72.23 266.23 71 266.94 72.23 267.66 72.23 266.23"/><polygon class="cubes-10" points="55.3 320.63 55.4 320.57 55.3 320.52 55.3 320.63"/><polygon class="cubes-10" points="55.16 293.49 55.16 294.92 56.4 294.2 55.16 293.49"/><polygon class="cubes-10" points="72.51 294.76 72.51 293.33 71.27 294.05 72.51 294.76"/><polygon class="cubes-10" points="55.3 346.3 55.3 346.41 55.4 346.36 55.3 346.3"/><polygon class="cubes-10" points="47.01 280.63 48.25 281.35 48.25 279.92 47.01 280.63"/><polygon class="cubes-10" points="80.39 280.52 79.15 279.8 79.15 281.23 80.39 280.52"/><polygon class="cubes-10" points="96.49 279.64 95.25 280.36 96.49 281.08 96.49 279.64"/><polygon class="cubes-10" points="31.31 307.26 31.31 307.75 31.74 307.5 31.31 307.26"/><polygon class="cubes-10" points="48.52 333.61 48.52 333.5 48.42 333.56 48.52 333.61"/><polygon class="cubes-10" points="32.15 280.79 30.91 280.07 30.91 281.5 32.15 280.79"/><polygon class="cubes-10" points="56.13 267.1 54.89 266.38 54.89 267.81 56.13 267.1"/><polygon class="cubes-11" points="24.4 327.47 24.4 319.89 15.86 324.82 7.29 319.87 0.41 323.84 15.86 331.96 24.4 327.47"/><polygon class="cubes-12" points="0.41 323.84 0.41 341.69 15.86 350.61 15.86 331.96 0.41 323.84"/><polygon class="cubes-13" points="31.28 333.56 24.4 329.59 24.4 327.47 15.86 331.96 15.86 350.61 24.4 345.68 24.4 337.53 31.28 333.56"/><polygon class="cubes-11" points="48.42 333.56 39.85 338.51 31.28 333.56 24.4 337.53 39.85 345.64 48.52 341.09 48.52 333.61 48.42 333.56"/><polygon class="cubes-12" points="24.4 337.53 24.4 345.68 24.4 355.37 39.85 364.3 39.85 345.64 24.4 337.53"/><polygon class="cubes-13" points="55.3 353.89 55.3 353.89 48.52 350.33 55.3 346.41 55.3 346.3 48.52 342.39 48.52 341.09 39.85 345.64 39.85 364.3 48.52 359.29 48.52 350.33 55.3 353.89"/><polygon class="cubes-11" points="24.26 301.76 24.26 293.98 23.93 293.79 15.45 298.69 7.38 294.03 0.41 298.06 15.86 306.17 24.26 301.76"/><polygon class="cubes-12" points="15.86 306.17 0.41 298.06 0.41 315.9 7.29 319.87 15.86 324.82 15.86 306.17"/><polygon class="cubes-13" points="24.4 311.75 31.31 307.75 31.31 307.26 24.26 303.18 24.26 301.76 15.86 306.17 15.86 324.82 24.4 319.89 24.4 311.75"/><polygon class="cubes-11" points="48.52 307.83 47.82 307.42 39.71 312.11 31.74 307.5 31.31 307.75 24.4 311.75 39.85 319.86 48.52 315.31 48.52 307.83"/><polygon class="cubes-12" points="39.85 338.51 39.85 319.86 24.4 311.75 24.4 319.89 24.4 327.47 24.4 329.59 31.28 333.56 39.85 338.51"/><polygon class="cubes-13" points="55.3 320.52 48.52 316.6 48.52 315.31 39.85 319.86 39.85 338.51 48.42 333.56 48.52 333.5 48.52 324.54 55.3 320.63 55.3 320.52"/><polygon class="cubes-14" points="78.88 244.55 63.43 235.63 47.98 244.55 63.43 252.66 78.88 244.55"/><polygon class="cubes-15" points="63.43 262.89 63.7 262.73 71 266.94 72.23 266.23 72.23 257.96 78.88 254.13 78.88 244.55 63.43 252.66 63.43 262.89"/><polygon class="cubes-12" points="54.89 266.38 56.13 267.1 63.43 262.89 63.43 252.66 47.98 244.55 47.98 254.24 54.89 258.24 54.89 266.38"/><polygon class="cubes-14" points="54.89 258.24 47.98 254.24 39.44 249.31 23.99 258.24 39.44 266.35 54.89 258.24"/><polygon class="cubes-15" points="47.01 280.63 48.25 279.92 48.25 271.65 54.89 267.81 54.89 266.38 54.89 258.24 39.44 266.35 39.44 276.58 39.71 276.42 47.01 280.63"/><polygon class="cubes-12" points="30.91 280.07 32.15 280.79 39.44 276.58 39.44 266.35 23.99 258.24 23.99 267.93 30.91 271.92 30.91 280.07"/><polygon class="cubes-14" points="30.91 271.92 23.99 267.93 15.45 263 0 271.92 15.45 280.04 30.91 271.92"/><polygon class="cubes-15" points="24.26 285.58 15.45 280.04 15.45 298.69 23.93 293.79 24.26 293.6 24.26 285.58"/><polygon class="cubes-12" points="15.45 280.04 0 271.92 0 289.77 7.38 294.03 15.45 298.69 15.45 280.04"/><polygon class="cubes-16" points="24.26 285.34 30.91 281.5 30.91 280.07 30.91 271.92 15.45 280.04 24.26 285.58 24.26 285.34"/><polygon class="cubes-14" points="103.41 319 103.41 326.58 111.95 331.07 127.4 322.95 120.52 318.98 111.95 323.93 103.41 319"/><polygon class="cubes-17" points="111.95 349.72 127.4 340.8 127.4 322.95 111.95 331.07 111.95 349.72"/><polygon class="cubes-13" points="103.41 326.58 103.41 328.7 96.53 332.67 103.41 336.64 103.41 344.79 111.95 349.72 111.95 331.07 103.41 326.58"/><polygon class="cubes-14" points="87.96 337.62 79.42 332.69 79.42 340.27 87.96 344.75 103.41 336.64 96.53 332.67 87.96 337.62"/><polygon class="cubes-17" points="87.96 344.75 87.96 363.41 103.41 354.48 103.41 344.79 103.41 336.64 87.96 344.75"/><polygon class="cubes-13" points="79.42 340.27 79.42 342.39 72.55 346.36 79.42 350.33 79.42 350.33 79.42 358.48 87.96 363.41 87.96 344.75 79.42 340.27"/><polygon class="cubes-14" points="63.97 351.31 63.97 358.44 79.42 350.33 72.55 346.36 63.97 351.31"/><polygon class="cubes-11" points="63.97 351.31 55.4 346.36 55.3 346.41 48.52 350.33 55.3 353.89 63.97 358.44 63.97 358.44 63.97 351.31 63.97 351.31"/><polygon class="cubes-17" points="79.42 350.33 63.97 358.44 63.97 358.44 63.97 358.44 63.97 377.09 79.42 368.17 79.42 358.48 79.42 350.33 79.42 350.33"/><polygon class="cubes-12" points="55.3 353.89 48.52 350.33 48.52 359.29 48.52 368.17 63.97 377.09 63.97 358.44 55.3 353.89"/><polygon class="cubes-14" points="87.69 266.08 103.14 257.96 87.69 249.04 78.88 254.13 72.23 257.96 87.69 266.08"/><polygon class="cubes-15" points="87.69 276.31 87.96 276.15 95.25 280.36 96.49 279.64 96.49 271.38 103.14 267.54 103.14 257.96 87.69 266.08 87.69 276.31"/><polygon class="cubes-12" points="79.15 271.65 79.15 279.8 80.39 280.52 87.69 276.31 87.69 266.08 72.23 257.96 72.23 266.23 72.23 267.66 79.15 271.65"/><polygon class="cubes-14" points="48.25 271.65 63.7 279.77 79.15 271.65 72.23 267.66 71 266.94 63.7 262.73 63.43 262.89 56.13 267.1 54.89 267.81 48.25 271.65"/><polygon class="cubes-15" points="63.97 289.84 71.27 294.05 72.51 293.33 72.51 285.07 79.15 281.23 79.15 279.8 79.15 271.65 63.7 279.77 63.7 289.99 63.97 289.84"/><polygon class="cubes-12" points="56.4 294.2 63.7 289.99 63.7 279.77 48.25 271.65 48.25 279.92 48.25 281.35 55.16 285.34 55.16 293.49 56.4 294.2"/><polygon class="cubes-14" points="24.26 285.34 39.71 293.45 55.16 285.34 48.25 281.35 47.01 280.63 39.71 276.42 39.44 276.58 32.15 280.79 30.91 281.5 24.26 285.34"/><polygon class="cubes-15" points="48.52 307.02 48.52 299 39.71 293.45 39.71 312.11 47.82 307.42 48.52 307.02"/><polygon class="cubes-12" points="31.31 307.26 31.74 307.5 39.71 312.11 39.71 293.45 24.26 285.34 24.26 285.58 24.26 293.6 24.26 293.98 24.26 301.76 24.26 303.18 31.31 307.26"/><polygon class="cubes-16" points="48.52 298.76 55.16 294.92 55.16 293.49 55.16 285.34 39.71 293.45 48.52 299 48.52 298.76"/><polygon class="cubes-14" points="103.41 293.22 103.41 300.8 111.95 305.28 127.4 297.17 120.52 293.2 111.95 298.15 103.41 293.22"/><polygon class="cubes-17" points="111.95 323.93 120.52 318.98 127.4 315.01 127.4 297.17 111.95 305.28 111.95 323.93"/><polygon class="cubes-13" points="96.53 306.88 103.41 310.86 103.41 319 111.95 323.93 111.95 305.28 103.41 300.8 103.41 302.91 96.53 306.88"/><polygon class="cubes-14" points="79.42 314.49 87.96 318.97 103.41 310.86 96.53 306.88 87.96 311.83 79.42 306.91 79.42 314.49"/><polygon class="cubes-17" points="103.41 310.86 87.96 318.97 87.96 337.62 96.53 332.67 103.41 328.7 103.41 326.58 103.41 319 103.41 310.86"/><polygon class="cubes-13" points="79.42 316.6 72.55 320.57 79.42 324.54 79.42 332.69 87.96 337.62 87.96 318.97 79.42 314.49 79.42 316.6"/><polygon class="cubes-14" points="63.97 325.52 63.97 325.52 63.97 332.66 79.42 324.54 72.55 320.57 63.97 325.52"/><polygon class="cubes-17" points="79.42 324.54 63.97 332.66 63.97 351.31 63.97 351.31 72.55 346.36 79.42 342.39 79.42 340.27 79.42 332.69 79.42 324.54"/><polygon class="cubes-12" points="63.97 351.31 63.97 332.66 48.52 324.54 48.52 333.5 48.52 333.61 48.52 341.09 48.52 342.39 55.3 346.3 55.4 346.36 63.97 351.31"/><polygon class="cubes-11" points="55.4 320.57 55.3 320.63 48.52 324.54 63.97 332.66 63.97 325.52 55.4 320.57"/><polygon class="cubes-14" points="111.95 279.5 127.4 271.38 111.95 262.46 103.14 267.54 96.49 271.38 111.95 279.5"/><polygon class="cubes-17" points="127.4 271.38 111.95 279.5 111.95 298.15 120.52 293.2 127.4 289.23 127.4 271.38"/><polygon class="cubes-13" points="96.49 271.38 96.49 279.64 96.49 281.08 103.41 285.07 103.41 293.22 111.95 298.15 111.95 279.5 96.49 271.38"/><polygon class="cubes-14" points="79.15 281.23 72.51 285.07 87.96 293.18 103.41 285.07 96.49 281.08 95.25 280.36 87.96 276.15 87.69 276.31 80.39 280.52 79.15 281.23"/><polygon class="cubes-17" points="103.41 285.07 87.96 293.18 87.96 311.83 96.53 306.88 103.41 302.91 103.41 300.8 103.41 293.22 103.41 285.07"/><polygon class="cubes-13" points="72.51 285.07 72.51 293.33 72.51 294.76 79.42 298.76 79.42 306.91 87.96 311.83 87.96 293.18 72.51 285.07"/><polygon class="cubes-14" points="63.97 289.84 63.7 289.99 56.4 294.2 55.16 294.92 48.52 298.76 63.97 306.87 79.42 298.76 72.51 294.76 71.27 294.05 63.97 289.84"/><polygon class="cubes-17" points="63.97 306.87 63.97 325.52 72.55 320.57 79.42 316.6 79.42 314.49 79.42 306.91 79.42 298.76 63.97 306.87"/><polygon class="cubes-12" points="63.97 306.87 48.52 298.76 48.52 299 48.52 307.02 48.52 307.83 48.52 315.31 48.52 316.6 55.3 320.52 55.4 320.57 63.97 325.52 63.97 325.52 63.97 306.87"/><polygon class="cubes-18" points="242.59 411.56 237.7 414.38 243.92 417.98 243.92 443.66 249.26 446.74 276.38 431.08 276.38 399.75 249.26 415.42 242.59 411.56"/><polygon class="cubes-19" points="243.92 403.78 243.92 410.79 242.59 411.56 249.26 415.42 276.38 399.75 268.97 395.47 249.26 406.86 243.92 403.78"/><polygon class="cubes-20" points="243.92 403.78 243.92 410.79 242.59 411.56 249.26 415.42 276.38 399.75 268.97 395.47 249.26 406.86 243.92 403.78"/><polygon class="cubes-21" points="195.89 414.39 190.73 411.41 183.79 415.42 156.66 399.76 156.66 431.08 183.79 446.74 189.67 443.35 189.67 417.98 195.89 414.39"/><polygon class="cubes-22" points="190.73 411.41 189.67 410.8 189.67 403.46 183.79 406.86 164.07 395.48 156.66 399.76 183.79 415.42 190.73 411.41"/><polygon class="cubes-23" points="190.73 411.41 189.67 410.8 189.67 403.46 183.79 406.86 164.07 395.48 156.66 399.76 183.79 415.42 190.73 411.41"/><polygon class="cubes-24" points="210.92 367.2 216.8 363.81 222.13 366.89 222.13 359.87 243.92 347.29 243.92 340.96 216.8 356.62 189.67 340.96 189.67 347.6 210.92 359.87 210.92 367.2"/><polygon class="cubes-25" points="243.92 340.96 216.8 325.3 189.67 340.96 216.8 356.62 243.92 340.96"/><polygon class="cubes-26" points="243.92 340.96 216.8 325.3 189.67 340.96 216.8 356.62 243.92 340.96"/><polygon class="cubes-27" points="222.13 430.56 216.8 433.64 210.92 430.25 210.92 431.08 189.67 443.35 189.67 449.3 216.8 464.96 243.92 449.3 243.92 443.66 222.13 431.08 222.13 430.56"/><polygon class="cubes-28" points="222.13 430.56 222.13 431.08 243.92 443.66 243.92 417.98 222.13 430.56"/><polygon class="cubes-29" points="222.13 430.56 222.13 431.08 243.92 443.66 243.92 417.98 222.13 430.56"/><polygon class="cubes-30" points="210.92 430.25 189.67 417.98 189.67 443.35 210.92 431.08 210.92 430.25"/><polygon class="cubes-31" points="210.92 430.25 189.67 417.98 189.67 443.35 210.92 431.08 210.92 430.25"/><polygon class="cubes-32" points="216.8 426.46 210.92 423.06 210.92 430.25 216.8 433.64 222.13 430.56 222.13 423.38 216.8 426.46"/><polygon class="cubes-33" points="216.8 426.46 210.92 423.06 210.92 430.25 216.8 433.64 222.13 430.56 222.13 423.38 216.8 426.46"/><polygon class="cubes-34" points="222.13 430.56 243.92 417.98 237.7 414.38 222.13 423.38 222.13 430.56"/><polygon class="cubes-35" points="222.13 430.56 243.92 417.98 237.7 414.38 222.13 423.38 222.13 430.56"/><polygon class="cubes-36" points="222.13 430.56 243.92 417.98 237.7 414.38 222.13 423.38 222.13 430.56"/><polygon class="cubes-37" points="195.89 414.39 189.67 417.98 210.92 430.25 210.92 423.06 195.89 414.39"/><polygon class="cubes-38" points="195.89 414.39 189.67 417.98 210.92 430.25 210.92 423.06 195.89 414.39"/><polygon class="cubes-39" points="195.89 414.39 189.67 417.98 210.92 430.25 210.92 423.06 195.89 414.39"/><polygon class="cubes-40" points="189.67 387.49 189.67 379.47 195.89 375.88 189.67 372.29 189.67 372.14 183.79 375.54 156.66 359.87 156.66 391.2 164.07 395.48 183.79 384.09 189.67 387.49"/><polygon class="cubes-41" points="189.67 403.46 189.67 387.49 183.79 384.09 164.07 395.48 183.79 406.86 189.67 403.46"/><polygon class="cubes-42" points="189.67 403.46 189.67 387.49 183.79 384.09 164.07 395.48 183.79 406.86 189.67 403.46"/><polygon class="cubes-41" points="189.67 403.46 189.67 387.49 183.79 384.09 164.07 395.48 183.79 406.86 189.67 403.46"/><polygon class="cubes-43" points="210.92 359.87 189.67 372.14 189.67 372.29 195.89 375.88 210.92 367.2 210.92 359.87"/><polygon class="cubes-44" points="210.92 359.87 189.67 372.14 189.67 372.29 195.89 375.88 210.92 367.2 210.92 359.87"/><polygon class="cubes-45" points="189.67 372.14 189.67 347.6 183.79 344.21 156.66 359.87 183.79 375.54 189.67 372.14"/><polygon class="cubes-46" points="189.67 372.14 189.67 347.6 183.79 344.21 156.66 359.87 183.79 375.54 189.67 372.14"/><polygon class="cubes-47" points="210.92 359.87 189.67 347.6 189.67 372.14 210.92 359.87"/><polygon class="cubes-45" points="210.92 359.87 189.67 347.6 189.67 372.14 210.92 359.87"/><polygon class="cubes-48" points="210.92 359.87 189.67 347.6 189.67 372.14 210.92 359.87"/><polygon class="cubes-49" points="276.38 359.87 249.26 375.53 243.78 372.37 237.7 375.88 243.92 379.47 243.92 387.17 249.26 384.09 268.97 395.47 276.38 391.19 276.38 359.87"/><polygon class="cubes-50" points="243.92 387.17 243.92 403.78 249.26 406.86 268.97 395.47 249.26 384.09 243.92 387.17"/><polygon class="cubes-51" points="243.92 387.17 243.92 403.78 249.26 406.86 268.97 395.47 249.26 384.09 243.92 387.17"/><polygon class="cubes-50" points="243.92 387.17 243.92 403.78 249.26 406.86 268.97 395.47 249.26 384.09 243.92 387.17"/><polygon class="cubes-52" points="222.13 366.89 237.7 375.88 243.78 372.37 222.13 359.87 222.13 366.89"/><polygon class="cubes-53" points="222.13 366.89 237.7 375.88 243.78 372.37 222.13 359.87 222.13 366.89"/><polygon class="cubes-54" points="243.78 372.37 249.26 375.53 276.38 359.87 249.26 344.21 243.92 347.29 243.92 372.29 243.78 372.37"/><polygon class="cubes-55" points="243.78 372.37 249.26 375.53 276.38 359.87 249.26 344.21 243.92 347.29 243.92 372.29 243.78 372.37"/><polygon class="cubes-56" points="243.78 372.37 243.92 372.29 243.92 347.29 222.13 359.87 243.78 372.37"/><polygon class="cubes-57" points="243.78 372.37 243.92 372.29 243.92 347.29 222.13 359.87 243.78 372.37"/><polygon class="cubes-58" points="243.78 372.37 243.92 372.29 243.92 347.29 222.13 359.87 243.78 372.37"/><polygon class="cubes-59" points="210.45 391.47 203.51 395.48 210.92 399.75 210.92 405.71 216.8 402.31 222.13 405.39 222.13 399.75 229.54 395.48 222.87 391.62 216.8 395.13 210.45 391.47"/><polygon class="cubes-60" points="222.13 405.39 237.7 414.38 242.59 411.56 222.13 399.75 222.13 405.39"/><polygon class="cubes-61" points="222.13 405.39 237.7 414.38 242.59 411.56 222.13 399.75 222.13 405.39"/><polygon class="cubes-62" points="222.13 399.75 242.59 411.56 243.92 410.79 243.92 403.78 229.54 395.48 222.13 399.75"/><polygon class="cubes-63" points="222.13 399.75 242.59 411.56 243.92 410.79 243.92 403.78 229.54 395.48 222.13 399.75"/><polygon class="cubes-64" points="222.13 399.75 242.59 411.56 243.92 410.79 243.92 403.78 229.54 395.48 222.13 399.75"/><polygon class="cubes-65" points="210.92 399.75 190.73 411.41 195.89 414.39 210.92 405.71 210.92 399.75"/><polygon class="cubes-66" points="210.92 399.75 190.73 411.41 195.89 414.39 210.92 405.71 210.92 399.75"/><polygon class="cubes-67" points="203.51 395.48 189.67 403.46 189.67 410.8 190.73 411.41 210.92 399.75 203.51 395.48"/><polygon class="cubes-68" points="203.51 395.48 189.67 403.46 189.67 410.8 190.73 411.41 210.92 399.75 203.51 395.48"/><polygon class="cubes-69" points="203.51 395.48 189.67 403.46 189.67 410.8 190.73 411.41 210.92 399.75 203.51 395.48"/><polygon class="cubes-70" points="210.92 405.71 210.92 423.06 216.8 426.46 222.13 423.38 222.13 405.39 216.8 402.31 210.92 405.71"/><polygon class="cubes-71" points="210.92 405.71 210.92 423.06 216.8 426.46 222.13 423.38 222.13 405.39 216.8 402.31 210.92 405.71"/><polygon class="cubes-70" points="210.92 405.71 210.92 423.06 216.8 426.46 222.13 423.38 222.13 405.39 216.8 402.31 210.92 405.71"/><polygon class="cubes-72" points="222.13 423.38 237.7 414.38 222.13 405.39 222.13 423.38"/><polygon class="cubes-73" points="222.13 423.38 237.7 414.38 222.13 405.39 222.13 423.38"/><polygon class="cubes-74" points="222.13 423.38 237.7 414.38 222.13 405.39 222.13 423.38"/><polygon class="cubes-73" points="222.13 423.38 237.7 414.38 222.13 405.39 222.13 423.38"/><polygon class="cubes-75" points="210.92 405.71 195.89 414.39 210.92 423.06 210.92 405.71"/><polygon class="cubes-76" points="210.92 405.71 195.89 414.39 210.92 423.06 210.92 405.71"/><polygon class="cubes-77" points="210.92 405.71 195.89 414.39 210.92 423.06 210.92 405.71"/><polygon class="cubes-76" points="210.92 405.71 195.89 414.39 210.92 423.06 210.92 405.71"/><polygon class="cubes-78" points="210.45 391.47 189.67 379.47 189.67 387.49 203.51 395.48 210.45 391.47"/><polygon class="cubes-79" points="210.45 391.47 189.67 379.47 189.67 387.49 203.51 395.48 210.45 391.47"/><polygon class="cubes-80" points="189.67 387.49 189.67 403.46 203.51 395.48 189.67 387.49"/><polygon class="cubes-81" points="189.67 387.49 189.67 403.46 203.51 395.48 189.67 387.49"/><polygon class="cubes-80" points="189.67 387.49 189.67 403.46 203.51 395.48 189.67 387.49"/><polygon class="cubes-82" points="189.67 387.49 189.67 403.46 203.51 395.48 189.67 387.49"/><polygon class="cubes-83" points="229.54 395.48 243.92 387.17 243.92 379.47 222.87 391.62 229.54 395.48"/><polygon class="cubes-84" points="229.54 395.48 243.92 387.17 243.92 379.47 222.87 391.62 229.54 395.48"/><polygon class="cubes-85" points="243.92 403.78 243.92 387.17 229.54 395.48 243.92 403.78"/><polygon class="cubes-86" points="243.92 403.78 243.92 387.17 229.54 395.48 243.92 403.78"/><polygon class="cubes-85" points="243.92 403.78 243.92 387.17 229.54 395.48 243.92 403.78"/><polygon class="cubes-87" points="243.92 403.78 243.92 387.17 229.54 395.48 243.92 403.78"/><polygon class="cubes-88" points="210.92 384.56 210.92 391.2 210.45 391.47 216.8 395.13 222.87 391.62 222.13 391.2 222.13 384.87 216.8 387.95 210.92 384.56"/><polygon class="cubes-89" points="210.92 384.56 210.92 391.2 210.45 391.47 216.8 395.13 222.87 391.62 222.13 391.2 222.13 384.87 216.8 387.95 210.92 384.56"/><polygon class="cubes-90" points="216.8 387.95 222.13 384.87 222.13 366.89 216.8 363.81 210.92 367.2 210.92 384.56 216.8 387.95"/><polygon class="cubes-90" points="216.8 387.95 222.13 384.87 222.13 366.89 216.8 363.81 210.92 367.2 210.92 384.56 216.8 387.95"/><polygon class="cubes-91" points="216.8 387.95 222.13 384.87 222.13 366.89 216.8 363.81 210.92 367.2 210.92 384.56 216.8 387.95"/><polygon class="cubes-92" points="210.92 391.2 210.92 384.56 195.89 375.88 189.67 379.47 210.45 391.47 210.92 391.2"/><polygon class="cubes-93" points="210.92 391.2 210.92 384.56 195.89 375.88 189.67 379.47 210.45 391.47 210.92 391.2"/><polygon class="cubes-94" points="210.92 391.2 210.92 384.56 195.89 375.88 189.67 379.47 210.45 391.47 210.92 391.2"/><polygon class="cubes-90" points="210.92 367.2 195.89 375.88 210.92 384.56 210.92 367.2"/><polygon class="cubes-95" points="210.92 367.2 195.89 375.88 210.92 384.56 210.92 367.2"/><polygon class="cubes-90" points="210.92 367.2 195.89 375.88 210.92 384.56 210.92 367.2"/><polygon class="cubes-96" points="210.92 367.2 195.89 375.88 210.92 384.56 210.92 367.2"/><polygon class="cubes-97" points="222.13 391.2 222.87 391.62 243.92 379.47 237.7 375.88 222.13 384.87 222.13 391.2"/><polygon class="cubes-98" points="222.13 391.2 222.87 391.62 243.92 379.47 237.7 375.88 222.13 384.87 222.13 391.2"/><polygon class="cubes-99" points="222.13 391.2 222.87 391.62 243.92 379.47 237.7 375.88 222.13 384.87 222.13 391.2"/><polygon class="cubes-100" points="222.13 384.87 237.7 375.88 222.13 366.89 222.13 384.87"/><polygon class="cubes-101" points="222.13 384.87 237.7 375.88 222.13 366.89 222.13 384.87"/><polygon class="cubes-100" points="222.13 384.87 237.7 375.88 222.13 366.89 222.13 384.87"/><polygon class="cubes-102" points="222.13 384.87 237.7 375.88 222.13 366.89 222.13 384.87"/></g></g></svg>