<svg xmlns="http://www.w3.org/2000/svg" xmlns:xlink="http://www.w3.org/1999/xlink" viewBox="0 0 216.73 249.68"><defs><style>.everybodys-1{fill:#6542fb;}.everybodys-2{fill:url(#Indigo_223);}.everybodys-3{fill:url(#Indigo_222);}.everybodys-4{fill:url(#Indigo_221);}</style><linearGradient id="Indigo_223" x1="126" y1="-4582.38" x2="17.64" y2="-4582.38" gradientTransform="matrix(1, 0, 0, -1, 0, -4487.44)" gradientUnits="userSpaceOnUse"><stop offset="0" stop-color="#baa6ff"/><stop offset="0.5" stop-color="#7af2ff"/><stop offset="1" stop-color="#3b00ff"/></linearGradient><linearGradient id="Indigo_222" x1="119.71" y1="-4624.19" x2="67.83" y2="-4624.19" gradientTransform="matrix(1, 0, 0, -1, 0, -4487.44)" gradientUnits="userSpaceOnUse"><stop offset="0" stop-color="#9cf5ff"/><stop offset="0.5" stop-color="#663bff"/><stop offset="1" stop-color="#cefaff"/></linearGradient><linearGradient id="Indigo_221" x1="102.7" y1="-4624.79" x2="172.24" y2="-4623.34" gradientTransform="matrix(1, 0, 0, -1, 0, -4487.44)" gradientUnits="userSpaceOnUse"><stop offset="0" stop-color="#9cf5ff"/><stop offset="0.5" stop-color="#815cff"/><stop offset="1" stop-color="#815cff"/></linearGradient></defs><g id="Layer_2" data-name="Layer 2"><g id="Layer_1-2" data-name="Layer 1"><polygon class="everybodys-1" points="72.41 21.24 72 21.24 72 63 108.36 84 144.74 63 144.74 21 108.36 0 72 21 72 21.24 72.41 21.24 72.62 21.6 108.36 0.96 143.91 21.48 143.91 62.52 108.36 83.04 72.83 62.52 72.83 21.24 72.41 21.24 72.62 21.6 72.41 21.24"/><polygon class="everybodys-1" points="36.46 42 36.04 42 36.04 83.75 72.41 104.75 108.78 83.75 108.78 41.76 72.41 20.76 36.04 41.76 36.04 42 36.46 42 36.66 42.36 72.41 21.72 107.95 42.24 107.95 83.28 72.41 103.8 36.87 83.28 36.87 42 36.46 42 36.66 42.36 36.46 42"/><polygon class="everybodys-1" points="36.45 83.52 36.04 83.52 36.04 125.28 72.41 146.28 108.78 125.28 108.78 83.28 72.41 62.28 36.04 83.28 36.04 83.52 36.45 83.52 36.66 83.88 72.41 63.24 107.95 83.76 107.95 124.8 72.41 145.32 36.87 124.8 36.87 83.52 36.45 83.52 36.66 83.88 36.45 83.52"/><polygon class="everybodys-1" points="144.32 145.8 144.74 145.8 144.74 104.04 108.36 83.04 71.99 104.04 71.99 146.04 108.36 167.03 144.74 146.04 144.74 145.8 144.32 145.8 144.11 145.44 108.36 166.08 72.82 145.56 72.82 104.52 108.36 84 143.9 104.52 143.9 145.8 144.32 145.8 144.11 145.44 144.32 145.8"/><polygon class="everybodys-1" points="180.27 125.04 180.69 125.04 180.69 83.28 144.32 62.28 107.95 83.28 107.95 125.28 144.32 146.28 180.69 125.28 180.69 125.04 180.27 125.04 180.07 124.68 144.32 145.32 108.78 124.8 108.78 83.76 144.32 63.24 179.86 83.76 179.86 125.04 180.27 125.04 180.07 124.68 180.27 125.04"/><polygon class="everybodys-1" points="180.28 83.52 180.69 83.52 180.69 41.76 144.32 20.76 107.95 41.76 107.95 83.75 144.32 104.75 180.69 83.75 180.69 83.52 180.28 83.52 180.07 83.16 144.32 103.8 108.78 83.28 108.78 42.24 144.32 21.72 179.86 42.24 179.86 83.52 180.28 83.52 180.07 83.16 180.28 83.52"/><polygon class="everybodys-1" points="36.37 41.9 35.95 41.9 35.95 83.66 72.33 104.66 108.7 83.66 108.7 41.66 72.33 20.66 35.95 41.66 35.95 41.9 36.37 41.9 36.58 42.26 72.33 21.62 107.87 42.14 107.87 83.18 72.33 103.7 36.79 83.18 36.79 41.9 36.37 41.9 36.58 42.26 36.37 41.9"/><polygon class="everybodys-1" points="0.42 62.66 0 62.66 0 104.42 36.37 125.42 72.74 104.42 72.74 62.42 36.37 41.42 0 62.42 0 62.66 0.42 62.66 0.62 63.02 36.37 42.38 71.91 62.9 71.91 103.94 36.37 124.46 0.83 103.94 0.83 62.66 0.42 62.66 0.62 63.02 0.42 62.66"/><polygon class="everybodys-1" points="0.42 104.18 0 104.18 0 145.94 36.37 166.94 72.74 145.94 72.74 103.94 36.37 82.94 0 103.94 0 104.18 0.42 104.18 0.62 104.54 36.37 83.9 71.91 104.42 71.91 145.46 36.37 165.98 0.83 145.46 0.83 104.18 0.42 104.18 0.62 104.54 0.42 104.18"/><polygon class="everybodys-1" points="108.28 166.46 108.7 166.46 108.7 124.7 72.32 103.7 35.95 124.7 35.95 166.7 72.32 187.7 108.7 166.7 108.7 166.46 108.28 166.46 108.07 166.1 72.32 186.74 36.78 166.22 36.78 125.18 72.32 104.66 107.86 125.18 107.86 166.46 108.28 166.46 108.07 166.1 108.28 166.46"/><polygon class="everybodys-1" points="144.24 145.7 144.65 145.7 144.65 103.94 108.28 82.94 71.91 103.94 71.91 145.94 108.28 166.94 144.65 145.94 144.65 145.7 144.24 145.7 144.03 145.34 108.28 165.98 72.74 145.46 72.74 104.42 108.28 83.9 143.82 104.42 143.82 145.7 144.24 145.7 144.03 145.34 144.24 145.7"/><polygon class="everybodys-1" points="144.24 104.18 144.65 104.18 144.65 62.42 108.28 41.42 71.91 62.42 71.91 104.42 108.28 125.42 144.65 104.42 144.65 104.18 144.24 104.18 144.03 103.82 108.28 124.46 72.74 103.94 72.74 62.9 108.28 42.38 143.82 62.9 143.82 104.18 144.24 104.18 144.03 103.82 144.24 104.18"/><polygon class="everybodys-1" points="36.37 83.23 35.95 83.23 35.95 124.98 72.33 145.98 108.7 124.98 108.7 82.99 72.33 61.99 35.95 82.99 35.95 83.23 36.37 83.23 36.58 83.58 72.33 62.95 107.87 83.47 107.87 124.5 72.33 145.02 36.79 124.5 36.79 83.23 36.37 83.23 36.58 83.58 36.37 83.23"/><polygon class="everybodys-1" points="0.42 103.98 0 103.98 0 145.74 36.37 166.74 72.74 145.74 72.74 103.75 36.37 82.75 0 103.75 0 103.98 0.42 103.98 0.62 104.34 36.37 83.7 71.91 104.22 71.91 145.26 36.37 165.78 0.83 145.26 0.83 103.98 0.42 103.98 0.62 104.34 0.42 103.98"/><polygon class="everybodys-1" points="0.42 145.51 0 145.51 0 187.26 36.37 208.26 72.74 187.26 72.74 145.27 36.37 124.27 0 145.27 0 145.51 0.42 145.51 0.62 145.87 36.37 125.23 71.91 145.75 71.91 186.78 36.37 207.31 0.83 186.79 0.83 145.51 0.42 145.51 0.62 145.87 0.42 145.51"/><polygon class="everybodys-1" points="108.28 207.78 108.7 207.78 108.7 166.03 72.32 145.03 35.95 166.03 35.95 208.02 72.32 229.02 108.7 208.02 108.7 207.78 108.28 207.78 108.07 207.43 72.32 228.06 36.78 207.54 36.78 166.5 72.32 145.99 107.86 166.5 107.86 207.78 108.28 207.78 108.07 207.43 108.28 207.78"/><polygon class="everybodys-1" points="144.24 187.03 144.65 187.03 144.65 145.27 108.28 124.27 71.91 145.27 71.91 187.26 108.28 208.26 144.65 187.26 144.65 187.03 144.24 187.03 144.03 186.67 108.28 207.31 72.74 186.79 72.74 145.75 108.28 125.23 143.82 145.75 143.82 187.03 144.24 187.03 144.03 186.67 144.24 187.03"/><polygon class="everybodys-1" points="144.24 145.5 144.65 145.5 144.65 103.75 108.28 82.75 71.91 103.75 71.91 145.74 108.28 166.74 144.65 145.74 144.65 145.5 144.24 145.5 144.03 145.14 108.28 165.78 72.74 145.26 72.74 104.22 108.28 83.7 143.82 104.22 143.82 145.5 144.24 145.5 144.03 145.14 144.24 145.5"/><polygon class="everybodys-1" points="72.41 103.89 72 103.89 72 145.65 108.36 166.65 144.74 145.65 144.74 103.65 108.36 82.65 72 103.65 72 103.89 72.41 103.89 72.62 104.25 108.36 83.61 143.91 104.13 143.91 145.17 108.36 165.69 72.83 145.17 72.83 103.89 72.41 103.89 72.62 104.25 72.41 103.89"/><polygon class="everybodys-1" points="36.46 124.65 36.04 124.65 36.04 166.4 72.41 187.4 108.78 166.41 108.78 124.41 72.41 103.41 36.04 124.41 36.04 124.65 36.46 124.65 36.66 125.01 72.41 104.37 107.95 124.89 107.95 165.93 72.41 186.44 36.87 165.93 36.87 124.65 36.46 124.65 36.66 125.01 36.46 124.65"/><polygon class="everybodys-1" points="36.45 166.17 36.04 166.17 36.04 207.93 72.41 228.93 108.78 207.93 108.78 165.93 72.41 144.93 36.04 165.93 36.04 166.17 36.45 166.17 36.66 166.53 72.41 145.89 107.95 166.41 107.95 207.45 72.41 227.97 36.87 207.45 36.87 166.17 36.45 166.17 36.66 166.53 36.45 166.17"/><polygon class="everybodys-1" points="144.32 228.45 144.74 228.45 144.74 186.69 108.36 165.69 71.99 186.69 71.99 228.69 108.36 249.69 144.74 228.69 144.74 228.45 144.32 228.45 144.11 228.09 108.36 248.73 72.82 228.21 72.82 187.17 108.36 166.65 143.9 187.17 143.9 228.45 144.32 228.45 144.11 228.09 144.32 228.45"/><polygon class="everybodys-1" points="180.27 207.69 180.69 207.69 180.69 165.93 144.32 144.93 107.95 165.93 107.95 207.93 144.32 228.93 180.69 207.93 180.69 207.69 180.27 207.69 180.07 207.33 144.32 227.97 108.78 207.45 108.78 166.41 144.32 145.89 179.86 166.41 179.86 207.69 180.27 207.69 180.07 207.33 180.27 207.69"/><polygon class="everybodys-1" points="180.28 166.16 180.69 166.16 180.69 124.41 144.32 103.41 107.95 124.41 107.95 166.4 144.32 187.4 180.69 166.41 180.69 166.16 180.28 166.16 180.07 165.81 144.32 186.44 108.78 165.93 108.78 124.89 144.32 104.37 179.86 124.89 179.86 166.16 180.28 166.16 180.07 165.81 180.28 166.16"/><polygon class="everybodys-1" points="108.45 83.23 108.03 83.23 108.03 124.98 144.4 145.98 180.78 124.98 180.78 82.99 144.4 61.99 108.03 82.99 108.03 83.23 108.45 83.23 108.66 83.58 144.4 62.95 179.94 83.47 179.94 124.5 144.4 145.02 108.86 124.5 108.86 83.23 108.45 83.23 108.66 83.58 108.45 83.23"/><polygon class="everybodys-1" points="72.5 103.98 72.08 103.98 72.08 145.74 108.45 166.74 144.82 145.74 144.82 103.75 108.45 82.75 72.08 103.75 72.08 103.98 72.5 103.98 72.7 104.34 108.45 83.7 143.99 104.22 143.99 145.26 108.45 165.78 72.91 145.26 72.91 103.98 72.5 103.98 72.7 104.34 72.5 103.98"/><polygon class="everybodys-1" points="72.49 145.51 72.08 145.51 72.08 187.26 108.45 208.26 144.82 187.26 144.82 145.27 108.45 124.27 72.08 145.27 72.08 145.51 72.49 145.51 72.7 145.87 108.45 125.23 143.99 145.75 143.99 186.78 108.45 207.31 72.91 186.79 72.91 145.51 72.49 145.51 72.7 145.87 72.49 145.51"/><polygon class="everybodys-1" points="180.36 207.78 180.77 207.78 180.77 166.03 144.4 145.03 108.03 166.03 108.03 208.02 144.4 229.02 180.77 208.02 180.77 207.78 180.36 207.78 180.15 207.43 144.4 228.06 108.86 207.54 108.86 166.51 144.4 145.99 179.94 166.5 179.94 207.78 180.36 207.78 180.15 207.43 180.36 207.78"/><polygon class="everybodys-1" points="216.31 187.03 216.73 187.03 216.73 145.27 180.36 124.27 143.99 145.27 143.99 187.26 180.36 208.26 216.73 187.26 216.73 187.03 216.31 187.03 216.1 186.67 180.36 207.31 144.82 186.79 144.82 145.75 180.36 125.23 215.9 145.75 215.9 187.03 216.31 187.03 216.1 186.67 216.31 187.03"/><polygon class="everybodys-1" points="216.31 145.5 216.73 145.5 216.73 103.75 180.36 82.75 143.99 103.75 143.99 145.74 180.36 166.74 216.73 145.74 216.73 145.5 216.31 145.5 216.11 145.14 180.36 165.78 144.82 145.26 144.82 104.22 180.36 83.7 215.9 104.22 215.9 145.5 216.31 145.5 216.11 145.14 216.31 145.5"/><polygon class="everybodys-1" points="108.45 41.9 108.03 41.9 108.03 83.66 144.4 104.66 180.78 83.66 180.78 41.66 144.4 20.66 108.03 41.66 108.03 41.9 108.45 41.9 108.66 42.26 144.4 21.62 179.94 42.14 179.94 83.18 144.4 103.7 108.86 83.18 108.86 41.9 108.45 41.9 108.66 42.26 108.45 41.9"/><polygon class="everybodys-1" points="72.5 62.66 72.08 62.66 72.08 104.42 108.45 125.42 144.82 104.42 144.82 62.42 108.45 41.42 72.08 62.42 72.08 62.66 72.5 62.66 72.7 63.02 108.45 42.38 143.99 62.9 143.99 103.94 108.45 124.46 72.91 103.94 72.91 62.66 72.5 62.66 72.7 63.02 72.5 62.66"/><polygon class="everybodys-1" points="72.49 104.18 72.08 104.18 72.08 145.94 108.45 166.94 144.82 145.94 144.82 103.94 108.45 82.94 72.08 103.94 72.08 104.18 72.49 104.18 72.7 104.54 108.45 83.9 143.99 104.42 143.99 145.46 108.45 165.98 72.91 145.46 72.91 104.18 72.49 104.18 72.7 104.54 72.49 104.18"/><polygon class="everybodys-1" points="180.36 166.46 180.77 166.46 180.77 124.7 144.4 103.7 108.03 124.7 108.03 166.7 144.4 187.7 180.77 166.7 180.77 166.46 180.36 166.46 180.15 166.1 144.4 186.74 108.86 166.22 108.86 125.18 144.4 104.66 179.94 125.18 179.94 166.46 180.36 166.46 180.15 166.1 180.36 166.46"/><polygon class="everybodys-1" points="216.31 145.7 216.73 145.7 216.73 103.94 180.36 82.94 143.99 103.94 143.99 145.94 180.36 166.94 216.73 145.94 216.73 145.7 216.31 145.7 216.1 145.34 180.36 165.98 144.82 145.46 144.82 104.42 180.36 83.9 215.9 104.42 215.9 145.7 216.31 145.7 216.1 145.34 216.31 145.7"/><polygon class="everybodys-1" points="216.31 104.18 216.73 104.18 216.73 62.42 180.36 41.42 143.99 62.42 143.99 104.42 180.36 125.42 216.73 104.42 216.73 104.18 216.31 104.18 216.11 103.82 180.36 124.46 144.82 103.94 144.82 62.9 180.36 42.38 215.9 62.9 215.9 104.18 216.31 104.18 216.11 103.82 216.31 104.18"/><polygon class="everybodys-2" points="70.19 95.94 108.15 74.03 146.1 95.94 108.15 115.87 70.19 95.94"/><polygon class="everybodys-3" points="103.7 169.62 65.74 147.71 65.74 103.88 103.7 123.81 103.7 169.62"/><polygon class="everybodys-4" points="112.6 123.81 150.56 103.88 150.56 147.71 112.6 169.62 112.6 123.81"/></g></g></svg>