<svg id="Layer_1" data-name="Layer 1" xmlns="http://www.w3.org/2000/svg" viewBox="0 0 1557.08 1772.49">
  <defs>
    <style>
      .hero-dots-1,
      .hero-dots-10,
      .hero-dots-11,
      .hero-dots-12,
      .hero-dots-13,
      .hero-dots-14,
      .hero-dots-15,
      .hero-dots-16,
      .hero-dots-17,
      .hero-dots-18,
      .hero-dots-19,
      .hero-dots-2,
      .hero-dots-20,
      .hero-dots-21,
      .hero-dots-22,
      .hero-dots-23,
      .hero-dots-24,
      .hero-dots-25,
      .hero-dots-26,
      .hero-dots-27,
      .hero-dots-28,
      .hero-dots-29,
      .hero-dots-3,
      .hero-dots-30,
      .hero-dots-31,
      .hero-dots-32,
      .hero-dots-33,
      .hero-dots-34,
      .hero-dots-35,
      .hero-dots-36,
      .hero-dots-37,
      .hero-dots-38,
      .hero-dots-39,
      .hero-dots-4,
      .hero-dots-40,
      .hero-dots-41,
      .hero-dots-42,
      .hero-dots-43,
      .hero-dots-44,
      .hero-dots-45,
      .hero-dots-46,
      .hero-dots-47,
      .hero-dots-48,
      .hero-dots-49,
      .hero-dots-5,
      .hero-dots-50,
      .hero-dots-51,
      .hero-dots-52,
      .hero-dots-53,
      .hero-dots-54,
      .hero-dots-55,
      .hero-dots-56,
      .hero-dots-57,
      .hero-dots-6,
      .hero-dots-7,
      .hero-dots-8,
      .hero-dots-9 {
        fill: none;
        stroke: #5700ff;
        stroke-linecap: round;
        stroke-linejoin: round;
      }

      .hero-dots-2 {
        stroke-dasharray: 0 76.14;
      }

      .hero-dots-3 {
        stroke-dasharray: 0 80.68;
      }

      .hero-dots-4 {
        stroke-dasharray: 0 76.15;
      }

      .hero-dots-5 {
        stroke-dasharray: 0 80.68;
      }

      .hero-dots-6 {
        stroke-dasharray: 0 80.68;
      }

      .hero-dots-7 {
        stroke-dasharray: 0 76.14;
      }

      .hero-dots-8 {
        stroke-dasharray: 0 80.68;
      }

      .hero-dots-9 {
        stroke-dasharray: 0 76.48;
      }

      .hero-dots-10 {
        stroke-dasharray: 0 76.14;
      }

      .hero-dots-11 {
        stroke-dasharray: 0 76.48;
      }

      .hero-dots-12 {
        stroke-dasharray: 0 76.48;
      }

      .hero-dots-13 {
        stroke-dasharray: 0 76.14;
      }

      .hero-dots-14 {
        stroke-dasharray: 0 76.48;
      }

      .hero-dots-15 {
        stroke-dasharray: 0 76.15;
      }

      .hero-dots-16 {
        stroke-dasharray: 0 76.53;
      }

      .hero-dots-17 {
        stroke-dasharray: 0 76.53;
      }

      .hero-dots-18 {
        stroke-dasharray: 0 76.53;
      }

      .hero-dots-19 {
        stroke-dasharray: 0 76.15;
      }

      .hero-dots-20 {
        stroke-dasharray: 0 76.53;
      }

      .hero-dots-21 {
        stroke-dasharray: 0 76.53;
      }

      .hero-dots-22 {
        stroke-dasharray: 0 76.53;
      }

      .hero-dots-23 {
        stroke-dasharray: 0 80.68;
      }

      .hero-dots-24 {
        stroke-dasharray: 0 80.68;
      }

      .hero-dots-25 {
        stroke-dasharray: 0 76.53;
      }

      .hero-dots-26 {
        stroke-dasharray: 0 76.15;
      }

      .hero-dots-27 {
        stroke-dasharray: 0 76.14;
      }

      .hero-dots-28 {
        stroke-dasharray: 0 76.53;
      }

      .hero-dots-29 {
        stroke-dasharray: 0 80.68;
      }

      .hero-dots-30 {
        stroke-dasharray: 0 89.84;
      }

      .hero-dots-31 {
        stroke-dasharray: 0 95.2;
      }

      .hero-dots-32 {
        stroke-dasharray: 0 89.85;
      }

      .hero-dots-33 {
        stroke-dasharray: 0 95.19;
      }

      .hero-dots-34 {
        stroke-dasharray: 0 95.19;
      }

      .hero-dots-35 {
        stroke-dasharray: 0 89.84;
      }

      .hero-dots-36 {
        stroke-dasharray: 0 95.19;
      }

      .hero-dots-37 {
        stroke-dasharray: 0 90.24;
      }

      .hero-dots-38 {
        stroke-dasharray: 0 89.84;
      }

      .hero-dots-39 {
        stroke-dasharray: 0 90.24;
      }

      .hero-dots-40 {
        stroke-dasharray: 0 90.24;
      }

      .hero-dots-41 {
        stroke-dasharray: 0 90.24;
      }

      .hero-dots-42 {
        stroke-dasharray: 0 89.84;
      }

      .hero-dots-43 {
        stroke-dasharray: 0 89.85;
      }

      .hero-dots-44 {
        stroke-dasharray: 0 90.3;
      }

      .hero-dots-45 {
        stroke-dasharray: 0 90.3;
      }

      .hero-dots-46 {
        stroke-dasharray: 0 90.3;
      }

      .hero-dots-47 {
        stroke-dasharray: 0 90.3;
      }

      .hero-dots-48 {
        stroke-dasharray: 0 90.24;
      }

      .hero-dots-49 {
        stroke-dasharray: 0 89.84;
      }

      .hero-dots-50 {
        stroke-dasharray: 0 90.3;
      }

      .hero-dots-51 {
        stroke-dasharray: 0 95.19;
      }

      .hero-dots-52 {
        stroke-dasharray: 0 95.2;
      }

      .hero-dots-53 {
        stroke-dasharray: 0 90.3;
      }

      .hero-dots-54 {
        stroke-dasharray: 0 89.85;
      }

      .hero-dots-55 {
        stroke-dasharray: 0 89.84;
      }

      .hero-dots-56 {
        stroke-dasharray: 0 90.3;
      }

      .hero-dots-57 {
        stroke-dasharray: 0 95.19;
      }
    </style>
  </defs>
  <line class="hero-dots-1" x1="1423.87" y1="1307.82" x2="1423.87" y2="1307.82" />
  <line class="hero-dots-1" x1="1454.68" y1="1291.13" x2="1454.68" y2="1291.13" />
  <line class="hero-dots-1" x1="1454.68" y1="1254" x2="1454.68" y2="1254" />
  <line class="hero-dots-1" x1="1423.87" y1="1270.69" x2="1423.87" y2="1270.69" />
  <line class="hero-dots-1" x1="1423.87" y1="991.53" x2="1423.87" y2="991.53" />
  <line class="hero-dots-1" x1="1454.68" y1="974.84" x2="1454.68" y2="974.84" />
  <line class="hero-dots-1" x1="1454.68" y1="937.72" x2="1454.68" y2="937.72" />
  <line class="hero-dots-1" x1="1423.87" y1="954.4" x2="1423.87" y2="954.4" />
  <line class="hero-dots-1" x1="809.61" y1="129.35" x2="809.61" y2="129.35" />
  <line class="hero-dots-1" x1="778.62" y1="112.67" x2="778.62" y2="112.67" />
  <line class="hero-dots-1" x1="747.81" y1="129.36" x2="747.81" y2="129.36" />
  <line class="hero-dots-1" x1="778.8" y1="146.03" x2="778.8" y2="146.03" />
  <line class="hero-dots-1" x1="546.86" y1="271.66" x2="546.86" y2="271.66" />
  <line class="hero-dots-1" x1="515.87" y1="254.99" x2="515.87" y2="254.99" />
  <line class="hero-dots-1" x1="485.05" y1="271.67" x2="485.05" y2="271.67" />
  <line class="hero-dots-1" x1="516.05" y1="288.35" x2="516.05" y2="288.35" />
  <line class="hero-dots-1" x1="1043.36" y1="288.4" x2="1043.36" y2="288.4" />
  <line class="hero-dots-1" x1="1074.17" y1="271.71" x2="1074.17" y2="271.71" />
  <line class="hero-dots-1" x1="1043.16" y1="255.03" x2="1043.16" y2="255.03" />
  <line class="hero-dots-1" x1="1012.35" y1="271.71" x2="1012.35" y2="271.71" />
  <line class="hero-dots-1" x1="749.6" y1="414.03" x2="749.6" y2="414.03" />
  <line class="hero-dots-1" x1="780.62" y1="430.72" x2="780.62" y2="430.72" />
  <line class="hero-dots-1" x1="811.43" y1="414.03" x2="811.43" y2="414.03" />
  <line class="hero-dots-1" x1="780.42" y1="397.34" x2="780.42" y2="397.34" />
  <line class="hero-dots-1" x1="1307.64" y1="397.33" x2="1307.64" y2="397.33" />
  <line class="hero-dots-1" x1="1276.83" y1="414.02" x2="1276.83" y2="414.02" />
  <line class="hero-dots-1" x1="1307.84" y1="430.71" x2="1307.84" y2="430.71" />
  <line class="hero-dots-1" x1="1338.65" y1="414.02" x2="1338.65" y2="414.02" />
  <line class="hero-dots-1" x1="253.05" y1="397.3" x2="253.05" y2="397.3" />
  <line class="hero-dots-1" x1="222.24" y1="413.99" x2="222.24" y2="413.99" />
  <line class="hero-dots-1" x1="253.23" y1="430.66" x2="253.23" y2="430.66" />
  <line class="hero-dots-1" x1="284.04" y1="413.98" x2="284.04" y2="413.98" />
  <line class="hero-dots-1" x1="517.59" y1="539.66" x2="517.59" y2="539.66" />
  <line class="hero-dots-1" x1="486.77" y1="556.34" x2="486.77" y2="556.34" />
  <line class="hero-dots-1" x1="517.79" y1="573.03" x2="517.79" y2="573.03" />
  <line class="hero-dots-1" x1="548.6" y1="556.34" x2="548.6" y2="556.34" />
  <line class="hero-dots-1" x1="898.37" y1="1592.46" x2="898.37" y2="1592.46" />
  <line class="hero-dots-1" x1="929.18" y1="1575.77" x2="929.18" y2="1575.77" />
  <line class="hero-dots-1" x1="929.18" y1="1538.65" x2="929.18" y2="1538.65" />
  <line class="hero-dots-1" x1="898.37" y1="1555.33" x2="898.37" y2="1555.33" />
  <line class="hero-dots-1" x1="898.37" y1="1276.16" x2="898.37" y2="1276.16" />
  <line class="hero-dots-1" x1="929.18" y1="1259.47" x2="929.18" y2="1259.47" />
  <line class="hero-dots-1" x1="929.18" y1="1222.35" x2="929.18" y2="1222.35" />
  <line class="hero-dots-1" x1="898.37" y1="1239.03" x2="898.37" y2="1239.03" />
  <line class="hero-dots-1" x1="782.12" y1="681.96" x2="782.12" y2="681.96" />
  <line class="hero-dots-1" x1="751.31" y1="698.65" x2="751.31" y2="698.65" />
  <line class="hero-dots-1" x1="782.32" y1="715.34" x2="782.32" y2="715.34" />
  <line class="hero-dots-1" x1="813.13" y1="698.65" x2="813.13" y2="698.65" />
  <line class="hero-dots-1" x1="105.41" y1="1291.11" x2="105.41" y2="1291.11" />
  <line class="hero-dots-1" x1="136.4" y1="1307.78" x2="136.4" y2="1307.78" />
  <line class="hero-dots-1" x1="136.4" y1="1270.66" x2="136.4" y2="1270.66" />
  <line class="hero-dots-1" x1="105.41" y1="1253.98" x2="105.41" y2="1253.98" />
  <line class="hero-dots-1" x1="105.41" y1="974.81" x2="105.41" y2="974.81" />
  <line class="hero-dots-1" x1="136.4" y1="991.49" x2="136.4" y2="991.49" />
  <line class="hero-dots-1" x1="136.4" y1="954.36" x2="136.4" y2="954.36" />
  <line class="hero-dots-1" x1="105.41" y1="937.68" x2="105.41" y2="937.68" />
  <line class="hero-dots-1" x1="105.41" y1="657.1" x2="105.41" y2="657.1" />
  <line class="hero-dots-1" x1="136.4" y1="673.78" x2="136.4" y2="673.78" />
  <line class="hero-dots-1" x1="136.4" y1="636.65" x2="136.4" y2="636.65" />
  <line class="hero-dots-1" x1="105.41" y1="619.97" x2="105.41" y2="619.97" />
  <line class="hero-dots-1" x1="369.96" y1="1433.46" x2="369.96" y2="1433.46" />
  <line class="hero-dots-1" x1="400.97" y1="1450.14" x2="400.97" y2="1450.14" />
  <line class="hero-dots-1" x1="400.97" y1="1413.02" x2="400.97" y2="1413.02" />
  <line class="hero-dots-1" x1="369.96" y1="1396.33" x2="369.96" y2="1396.33" />
  <line class="hero-dots-1" x1="369.96" y1="1117.17" x2="369.96" y2="1117.17" />
  <line class="hero-dots-1" x1="400.97" y1="1133.85" x2="400.97" y2="1133.85" />
  <line class="hero-dots-1" x1="400.97" y1="1096.73" x2="400.97" y2="1096.73" />
  <line class="hero-dots-1" x1="369.96" y1="1080.04" x2="369.96" y2="1080.04" />
  <line class="hero-dots-1" x1="369.96" y1="799.45" x2="369.96" y2="799.45" />
  <line class="hero-dots-1" x1="400.97" y1="816.13" x2="400.97" y2="816.13" />
  <line class="hero-dots-1" x1="400.97" y1="779.01" x2="400.97" y2="779.01" />
  <line class="hero-dots-1" x1="369.96" y1="762.32" x2="369.96" y2="762.32" />
  <line class="hero-dots-1" x1="634.42" y1="1575.77" x2="634.42" y2="1575.77" />
  <line class="hero-dots-1" x1="665.43" y1="1592.46" x2="665.43" y2="1592.46" />
  <line class="hero-dots-1" x1="665.43" y1="1555.33" x2="665.43" y2="1555.33" />
  <line class="hero-dots-1" x1="634.42" y1="1538.65" x2="634.42" y2="1538.65" />
  <line class="hero-dots-1" x1="634.42" y1="1259.47" x2="634.42" y2="1259.47" />
  <line class="hero-dots-1" x1="665.43" y1="1276.16" x2="665.43" y2="1276.16" />
  <line class="hero-dots-1" x1="665.43" y1="1239.03" x2="665.43" y2="1239.03" />
  <line class="hero-dots-1" x1="634.42" y1="1222.35" x2="634.42" y2="1222.35" />
  <line class="hero-dots-1" x1="634.42" y1="941.76" x2="634.42" y2="941.76" />
  <line class="hero-dots-1" x1="665.43" y1="958.45" x2="665.43" y2="958.45" />
  <line class="hero-dots-1" x1="665.43" y1="921.32" x2="665.43" y2="921.32" />
  <line class="hero-dots-1" x1="634.42" y1="904.64" x2="634.42" y2="904.64" />
  <line class="hero-dots-1" x1="1161.11" y1="1450.13" x2="1161.11" y2="1450.13" />
  <line class="hero-dots-1" x1="1191.92" y1="1433.45" x2="1191.92" y2="1433.45" />
  <line class="hero-dots-1" x1="1191.92" y1="1396.32" x2="1191.92" y2="1396.32" />
  <line class="hero-dots-1" x1="1161.11" y1="1413.01" x2="1161.11" y2="1413.01" />
  <line class="hero-dots-1" x1="1161.11" y1="1133.84" x2="1161.11" y2="1133.84" />
  <line class="hero-dots-1" x1="1191.92" y1="1117.16" x2="1191.92" y2="1117.16" />
  <line class="hero-dots-1" x1="1191.92" y1="1080.03" x2="1191.92" y2="1080.03" />
  <line class="hero-dots-1" x1="1161.11" y1="1096.72" x2="1161.11" y2="1096.72" />
  <line class="hero-dots-1" x1="1044.88" y1="539.65" x2="1044.88" y2="539.65" />
  <line class="hero-dots-1" x1="1014.07" y1="556.33" x2="1014.07" y2="556.33" />
  <line class="hero-dots-1" x1="1045.08" y1="573.02" x2="1045.08" y2="573.02" />
  <line class="hero-dots-1" x1="1075.89" y1="556.33" x2="1075.89" y2="556.33" />
  <line class="hero-dots-1" x1="1423.87" y1="640.91" x2="1423.87" y2="640.91" />
  <line class="hero-dots-1" x1="1423.87" y1="678.04" x2="1423.87" y2="678.04" />
  <line class="hero-dots-1" x1="1454.68" y1="661.35" x2="1454.68" y2="661.35" />
  <line class="hero-dots-1" x1="1454.68" y1="624.23" x2="1454.68" y2="624.23" />
  <line class="hero-dots-1" x1="898.37" y1="958.45" x2="898.37" y2="958.45" />
  <line class="hero-dots-1" x1="929.18" y1="941.76" x2="929.18" y2="941.76" />
  <line class="hero-dots-1" x1="929.18" y1="904.64" x2="929.18" y2="904.64" />
  <line class="hero-dots-1" x1="898.37" y1="921.32" x2="898.37" y2="921.32" />
  <line class="hero-dots-1" x1="1161.11" y1="820.35" x2="1161.11" y2="820.35" />
  <line class="hero-dots-1" x1="1191.92" y1="803.67" x2="1191.92" y2="803.67" />
  <line class="hero-dots-1" x1="1191.92" y1="766.54" x2="1191.92" y2="766.54" />
  <line class="hero-dots-1" x1="1161.11" y1="783.23" x2="1161.11" y2="783.23" />
  <line class="hero-dots-1" x1="1371.72" y1="1397.59" x2="1371.72" y2="1397.59" />
  <line class="hero-dots-2" x1="1438.68" y1="1361.33" x2="1472.15" y2="1343.2" />
  <line class="hero-dots-1" x1="1505.63" y1="1325.07" x2="1505.63" y2="1325.07" />
  <line class="hero-dots-3" x1="1505.63" y1="1244.38" x2="1505.63" y2="1204.04" />
  <line class="hero-dots-1" x1="1505.63" y1="1163.7" x2="1505.63" y2="1163.7" />
  <line class="hero-dots-4" x1="1438.68" y1="1199.97" x2="1405.2" y2="1218.1" />
  <line class="hero-dots-1" x1="1371.72" y1="1236.24" x2="1371.72" y2="1236.24" />
  <line class="hero-dots-5" x1="1371.72" y1="1316.91" x2="1371.72" y2="1357.25" />
  <line class="hero-dots-1" x1="1371.72" y1="1081.29" x2="1371.72" y2="1081.29" />
  <line class="hero-dots-2" x1="1438.68" y1="1045.03" x2="1472.15" y2="1026.9" />
  <line class="hero-dots-1" x1="1505.63" y1="1008.77" x2="1505.63" y2="1008.77" />
  <line class="hero-dots-6" x1="1505.63" y1="928.1" x2="1505.63" y2="887.76" />
  <line class="hero-dots-1" x1="1505.63" y1="847.42" x2="1505.63" y2="847.42" />
  <line class="hero-dots-7" x1="1438.68" y1="883.68" x2="1405.2" y2="901.81" />
  <line class="hero-dots-1" x1="1371.72" y1="919.94" x2="1371.72" y2="919.94" />
  <line class="hero-dots-8" x1="1371.72" y1="1000.62" x2="1371.72" y2="1040.96" />
  <line class="hero-dots-1" x1="912.4" y1="129.07" x2="912.4" y2="129.07" />
  <line class="hero-dots-9" x1="845.06" y1="92.83" x2="811.39" y2="74.71" />
  <line class="hero-dots-1" x1="777.72" y1="56.58" x2="777.72" y2="56.58" />
  <line class="hero-dots-10" x1="710.76" y1="92.85" x2="677.29" y2="110.98" />
  <line class="hero-dots-1" x1="643.81" y1="129.11" x2="643.81" y2="129.11" />
  <line class="hero-dots-11" x1="711.15" y1="165.35" x2="744.82" y2="183.47" />
  <line class="hero-dots-1" x1="778.5" y1="201.59" x2="778.5" y2="201.59" />
  <line class="hero-dots-7" x1="845.45" y1="165.33" x2="878.93" y2="147.2" />
  <line class="hero-dots-1" x1="649.66" y1="271.38" x2="649.66" y2="271.38" />
  <line class="hero-dots-12" x1="582.31" y1="235.14" x2="548.63" y2="217.02" />
  <line class="hero-dots-1" x1="514.96" y1="198.9" x2="514.96" y2="198.9" />
  <line class="hero-dots-13" x1="448.01" y1="235.16" x2="414.53" y2="253.29" />
  <line class="hero-dots-1" x1="381.05" y1="271.42" x2="381.05" y2="271.42" />
  <line class="hero-dots-14" x1="448.4" y1="307.66" x2="482.07" y2="325.78" />
  <line class="hero-dots-1" x1="515.75" y1="343.9" x2="515.75" y2="343.9" />
  <line class="hero-dots-7" x1="582.7" y1="307.64" x2="616.18" y2="289.51" />
  <line class="hero-dots-1" x1="1043.1" y1="343.98" x2="1043.1" y2="343.98" />
  <line class="hero-dots-15" x1="1110.05" y1="307.71" x2="1143.53" y2="289.58" />
  <line class="hero-dots-1" x1="1177" y1="271.44" x2="1177" y2="271.44" />
  <line class="hero-dots-16" x1="1109.61" y1="235.18" x2="1075.92" y2="217.05" />
  <line class="hero-dots-1" x1="1042.22" y1="198.92" x2="1042.22" y2="198.92" />
  <line class="hero-dots-10" x1="975.27" y1="235.18" x2="941.79" y2="253.31" />
  <line class="hero-dots-1" x1="908.31" y1="271.44" x2="908.31" y2="271.44" />
  <line class="hero-dots-17" x1="975.7" y1="307.71" x2="1009.4" y2="325.84" />
  <line class="hero-dots-1" x1="645.57" y1="413.76" x2="645.57" y2="413.76" />
  <line class="hero-dots-18" x1="712.96" y1="450.03" x2="746.66" y2="468.16" />
  <line class="hero-dots-1" x1="780.35" y1="486.29" x2="780.35" y2="486.29" />
  <line class="hero-dots-19" x1="847.31" y1="450.03" x2="880.78" y2="431.89" />
  <line class="hero-dots-1" x1="914.26" y1="413.76" x2="914.26" y2="413.76" />
  <line class="hero-dots-20" x1="846.87" y1="377.5" x2="813.17" y2="359.37" />
  <line class="hero-dots-1" x1="779.48" y1="341.24" x2="779.48" y2="341.24" />
  <line class="hero-dots-7" x1="712.52" y1="377.5" x2="679.05" y2="395.63" />
  <line class="hero-dots-1" x1="1306.7" y1="341.23" x2="1306.7" y2="341.23" />
  <line class="hero-dots-7" x1="1239.75" y1="377.49" x2="1206.27" y2="395.62" />
  <line class="hero-dots-1" x1="1172.79" y1="413.75" x2="1172.79" y2="413.75" />
  <line class="hero-dots-16" x1="1240.19" y1="450.02" x2="1273.88" y2="468.15" />
  <line class="hero-dots-1" x1="1307.58" y1="486.28" x2="1307.58" y2="486.28" />
  <line class="hero-dots-7" x1="1374.53" y1="450.02" x2="1408.01" y2="431.89" />
  <line class="hero-dots-1" x1="1441.49" y1="413.75" x2="1441.49" y2="413.75" />
  <line class="hero-dots-21" x1="1374.09" y1="377.49" x2="1340.4" y2="359.36" />
  <line class="hero-dots-1" x1="252.15" y1="341.22" x2="252.15" y2="341.22" />
  <line class="hero-dots-7" x1="185.19" y1="377.48" x2="151.72" y2="395.61" />
  <line class="hero-dots-1" x1="118.24" y1="413.74" x2="118.24" y2="413.74" />
  <line class="hero-dots-12" x1="185.59" y1="449.98" x2="219.26" y2="468.1" />
  <line class="hero-dots-1" x1="252.94" y1="486.22" x2="252.94" y2="486.22" />
  <line class="hero-dots-13" x1="319.89" y1="449.96" x2="353.37" y2="431.83" />
  <line class="hero-dots-1" x1="386.84" y1="413.7" x2="386.84" y2="413.7" />
  <line class="hero-dots-14" x1="319.5" y1="377.46" x2="285.82" y2="359.34" />
  <line class="hero-dots-1" x1="516.65" y1="483.55" x2="516.65" y2="483.55" />
  <line class="hero-dots-13" x1="449.69" y1="519.81" x2="416.22" y2="537.94" />
  <line class="hero-dots-1" x1="382.74" y1="556.07" x2="382.74" y2="556.07" />
  <line class="hero-dots-17" x1="450.13" y1="592.34" x2="483.83" y2="610.47" />
  <line class="hero-dots-1" x1="517.52" y1="628.61" x2="517.52" y2="628.61" />
  <line class="hero-dots-4" x1="584.48" y1="592.34" x2="617.95" y2="574.21" />
  <line class="hero-dots-1" x1="651.43" y1="556.07" x2="651.43" y2="556.07" />
  <line class="hero-dots-20" x1="584.04" y1="519.81" x2="550.34" y2="501.68" />
  <line class="hero-dots-1" x1="846.22" y1="1682.22" x2="846.22" y2="1682.22" />
  <line class="hero-dots-13" x1="913.17" y1="1645.96" x2="946.65" y2="1627.83" />
  <line class="hero-dots-1" x1="980.13" y1="1609.7" x2="980.13" y2="1609.7" />
  <line class="hero-dots-8" x1="980.13" y1="1529.02" x2="980.13" y2="1488.69" />
  <line class="hero-dots-1" x1="980.13" y1="1448.35" x2="980.13" y2="1448.35" />
  <line class="hero-dots-2" x1="913.17" y1="1484.61" x2="879.69" y2="1502.74" />
  <line class="hero-dots-1" x1="846.22" y1="1520.87" x2="846.22" y2="1520.87" />
  <line class="hero-dots-5" x1="846.22" y1="1601.55" x2="846.22" y2="1641.89" />
  <line class="hero-dots-1" x1="846.22" y1="1365.93" x2="846.22" y2="1365.93" />
  <line class="hero-dots-2" x1="913.17" y1="1329.66" x2="946.65" y2="1311.53" />
  <line class="hero-dots-1" x1="980.13" y1="1293.4" x2="980.13" y2="1293.4" />
  <line class="hero-dots-6" x1="980.13" y1="1212.73" x2="980.13" y2="1172.39" />
  <line class="hero-dots-1" x1="980.13" y1="1132.05" x2="980.13" y2="1132.05" />
  <line class="hero-dots-7" x1="913.17" y1="1168.31" x2="879.69" y2="1186.44" />
  <line class="hero-dots-1" x1="846.22" y1="1204.57" x2="846.22" y2="1204.57" />
  <line class="hero-dots-8" x1="846.22" y1="1285.25" x2="846.22" y2="1325.59" />
  <line class="hero-dots-1" x1="781.18" y1="625.86" x2="781.18" y2="625.86" />
  <line class="hero-dots-2" x1="714.23" y1="662.12" x2="680.75" y2="680.25" />
  <line class="hero-dots-1" x1="647.27" y1="698.39" x2="647.27" y2="698.39" />
  <line class="hero-dots-20" x1="714.66" y1="734.65" x2="748.36" y2="752.78" />
  <line class="hero-dots-1" x1="782.06" y1="770.91" x2="782.06" y2="770.91" />
  <line class="hero-dots-10" x1="849.01" y1="734.65" x2="882.49" y2="716.52" />
  <line class="hero-dots-1" x1="915.96" y1="698.39" x2="915.96" y2="698.39" />
  <line class="hero-dots-22" x1="848.57" y1="662.12" x2="814.88" y2="643.99" />
  <line class="hero-dots-1" x1="52.95" y1="1325.05" x2="52.95" y2="1325.05" />
  <line class="hero-dots-12" x1="120.3" y1="1361.29" x2="153.97" y2="1379.41" />
  <line class="hero-dots-1" x1="187.65" y1="1397.53" x2="187.65" y2="1397.53" />
  <line class="hero-dots-5" x1="187.65" y1="1316.86" x2="187.65" y2="1276.52" />
  <line class="hero-dots-1" x1="187.65" y1="1236.18" x2="187.65" y2="1236.18" />
  <line class="hero-dots-12" x1="120.3" y1="1199.94" x2="86.63" y2="1181.82" />
  <line class="hero-dots-1" x1="52.95" y1="1163.7" x2="52.95" y2="1163.7" />
  <line class="hero-dots-5" x1="52.95" y1="1244.38" x2="52.95" y2="1284.72" />
  <line class="hero-dots-1" x1="52.95" y1="1008.76" x2="52.95" y2="1008.76" />
  <line class="hero-dots-12" x1="120.3" y1="1045" x2="153.97" y2="1063.12" />
  <line class="hero-dots-1" x1="187.65" y1="1081.24" x2="187.65" y2="1081.24" />
  <line class="hero-dots-8" x1="187.65" y1="1000.56" x2="187.65" y2="960.22" />
  <line class="hero-dots-1" x1="187.65" y1="919.89" x2="187.65" y2="919.89" />
  <line class="hero-dots-14" x1="120.3" y1="883.64" x2="86.63" y2="865.52" />
  <line class="hero-dots-1" x1="52.95" y1="847.4" x2="52.95" y2="847.4" />
  <line class="hero-dots-6" x1="52.95" y1="928.08" x2="52.95" y2="968.42" />
  <line class="hero-dots-1" x1="52.95" y1="691.05" x2="52.95" y2="691.05" />
  <line class="hero-dots-12" x1="120.3" y1="727.29" x2="153.97" y2="745.41" />
  <line class="hero-dots-1" x1="187.65" y1="763.53" x2="187.65" y2="763.53" />
  <line class="hero-dots-6" x1="187.65" y1="682.85" x2="187.65" y2="642.51" />
  <line class="hero-dots-1" x1="187.65" y1="602.18" x2="187.65" y2="602.18" />
  <line class="hero-dots-12" x1="120.3" y1="565.93" x2="86.63" y2="547.81" />
  <line class="hero-dots-1" x1="52.95" y1="529.69" x2="52.95" y2="529.69" />
  <line class="hero-dots-23" x1="52.95" y1="610.37" x2="52.95" y2="650.71" />
  <line class="hero-dots-1" x1="317.47" y1="1467.39" x2="317.47" y2="1467.39" />
  <line class="hero-dots-20" x1="384.86" y1="1503.65" x2="418.56" y2="1521.78" />
  <line class="hero-dots-1" x1="452.25" y1="1539.91" x2="452.25" y2="1539.91" />
  <line class="hero-dots-8" x1="452.25" y1="1459.23" x2="452.25" y2="1418.89" />
  <line class="hero-dots-1" x1="452.25" y1="1378.56" x2="452.25" y2="1378.56" />
  <line class="hero-dots-20" x1="384.86" y1="1342.29" x2="351.17" y2="1324.16" />
  <line class="hero-dots-1" x1="317.47" y1="1306.03" x2="317.47" y2="1306.03" />
  <line class="hero-dots-8" x1="317.47" y1="1386.71" x2="317.47" y2="1427.05" />
  <line class="hero-dots-1" x1="317.47" y1="1151.09" x2="317.47" y2="1151.09" />
  <line class="hero-dots-17" x1="384.86" y1="1187.36" x2="418.56" y2="1205.49" />
  <line class="hero-dots-1" x1="452.25" y1="1223.62" x2="452.25" y2="1223.62" />
  <line class="hero-dots-24" x1="452.25" y1="1142.94" x2="452.25" y2="1102.6" />
  <line class="hero-dots-1" x1="452.25" y1="1062.26" x2="452.25" y2="1062.26" />
  <line class="hero-dots-22" x1="384.86" y1="1026" x2="351.17" y2="1007.87" />
  <line class="hero-dots-1" x1="317.47" y1="989.74" x2="317.47" y2="989.74" />
  <line class="hero-dots-5" x1="317.47" y1="1070.42" x2="317.47" y2="1110.75" />
  <line class="hero-dots-1" x1="317.47" y1="833.38" x2="317.47" y2="833.38" />
  <line class="hero-dots-22" x1="384.86" y1="869.64" x2="418.56" y2="887.77" />
  <line class="hero-dots-1" x1="452.25" y1="905.9" x2="452.25" y2="905.9" />
  <line class="hero-dots-6" x1="452.25" y1="825.22" x2="452.25" y2="784.89" />
  <line class="hero-dots-1" x1="452.25" y1="744.55" x2="452.25" y2="744.55" />
  <line class="hero-dots-22" x1="384.86" y1="708.29" x2="351.17" y2="690.16" />
  <line class="hero-dots-1" x1="317.47" y1="672.03" x2="317.47" y2="672.03" />
  <line class="hero-dots-6" x1="317.47" y1="752.7" x2="317.47" y2="793.04" />
  <line class="hero-dots-1" x1="581.93" y1="1609.7" x2="581.93" y2="1609.7" />
  <line class="hero-dots-22" x1="649.33" y1="1645.96" x2="683.02" y2="1664.09" />
  <line class="hero-dots-1" x1="716.72" y1="1682.22" x2="716.72" y2="1682.22" />
  <line class="hero-dots-5" x1="716.72" y1="1601.55" x2="716.72" y2="1561.21" />
  <line class="hero-dots-1" x1="716.72" y1="1520.87" x2="716.72" y2="1520.87" />
  <line class="hero-dots-25" x1="649.33" y1="1484.61" x2="615.63" y2="1466.48" />
  <line class="hero-dots-1" x1="581.93" y1="1448.35" x2="581.93" y2="1448.35" />
  <line class="hero-dots-8" x1="581.93" y1="1529.02" x2="581.93" y2="1569.36" />
  <line class="hero-dots-1" x1="581.93" y1="1293.4" x2="581.93" y2="1293.4" />
  <line class="hero-dots-25" x1="649.33" y1="1329.66" x2="683.02" y2="1347.79" />
  <line class="hero-dots-1" x1="716.72" y1="1365.93" x2="716.72" y2="1365.93" />
  <line class="hero-dots-8" x1="716.72" y1="1285.25" x2="716.72" y2="1244.91" />
  <line class="hero-dots-1" x1="716.72" y1="1204.57" x2="716.72" y2="1204.57" />
  <line class="hero-dots-20" x1="649.33" y1="1168.31" x2="615.63" y2="1150.18" />
  <line class="hero-dots-1" x1="581.93" y1="1132.05" x2="581.93" y2="1132.05" />
  <line class="hero-dots-6" x1="581.93" y1="1212.73" x2="581.93" y2="1253.07" />
  <line class="hero-dots-1" x1="581.93" y1="975.69" x2="581.93" y2="975.69" />
  <line class="hero-dots-20" x1="649.33" y1="1011.95" x2="683.02" y2="1030.09" />
  <line class="hero-dots-1" x1="716.72" y1="1048.22" x2="716.72" y2="1048.22" />
  <line class="hero-dots-6" x1="716.72" y1="967.54" x2="716.72" y2="927.2" />
  <line class="hero-dots-1" x1="716.72" y1="886.86" x2="716.72" y2="886.86" />
  <line class="hero-dots-20" x1="649.33" y1="850.6" x2="615.63" y2="832.47" />
  <line class="hero-dots-1" x1="581.93" y1="814.34" x2="581.93" y2="814.34" />
  <line class="hero-dots-6" x1="581.93" y1="895.02" x2="581.93" y2="935.36" />
  <line class="hero-dots-1" x1="1108.96" y1="1539.9" x2="1108.96" y2="1539.9" />
  <line class="hero-dots-2" x1="1175.91" y1="1503.64" x2="1209.39" y2="1485.51" />
  <line class="hero-dots-1" x1="1242.87" y1="1467.38" x2="1242.87" y2="1467.38" />
  <line class="hero-dots-3" x1="1242.87" y1="1386.7" x2="1242.87" y2="1346.36" />
  <line class="hero-dots-1" x1="1242.87" y1="1306.02" x2="1242.87" y2="1306.02" />
  <line class="hero-dots-26" x1="1175.91" y1="1342.29" x2="1142.44" y2="1360.42" />
  <line class="hero-dots-1" x1="1108.96" y1="1378.55" x2="1108.96" y2="1378.55" />
  <line class="hero-dots-8" x1="1108.96" y1="1459.23" x2="1108.96" y2="1499.57" />
  <line class="hero-dots-1" x1="1108.96" y1="1223.61" x2="1108.96" y2="1223.61" />
  <line class="hero-dots-2" x1="1175.91" y1="1187.35" x2="1209.39" y2="1169.22" />
  <line class="hero-dots-1" x1="1242.87" y1="1151.09" x2="1242.87" y2="1151.09" />
  <line class="hero-dots-5" x1="1242.87" y1="1070.41" x2="1242.87" y2="1030.07" />
  <line class="hero-dots-1" x1="1242.87" y1="989.74" x2="1242.87" y2="989.74" />
  <line class="hero-dots-7" x1="1175.91" y1="1026" x2="1142.44" y2="1044.13" />
  <line class="hero-dots-1" x1="1108.96" y1="1062.26" x2="1108.96" y2="1062.26" />
  <line class="hero-dots-6" x1="1108.96" y1="1142.93" x2="1108.96" y2="1183.27" />
  <line class="hero-dots-1" x1="1043.94" y1="483.55" x2="1043.94" y2="483.55" />
  <line class="hero-dots-7" x1="976.99" y1="519.81" x2="943.51" y2="537.94" />
  <line class="hero-dots-1" x1="910.03" y1="556.07" x2="910.03" y2="556.07" />
  <line class="hero-dots-16" x1="977.43" y1="592.33" x2="1011.12" y2="610.46" />
  <line class="hero-dots-1" x1="1044.82" y1="628.59" x2="1044.82" y2="628.59" />
  <line class="hero-dots-27" x1="1111.77" y1="592.33" x2="1145.25" y2="574.2" />
  <line class="hero-dots-1" x1="1178.72" y1="556.07" x2="1178.72" y2="556.07" />
  <line class="hero-dots-28" x1="1111.33" y1="519.81" x2="1077.64" y2="501.68" />
  <line class="hero-dots-1" x1="1371.72" y1="606.45" x2="1371.72" y2="606.45" />
  <line class="hero-dots-6" x1="1371.72" y1="687.13" x2="1371.72" y2="727.47" />
  <line class="hero-dots-1" x1="1371.72" y1="767.8" x2="1371.72" y2="767.8" />
  <line class="hero-dots-7" x1="1438.68" y1="731.54" x2="1472.15" y2="713.41" />
  <line class="hero-dots-1" x1="1505.63" y1="695.28" x2="1505.63" y2="695.28" />
  <line class="hero-dots-29" x1="1505.63" y1="614.6" x2="1505.63" y2="574.27" />
  <line class="hero-dots-1" x1="1505.63" y1="533.93" x2="1505.63" y2="533.93" />
  <line class="hero-dots-7" x1="1438.68" y1="570.19" x2="1405.2" y2="588.32" />
  <line class="hero-dots-1" x1="846.22" y1="1048.22" x2="846.22" y2="1048.22" />
  <line class="hero-dots-7" x1="913.17" y1="1011.95" x2="946.65" y2="993.82" />
  <line class="hero-dots-1" x1="980.13" y1="975.69" x2="980.13" y2="975.69" />
  <line class="hero-dots-6" x1="980.13" y1="895.02" x2="980.13" y2="854.68" />
  <line class="hero-dots-1" x1="980.13" y1="814.34" x2="980.13" y2="814.34" />
  <line class="hero-dots-7" x1="913.17" y1="850.6" x2="879.69" y2="868.73" />
  <line class="hero-dots-1" x1="846.22" y1="886.86" x2="846.22" y2="886.86" />
  <line class="hero-dots-6" x1="846.22" y1="967.54" x2="846.22" y2="1007.88" />
  <line class="hero-dots-1" x1="1108.96" y1="910.12" x2="1108.96" y2="910.12" />
  <line class="hero-dots-7" x1="1175.91" y1="873.86" x2="1209.39" y2="855.73" />
  <line class="hero-dots-1" x1="1242.87" y1="837.6" x2="1242.87" y2="837.6" />
  <line class="hero-dots-6" x1="1242.87" y1="756.92" x2="1242.87" y2="716.58" />
  <line class="hero-dots-1" x1="1242.87" y1="676.24" x2="1242.87" y2="676.24" />
  <line class="hero-dots-7" x1="1175.91" y1="712.51" x2="1142.44" y2="730.64" />
  <line class="hero-dots-1" x1="1108.96" y1="748.77" x2="1108.96" y2="748.77" />
  <line class="hero-dots-6" x1="1108.96" y1="829.44" x2="1108.96" y2="869.78" />
  <line class="hero-dots-1" x1="1319.57" y1="1487.36" x2="1319.57" y2="1487.36" />
  <line class="hero-dots-30" x1="1398.57" y1="1444.57" x2="1517.08" y2="1380.39" />
  <line class="hero-dots-1" x1="1556.58" y1="1359" x2="1556.58" y2="1359" />
  <line class="hero-dots-31" x1="1556.58" y1="1263.8" x2="1556.58" y2="1121" />
  <line class="hero-dots-1" x1="1556.58" y1="1073.4" x2="1556.58" y2="1073.4" />
  <line class="hero-dots-32" x1="1477.57" y1="1116.2" x2="1359.07" y2="1180.38" />
  <line class="hero-dots-1" x1="1319.57" y1="1201.78" x2="1319.57" y2="1201.78" />
  <line class="hero-dots-33" x1="1319.57" y1="1296.97" x2="1319.57" y2="1439.76" />
  <line class="hero-dots-1" x1="1319.57" y1="1171.06" x2="1319.57" y2="1171.06" />
  <line class="hero-dots-30" x1="1398.57" y1="1128.28" x2="1517.08" y2="1064.1" />
  <line class="hero-dots-1" x1="1556.58" y1="1042.7" x2="1556.58" y2="1042.7" />
  <line class="hero-dots-34" x1="1556.58" y1="947.51" x2="1556.58" y2="804.72" />
  <line class="hero-dots-1" x1="1556.58" y1="757.12" x2="1556.58" y2="757.12" />
  <line class="hero-dots-35" x1="1477.57" y1="799.91" x2="1359.07" y2="864.09" />
  <line class="hero-dots-1" x1="1319.57" y1="885.48" x2="1319.57" y2="885.48" />
  <line class="hero-dots-36" x1="1319.57" y1="980.68" x2="1319.57" y2="1123.46" />
  <line class="hero-dots-1" x1="1015.2" y1="128.78" x2="1015.2" y2="128.78" />
  <line class="hero-dots-37" x1="935.74" y1="86.02" x2="816.55" y2="21.88" />
  <line class="hero-dots-1" x1="776.82" y1="0.5" x2="776.82" y2="0.5" />
  <line class="hero-dots-38" x1="697.81" y1="43.29" x2="579.31" y2="107.47" />
  <line class="hero-dots-1" x1="539.81" y1="128.86" x2="539.81" y2="128.86" />
  <line class="hero-dots-39" x1="619.27" y1="171.62" x2="738.46" y2="235.76" />
  <line class="hero-dots-1" x1="778.19" y1="257.14" x2="778.19" y2="257.14" />
  <line class="hero-dots-35" x1="857.2" y1="214.36" x2="975.7" y2="150.18" />
  <line class="hero-dots-1" x1="752.45" y1="271.1" x2="752.45" y2="271.1" />
  <line class="hero-dots-40" x1="672.99" y1="228.34" x2="553.79" y2="164.2" />
  <line class="hero-dots-1" x1="514.06" y1="142.82" x2="514.06" y2="142.82" />
  <line class="hero-dots-35" x1="435.05" y1="185.6" x2="316.55" y2="249.78" />
  <line class="hero-dots-1" x1="277.05" y1="271.17" x2="277.05" y2="271.17" />
  <line class="hero-dots-41" x1="356.52" y1="313.94" x2="475.72" y2="378.08" />
  <line class="hero-dots-1" x1="515.45" y1="399.46" x2="515.45" y2="399.46" />
  <line class="hero-dots-42" x1="594.45" y1="356.67" x2="712.95" y2="292.49" />
  <line class="hero-dots-1" x1="1042.83" y1="399.55" x2="1042.83" y2="399.55" />
  <line class="hero-dots-43" x1="1121.83" y1="356.76" x2="1240.33" y2="292.57" />
  <line class="hero-dots-1" x1="1279.84" y1="271.17" x2="1279.84" y2="271.17" />
  <line class="hero-dots-44" x1="1200.32" y1="228.39" x2="1081.04" y2="164.21" />
  <line class="hero-dots-1" x1="1041.28" y1="142.82" x2="1041.28" y2="142.82" />
  <line class="hero-dots-38" x1="962.28" y1="185.6" x2="843.78" y2="249.78" />
  <line class="hero-dots-1" x1="804.28" y1="271.17" x2="804.28" y2="271.17" />
  <line class="hero-dots-45" x1="883.79" y1="313.97" x2="1003.07" y2="378.16" />
  <line class="hero-dots-1" x1="541.53" y1="413.49" x2="541.53" y2="413.49" />
  <line class="hero-dots-45" x1="621.05" y1="456.28" x2="740.33" y2="520.47" />
  <line class="hero-dots-1" x1="780.09" y1="541.87" x2="780.09" y2="541.87" />
  <line class="hero-dots-43" x1="859.09" y1="499.07" x2="977.59" y2="434.89" />
  <line class="hero-dots-1" x1="1017.09" y1="413.49" x2="1017.09" y2="413.49" />
  <line class="hero-dots-46" x1="937.57" y1="370.7" x2="818.3" y2="306.52" />
  <line class="hero-dots-1" x1="778.54" y1="285.13" x2="778.54" y2="285.13" />
  <line class="hero-dots-35" x1="699.54" y1="327.92" x2="581.03" y2="392.1" />
  <line class="hero-dots-1" x1="1305.76" y1="285.13" x2="1305.76" y2="285.13" />
  <line class="hero-dots-35" x1="1226.76" y1="327.92" x2="1108.26" y2="392.1" />
  <line class="hero-dots-1" x1="1068.76" y1="413.49" x2="1068.76" y2="413.49" />
  <line class="hero-dots-44" x1="1148.28" y1="456.28" x2="1267.55" y2="520.46" />
  <line class="hero-dots-1" x1="1307.31" y1="541.85" x2="1307.31" y2="541.85" />
  <line class="hero-dots-42" x1="1386.31" y1="499.06" x2="1504.82" y2="434.88" />
  <line class="hero-dots-1" x1="1544.32" y1="413.49" x2="1544.32" y2="413.49" />
  <line class="hero-dots-47" x1="1464.8" y1="370.7" x2="1345.52" y2="306.52" />
  <line class="hero-dots-1" x1="251.24" y1="285.13" x2="251.24" y2="285.13" />
  <line class="hero-dots-35" x1="172.24" y1="327.92" x2="53.74" y2="392.1" />
  <line class="hero-dots-1" x1="14.24" y1="413.49" x2="14.24" y2="413.49" />
  <line class="hero-dots-48" x1="93.71" y1="456.25" x2="212.9" y2="520.39" />
  <line class="hero-dots-1" x1="252.64" y1="541.77" x2="252.64" y2="541.77" />
  <line class="hero-dots-49" x1="331.64" y1="498.99" x2="450.14" y2="434.81" />
  <line class="hero-dots-1" x1="489.64" y1="413.42" x2="489.64" y2="413.42" />
  <line class="hero-dots-41" x1="410.18" y1="370.65" x2="290.98" y2="306.51" />
  <line class="hero-dots-1" x1="515.71" y1="427.45" x2="515.71" y2="427.45" />
  <line class="hero-dots-49" x1="436.71" y1="470.23" x2="318.2" y2="534.41" />
  <line class="hero-dots-1" x1="278.7" y1="555.8" x2="278.7" y2="555.8" />
  <line class="hero-dots-45" x1="358.22" y1="598.6" x2="477.5" y2="662.79" />
  <line class="hero-dots-1" x1="517.26" y1="684.18" x2="517.26" y2="684.18" />
  <line class="hero-dots-32" x1="596.26" y1="641.39" x2="714.76" y2="577.2" />
  <line class="hero-dots-1" x1="754.26" y1="555.8" x2="754.26" y2="555.8" />
  <line class="hero-dots-46" x1="674.74" y1="513.02" x2="555.47" y2="448.84" />
  <line class="hero-dots-1" x1="794.07" y1="1771.99" x2="794.07" y2="1771.99" />
  <line class="hero-dots-49" x1="873.07" y1="1729.2" x2="991.57" y2="1665.02" />
  <line class="hero-dots-1" x1="1031.07" y1="1643.63" x2="1031.07" y2="1643.63" />
  <line class="hero-dots-36" x1="1031.07" y1="1548.44" x2="1031.07" y2="1405.65" />
  <line class="hero-dots-1" x1="1031.07" y1="1358.05" x2="1031.07" y2="1358.05" />
  <line class="hero-dots-30" x1="952.07" y1="1400.84" x2="833.57" y2="1465.02" />
  <line class="hero-dots-1" x1="794.07" y1="1486.41" x2="794.07" y2="1486.41" />
  <line class="hero-dots-33" x1="794.07" y1="1581.6" x2="794.07" y2="1724.39" />
  <line class="hero-dots-1" x1="794.07" y1="1455.69" x2="794.07" y2="1455.69" />
  <line class="hero-dots-30" x1="873.07" y1="1412.91" x2="991.57" y2="1348.73" />
  <line class="hero-dots-1" x1="1031.07" y1="1327.33" x2="1031.07" y2="1327.33" />
  <line class="hero-dots-34" x1="1031.07" y1="1232.14" x2="1031.07" y2="1089.35" />
  <line class="hero-dots-1" x1="1031.07" y1="1041.75" x2="1031.07" y2="1041.75" />
  <line class="hero-dots-35" x1="952.07" y1="1084.54" x2="833.57" y2="1148.72" />
  <line class="hero-dots-1" x1="794.07" y1="1170.11" x2="794.07" y2="1170.11" />
  <line class="hero-dots-36" x1="794.07" y1="1265.31" x2="794.07" y2="1408.1" />
  <line class="hero-dots-1" x1="780.24" y1="569.76" x2="780.24" y2="569.76" />
  <line class="hero-dots-30" x1="701.24" y1="612.55" x2="582.74" y2="676.73" />
  <line class="hero-dots-1" x1="543.24" y1="698.12" x2="543.24" y2="698.12" />
  <line class="hero-dots-46" x1="622.76" y1="740.91" x2="742.03" y2="805.09" />
  <line class="hero-dots-1" x1="781.79" y1="826.48" x2="781.79" y2="826.48" />
  <line class="hero-dots-38" x1="860.79" y1="783.69" x2="979.3" y2="719.51" />
  <line class="hero-dots-1" x1="1018.8" y1="698.12" x2="1018.8" y2="698.12" />
  <line class="hero-dots-50" x1="939.28" y1="655.33" x2="820" y2="591.15" />
  <line class="hero-dots-1" x1="0.5" y1="1359" x2="0.5" y2="1359" />
  <line class="hero-dots-40" x1="79.97" y1="1401.76" x2="199.17" y2="1465.9" />
  <line class="hero-dots-1" x1="238.9" y1="1487.28" x2="238.9" y2="1487.28" />
  <line class="hero-dots-33" x1="238.9" y1="1392.09" x2="238.9" y2="1249.3" />
  <line class="hero-dots-1" x1="238.9" y1="1201.71" x2="238.9" y2="1201.71" />
  <line class="hero-dots-40" x1="159.43" y1="1158.94" x2="40.23" y2="1094.8" />
  <line class="hero-dots-1" x1="0.5" y1="1073.42" x2="0.5" y2="1073.42" />
  <line class="hero-dots-33" x1="0.5" y1="1168.61" x2="0.5" y2="1311.4" />
  <line class="hero-dots-1" x1="0.5" y1="1042.7" x2="0.5" y2="1042.7" />
  <line class="hero-dots-40" x1="79.97" y1="1085.46" x2="199.17" y2="1149.61" />
  <line class="hero-dots-1" x1="238.9" y1="1170.99" x2="238.9" y2="1170.99" />
  <line class="hero-dots-36" x1="238.9" y1="1075.79" x2="238.9" y2="933.01" />
  <line class="hero-dots-1" x1="238.9" y1="885.41" x2="238.9" y2="885.41" />
  <line class="hero-dots-41" x1="159.43" y1="842.65" x2="40.23" y2="778.5" />
  <line class="hero-dots-1" x1="0.5" y1="757.12" x2="0.5" y2="757.12" />
  <line class="hero-dots-34" x1="0.5" y1="852.32" x2="0.5" y2="995.11" />
  <line class="hero-dots-1" x1="0.5" y1="724.99" x2="0.5" y2="724.99" />
  <line class="hero-dots-40" x1="79.97" y1="767.75" x2="199.17" y2="831.9" />
  <line class="hero-dots-1" x1="238.9" y1="853.28" x2="238.9" y2="853.28" />
  <line class="hero-dots-34" x1="238.9" y1="758.08" x2="238.9" y2="615.3" />
  <line class="hero-dots-1" x1="238.9" y1="567.7" x2="238.9" y2="567.7" />
  <line class="hero-dots-48" x1="159.43" y1="524.94" x2="40.23" y2="460.79" />
  <line class="hero-dots-1" x1="0.5" y1="439.41" x2="0.5" y2="439.41" />
  <line class="hero-dots-51" x1="0.5" y1="534.61" x2="0.5" y2="677.4" />
  <line class="hero-dots-1" x1="264.98" y1="1501.32" x2="264.98" y2="1501.32" />
  <line class="hero-dots-46" x1="344.5" y1="1544.1" x2="463.78" y2="1608.28" />
  <line class="hero-dots-1" x1="503.54" y1="1629.67" x2="503.54" y2="1629.67" />
  <line class="hero-dots-36" x1="503.54" y1="1534.48" x2="503.54" y2="1391.69" />
  <line class="hero-dots-1" x1="503.54" y1="1344.1" x2="503.54" y2="1344.1" />
  <line class="hero-dots-46" x1="424.02" y1="1301.31" x2="304.74" y2="1237.13" />
  <line class="hero-dots-1" x1="264.98" y1="1215.74" x2="264.98" y2="1215.74" />
  <line class="hero-dots-36" x1="264.98" y1="1310.93" x2="264.98" y2="1453.72" />
  <line class="hero-dots-1" x1="264.98" y1="1185.02" x2="264.98" y2="1185.02" />
  <line class="hero-dots-45" x1="344.5" y1="1227.81" x2="463.78" y2="1292" />
  <line class="hero-dots-1" x1="503.54" y1="1313.4" x2="503.54" y2="1313.4" />
  <line class="hero-dots-52" x1="503.54" y1="1218.2" x2="503.54" y2="1075.4" />
  <line class="hero-dots-1" x1="503.54" y1="1027.8" x2="503.54" y2="1027.8" />
  <line class="hero-dots-50" x1="424.02" y1="985.01" x2="304.74" y2="920.83" />
  <line class="hero-dots-1" x1="264.98" y1="899.44" x2="264.98" y2="899.44" />
  <line class="hero-dots-33" x1="264.98" y1="994.63" x2="264.98" y2="1137.42" />
  <line class="hero-dots-1" x1="264.98" y1="867.31" x2="264.98" y2="867.31" />
  <line class="hero-dots-50" x1="344.5" y1="910.09" x2="463.78" y2="974.27" />
  <line class="hero-dots-1" x1="503.54" y1="995.67" x2="503.54" y2="995.67" />
  <line class="hero-dots-34" x1="503.54" y1="900.47" x2="503.54" y2="757.68" />
  <line class="hero-dots-1" x1="503.54" y1="710.09" x2="503.54" y2="710.09" />
  <line class="hero-dots-50" x1="424.02" y1="667.3" x2="304.74" y2="603.12" />
  <line class="hero-dots-1" x1="264.98" y1="581.73" x2="264.98" y2="581.73" />
  <line class="hero-dots-34" x1="264.98" y1="676.92" x2="264.98" y2="819.71" />
  <line class="hero-dots-1" x1="529.45" y1="1643.63" x2="529.45" y2="1643.63" />
  <line class="hero-dots-50" x1="608.97" y1="1686.42" x2="728.24" y2="1750.6" />
  <line class="hero-dots-1" x1="768" y1="1771.99" x2="768" y2="1771.99" />
  <line class="hero-dots-33" x1="768" y1="1676.8" x2="768" y2="1534.01" />
  <line class="hero-dots-1" x1="768" y1="1486.41" x2="768" y2="1486.41" />
  <line class="hero-dots-53" x1="688.48" y1="1443.62" x2="569.21" y2="1379.45" />
  <line class="hero-dots-1" x1="529.45" y1="1358.05" x2="529.45" y2="1358.05" />
  <line class="hero-dots-36" x1="529.45" y1="1453.25" x2="529.45" y2="1596.03" />
  <line class="hero-dots-1" x1="529.45" y1="1327.33" x2="529.45" y2="1327.33" />
  <line class="hero-dots-53" x1="608.97" y1="1370.12" x2="728.24" y2="1434.3" />
  <line class="hero-dots-1" x1="768" y1="1455.69" x2="768" y2="1455.69" />
  <line class="hero-dots-36" x1="768" y1="1360.5" x2="768" y2="1217.71" />
  <line class="hero-dots-1" x1="768" y1="1170.11" x2="768" y2="1170.11" />
  <line class="hero-dots-46" x1="688.48" y1="1127.33" x2="569.21" y2="1063.15" />
  <line class="hero-dots-1" x1="529.45" y1="1041.75" x2="529.45" y2="1041.75" />
  <line class="hero-dots-34" x1="529.45" y1="1136.95" x2="529.45" y2="1279.74" />
  <line class="hero-dots-1" x1="529.45" y1="1009.62" x2="529.45" y2="1009.62" />
  <line class="hero-dots-46" x1="608.97" y1="1052.41" x2="728.24" y2="1116.59" />
  <line class="hero-dots-1" x1="768" y1="1137.98" x2="768" y2="1137.98" />
  <line class="hero-dots-34" x1="768" y1="1042.79" x2="768" y2="900" />
  <line class="hero-dots-1" x1="768" y1="852.4" x2="768" y2="852.4" />
  <line class="hero-dots-46" x1="688.48" y1="809.62" x2="569.21" y2="745.44" />
  <line class="hero-dots-1" x1="529.45" y1="724.04" x2="529.45" y2="724.04" />
  <line class="hero-dots-34" x1="529.45" y1="819.24" x2="529.45" y2="962.03" />
  <line class="hero-dots-1" x1="1056.81" y1="1629.67" x2="1056.81" y2="1629.67" />
  <line class="hero-dots-30" x1="1135.81" y1="1586.89" x2="1254.31" y2="1522.71" />
  <line class="hero-dots-1" x1="1293.82" y1="1501.32" x2="1293.82" y2="1501.32" />
  <line class="hero-dots-31" x1="1293.82" y1="1406.12" x2="1293.82" y2="1263.32" />
  <line class="hero-dots-1" x1="1293.82" y1="1215.72" x2="1293.82" y2="1215.72" />
  <line class="hero-dots-54" x1="1214.81" y1="1258.51" x2="1096.31" y2="1322.7" />
  <line class="hero-dots-1" x1="1056.81" y1="1344.1" x2="1056.81" y2="1344.1" />
  <line class="hero-dots-36" x1="1056.81" y1="1439.29" x2="1056.81" y2="1582.08" />
  <line class="hero-dots-1" x1="1056.81" y1="1313.38" x2="1056.81" y2="1313.38" />
  <line class="hero-dots-30" x1="1135.81" y1="1270.59" x2="1254.31" y2="1206.41" />
  <line class="hero-dots-1" x1="1293.82" y1="1185.02" x2="1293.82" y2="1185.02" />
  <line class="hero-dots-33" x1="1293.82" y1="1089.83" x2="1293.82" y2="947.04" />
  <line class="hero-dots-1" x1="1293.82" y1="899.44" x2="1293.82" y2="899.44" />
  <line class="hero-dots-35" x1="1214.81" y1="942.23" x2="1096.31" y2="1006.41" />
  <line class="hero-dots-1" x1="1056.81" y1="1027.8" x2="1056.81" y2="1027.8" />
  <line class="hero-dots-34" x1="1056.81" y1="1122.99" x2="1056.81" y2="1265.78" />
  <line class="hero-dots-1" x1="1043" y1="427.45" x2="1043" y2="427.45" />
  <line class="hero-dots-35" x1="964" y1="470.23" x2="845.5" y2="534.41" />
  <line class="hero-dots-1" x1="806" y1="555.8" x2="806" y2="555.8" />
  <line class="hero-dots-44" x1="885.52" y1="598.59" x2="1004.79" y2="662.77" />
  <line class="hero-dots-1" x1="1044.55" y1="684.16" x2="1044.55" y2="684.16" />
  <line class="hero-dots-55" x1="1123.55" y1="641.38" x2="1242.06" y2="577.2" />
  <line class="hero-dots-1" x1="1281.56" y1="555.8" x2="1281.56" y2="555.8" />
  <line class="hero-dots-56" x1="1202.04" y1="513.02" x2="1082.76" y2="448.84" />
  <line class="hero-dots-1" x1="1319.57" y1="571.99" x2="1319.57" y2="571.99" />
  <line class="hero-dots-34" x1="1319.57" y1="667.18" x2="1319.57" y2="809.97" />
  <line class="hero-dots-1" x1="1319.57" y1="857.57" x2="1319.57" y2="857.57" />
  <line class="hero-dots-35" x1="1398.57" y1="814.78" x2="1517.08" y2="750.6" />
  <line class="hero-dots-1" x1="1556.58" y1="729.21" x2="1556.58" y2="729.21" />
  <line class="hero-dots-57" x1="1556.58" y1="634.02" x2="1556.58" y2="491.23" />
  <line class="hero-dots-1" x1="1556.58" y1="443.63" x2="1556.58" y2="443.63" />
  <line class="hero-dots-42" x1="1477.57" y1="486.42" x2="1359.07" y2="550.6" />
  <line class="hero-dots-1" x1="794.07" y1="1137.98" x2="794.07" y2="1137.98" />
  <line class="hero-dots-35" x1="873.07" y1="1095.2" x2="991.57" y2="1031.02" />
  <line class="hero-dots-1" x1="1031.07" y1="1009.62" x2="1031.07" y2="1009.62" />
  <line class="hero-dots-34" x1="1031.07" y1="914.43" x2="1031.07" y2="771.64" />
  <line class="hero-dots-1" x1="1031.07" y1="724.04" x2="1031.07" y2="724.04" />
  <line class="hero-dots-35" x1="952.07" y1="766.83" x2="833.57" y2="831.01" />
  <line class="hero-dots-1" x1="794.07" y1="852.4" x2="794.07" y2="852.4" />
  <line class="hero-dots-34" x1="794.07" y1="947.6" x2="794.07" y2="1090.39" />
  <line class="hero-dots-1" x1="1056.81" y1="999.89" x2="1056.81" y2="999.89" />
  <line class="hero-dots-35" x1="1135.81" y1="957.1" x2="1254.31" y2="892.92" />
  <line class="hero-dots-1" x1="1293.82" y1="871.53" x2="1293.82" y2="871.53" />
  <line class="hero-dots-34" x1="1293.82" y1="776.33" x2="1293.82" y2="633.54" />
  <line class="hero-dots-1" x1="1293.82" y1="585.95" x2="1293.82" y2="585.95" />
  <line class="hero-dots-35" x1="1214.81" y1="628.73" x2="1096.31" y2="692.91" />
  <line class="hero-dots-1" x1="1056.81" y1="714.31" x2="1056.81" y2="714.31" />
  <line class="hero-dots-34" x1="1056.81" y1="809.5" x2="1056.81" y2="952.29" />
</svg>