<svg xmlns="http://www.w3.org/2000/svg" xmlns:xlink="http://www.w3.org/1999/xlink" viewBox="0 0 166.46 151.87"><defs><style>.cls-1,.cls-2{fill:#fff;}.cls-2,.cls-3,.cls-4,.cls-7{stroke:#000;}.cls-2{stroke-miterlimit:10;}.cls-2,.cls-3,.cls-4{stroke-width:0.75px;}.cls-3,.cls-4,.cls-7{stroke-linejoin:round;}.cls-3{fill:url(#linear-gradient);}.cls-4,.cls-6,.cls-7{fill:none;}.cls-5{fill:url(#radial-gradient);}.cls-7{stroke-linecap:round;stroke-width:0;}</style><linearGradient id="linear-gradient" x1="99.93" y1="140.74" x2="143.16" y2="140.74" gradientUnits="userSpaceOnUse"><stop offset="0" stop-color="#9e96ff"/><stop offset="1" stop-color="blue"/></linearGradient><radialGradient id="radial-gradient" cx="120.9" cy="78.29" r="97.91" gradientUnits="userSpaceOnUse"><stop offset="0.23" stop-color="#a2f6ff"/><stop offset="1" stop-color="#a2f6ff"/></radialGradient></defs><g id="Layer_2" data-name="Layer 2"><g id="Layer_1-2" data-name="Layer 1"><polygon class="cls-1" points="100.26 101.64 100.26 35.85 166.08 52.3 166.08 118.1 100.26 101.64"/><path d="M100.64,36.33l65.07,16.26v65l-65.07-16.27v-65m-.75-1v66.57l66.57,16.64V52L99.89,35.37Z"/><polygon class="cls-1" points="69.06 66.28 69.06 0.48 134.88 16.94 134.88 82.73 69.06 66.28"/><path d="M69.43,1,134.5,17.23v65L69.43,66V1m-.75-1V66.57l66.57,16.64V16.64L68.68,0Z"/><line class="cls-2" x1="154.1" y1="124.52" x2="166.13" y2="118.52"/><line class="cls-3" x1="99.93" y1="151.51" x2="143.16" y2="129.97"/><line class="cls-2" x1="100.16" y1="101.5" x2="134.62" y2="83.18"/><line class="cls-4" x1="0.17" y1="35.36" x2="68.67" y2="0.34"/><circle class="cls-5" cx="86.05" cy="75.25" r="35.5"/><polygon class="cls-1" points="0.4 101.64 0.4 35.85 66.22 52.3 66.22 118.1 0.4 101.64"/><path d="M.78,36.33,65.85,52.59v65L.78,101.35v-65m-.75-1v66.57L66.6,118.58V52L0,35.37Z"/><polygon class="cls-1" points="33.69 134.93 33.69 69.13 99.51 85.59 99.51 151.38 33.69 134.93"/><path d="M34.06,69.61,99.14,85.88v65L34.06,134.64v-65m-.75-1v66.57l66.58,16.65V85.29L33.31,68.65Z"/><path class="cls-6" d="M158.15,134.61a1.85,1.85,0,0,0-3.69,0,1.82,1.82,0,0,0,.86,1.56l-.64,2.83h3.25l-.65-2.83A1.83,1.83,0,0,0,158.15,134.61Z"/><line class="cls-7" x1="143.09" y1="124.33" x2="143.09" y2="124.33"/><path d="M164.05,129.11H149.84v-4.78a4.07,4.07,0,0,0-4.07-4.07h0a4.07,4.07,0,0,0-4.07,4.07h1.4a2.67,2.67,0,0,1,2.67-2.66h0a2.66,2.66,0,0,1,2.66,2.66v4.79a1.43,1.43,0,0,0-1.31,1.42v10.69a1.43,1.43,0,0,0,1.43,1.43h15.5a1.43,1.43,0,0,0,1.43-1.43V130.54A1.43,1.43,0,0,0,164.05,129.11ZM157.93,139h-3.25l.64-2.83a1.84,1.84,0,0,1,1-3.4,1.84,1.84,0,0,1,1,3.4Z"/><line class="cls-4" x1="33.65" y1="68.83" x2="66.26" y2="52.3"/></g></g></svg>