<svg width="167" height="152" viewBox="0 0 167 152" fill="none" xmlns="http://www.w3.org/2000/svg">
  <mask id="path-1-inside-1" fill="white">
    <path d="M69.4302 1L134.5 17.23V82.23L69.4302 66V1ZM68.6802 0V66.57L135.25 83.21V16.64L68.6802 0Z" />
  </mask>
  <path
    d="M69.4302 1L69.6722 0.0297261L68.4302 -0.28006V1H69.4302ZM134.5 17.23H135.5V16.4488L134.742 16.2597L134.5 17.23ZM134.5 82.23L134.258 83.2003L135.5 83.5101V82.23H134.5ZM69.4302 66H68.4302V66.7812L69.1882 66.9703L69.4302 66ZM68.6802 0L68.9227 -0.970151L67.6802 -1.28073V0H68.6802ZM68.6802 66.57H67.6802V67.3508L68.4377 67.5402L68.6802 66.57ZM135.25 83.21L135.008 84.1802L136.25 84.4907V83.21H135.25ZM135.25 16.64H136.25V15.8592L135.493 15.6698L135.25 16.64ZM69.1882 1.97027L134.258 18.2003L134.742 16.2597L69.6722 0.0297261L69.1882 1.97027ZM133.5 17.23V82.23H135.5V17.23H133.5ZM134.742 81.2597L69.6722 65.0297L69.1882 66.9703L134.258 83.2003L134.742 81.2597ZM70.4302 66V1H68.4302V66H70.4302ZM67.6802 0V66.57H69.6802V0H67.6802ZM68.4377 67.5402L135.008 84.1802L135.493 82.2398L68.9227 65.5998L68.4377 67.5402ZM136.25 83.21V16.64H134.25V83.21H136.25ZM135.493 15.6698L68.9227 -0.970151L68.4377 0.970151L135.008 17.6102L135.493 15.6698Z"
    fill="#6A6C72" mask="url(#path-1-inside-1)" />
  <mask id="path-3-inside-2" fill="white">
    <path d="M100.75 36.97L165.83 53.24V118.24L100.75 102V37V36.97ZM100 36V102.57L166.58 119.22V52.65L100 36.01V36Z" />
  </mask>
  <path
    d="M100.75 36.97L100.993 35.9999L99.75 35.6892V36.97H100.75ZM165.83 53.24H166.83V52.4592L166.073 52.2699L165.83 53.24ZM165.83 118.24L165.588 119.21L166.83 119.52V118.24H165.83ZM100.75 102H99.75V102.781L100.508 102.97L100.75 102ZM100 102.57H99V103.351L99.7574 103.54L100 102.57ZM166.58 119.22L166.337 120.19L167.58 120.501V119.22H166.58ZM166.58 52.65H167.58V51.8692L166.822 51.6798L166.58 52.65ZM100 36.01H99V36.7908L99.7575 36.9802L100 36.01ZM100.507 37.9401L165.587 54.2101L166.073 52.2699L100.993 35.9999L100.507 37.9401ZM164.83 53.24V118.24H166.83V53.24H164.83ZM166.072 117.27L100.992 101.03L100.508 102.97L165.588 119.21L166.072 117.27ZM101.75 102V37H99.75V102H101.75ZM101.75 37V36.97H99.75V37H101.75ZM99 36V102.57H101V36H99ZM99.7574 103.54L166.337 120.19L166.823 118.25L100.243 101.6L99.7574 103.54ZM167.58 119.22V52.65H165.58V119.22H167.58ZM166.822 51.6798L100.242 35.0398L99.7575 36.9802L166.338 53.6202L166.822 51.6798ZM101 36.01V36H99V36.01H101Z"
    fill="#6A6C72" mask="url(#path-3-inside-2)" />
  <path d="M154.1 124.52L166.13 118.52" stroke="#6A6C72" stroke-width="0.75" stroke-miterlimit="10" />
  <path d="M99.9302 151.51L143.16 129.97" stroke="#6A6C72" stroke-width="0.75" stroke-linejoin="round" />
  <path d="M100.16 101.5L134.62 83.1801" stroke="#6A6C72" stroke-width="0.75" stroke-miterlimit="10" />
  <path d="M0.169922 35.36L68.6699 0.339966" stroke="#6A6C72" stroke-width="0.75" stroke-linejoin="round" />
  <path
    d="M86.0498 110.75C105.656 110.75 121.55 94.8561 121.55 75.25C121.55 55.6439 105.656 39.75 86.0498 39.75C66.4437 39.75 50.5498 55.6439 50.5498 75.25C50.5498 94.8561 66.4437 110.75 86.0498 110.75Z"
    fill="#A2F6FF" />
  <mask id="path-10-inside-3" fill="white">
    <path
      d="M0.78 36.33L65.85 52.59V117.59L0.78 101.35V36.35V36.33ZM0.03 35.35V101.92L66.6 118.58V52L0 35.37L0.03 35.35Z" />
  </mask>
  <path
    d="M0.78 36.33L1.02243 35.3598L-0.22 35.0493V36.33H0.78ZM65.85 52.59H66.85V51.8091L66.0924 51.6198L65.85 52.59ZM65.85 117.59L65.6078 118.56L66.85 118.87V117.59H65.85ZM0.78 101.35H-0.22V102.131L0.53785 102.32L0.78 101.35ZM0.03 35.35H1.03V33.4814L-0.524709 34.5179L0.03 35.35ZM0.03 101.92H-0.97V102.701L-0.212776 102.89L0.03 101.92ZM66.6 118.58L66.3572 119.55L67.6 119.861V118.58H66.6ZM66.6 52H67.6V51.219L66.8423 51.0298L66.6 52ZM0 35.37L-0.554709 34.5379L-2.43628 35.7923L-0.242261 36.3402L0 35.37ZM0.53757 37.3001L65.6076 53.5601L66.0924 51.6198L1.02243 35.3598L0.53757 37.3001ZM64.85 52.59V117.59H66.85V52.59H64.85ZM66.0921 116.62L1.02215 100.38L0.53785 102.32L65.6078 118.56L66.0921 116.62ZM1.78 101.35V36.35H-0.22V101.35H1.78ZM1.78 36.35V36.33H-0.22V36.35H1.78ZM-0.97 35.35V101.92H1.03V35.35H-0.97ZM-0.212776 102.89L66.3572 119.55L66.8428 117.61L0.272776 100.95L-0.212776 102.89ZM67.6 118.58V52H65.6V118.58H67.6ZM66.8423 51.0298L0.242261 34.3998L-0.242261 36.3402L66.3577 52.9702L66.8423 51.0298ZM0.554709 36.202L0.584709 36.182L-0.524709 34.5179L-0.554709 34.5379L0.554709 36.202Z"
    fill="#6A6C72" mask="url(#path-10-inside-3)" />
  <mask id="path-12-inside-4" fill="white">
    <path
      d="M34.0601 69.61L99.1401 85.88V150.88L34.0601 134.64V69.64V69.61ZM33.3101 68.64V135.21L99.8901 151.86V85.29L33.3101 68.65V68.64Z" />
  </mask>
  <path
    d="M34.0601 69.61L34.3026 68.6399L33.0601 68.3292V69.61H34.0601ZM99.1401 85.88H100.14V85.0992L99.3826 84.9099L99.1401 85.88ZM99.1401 150.88L98.8979 151.85L100.14 152.16V150.88H99.1401ZM34.0601 134.64H33.0601V135.421L33.8179 135.61L34.0601 134.64ZM33.3101 135.21H32.3101V135.991L33.0675 136.18L33.3101 135.21ZM99.8901 151.86L99.6475 152.83L100.89 153.141V151.86H99.8901ZM99.8901 85.29H100.89V84.5092L100.133 84.3199L99.8901 85.29ZM33.3101 68.65H32.3101V69.4309L33.0676 69.6202L33.3101 68.65ZM33.8175 70.5802L98.8975 86.8502L99.3826 84.9099L34.3026 68.6399L33.8175 70.5802ZM98.1401 85.88V150.88H100.14V85.88H98.1401ZM99.3822 149.91L34.3022 133.67L33.8179 135.61L98.8979 151.85L99.3822 149.91ZM35.0601 134.64V69.64H33.0601V134.64H35.0601ZM35.0601 69.64V69.61H33.0601V69.64H35.0601ZM32.3101 68.64V135.21H34.3101V68.64H32.3101ZM33.0675 136.18L99.6475 152.83L100.133 150.89L33.5527 134.24L33.0675 136.18ZM100.89 151.86V85.29H98.8901V151.86H100.89ZM100.133 84.3199L33.5525 67.6799L33.0676 69.6202L99.6476 86.2602L100.133 84.3199ZM34.3101 68.65V68.64H32.3101V68.65H34.3101Z"
    fill="#6A6C72" mask="url(#path-12-inside-4)" />
  <path
    d="M164.05 129.11H149.84V124.33C149.84 123.251 149.411 122.215 148.648 121.452C147.885 120.689 146.85 120.26 145.77 120.26V120.26C144.691 120.26 143.656 120.689 142.892 121.452C142.129 122.215 141.7 123.251 141.7 124.33H143.1C143.103 123.624 143.385 122.947 143.886 122.448C144.386 121.95 145.064 121.67 145.77 121.67C146.476 121.67 147.152 121.95 147.651 122.449C148.15 122.948 148.43 123.625 148.43 124.33V129.12C148.074 129.15 147.742 129.312 147.499 129.575C147.257 129.838 147.121 130.182 147.12 130.54V141.23C147.12 141.609 147.271 141.973 147.539 142.241C147.807 142.509 148.171 142.66 148.55 142.66H164.05C164.429 142.66 164.793 142.509 165.061 142.241C165.33 141.973 165.48 141.609 165.48 141.23V130.54C165.48 130.161 165.33 129.797 165.061 129.529C164.793 129.261 164.429 129.11 164.05 129.11ZM157.93 139H154.68L155.32 136.17C154.98 135.957 154.718 135.639 154.576 135.263C154.433 134.888 154.417 134.476 154.53 134.091C154.644 133.705 154.88 133.368 155.203 133.129C155.526 132.891 155.919 132.765 156.32 132.77C156.722 132.765 157.114 132.891 157.437 133.129C157.76 133.368 157.997 133.705 158.11 134.091C158.223 134.476 158.207 134.888 158.065 135.263C157.922 135.639 157.661 135.957 157.32 136.17L157.93 139Z"
    fill="#6A6C72" />
  <path d="M33.6499 68.8301L66.2599 52.3" stroke="#6A6C72" stroke-width="0.75" stroke-linejoin="round" />
</svg>