<svg xmlns="http://www.w3.org/2000/svg" xmlns:xlink="http://www.w3.org/1999/xlink" viewBox="0 0 220.49 244.79"><defs><style>.monet-1{fill:url(#Indigo_174);}.monet-2{fill:url(#Indigo_174-2);}.monet-3{fill:url(#Indigo_174-3);}.monet-4{fill:url(#Indigo_174-4);}.monet-5{fill:url(#Indigo_174-5);}.monet-6{fill:url(#Indigo_174-6);}.monet-7{fill:url(#Indigo_174-7);}.monet-8{fill:url(#Indigo_174-8);}.monet-9{fill:url(#Indigo_174-9);}.monet-10{fill:url(#Indigo_174-10);}.monet-11{fill:url(#linear-gradient);}.monet-12{fill:url(#linear-gradient-2);}.monet-13{fill:url(#linear-gradient-3);}.monet-14{fill:url(#linear-gradient-4);}.monet-15{fill:url(#linear-gradient-5);}.monet-16{fill:url(#linear-gradient-6);}.monet-17{fill:url(#linear-gradient-7);}.monet-18{fill:url(#linear-gradient-8);}.monet-19{fill:url(#linear-gradient-9);}.monet-20{fill:url(#linear-gradient-10);}.monet-21{fill:url(#linear-gradient-11);}.monet-22{fill:url(#linear-gradient-12);}.monet-23{fill:url(#linear-gradient-13);}.monet-24{fill:url(#linear-gradient-14);}.monet-25{fill:url(#linear-gradient-15);}.monet-26{fill:url(#linear-gradient-16);}.monet-27{fill:url(#linear-gradient-17);}.monet-28{fill:url(#linear-gradient-18);}.monet-29{fill:url(#linear-gradient-19);}.monet-30{fill:url(#linear-gradient-20);}.monet-31{fill:url(#linear-gradient-21);}.monet-32{fill:url(#linear-gradient-22);}.monet-33{fill:url(#linear-gradient-23);}.monet-34{fill:url(#linear-gradient-24);}.monet-35{fill:url(#linear-gradient-25);}.monet-36{fill:url(#linear-gradient-26);}.monet-37{fill:url(#linear-gradient-27);}.monet-38{fill:url(#linear-gradient-28);}.monet-39{fill:url(#linear-gradient-29);}.monet-40{fill:url(#linear-gradient-30);}.monet-41{fill:url(#linear-gradient-31);}.monet-42{fill:url(#linear-gradient-32);}.monet-43{fill:url(#linear-gradient-33);}.monet-44{fill:url(#linear-gradient-34);}.monet-45{fill:url(#linear-gradient-35);}.monet-46{fill:url(#linear-gradient-36);}.monet-47{fill:url(#Indigo_180);}.monet-48{fill:url(#Indigo_180-2);}.monet-49{fill:url(#Indigo_180-3);}.monet-50{fill:url(#Indigo_180-4);}.monet-51{fill:url(#Indigo_180-5);}.monet-52{fill:url(#Indigo_180-6);}.monet-53{fill:url(#Indigo_180-7);}.monet-54{fill:url(#Indigo_180-8);}.monet-55{fill:url(#Indigo_180-9);}.monet-56{fill:url(#Indigo_180-10);}.monet-57{fill:url(#Indigo_180-11);}.monet-58{fill:url(#Indigo_180-12);}.monet-59{fill:url(#Indigo_180-13);}.monet-60{fill:url(#Indigo_180-14);}.monet-61{fill:url(#Indigo_180-15);}.monet-62{fill:url(#Indigo_180-16);}.monet-63{fill:url(#Indigo_180-17);}.monet-64{fill:url(#Indigo_180-18);}.monet-65{fill:url(#Indigo_180-19);}.monet-66{fill:url(#Indigo_180-20);}.monet-67{fill:url(#Indigo_180-21);}.monet-68{fill:url(#Indigo_180-22);}.monet-69{fill:url(#Indigo_180-23);}.monet-70{fill:url(#Indigo_180-24);}.monet-71{fill:url(#Indigo_180-25);}.monet-72{fill:url(#Indigo_180-26);}.monet-73{fill:url(#Indigo_180-27);}.monet-74{fill:url(#Indigo_180-28);}.monet-75{fill:url(#Indigo_180-29);}.monet-76{fill:url(#Indigo_180-30);}.monet-77{fill:url(#Indigo_180-31);}.monet-78{fill:url(#Indigo_180-32);}.monet-100,.monet-101,.monet-102,.monet-103,.monet-104,.monet-105,.monet-106,.monet-107,.monet-108,.monet-109,.monet-110,.monet-111,.monet-112,.monet-113,.monet-114,.monet-115,.monet-116,.monet-117,.monet-118,.monet-119,.monet-120,.monet-121,.monet-122,.monet-123,.monet-124,.monet-125,.monet-126,.monet-127,.monet-128,.monet-129,.monet-130,.monet-131,.monet-132,.monet-133,.monet-134,.monet-135,.monet-79,.monet-80,.monet-81,.monet-82,.monet-83,.monet-84,.monet-85,.monet-86,.monet-87,.monet-88,.monet-89,.monet-90,.monet-91,.monet-92,.monet-93,.monet-94,.monet-95,.monet-96,.monet-97,.monet-98,.monet-99{fill:none;stroke-miterlimit:10;stroke-width:0.47px;}.monet-79{stroke:url(#Indigo_180-33);}.monet-80{stroke:url(#Indigo_180-34);}.monet-81{stroke:url(#Indigo_180-35);}.monet-82{stroke:url(#Indigo_180-36);}.monet-83{stroke:url(#Indigo_180-37);}.monet-84{stroke:url(#Indigo_180-38);}.monet-85{stroke:url(#Indigo_180-39);}.monet-86{stroke:url(#Indigo_180-40);}.monet-87{stroke:url(#Indigo_180-41);}.monet-88{stroke:url(#Indigo_180-42);}.monet-89{stroke:url(#Indigo_180-43);}.monet-90{stroke:url(#Indigo_180-44);}.monet-91{stroke:url(#Indigo_180-45);}.monet-92{stroke:url(#Indigo_180-46);}.monet-93{stroke:url(#Indigo_180-47);}.monet-94{stroke:url(#Indigo_180-48);}.monet-95{stroke:url(#Indigo_180-49);}.monet-96{stroke:url(#Indigo_180-50);}.monet-97{stroke:url(#Indigo_180-51);}.monet-98{stroke:url(#Indigo_180-52);}.monet-99{stroke:url(#Indigo_180-53);}.monet-100{stroke:url(#Indigo_180-54);}.monet-101{stroke:url(#Indigo_180-55);}.monet-102{stroke:url(#Indigo_180-56);}.monet-103{stroke:url(#Indigo_180-57);}.monet-104{stroke:url(#Indigo_180-58);}.monet-105{stroke:url(#Indigo_180-59);}.monet-106{stroke:url(#Indigo_180-60);}.monet-107{stroke:url(#Indigo_180-61);}.monet-108{stroke:url(#Indigo_180-62);}.monet-109{stroke:url(#Indigo_180-63);}.monet-110{stroke:url(#Indigo_180-64);}.monet-111{stroke:url(#Indigo_180-65);}.monet-112{stroke:url(#Indigo_180-66);}.monet-113{stroke:url(#Indigo_180-67);}.monet-114{stroke:url(#Indigo_180-68);}.monet-115{stroke:url(#Indigo_180-69);}.monet-116{stroke:url(#Indigo_180-70);}.monet-117{stroke:url(#Indigo_180-71);}.monet-118{stroke:url(#Indigo_180-72);}.monet-119{stroke:url(#Indigo_180-73);}.monet-120{stroke:url(#Indigo_180-74);}.monet-121{stroke:url(#Indigo_180-75);}.monet-122{stroke:url(#Indigo_180-76);}.monet-123{stroke:url(#Indigo_180-77);}.monet-124{stroke:url(#Indigo_180-78);}.monet-125{stroke:url(#Indigo_180-79);}.monet-126{stroke:url(#Indigo_180-80);}.monet-127{stroke:url(#Indigo_180-81);}.monet-128{stroke:url(#Indigo_180-82);}.monet-129{stroke:url(#Indigo_180-83);}.monet-130{stroke:url(#Indigo_180-84);}.monet-131{stroke:url(#Indigo_180-85);}.monet-132{stroke:url(#Indigo_180-86);}.monet-133{stroke:url(#Indigo_180-87);}.monet-134{stroke:url(#Indigo_180-88);}.monet-135{stroke:url(#Indigo_180-89);}.monet-136{fill:url(#New_Gradient_Swatch_52);}.monet-137{fill:url(#New_Gradient_Swatch_52-2);}.monet-138{fill:url(#New_Gradient_Swatch_52-3);}.monet-139{fill:url(#New_Gradient_Swatch_52-4);}.monet-140{fill:url(#New_Gradient_Swatch_52-5);}.monet-141{fill:url(#New_Gradient_Swatch_52-6);}.monet-142{fill:url(#New_Gradient_Swatch_52-7);}.monet-143{fill:url(#New_Gradient_Swatch_52-8);}.monet-144{fill:url(#New_Gradient_Swatch_52-9);}.monet-145{fill:url(#New_Gradient_Swatch_52-10);}.monet-146{fill:url(#New_Gradient_Swatch_52-11);}.monet-147{fill:url(#New_Gradient_Swatch_52-12);}.monet-148{fill:url(#New_Gradient_Swatch_52-13);}.monet-149{fill:url(#New_Gradient_Swatch_52-14);}.monet-150{fill:url(#New_Gradient_Swatch_52-15);}.monet-151{fill:url(#New_Gradient_Swatch_52-16);}.monet-152{fill:url(#New_Gradient_Swatch_52-17);}.monet-153{fill:url(#New_Gradient_Swatch_52-18);}.monet-154{fill:url(#New_Gradient_Swatch_52-19);}.monet-155{fill:url(#New_Gradient_Swatch_52-20);}.monet-156{fill:url(#New_Gradient_Swatch_52-21);}.monet-157{fill:url(#New_Gradient_Swatch_52-22);}.monet-158{fill:url(#New_Gradient_Swatch_52-23);}.monet-159{fill:url(#New_Gradient_Swatch_52-24);}.monet-160{fill:url(#New_Gradient_Swatch_52-25);}.monet-161{fill:url(#New_Gradient_Swatch_52-26);}.monet-162{fill:url(#New_Gradient_Swatch_52-27);}.monet-163{fill:url(#New_Gradient_Swatch_52-28);}.monet-164{fill:url(#New_Gradient_Swatch_52-29);}.monet-165{fill:url(#New_Gradient_Swatch_52-30);}.monet-166{fill:url(#New_Gradient_Swatch_52-31);}.monet-167{fill:url(#New_Gradient_Swatch_52-32);}.monet-168{fill:url(#New_Gradient_Swatch_52-33);}.monet-169{fill:url(#New_Gradient_Swatch_52-34);}.monet-170{fill:url(#New_Gradient_Swatch_52-35);}.monet-171{fill:url(#New_Gradient_Swatch_52-36);}.monet-172{fill:url(#New_Gradient_Swatch_52-37);}.monet-173{fill:url(#New_Gradient_Swatch_52-38);}.monet-174{fill:url(#New_Gradient_Swatch_52-39);}.monet-175{fill:url(#New_Gradient_Swatch_52-40);}.monet-176{fill:url(#New_Gradient_Swatch_52-41);}.monet-177{fill:url(#New_Gradient_Swatch_52-42);}.monet-178{fill:url(#New_Gradient_Swatch_52-43);}.monet-179{fill:url(#New_Gradient_Swatch_52-44);}.monet-180{fill:url(#New_Gradient_Swatch_52-45);}.monet-181{fill:url(#New_Gradient_Swatch_52-46);}.monet-182{fill:url(#New_Gradient_Swatch_52-47);}.monet-183{fill:url(#New_Gradient_Swatch_52-48);}.monet-184{fill:url(#New_Gradient_Swatch_52-49);}.monet-185{fill:url(#New_Gradient_Swatch_52-50);}.monet-186{fill:url(#New_Gradient_Swatch_52-51);}.monet-187{fill:url(#New_Gradient_Swatch_52-52);}.monet-188{fill:url(#New_Gradient_Swatch_52-53);}.monet-189{fill:url(#New_Gradient_Swatch_52-54);}.monet-190{fill:url(#New_Gradient_Swatch_52-55);}.monet-191{fill:url(#New_Gradient_Swatch_52-56);}.monet-192{fill:url(#New_Gradient_Swatch_52-57);}.monet-193{fill:url(#New_Gradient_Swatch_52-58);}.monet-194{fill:url(#New_Gradient_Swatch_52-59);}.monet-195{fill:url(#New_Gradient_Swatch_52-60);}.monet-196{fill:url(#New_Gradient_Swatch_52-61);}.monet-197{fill:url(#New_Gradient_Swatch_52-62);}.monet-198{fill:url(#New_Gradient_Swatch_52-63);}.monet-199{fill:url(#New_Gradient_Swatch_52-64);}.monet-200{fill:url(#New_Gradient_Swatch_52-65);}.monet-201{fill:url(#New_Gradient_Swatch_52-66);}.monet-202{fill:url(#New_Gradient_Swatch_52-67);}.monet-203{fill:url(#New_Gradient_Swatch_52-68);}.monet-204{fill:url(#New_Gradient_Swatch_52-69);}.monet-205{fill:url(#New_Gradient_Swatch_52-70);}.monet-206{fill:url(#New_Gradient_Swatch_52-71);}.monet-207{fill:url(#New_Gradient_Swatch_52-72);}.monet-208{fill:url(#Indigo_176);}</style><linearGradient id="Indigo_174" x1="112.64" y1="121.9" x2="220.49" y2="121.9" gradientUnits="userSpaceOnUse"><stop offset="0" stop-color="#2d00ff"/><stop offset="0.5" stop-color="#b5a0ff"/><stop offset="1" stop-color="#a2f6ff"/></linearGradient><linearGradient id="Indigo_174-2" x1="126.35" y1="122.01" x2="147.07" y2="122.01" xlink:href="#Indigo_174"/><linearGradient id="Indigo_174-3" x1="112.64" y1="121.85" x2="133.41" y2="121.85" xlink:href="#Indigo_174"/><linearGradient id="Indigo_174-4" x1="167.21" y1="122.29" x2="187.38" y2="122.29" xlink:href="#Indigo_174"/><linearGradient id="Indigo_174-5" x1="153.52" y1="122.19" x2="173.98" y2="122.19" xlink:href="#Indigo_174"/><linearGradient id="Indigo_174-6" x1="194.25" y1="122.39" x2="213.92" y2="122.39" xlink:href="#Indigo_174"/><linearGradient id="Indigo_174-7" x1="140.09" y1="122.09" x2="160.46" y2="122.09" xlink:href="#Indigo_174"/><linearGradient id="Indigo_174-8" x1="180.97" y1="122.34" x2="200.59" y2="122.34" xlink:href="#Indigo_174"/><linearGradient id="Indigo_174-9" x1="208.05" y1="96.56" x2="220.49" y2="96.56" xlink:href="#Indigo_174"/><linearGradient id="Indigo_174-10" x1="112.87" y1="179.7" x2="119.67" y2="179.7" xlink:href="#Indigo_174"/><linearGradient id="linear-gradient" x1="98.23" y1="-74.35" x2="-67.71" y2="164.46" gradientUnits="userSpaceOnUse"><stop offset="0.1" stop-color="#7147ff"/><stop offset="0.54" stop-color="#b8a4ff"/><stop offset="0.54" stop-color="#b6a1ff"/><stop offset="0.59" stop-color="#9277ff"/><stop offset="0.65" stop-color="#7353ff"/><stop offset="0.7" stop-color="#5b36ff"/><stop offset="0.76" stop-color="#4720ff"/><stop offset="0.83" stop-color="#3a0fff"/><stop offset="0.9" stop-color="#3206ff"/><stop offset="1" stop-color="#2f03ff"/></linearGradient><linearGradient id="linear-gradient-2" x1="294.6" y1="62.1" x2="128.66" y2="300.91" xlink:href="#linear-gradient"/><linearGradient id="linear-gradient-3" x1="237.9" y1="22.7" x2="71.96" y2="261.51" xlink:href="#linear-gradient"/><linearGradient id="linear-gradient-4" x1="276.12" y1="49.26" x2="110.18" y2="288.07" xlink:href="#linear-gradient"/><linearGradient id="linear-gradient-5" x1="154.93" y1="-34.95" x2="-11.01" y2="203.86" xlink:href="#linear-gradient"/><linearGradient id="linear-gradient-6" x1="139.98" y1="-45.34" x2="-25.96" y2="193.47" xlink:href="#linear-gradient"/><linearGradient id="linear-gradient-7" x1="252.79" y1="33.05" x2="86.86" y2="271.86" xlink:href="#linear-gradient"/><linearGradient id="linear-gradient-8" x1="257.29" y1="36.17" x2="91.35" y2="274.98" xlink:href="#linear-gradient"/><linearGradient id="linear-gradient-9" x1="135.18" y1="-48.68" x2="-30.76" y2="190.13" xlink:href="#linear-gradient"/><linearGradient id="linear-gradient-10" x1="116.43" y1="-61.7" x2="-49.51" y2="177.11" xlink:href="#linear-gradient"/><linearGradient id="linear-gradient-11" x1="237.23" y1="22.24" x2="71.29" y2="261.05" xlink:href="#linear-gradient"/><linearGradient id="linear-gradient-12" x1="155.59" y1="-34.49" x2="-10.35" y2="204.32" xlink:href="#linear-gradient"/><linearGradient id="linear-gradient-13" x1="247.35" y1="29.27" x2="81.41" y2="268.08" xlink:href="#linear-gradient"/><linearGradient id="linear-gradient-14" x1="145.48" y1="-41.52" x2="-20.46" y2="197.29" xlink:href="#linear-gradient"/><linearGradient id="linear-gradient-15" x1="220.03" y1="10.29" x2="54.1" y2="249.1" xlink:href="#linear-gradient"/><linearGradient id="linear-gradient-16" x1="267.05" y1="42.96" x2="101.12" y2="281.77" xlink:href="#linear-gradient"/><linearGradient id="linear-gradient-17" x1="191.21" y1="-9.74" x2="25.27" y2="229.07" xlink:href="#linear-gradient"/><linearGradient id="linear-gradient-18" x1="111.74" y1="-64.96" x2="-54.2" y2="173.85" xlink:href="#linear-gradient"/><linearGradient id="linear-gradient-19" x1="171.12" y1="-23.7" x2="5.18" y2="215.11" xlink:href="#linear-gradient"/><linearGradient id="linear-gradient-20" x1="172.77" y1="-22.55" x2="6.83" y2="216.25" xlink:href="#linear-gradient"/><linearGradient id="linear-gradient-21" x1="201.62" y1="-2.5" x2="35.69" y2="236.3" xlink:href="#linear-gradient"/><linearGradient id="linear-gradient-22" x1="125.66" y1="-55.29" x2="-40.28" y2="183.52" xlink:href="#linear-gradient"/><linearGradient id="linear-gradient-23" x1="281.13" y1="52.74" x2="115.19" y2="291.55" xlink:href="#linear-gradient"/><linearGradient id="linear-gradient-24" x1="205.75" y1="0.36" x2="39.81" y2="239.17" xlink:href="#linear-gradient"/><linearGradient id="linear-gradient-25" x1="140.01" y1="-45.32" x2="-25.93" y2="193.49" xlink:href="#linear-gradient"/><linearGradient id="linear-gradient-26" x1="252.77" y1="33.04" x2="86.83" y2="271.85" xlink:href="#linear-gradient"/><linearGradient id="linear-gradient-27" x1="187.06" y1="-12.62" x2="21.12" y2="226.18" xlink:href="#linear-gradient"/><linearGradient id="linear-gradient-28" x1="221.72" y1="11.46" x2="55.78" y2="250.27" xlink:href="#linear-gradient"/><linearGradient id="linear-gradient-29" x1="125.36" y1="-55.49" x2="-40.57" y2="183.31" xlink:href="#linear-gradient"/><linearGradient id="linear-gradient-30" x1="226.3" y1="14.64" x2="60.36" y2="253.45" xlink:href="#linear-gradient"/><linearGradient id="linear-gradient-31" x1="152.49" y1="-36.64" x2="-13.44" y2="202.17" xlink:href="#linear-gradient"/><linearGradient id="linear-gradient-32" x1="214.5" y1="6.45" x2="48.57" y2="245.25" xlink:href="#linear-gradient"/><linearGradient id="linear-gradient-33" x1="166.57" y1="-26.86" x2="0.64" y2="211.95" xlink:href="#linear-gradient"/><linearGradient id="linear-gradient-34" x1="267.47" y1="43.25" x2="101.53" y2="282.06" xlink:href="#linear-gradient"/><linearGradient id="linear-gradient-35" x1="240.4" y1="24.44" x2="74.46" y2="263.25" xlink:href="#linear-gradient"/><linearGradient id="linear-gradient-36" x1="178.11" y1="-18.84" x2="12.17" y2="219.96" xlink:href="#linear-gradient"/><linearGradient id="Indigo_180" x1="-6144.48" y1="-4335.46" x2="-6070.4" y2="-4335.46" gradientTransform="translate(-6053.84 -4190.55) rotate(180)" gradientUnits="userSpaceOnUse"><stop offset="0" stop-color="#a2f6ff"/><stop offset="0.5" stop-color="#683bff"/><stop offset="1" stop-color="#683bff"/></linearGradient><linearGradient id="Indigo_180-2" x1="-6144.43" y1="-4383.08" x2="-6070.11" y2="-4383.08" xlink:href="#Indigo_180"/><linearGradient id="Indigo_180-3" x1="-6154.13" y1="-4383.14" x2="-6087.08" y2="-4383.14" xlink:href="#Indigo_180"/><linearGradient id="Indigo_180-4" x1="-6154.2" y1="-4340.44" x2="-6104.77" y2="-4340.44" xlink:href="#Indigo_180"/><linearGradient id="Indigo_180-5" x1="-6115.4" y1="-4336.31" x2="-6070.28" y2="-4336.31" xlink:href="#Indigo_180"/><linearGradient id="Indigo_180-6" x1="-6116.13" y1="-4382.11" x2="-6070.08" y2="-4382.11" xlink:href="#Indigo_180"/><linearGradient id="Indigo_180-7" x1="-6103.64" y1="-4377.28" x2="-6070.12" y2="-4377.28" xlink:href="#Indigo_180"/><linearGradient id="Indigo_180-8" x1="-6101.65" y1="-4340.97" x2="-6070.12" y2="-4340.97" xlink:href="#Indigo_180"/><linearGradient id="Indigo_180-9" x1="-6116.87" y1="-4350.82" x2="-6070.03" y2="-4350.82" xlink:href="#Indigo_180"/><linearGradient id="Indigo_180-10" x1="-6116.03" y1="-4367.7" x2="-6069.89" y2="-4367.7" xlink:href="#Indigo_180"/><linearGradient id="Indigo_180-11" x1="-6128.83" y1="-4350.92" x2="-6087.54" y2="-4350.92" xlink:href="#Indigo_180"/><linearGradient id="Indigo_180-12" x1="-6126.01" y1="-4367.79" x2="-6087.38" y2="-4367.79" xlink:href="#Indigo_180"/><linearGradient id="Indigo_180-13" x1="-6137.42" y1="-4350.9" x2="-6104.89" y2="-4350.9" xlink:href="#Indigo_180"/><linearGradient id="Indigo_180-14" x1="-6104.79" y1="-4319.97" x2="-6087.43" y2="-4319.97" xlink:href="#Indigo_180"/><linearGradient id="Indigo_180-15" x1="-6136.35" y1="-4367.83" x2="-6104.9" y2="-4367.83" xlink:href="#Indigo_180"/><linearGradient id="Indigo_180-16" x1="-6153.99" y1="-4383.05" x2="-6139.37" y2="-4383.05" xlink:href="#Indigo_180"/><linearGradient id="Indigo_180-17" x1="-6153.85" y1="-4390.55" x2="-6139.25" y2="-4390.55" xlink:href="#Indigo_180"/><linearGradient id="Indigo_180-18" x1="-6154.04" y1="-4375.27" x2="-6139.73" y2="-4375.27" xlink:href="#Indigo_180"/><linearGradient id="Indigo_180-19" x1="-6119.27" y1="-4398.2" x2="-6104.12" y2="-4398.2" xlink:href="#Indigo_180"/><linearGradient id="Indigo_180-20" x1="-6154.18" y1="-4335.4" x2="-6139.29" y2="-4335.4" xlink:href="#Indigo_180"/><linearGradient id="Indigo_180-21" x1="-6136.53" y1="-4387.81" x2="-6122.39" y2="-4387.81" xlink:href="#Indigo_180"/><linearGradient id="Indigo_180-22" x1="-6154.37" y1="-4359.16" x2="-6139.87" y2="-4359.16" xlink:href="#Indigo_180"/><linearGradient id="Indigo_180-23" x1="-6154.34" y1="-4343.34" x2="-6139.66" y2="-4343.34" xlink:href="#Indigo_180"/><linearGradient id="Indigo_180-24" x1="-6118.64" y1="-4319.85" x2="-6104.9" y2="-4319.85" xlink:href="#Indigo_180"/><linearGradient id="Indigo_180-25" x1="-6154.13" y1="-4327.63" x2="-6139.16" y2="-4327.63" xlink:href="#Indigo_180"/><linearGradient id="Indigo_180-26" x1="-6135.42" y1="-4330.42" x2="-6122.61" y2="-4330.42" xlink:href="#Indigo_180"/><linearGradient id="Indigo_180-27" x1="-6096.49" y1="-4359.15" x2="-6087.41" y2="-4359.15" xlink:href="#Indigo_180"/><linearGradient id="Indigo_180-28" x1="-6114.11" y1="-4359.17" x2="-6104.7" y2="-4359.17" xlink:href="#Indigo_180"/><linearGradient id="Indigo_180-29" x1="-6078.99" y1="-4359.07" x2="-6070.04" y2="-4359.07" xlink:href="#Indigo_180"/><linearGradient id="Indigo_180-30" x1="-6133.04" y1="-4397.07" x2="-6122.04" y2="-4397.07" xlink:href="#Indigo_180"/><linearGradient id="Indigo_180-31" x1="-6131.73" y1="-4359.19" x2="-6122.55" y2="-4359.19" xlink:href="#Indigo_180"/><linearGradient id="Indigo_180-32" x1="-6132.1" y1="-4321.01" x2="-6121.79" y2="-4321.01" xlink:href="#Indigo_180"/><linearGradient id="Indigo_180-33" x1="-6157.21" y1="72.22" x2="-6066.76" y2="72.22" gradientTransform="matrix(-1, 0, 0, 1, -6053.62, 0)" xlink:href="#Indigo_180"/><linearGradient id="Indigo_180-34" x1="-6157.31" y1="116.57" x2="-6150.3" y2="116.57" gradientTransform="matrix(-1, 0, 0, 1, -6053.62, 0)" xlink:href="#Indigo_180"/><linearGradient id="Indigo_180-35" x1="-6157.21" y1="94.36" x2="-6150.3" y2="94.36" gradientTransform="matrix(-1, 0, 0, 1, -6053.62, 0)" xlink:href="#Indigo_180"/><linearGradient id="Indigo_180-36" x1="-6157.2" y1="72.09" x2="-6150.3" y2="72.09" gradientTransform="matrix(-1, 0, 0, 1, -6053.62, 0)" xlink:href="#Indigo_180"/><linearGradient id="Indigo_180-37" x1="-6157.21" y1="49.98" x2="-6150.3" y2="49.98" gradientTransform="matrix(-1, 0, 0, 1, -6053.62, 0)" xlink:href="#Indigo_180"/><linearGradient id="Indigo_180-38" x1="-6144.39" y1="116.58" x2="-6137.44" y2="116.58" gradientTransform="matrix(-1, 0, 0, 1, -6053.62, 0)" xlink:href="#Indigo_180"/><linearGradient id="Indigo_180-39" x1="-6131.5" y1="116.61" x2="-6124.58" y2="116.61" gradientTransform="matrix(-1, 0, 0, 1, -6053.62, 0)" xlink:href="#Indigo_180"/><linearGradient id="Indigo_180-40" x1="-6080.12" y1="116.6" x2="-6073.18" y2="116.6" gradientTransform="matrix(-1, 0, 0, 1, -6053.62, 0)" xlink:href="#Indigo_180"/><linearGradient id="Indigo_180-41" x1="-6092.96" y1="116.58" x2="-6086.04" y2="116.58" gradientTransform="matrix(-1, 0, 0, 1, -6053.62, 0)" xlink:href="#Indigo_180"/><linearGradient id="Indigo_180-42" x1="-6118.64" y1="116.59" x2="-6111.74" y2="116.59" gradientTransform="matrix(-1, 0, 0, 1, -6053.62, 0)" xlink:href="#Indigo_180"/><linearGradient id="Indigo_180-43" x1="-6105.81" y1="116.62" x2="-6098.9" y2="116.62" gradientTransform="matrix(-1, 0, 0, 1, -6053.62, 0)" xlink:href="#Indigo_180"/><linearGradient id="Indigo_180-44" x1="-6086.52" y1="61.04" x2="-6079.61" y2="61.04" gradientTransform="matrix(-1, 0, 0, 1, -6053.62, 0)" xlink:href="#Indigo_180"/><linearGradient id="Indigo_180-45" x1="-6144.36" y1="94.41" x2="-6137.44" y2="94.41" gradientTransform="matrix(-1, 0, 0, 1, -6053.62, 0)" xlink:href="#Indigo_180"/><linearGradient id="Indigo_180-46" x1="-6086.52" y1="83.29" x2="-6079.61" y2="83.29" gradientTransform="matrix(-1, 0, 0, 1, -6053.62, 0)" xlink:href="#Indigo_180"/><linearGradient id="Indigo_180-47" x1="-6144.36" y1="72.15" x2="-6137.45" y2="72.15" gradientTransform="matrix(-1, 0, 0, 1, -6053.62, 0)" xlink:href="#Indigo_180"/><linearGradient id="Indigo_180-48" x1="-6125.07" y1="61" x2="-6118.16" y2="61" gradientTransform="matrix(-1, 0, 0, 1, -6053.62, 0)" xlink:href="#Indigo_180"/><linearGradient id="Indigo_180-49" x1="-6086.52" y1="38.78" x2="-6079.6" y2="38.78" gradientTransform="matrix(-1, 0, 0, 1, -6053.62, 0)" xlink:href="#Indigo_180"/><linearGradient id="Indigo_180-50" x1="-6099.39" y1="105.59" x2="-6092.47" y2="105.59" gradientTransform="matrix(-1, 0, 0, 1, -6053.62, 0)" xlink:href="#Indigo_180"/><linearGradient id="Indigo_180-51" x1="-6099.38" y1="38.78" x2="-6092.47" y2="38.78" gradientTransform="matrix(-1, 0, 0, 1, -6053.62, 0)" xlink:href="#Indigo_180"/><linearGradient id="Indigo_180-52" x1="-6131.5" y1="49.85" x2="-6124.59" y2="49.85" gradientTransform="matrix(-1, 0, 0, 1, -6053.62, 0)" xlink:href="#Indigo_180"/><linearGradient id="Indigo_180-53" x1="-6099.38" y1="61.03" x2="-6092.47" y2="61.03" gradientTransform="matrix(-1, 0, 0, 1, -6053.62, 0)" xlink:href="#Indigo_180"/><linearGradient id="Indigo_180-54" x1="-6086.52" y1="105.53" x2="-6079.61" y2="105.53" gradientTransform="matrix(-1, 0, 0, 1, -6053.62, 0)" xlink:href="#Indigo_180"/><linearGradient id="Indigo_180-55" x1="-6144.36" y1="49.92" x2="-6137.44" y2="49.92" gradientTransform="matrix(-1, 0, 0, 1, -6053.62, 0)" xlink:href="#Indigo_180"/><linearGradient id="Indigo_180-56" x1="-6125.07" y1="105.57" x2="-6118.16" y2="105.57" gradientTransform="matrix(-1, 0, 0, 1, -6053.62, 0)" xlink:href="#Indigo_180"/><linearGradient id="Indigo_180-57" x1="-6080.09" y1="94.42" x2="-6073.18" y2="94.42" gradientTransform="matrix(-1, 0, 0, 1, -6053.62, 0)" xlink:href="#Indigo_180"/><linearGradient id="Indigo_180-58" x1="-6099.38" y1="83.31" x2="-6092.47" y2="83.31" gradientTransform="matrix(-1, 0, 0, 1, -6053.62, 0)" xlink:href="#Indigo_180"/><linearGradient id="Indigo_180-59" x1="-6125.07" y1="83.36" x2="-6118.16" y2="83.36" gradientTransform="matrix(-1, 0, 0, 1, -6053.62, 0)" xlink:href="#Indigo_180"/><linearGradient id="Indigo_180-60" x1="-6131.5" y1="72.17" x2="-6124.58" y2="72.17" gradientTransform="matrix(-1, 0, 0, 1, -6053.62, 0)" xlink:href="#Indigo_180"/><linearGradient id="Indigo_180-61" x1="-6080.09" y1="49.89" x2="-6073.18" y2="49.89" gradientTransform="matrix(-1, 0, 0, 1, -6053.62, 0)" xlink:href="#Indigo_180"/><linearGradient id="Indigo_180-62" x1="-6131.5" y1="94.41" x2="-6124.59" y2="94.41" gradientTransform="matrix(-1, 0, 0, 1, -6053.62, 0)" xlink:href="#Indigo_180"/><linearGradient id="Indigo_180-63" x1="-6125.07" y1="38.76" x2="-6118.16" y2="38.76" gradientTransform="matrix(-1, 0, 0, 1, -6053.62, 0)" xlink:href="#Indigo_180"/><linearGradient id="Indigo_180-64" x1="-6080.09" y1="72.16" x2="-6073.18" y2="72.16" gradientTransform="matrix(-1, 0, 0, 1, -6053.62, 0)" xlink:href="#Indigo_180"/><linearGradient id="Indigo_180-65" x1="-6092.96" y1="49.88" x2="-6086.04" y2="49.88" gradientTransform="matrix(-1, 0, 0, 1, -6053.62, 0)" xlink:href="#Indigo_180"/><linearGradient id="Indigo_180-66" x1="-6092.95" y1="72.18" x2="-6086.04" y2="72.18" gradientTransform="matrix(-1, 0, 0, 1, -6053.62, 0)" xlink:href="#Indigo_180"/><linearGradient id="Indigo_180-67" x1="-6118.64" y1="72.13" x2="-6111.74" y2="72.13" gradientTransform="matrix(-1, 0, 0, 1, -6053.62, 0)" xlink:href="#Indigo_180"/><linearGradient id="Indigo_180-68" x1="-6137.93" y1="83.26" x2="-6131.02" y2="83.26" gradientTransform="matrix(-1, 0, 0, 1, -6053.62, 0)" xlink:href="#Indigo_180"/><linearGradient id="Indigo_180-69" x1="-6073.67" y1="105.56" x2="-6066.76" y2="105.56" gradientTransform="matrix(-1, 0, 0, 1, -6053.62, 0)" xlink:href="#Indigo_180"/><linearGradient id="Indigo_180-70" x1="-6112.22" y1="105.52" x2="-6105.32" y2="105.52" gradientTransform="matrix(-1, 0, 0, 1, -6053.62, 0)" xlink:href="#Indigo_180"/><linearGradient id="Indigo_180-71" x1="-6137.93" y1="105.54" x2="-6131.02" y2="105.54" gradientTransform="matrix(-1, 0, 0, 1, -6053.62, 0)" xlink:href="#Indigo_180"/><linearGradient id="Indigo_180-72" x1="-6150.78" y1="105.55" x2="-6143.88" y2="105.55" gradientTransform="matrix(-1, 0, 0, 1, -6053.62, 0)" xlink:href="#Indigo_180"/><linearGradient id="Indigo_180-73" x1="-6118.64" y1="94.41" x2="-6111.74" y2="94.41" gradientTransform="matrix(-1, 0, 0, 1, -6053.62, 0)" xlink:href="#Indigo_180"/><linearGradient id="Indigo_180-74" x1="-6112.22" y1="61.03" x2="-6105.32" y2="61.03" gradientTransform="matrix(-1, 0, 0, 1, -6053.62, 0)" xlink:href="#Indigo_180"/><linearGradient id="Indigo_180-75" x1="-6118.64" y1="49.9" x2="-6111.74" y2="49.9" gradientTransform="matrix(-1, 0, 0, 1, -6053.62, 0)" xlink:href="#Indigo_180"/><linearGradient id="Indigo_180-76" x1="-6073.66" y1="38.78" x2="-6066.76" y2="38.78" gradientTransform="matrix(-1, 0, 0, 1, -6053.62, 0)" xlink:href="#Indigo_180"/><linearGradient id="Indigo_180-77" x1="-6137.93" y1="61.03" x2="-6131.02" y2="61.03" gradientTransform="matrix(-1, 0, 0, 1, -6053.62, 0)" xlink:href="#Indigo_180"/><linearGradient id="Indigo_180-78" x1="-6073.67" y1="61" x2="-6066.76" y2="61" gradientTransform="matrix(-1, 0, 0, 1, -6053.62, 0)" xlink:href="#Indigo_180"/><linearGradient id="Indigo_180-79" x1="-6073.66" y1="83.28" x2="-6066.76" y2="83.28" gradientTransform="matrix(-1, 0, 0, 1, -6053.62, 0)" xlink:href="#Indigo_180"/><linearGradient id="Indigo_180-80" x1="-6105.8" y1="49.89" x2="-6098.9" y2="49.89" gradientTransform="matrix(-1, 0, 0, 1, -6053.62, 0)" xlink:href="#Indigo_180"/><linearGradient id="Indigo_180-81" x1="-6092.95" y1="94.4" x2="-6086.04" y2="94.4" gradientTransform="matrix(-1, 0, 0, 1, -6053.62, 0)" xlink:href="#Indigo_180"/><linearGradient id="Indigo_180-82" x1="-6112.22" y1="38.8" x2="-6105.32" y2="38.8" gradientTransform="matrix(-1, 0, 0, 1, -6053.62, 0)" xlink:href="#Indigo_180"/><linearGradient id="Indigo_180-83" x1="-6137.93" y1="38.79" x2="-6131.02" y2="38.79" gradientTransform="matrix(-1, 0, 0, 1, -6053.62, 0)" xlink:href="#Indigo_180"/><linearGradient id="Indigo_180-84" x1="-6150.78" y1="38.77" x2="-6143.88" y2="38.77" gradientTransform="matrix(-1, 0, 0, 1, -6053.62, 0)" xlink:href="#Indigo_180"/><linearGradient id="Indigo_180-85" x1="-6105.8" y1="94.42" x2="-6098.9" y2="94.42" gradientTransform="matrix(-1, 0, 0, 1, -6053.62, 0)" xlink:href="#Indigo_180"/><linearGradient id="Indigo_180-86" x1="-6150.78" y1="83.27" x2="-6143.88" y2="83.27" gradientTransform="matrix(-1, 0, 0, 1, -6053.62, 0)" xlink:href="#Indigo_180"/><linearGradient id="Indigo_180-87" x1="-6112.22" y1="83.28" x2="-6105.32" y2="83.28" gradientTransform="matrix(-1, 0, 0, 1, -6053.62, 0)" xlink:href="#Indigo_180"/><linearGradient id="Indigo_180-88" x1="-6150.78" y1="61.02" x2="-6143.88" y2="61.02" gradientTransform="matrix(-1, 0, 0, 1, -6053.62, 0)" xlink:href="#Indigo_180"/><linearGradient id="Indigo_180-89" x1="-6105.8" y1="72.21" x2="-6098.9" y2="72.21" gradientTransform="matrix(-1, 0, 0, 1, -6053.62, 0)" xlink:href="#Indigo_180"/><linearGradient id="New_Gradient_Swatch_52" x1="68.87" y1="102.61" x2="144.86" y2="102.61" gradientUnits="userSpaceOnUse"><stop offset="0" stop-color="#b5a0ff"/><stop offset="0.43" stop-color="#b5a0ff"/><stop offset="0.44" stop-color="#a188ff"/><stop offset="0.46" stop-color="#7d5fff"/><stop offset="0.47" stop-color="#603cff"/><stop offset="0.49" stop-color="#4a22ff"/><stop offset="0.51" stop-color="#3a0fff"/><stop offset="0.53" stop-color="#3004ff"/><stop offset="0.55" stop-color="#2d00ff"/><stop offset="0.56" stop-color="#3612ff"/><stop offset="0.59" stop-color="#4c42ff"/><stop offset="0.62" stop-color="#616dff"/><stop offset="0.66" stop-color="#7292ff"/><stop offset="0.69" stop-color="#81b1ff"/><stop offset="0.73" stop-color="#8dcaff"/><stop offset="0.78" stop-color="#96deff"/><stop offset="0.83" stop-color="#9decff"/><stop offset="0.89" stop-color="#a1f4ff"/><stop offset="1" stop-color="#a2f6ff"/></linearGradient><linearGradient id="New_Gradient_Swatch_52-2" x1="68.87" y1="103.18" x2="144.86" y2="103.18" xlink:href="#New_Gradient_Swatch_52"/><linearGradient id="New_Gradient_Swatch_52-3" x1="68.87" y1="103.74" x2="144.86" y2="103.74" xlink:href="#New_Gradient_Swatch_52"/><linearGradient id="New_Gradient_Swatch_52-4" x1="68.87" y1="104.3" x2="144.86" y2="104.3" xlink:href="#New_Gradient_Swatch_52"/><linearGradient id="New_Gradient_Swatch_52-5" x1="68.87" y1="104.87" x2="144.86" y2="104.87" xlink:href="#New_Gradient_Swatch_52"/><linearGradient id="New_Gradient_Swatch_52-6" x1="68.87" y1="105.43" x2="144.86" y2="105.43" xlink:href="#New_Gradient_Swatch_52"/><linearGradient id="New_Gradient_Swatch_52-7" x1="68.87" y1="105.99" x2="144.86" y2="105.99" xlink:href="#New_Gradient_Swatch_52"/><linearGradient id="New_Gradient_Swatch_52-8" x1="68.87" y1="106.56" x2="144.86" y2="106.56" xlink:href="#New_Gradient_Swatch_52"/><linearGradient id="New_Gradient_Swatch_52-9" x1="68.87" y1="107.12" x2="144.86" y2="107.12" xlink:href="#New_Gradient_Swatch_52"/><linearGradient id="New_Gradient_Swatch_52-10" x1="68.87" y1="107.68" x2="144.86" y2="107.68" xlink:href="#New_Gradient_Swatch_52"/><linearGradient id="New_Gradient_Swatch_52-11" x1="68.87" y1="108.25" x2="144.86" y2="108.25" xlink:href="#New_Gradient_Swatch_52"/><linearGradient id="New_Gradient_Swatch_52-12" x1="68.87" y1="108.81" x2="144.86" y2="108.81" xlink:href="#New_Gradient_Swatch_52"/><linearGradient id="New_Gradient_Swatch_52-13" x1="68.87" y1="109.37" x2="144.86" y2="109.37" xlink:href="#New_Gradient_Swatch_52"/><linearGradient id="New_Gradient_Swatch_52-14" x1="68.87" y1="109.94" x2="144.86" y2="109.94" xlink:href="#New_Gradient_Swatch_52"/><linearGradient id="New_Gradient_Swatch_52-15" x1="68.87" y1="110.5" x2="144.86" y2="110.5" xlink:href="#New_Gradient_Swatch_52"/><linearGradient id="New_Gradient_Swatch_52-16" x1="68.87" y1="111.06" x2="144.86" y2="111.06" xlink:href="#New_Gradient_Swatch_52"/><linearGradient id="New_Gradient_Swatch_52-17" x1="68.87" y1="111.63" x2="144.86" y2="111.63" xlink:href="#New_Gradient_Swatch_52"/><linearGradient id="New_Gradient_Swatch_52-18" x1="68.87" y1="112.19" x2="144.86" y2="112.19" xlink:href="#New_Gradient_Swatch_52"/><linearGradient id="New_Gradient_Swatch_52-19" x1="68.87" y1="112.75" x2="144.86" y2="112.75" xlink:href="#New_Gradient_Swatch_52"/><linearGradient id="New_Gradient_Swatch_52-20" x1="68.87" y1="113.32" x2="144.86" y2="113.32" xlink:href="#New_Gradient_Swatch_52"/><linearGradient id="New_Gradient_Swatch_52-21" x1="68.87" y1="113.88" x2="144.86" y2="113.88" xlink:href="#New_Gradient_Swatch_52"/><linearGradient id="New_Gradient_Swatch_52-22" x1="68.87" y1="114.44" x2="144.86" y2="114.44" xlink:href="#New_Gradient_Swatch_52"/><linearGradient id="New_Gradient_Swatch_52-23" x1="68.87" y1="115.01" x2="144.86" y2="115.01" xlink:href="#New_Gradient_Swatch_52"/><linearGradient id="New_Gradient_Swatch_52-24" x1="68.87" y1="115.57" x2="144.86" y2="115.57" xlink:href="#New_Gradient_Swatch_52"/><linearGradient id="New_Gradient_Swatch_52-25" x1="68.87" y1="116.13" x2="144.86" y2="116.13" xlink:href="#New_Gradient_Swatch_52"/><linearGradient id="New_Gradient_Swatch_52-26" x1="68.87" y1="116.7" x2="144.86" y2="116.7" xlink:href="#New_Gradient_Swatch_52"/><linearGradient id="New_Gradient_Swatch_52-27" x1="68.87" y1="117.26" x2="144.86" y2="117.26" xlink:href="#New_Gradient_Swatch_52"/><linearGradient id="New_Gradient_Swatch_52-28" x1="68.87" y1="117.82" x2="144.86" y2="117.82" xlink:href="#New_Gradient_Swatch_52"/><linearGradient id="New_Gradient_Swatch_52-29" x1="68.87" y1="118.39" x2="144.86" y2="118.39" xlink:href="#New_Gradient_Swatch_52"/><linearGradient id="New_Gradient_Swatch_52-30" x1="68.87" y1="118.95" x2="144.86" y2="118.95" xlink:href="#New_Gradient_Swatch_52"/><linearGradient id="New_Gradient_Swatch_52-31" x1="68.87" y1="119.51" x2="144.86" y2="119.51" xlink:href="#New_Gradient_Swatch_52"/><linearGradient id="New_Gradient_Swatch_52-32" x1="68.87" y1="120.08" x2="144.86" y2="120.08" xlink:href="#New_Gradient_Swatch_52"/><linearGradient id="New_Gradient_Swatch_52-33" x1="68.87" y1="120.64" x2="144.86" y2="120.64" xlink:href="#New_Gradient_Swatch_52"/><linearGradient id="New_Gradient_Swatch_52-34" x1="68.87" y1="121.2" x2="144.86" y2="121.2" xlink:href="#New_Gradient_Swatch_52"/><linearGradient id="New_Gradient_Swatch_52-35" x1="68.87" y1="121.77" x2="144.86" y2="121.77" xlink:href="#New_Gradient_Swatch_52"/><linearGradient id="New_Gradient_Swatch_52-36" x1="68.87" y1="122.33" x2="144.86" y2="122.33" xlink:href="#New_Gradient_Swatch_52"/><linearGradient id="New_Gradient_Swatch_52-37" x1="68.87" y1="122.89" x2="144.86" y2="122.89" xlink:href="#New_Gradient_Swatch_52"/><linearGradient id="New_Gradient_Swatch_52-38" x1="68.87" y1="123.46" x2="144.86" y2="123.46" xlink:href="#New_Gradient_Swatch_52"/><linearGradient id="New_Gradient_Swatch_52-39" x1="68.87" y1="124.02" x2="144.86" y2="124.02" xlink:href="#New_Gradient_Swatch_52"/><linearGradient id="New_Gradient_Swatch_52-40" x1="68.87" y1="124.58" x2="144.86" y2="124.58" xlink:href="#New_Gradient_Swatch_52"/><linearGradient id="New_Gradient_Swatch_52-41" x1="68.87" y1="125.15" x2="144.86" y2="125.15" xlink:href="#New_Gradient_Swatch_52"/><linearGradient id="New_Gradient_Swatch_52-42" x1="68.87" y1="125.71" x2="144.86" y2="125.71" xlink:href="#New_Gradient_Swatch_52"/><linearGradient id="New_Gradient_Swatch_52-43" x1="68.87" y1="126.27" x2="144.86" y2="126.27" xlink:href="#New_Gradient_Swatch_52"/><linearGradient id="New_Gradient_Swatch_52-44" x1="68.87" y1="126.84" x2="144.86" y2="126.84" xlink:href="#New_Gradient_Swatch_52"/><linearGradient id="New_Gradient_Swatch_52-45" x1="68.87" y1="127.4" x2="144.86" y2="127.4" xlink:href="#New_Gradient_Swatch_52"/><linearGradient id="New_Gradient_Swatch_52-46" x1="68.87" y1="127.96" x2="144.86" y2="127.96" xlink:href="#New_Gradient_Swatch_52"/><linearGradient id="New_Gradient_Swatch_52-47" x1="68.87" y1="128.53" x2="144.86" y2="128.53" xlink:href="#New_Gradient_Swatch_52"/><linearGradient id="New_Gradient_Swatch_52-48" x1="68.87" y1="129.09" x2="144.86" y2="129.09" xlink:href="#New_Gradient_Swatch_52"/><linearGradient id="New_Gradient_Swatch_52-49" x1="68.87" y1="129.65" x2="144.86" y2="129.65" xlink:href="#New_Gradient_Swatch_52"/><linearGradient id="New_Gradient_Swatch_52-50" x1="68.87" y1="130.22" x2="144.86" y2="130.22" xlink:href="#New_Gradient_Swatch_52"/><linearGradient id="New_Gradient_Swatch_52-51" x1="68.87" y1="130.78" x2="144.86" y2="130.78" xlink:href="#New_Gradient_Swatch_52"/><linearGradient id="New_Gradient_Swatch_52-52" x1="68.87" y1="131.34" x2="144.86" y2="131.34" xlink:href="#New_Gradient_Swatch_52"/><linearGradient id="New_Gradient_Swatch_52-53" x1="68.87" y1="131.91" x2="144.86" y2="131.91" xlink:href="#New_Gradient_Swatch_52"/><linearGradient id="New_Gradient_Swatch_52-54" x1="68.87" y1="132.47" x2="144.86" y2="132.47" xlink:href="#New_Gradient_Swatch_52"/><linearGradient id="New_Gradient_Swatch_52-55" x1="68.87" y1="133.04" x2="144.86" y2="133.04" xlink:href="#New_Gradient_Swatch_52"/><linearGradient id="New_Gradient_Swatch_52-56" x1="68.87" y1="133.6" x2="144.86" y2="133.6" xlink:href="#New_Gradient_Swatch_52"/><linearGradient id="New_Gradient_Swatch_52-57" x1="68.87" y1="134.16" x2="144.86" y2="134.16" xlink:href="#New_Gradient_Swatch_52"/><linearGradient id="New_Gradient_Swatch_52-58" x1="68.87" y1="134.73" x2="144.86" y2="134.73" xlink:href="#New_Gradient_Swatch_52"/><linearGradient id="New_Gradient_Swatch_52-59" x1="68.87" y1="135.29" x2="144.86" y2="135.29" xlink:href="#New_Gradient_Swatch_52"/><linearGradient id="New_Gradient_Swatch_52-60" x1="68.87" y1="135.85" x2="144.86" y2="135.85" xlink:href="#New_Gradient_Swatch_52"/><linearGradient id="New_Gradient_Swatch_52-61" x1="68.87" y1="136.42" x2="144.86" y2="136.42" xlink:href="#New_Gradient_Swatch_52"/><linearGradient id="New_Gradient_Swatch_52-62" x1="68.87" y1="136.98" x2="144.86" y2="136.98" xlink:href="#New_Gradient_Swatch_52"/><linearGradient id="New_Gradient_Swatch_52-63" x1="68.87" y1="137.54" x2="144.86" y2="137.54" xlink:href="#New_Gradient_Swatch_52"/><linearGradient id="New_Gradient_Swatch_52-64" x1="68.87" y1="138.11" x2="144.86" y2="138.11" xlink:href="#New_Gradient_Swatch_52"/><linearGradient id="New_Gradient_Swatch_52-65" x1="68.87" y1="138.67" x2="144.86" y2="138.67" xlink:href="#New_Gradient_Swatch_52"/><linearGradient id="New_Gradient_Swatch_52-66" x1="68.87" y1="139.23" x2="144.86" y2="139.23" xlink:href="#New_Gradient_Swatch_52"/><linearGradient id="New_Gradient_Swatch_52-67" x1="68.87" y1="139.8" x2="144.86" y2="139.8" xlink:href="#New_Gradient_Swatch_52"/><linearGradient id="New_Gradient_Swatch_52-68" x1="68.87" y1="140.36" x2="144.86" y2="140.36" xlink:href="#New_Gradient_Swatch_52"/><linearGradient id="New_Gradient_Swatch_52-69" x1="68.87" y1="140.92" x2="144.86" y2="140.92" xlink:href="#New_Gradient_Swatch_52"/><linearGradient id="New_Gradient_Swatch_52-70" x1="68.87" y1="141.49" x2="144.86" y2="141.49" xlink:href="#New_Gradient_Swatch_52"/><linearGradient id="New_Gradient_Swatch_52-71" x1="68.87" y1="142.05" x2="144.86" y2="142.05" xlink:href="#New_Gradient_Swatch_52"/><linearGradient id="New_Gradient_Swatch_52-72" x1="68.87" y1="142.61" x2="144.86" y2="142.61" xlink:href="#New_Gradient_Swatch_52"/><linearGradient id="Indigo_176" x1="-3061.19" y1="1170.1" x2="-3061.19" y2="1116.37" gradientTransform="translate(1463.06 -2870.37) rotate(-45)" gradientUnits="userSpaceOnUse"><stop offset="0" stop-color="#e9b4ff"/><stop offset="0.5" stop-color="#2d00ff"/><stop offset="1" stop-color="#a2f6ff"/></linearGradient></defs><g id="Layer_2" data-name="Layer 2"><g id="Layer_1-2" data-name="Layer 1"><path class="monet-1" d="M133.35,53.35h-.14q0-9.48,0-19c0-.59-.09-.86-.58-.86-1.85,0-3.69-.06-5.53-.15-.6,0-.77.29-.76,1,0,1.54,0,3.09,0,4.64,0,6.51,0,13,0,19.54,0,3.6.12,7.19.14,10.79,0,5.35,0,10.71.1,16.06a2.34,2.34,0,0,0,.4,1.23c1.85,2.65,3.73,5.26,5.58,7.91a4.47,4.47,0,0,1,1,1.84,53.33,53.33,0,0,1,.3,5.65c0,4.75,0,9.5-.05,14.26,0,3.17,0,6.35,0,9.52,0,5-.14,10-.2,15,0,2.33,0,4.67,0,7a2.59,2.59,0,0,0,.33,1.28c1.86,3,3.77,5.84,5.62,8.8a3.52,3.52,0,0,1,.52,1.78c0,4.33-.13,8.67-.17,13q-.12,9.87-.18,19.76,0,6.38,0,12.76c0,1.55,0,3.1,0,4.65,0,.58.18.85.66.84,1.82,0,3.64-.07,5.46-.1.28,0,.6.05.61-.51,0-.81,0-1.62.05-2.43l.06-6.3c.07-5.54.15-11.08.21-16.62.05-4.77.08-9.55.13-14.33,0-3.75.09-7.51.15-11.26a2.76,2.76,0,0,0-.53-1.68c-1.87-2.77-3.74-5.54-5.58-8.34a2.93,2.93,0,0,1-.4-1.4c0-3.2,0-6.4,0-9.61,0-7.67.11-15.33.13-23,0-5.75-.11-11.51,0-17.25a5.7,5.7,0,0,0-1.18-3.6c-1.94-2.72-3.84-5.47-5.75-8.23a1.83,1.83,0,0,1-.26-.91c-.06-3.33-.11-6.67-.12-10,0-2.62,0-5.24,0-7.87Q133.35,60.29,133.35,53.35Zm-7.17,131.19h0c0,2.13,0,4.25,0,6.38q-.09,9.42-.19,18.83c0,.89.13,1.05.81,1l5-.08c.85,0,.92-.09.94-1.21q.17-13.71.33-27.42c0-4.59,0-9.19.1-13.78,0-3.12.17-6.24.23-9.36a2.19,2.19,0,0,0-.35-1.19q-2.85-4.09-5.74-8.15a3.11,3.11,0,0,1-.56-1.92q.06-8.12.1-16.22c0-5.23,0-10.45,0-15.67,0-6-.19-12-.21-18,0-1.49-.11-2.74-1.13-3.61a1.34,1.34,0,0,1-.2-.29c-1.22-1.62-2.41-3.29-3.67-4.86a5.13,5.13,0,0,1-1.31-3.36c0-2.44-.06-4.88-.09-7.32-.08-5.67-.15-11.34-.25-17-.06-3.77-.18-7.55-.27-11.32s-.18-7.51-.25-11.26c0-1.47,0-2.94,0-4.4,0-1.15.1-1.15-.81-1.21l-.78,0c-1.62-.06-3.24-.1-4.86-.18-.36,0-.4.18-.39.56,0,1.33.09,2.67.1,4q.15,12.84.27,25.69c.07,7.27.13,14.55.22,21.82a3.43,3.43,0,0,0,.43,1.65c1.73,2.71,3.51,5.37,5.28,8a3.91,3.91,0,0,1,1,2.4c0,5.49.1,11,.17,16.47,0,1.86.13,3.72.11,5.59,0,2.41-.15,4.81-.16,7.22Q120,137.1,120,147.8a2.57,2.57,0,0,0,.21,1.18q2.46,3.72,5,7.37a6.16,6.16,0,0,1,1.38,3.93c-.09,3.12-.05,6.25-.09,9.37C126.35,174.61,126.26,179.58,126.18,184.54Zm44.6-150.39v0c-1,0-2,0-3,0-.41,0-.58.2-.56.74,0,.79,0,1.58,0,2.36q0,6.74,0,13.48,0,7.88,0,15.75c0,3.81,0,7.61,0,11.42,0,2.75,0,5.51,0,8.26a2.66,2.66,0,0,0,.51,1.82c1.92,2.45,3.84,4.9,5.74,7.38a2.66,2.66,0,0,1,.58,1.29c.11,1.7.15,3.41.15,5.11,0,3.15-.09,6.3-.09,9.45q0,18.63,0,37.27a2.57,2.57,0,0,0,.4,1.39c1.76,2.43,3.56,4.82,5.37,7.19a3.56,3.56,0,0,1,.77,2.37c0,1.55,0,3.09-.06,4.64,0,4.25,0,8.5,0,12.75q0,8.26-.07,16.54c0,4.33,0,8.66,0,13,0,1.07,0,2.16-.07,3.22-.07.72,0,.95.59.95,1.87,0,3.73,0,5.59,0,.67,0,.79-.21.79-1.08,0-2.26,0-4.51,0-6.76q0-7.84-.08-15.68c0-3.43-.14-6.87-.13-10.31,0-3.15.13-6.3.18-9.45,0-2.75.08-5.51.06-8.26a2.66,2.66,0,0,0-.52-1.4,55.65,55.65,0,0,1-5.42-7.66A4.63,4.63,0,0,1,181,148c-.08-1,0-2.09,0-3.14,0-6.51,0-13,0-19.54,0-4.46.1-8.92.11-13.38,0-4.85,0-9.71-.09-14.57a3.28,3.28,0,0,0-.62-1.7c-1.77-2.46-3.58-4.87-5.39-7.29a4.79,4.79,0,0,1-.91-3.12c.07-2.62.08-5.25.09-7.88,0-3.91,0-7.82,0-11.73,0-4.1,0-8.19,0-12.29,0-5.38,0-10.76,0-16.15,0-.78,0-1.57.06-2.35.05-.55-.08-.71-.47-.71C172.79,34.16,171.79,34.15,170.78,34.15ZM160.52,60.07h-.06q0-12.57,0-25.13c0-.71-.18-.91-.69-.91-1.83,0-3.65,0-5.47-.06-.81,0-.81,0-.8,1q0,7.44.08,14.89.06,9.33.11,18.67c0,2.55,0,5.09.07,7.64,0,3.2,0,6.4,0,9.61a3.24,3.24,0,0,0,.68,2.09c.77,1,1.49,2,2.23,3.09,1.09,1.54,2.18,3.06,3.25,4.63a3.58,3.58,0,0,1,.79,2.13c0,4,0,7.93,0,11.9q-.08,14.93-.17,29.86c0,2.81,0,5.62-.06,8.43a2.91,2.91,0,0,0,.23,1.32c.48.83,1.07,1.56,1.6,2.34q2,2.89,4,5.8a3.57,3.57,0,0,1,.69,2.11c0,3.84,0,7.67,0,11.5q0,7.89-.1,15.76c0,3,0,6-.08,9.05,0,1.83-.08,3.67-.09,5.51,0,2.77,0,5.55,0,8.33,0,.5.09.74.49.74h5.95c.46,0,.63-.28.63-.87,0-2.58,0-5.15,0-7.72q0-9.9,0-19.78,0-6.93.05-13.86c0-3.05.11-6.09.14-9.13a3.06,3.06,0,0,0-.31-1.4,15.39,15.39,0,0,0-1.36-2c-1.43-1.91-2.88-3.8-4.3-5.72a3.79,3.79,0,0,1-.71-2.41c0-3,0-6,.06-9.06,0-4.26,0-8.51,0-12.76,0-3.86.15-7.72.15-11.58,0-5.65-.06-11.29-.12-16.94a2.22,2.22,0,0,0-.32-1.11c-1.93-2.7-3.9-5.35-5.83-8a2.64,2.64,0,0,1-.52-1.28c-.11-1.88-.19-3.77-.19-5.66C160.51,74.09,160.52,67.08,160.52,60.07Zm47.08,60.71h0c0-.79,0-1.58,0-2.37.08-4.72.18-9.44.25-14.16,0-2.09,0-4.19,0-6.28a3.34,3.34,0,0,0-.27-1.49c-.65-1.09-1.37-2.12-2.11-3.12-1.31-1.76-2.67-3.46-4-5.25a3,3,0,0,1-.53-1.58c0-2.63,0-5.25.06-7.87q.06-8.31.09-16.62c0-5,0-9.93,0-14.89,0-4.1,0-8.19,0-12.29,0-.46-.06-.75-.48-.74-2,0-4,0-5.95,0-.4,0-.46.22-.43.68.06,1,.12,2.1.12,3.14,0,3.57,0,7.14,0,10.7,0,7-.07,14-.08,21q0,8.51,0,17a2.85,2.85,0,0,0,.52,1.34c.46.76,1,1.45,1.48,2.17,1.32,1.9,2.64,3.8,4,5.68a3.13,3.13,0,0,1,.54,1.86c0,2.68.08,5.35.06,8,0,5.43-.14,10.86-.2,16.3,0,1.39,0,2.78,0,4.17,0,3.25.09,6.5.07,9.75,0,4.62-.15,9.23-.22,13.85a1.63,1.63,0,0,0,.17.82c.73,1.14,1.46,2.29,2.26,3.34,1.14,1.51,2.33,3,3.52,4.41a3.33,3.33,0,0,1,.78,2.27c0,2.63,0,5.25,0,7.87,0,2.94-.12,5.88-.15,8.82-.05,4.23-.06,8.46-.1,12.69s-.1,8.71-.15,13.06c0,2.26,0,4.52-.06,6.77,0,.65.12.83.59.83,1.72,0,3.44,0,5.16,0,1.17,0,1.17,0,1.17-1.53V209c.05-3.39.12-6.77.13-10.16,0-4.59,0-9.18,0-13.78,0-8.27.06-16.54.06-24.81a3.46,3.46,0,0,0-.41-1.58c-.51-.89-1.11-1.69-1.68-2.52-1.21-1.78-2.44-3.54-3.62-5.35a3.53,3.53,0,0,1-.7-2.11q.08-8.07.08-16.14C207.61,128.6,207.6,124.69,207.6,120.78ZM140.1,49.5h.13c0,4.78,0,9.56,0,14.34,0,3.75.05,7.5.07,11.25s0,7.41.08,11.11a1.78,1.78,0,0,0,.18.88c.4.65.84,1.25,1.28,1.87,1.64,2.3,3.28,4.59,4.9,6.91a2,2,0,0,1,.29,1q.08,10.88.1,21.74c0,3.26-.08,6.51-.07,9.77,0,6.59,0,13.18,0,19.78a2.45,2.45,0,0,0,.46,1.54c1.5,2,3,4.13,4.51,6.11a7.13,7.13,0,0,1,1.62,5.26c-.23,3.34-.22,6.71-.27,10.07,0,4,0,8.08-.08,12.12,0,2.94-.11,5.87-.13,8.81,0,2.78,0,5.56,0,8.35,0,3.09,0,6.19-.05,9.29,0,.42.06.75.44.74l5.89,0c.31,0,.4-.21.4-.6,0-1,0-1.94,0-2.91,0-4.78.07-9.56.12-14.34q.1-9.3.24-18.59c.06-4.65.07-9.3.19-13.94a5.1,5.1,0,0,0-.88-3.28c-1.71-2.43-3.39-4.88-5.09-7.33a3.47,3.47,0,0,1-.58-2.07c0-3.18,0-6.36,0-9.54q0-13.9.06-27.81c0-3.59,0-7.19.1-10.78a7.31,7.31,0,0,0-1.69-5.2c-1.33-1.59-2.56-3.32-3.88-4.92A7.15,7.15,0,0,1,147,84.32q.06-8.07,0-16.15c0-5.7-.08-11.4-.12-17.09,0-5.49-.07-11-.09-16.47,0-.59-.13-.78-.57-.79q-2.7,0-5.4-.12c-.56,0-.72.28-.71,1Q140.1,42.09,140.1,49.5ZM181,34.2v1.73q0,6.76.05,13.54,0,8.47,0,16.94c0,6.8,0,13.6,0,20.4a2.77,2.77,0,0,0,.25,1.16,10,10,0,0,0,.93,1.43c1.45,2,2.89,3.93,4.37,5.86a5.14,5.14,0,0,1,1.21,3.93c-.14,1.37-.14,2.78-.16,4.16q0,7.09-.07,14.18,0,11.49,0,23c0,2.78,0,5.56,0,8.35a2.2,2.2,0,0,0,.32,1.19c1.64,2.22,3.29,4.44,5,6.57A5,5,0,0,1,194,160c0,3.46,0,6.93,0,10.39,0,4.59-.09,9.19-.14,13.78q-.09,8.35-.19,16.69c0,3,0,6-.1,9,0,.56.15.74.55.74,1.75,0,3.49,0,5.23,0,.7,0,.83-.17.84-1.12,0-1.44.05-2.88.05-4.33q0-8.35,0-16.7c0-4,0-7.93,0-11.9,0-2.41-.1-4.85.1-7.24.28-3.44.23-6.87.22-10.31a1.74,1.74,0,0,0-.21-.86c-1.92-3-3.86-5.88-5.77-8.83a2,2,0,0,1-.37-1q-.06-6.33-.06-12.67c0-6.65,0-13.29,0-19.93,0-6,.11-12,.14-18a2.29,2.29,0,0,0-.34-1.17q-2.75-4-5.54-8a3.57,3.57,0,0,1-.8-2.66,12.42,12.42,0,0,0,0-1.73c0-2.7,0-5.4,0-8.11,0-3.33.08-6.67.08-10,0-6.65,0-13.29,0-19.93,0-3.63,0-7.25,0-10.88,0-1-.07-1.09-.82-1.09h-5.47C181.32,34.14,181.16,34.18,181,34.2ZM219.67,159c0-.46.08-.68.08-.9,0-2,.06-4,.08-6q.15-17.17.32-34.35c.07-6.59.23-13.18.34-19.77a2.59,2.59,0,0,0-.14-1.21,29.24,29.24,0,0,0-2.2-4.1c-1-1.23-1.73-2.74-2.63-4.07a3.41,3.41,0,0,1-.62-2.13c.1-5.69.2-11.39.26-17.09.05-5.09.06-10.18.08-15.28q0-8.43.1-16.85c0-.81,0-1.63.07-2.44,0-.47-.13-.75-.52-.75H208.7c-.3,0-.4.16-.4.58,0,2.86-.05,5.72-.06,8.58,0,5.28,0,10.56,0,15.84,0,6.22-.11,12.44-.15,18.66,0,1.08.09,2.15.1,3.23,0,2.12,0,4.25,0,6.38a1.36,1.36,0,0,0,.2.7c1.78,2.54,3.57,5.09,5.39,7.6a4.67,4.67,0,0,1,.9,3q-.12,8.25-.19,16.52c-.06,6.3-.1,12.6-.16,18.9q0,6.81-.11,13.62a6.53,6.53,0,0,0,1.07,4c1,1.41,1.84,3,2.74,4.48C218.49,157,219,157.92,219.67,159ZM113.44,148.51c0,.63-.07,1.06-.07,1.49-.06,6.75-.1,13.49-.16,20.24-.1,11.55-.23,23.1-.33,34.65,0,1.76,0,3.52.05,5.28,0,.25.24.69.37.7q2.82,0,5.64,0c.14,0,.38-.37.39-.58.06-.91,0-1.83,0-2.75q0-9.49.09-19c0-3.84.1-7.67.1-11.5,0-3.09-.12-6.19-.11-9.28,0-2.94.12-5.87.21-8.81a3.32,3.32,0,0,0-.58-2.2c-1.46-2-2.85-4.1-4.27-6.17C114.39,150,114,149.31,113.44,148.51Z"/><path class="monet-2" d="M133.35,53.35q0,6.94,0,13.87c0,2.63-.05,5.25,0,7.87,0,3.33.06,6.67.12,10a1.83,1.83,0,0,0,.26.91c1.91,2.76,3.81,5.51,5.75,8.23a5.7,5.7,0,0,1,1.18,3.6c-.06,5.74.06,11.5,0,17.25,0,7.67-.09,15.33-.13,23,0,3.21,0,6.41,0,9.61a2.93,2.93,0,0,0,.4,1.4c1.84,2.8,3.71,5.57,5.58,8.34a2.76,2.76,0,0,1,.53,1.68c-.06,3.75-.11,7.51-.15,11.26,0,4.78-.08,9.56-.13,14.33-.06,5.54-.14,11.08-.21,16.62l-.06,6.3c0,.81,0,1.62-.05,2.43,0,.56-.33.5-.61.51-1.82,0-3.64.05-5.46.1-.48,0-.65-.26-.66-.84,0-1.55,0-3.1,0-4.65q0-6.37,0-12.76.06-9.89.18-19.76c0-4.33.15-8.67.17-13a3.52,3.52,0,0,0-.52-1.78c-1.85-3-3.76-5.85-5.62-8.8a2.59,2.59,0,0,1-.33-1.28c0-2.33,0-4.67,0-7,.06-5,.16-10,.2-15,0-3.17,0-6.35,0-9.52,0-4.76.07-9.51.05-14.26a53.33,53.33,0,0,0-.3-5.65,4.47,4.47,0,0,0-1-1.84c-1.85-2.65-3.73-5.26-5.58-7.91a2.34,2.34,0,0,1-.4-1.23c0-5.35,0-10.71-.1-16.06,0-3.6-.12-7.19-.14-10.79,0-6.51,0-13,0-19.54,0-1.55,0-3.1,0-4.64,0-.73.16-1.05.76-1,1.84.09,3.68.13,5.53.15.49,0,.58.27.58.86q0,9.5,0,19Z"/><path class="monet-3" d="M126.18,184.54c.08-5,.17-9.93.24-14.89,0-3.12,0-6.25.09-9.37a6.16,6.16,0,0,0-1.38-3.93q-2.5-3.66-5-7.37a2.57,2.57,0,0,1-.21-1.18q0-10.71.06-21.43c0-2.41.15-4.81.16-7.22,0-1.87-.09-3.73-.11-5.59-.07-5.49-.16-11-.17-16.47a3.91,3.91,0,0,0-1-2.4c-1.77-2.68-3.55-5.34-5.28-8a3.43,3.43,0,0,1-.43-1.65c-.09-7.27-.15-14.55-.22-21.82q-.12-12.86-.27-25.69c0-1.34-.06-2.68-.1-4,0-.38,0-.58.39-.56,1.62.08,3.24.12,4.86.18l.78,0c.91.06.85.06.81,1.21-.06,1.46,0,2.93,0,4.4.07,3.75.17,7.5.25,11.26s.21,7.55.27,11.32c.1,5.67.17,11.34.25,17,0,2.44.09,4.88.09,7.32A5.13,5.13,0,0,0,121.63,89c1.26,1.57,2.45,3.24,3.67,4.86a1.34,1.34,0,0,0,.2.29c1,.87,1.13,2.12,1.13,3.61,0,6,.16,12,.21,18,0,5.22,0,10.44,0,15.67q0,8.11-.1,16.22a3.11,3.11,0,0,0,.56,1.92q2.88,4.07,5.74,8.15a2.19,2.19,0,0,1,.35,1.19c-.06,3.12-.19,6.24-.23,9.36-.07,4.59-.06,9.19-.1,13.78q-.15,13.71-.33,27.42c0,1.12-.09,1.2-.94,1.21l-5,.08c-.68,0-.82-.15-.81-1q.09-9.42.19-18.83c0-2.13,0-4.25,0-6.38Z"/><path class="monet-4" d="M170.78,34.15c1,0,2,0,3,0,.39,0,.52.16.47.71-.07.78-.06,1.57-.06,2.35,0,5.39,0,10.77,0,16.15,0,4.1,0,8.19,0,12.29,0,3.91,0,7.82,0,11.73,0,2.63,0,5.26-.09,7.88a4.79,4.79,0,0,0,.91,3.12c1.81,2.42,3.62,4.83,5.39,7.29a3.28,3.28,0,0,1,.62,1.7c.07,4.86.09,9.72.09,14.57,0,4.46-.09,8.92-.11,13.38,0,6.52,0,13,0,19.54,0,1.05-.08,2.11,0,3.14a4.63,4.63,0,0,0,.49,1.88,55.65,55.65,0,0,0,5.42,7.66,2.66,2.66,0,0,1,.52,1.4c0,2.75,0,5.51-.06,8.26,0,3.15-.17,6.3-.18,9.45,0,3.44.1,6.88.13,10.31q.06,7.85.08,15.68c0,2.25,0,4.5,0,6.76,0,.87-.12,1.08-.79,1.08-1.86,0-3.72,0-5.59,0-.54,0-.66-.23-.59-.95.1-1.06.07-2.15.07-3.22,0-4.33,0-8.66,0-13q0-8.28.07-16.54c0-4.25,0-8.5,0-12.75,0-1.55,0-3.09.06-4.64a3.56,3.56,0,0,0-.77-2.37c-1.81-2.37-3.61-4.76-5.37-7.19a2.57,2.57,0,0,1-.4-1.39q0-18.63,0-37.27c0-3.15.08-6.3.09-9.45,0-1.7,0-3.41-.15-5.11a2.66,2.66,0,0,0-.58-1.29c-1.9-2.48-3.82-4.93-5.74-7.38a2.66,2.66,0,0,1-.51-1.82c.06-2.75,0-5.51,0-8.26,0-3.81,0-7.61,0-11.42q0-7.87,0-15.75,0-6.73,0-13.48c0-.78,0-1.57,0-2.36,0-.54.15-.75.56-.74,1,0,2,0,3,0Z"/><path class="monet-5" d="M160.52,60.07c0,7,0,14,0,21,0,1.89.08,3.78.19,5.66a2.64,2.64,0,0,0,.52,1.28c1.93,2.7,3.9,5.35,5.83,8a2.22,2.22,0,0,1,.32,1.11c.06,5.65.12,11.29.12,16.94,0,3.86-.12,7.72-.15,11.58,0,4.25,0,8.5,0,12.76,0,3,0,6-.06,9.06A3.79,3.79,0,0,0,168,150c1.42,1.92,2.87,3.81,4.3,5.72a15.39,15.39,0,0,1,1.36,2,3.06,3.06,0,0,1,.31,1.4c0,3-.11,6.08-.14,9.13q-.06,6.93-.05,13.86,0,9.89,0,19.78c0,2.57,0,5.14,0,7.72,0,.59-.17.87-.63.87h-5.95c-.4,0-.49-.24-.49-.74,0-2.78,0-5.56,0-8.33,0-1.84.07-3.68.09-5.51,0-3,.06-6,.08-9.05q.06-7.87.1-15.76c0-3.83,0-7.66,0-11.5a3.57,3.57,0,0,0-.69-2.11q-2-2.91-4-5.8c-.53-.78-1.12-1.51-1.6-2.34a2.91,2.91,0,0,1-.23-1.32c0-2.81,0-5.62.06-8.43q.09-14.93.17-29.86c0-4,0-7.93,0-11.9a3.58,3.58,0,0,0-.79-2.13c-1.07-1.57-2.16-3.09-3.25-4.63-.74-1-1.46-2.1-2.23-3.09a3.24,3.24,0,0,1-.68-2.09c0-3.21,0-6.41,0-9.61,0-2.55-.05-5.09-.07-7.64q-.06-9.33-.11-18.67,0-7.44-.08-14.89c0-1,0-1,.8-1,1.82,0,3.64.07,5.47.06.51,0,.69.2.69.91q0,12.56,0,25.13Z"/><path class="monet-6" d="M207.6,120.78c0,3.91,0,7.82,0,11.73q0,8.07-.08,16.14a3.53,3.53,0,0,0,.7,2.11c1.18,1.81,2.41,3.57,3.62,5.35.57.83,1.17,1.63,1.68,2.52a3.46,3.46,0,0,1,.41,1.58c0,8.27,0,16.54-.06,24.81,0,4.6,0,9.19,0,13.78,0,3.39-.08,6.77-.13,10.16v.16c0,1.53,0,1.53-1.17,1.53-1.72,0-3.44,0-5.16,0-.47,0-.61-.18-.59-.83.06-2.25,0-4.51.06-6.77,0-4.35.11-8.71.15-13.06s0-8.46.1-12.69c0-2.94.11-5.88.15-8.82,0-2.62,0-5.24,0-7.87a3.33,3.33,0,0,0-.78-2.27c-1.19-1.45-2.38-2.9-3.52-4.41-.8-1.05-1.53-2.2-2.26-3.34a1.63,1.63,0,0,1-.17-.82c.07-4.62.18-9.23.22-13.85,0-3.25,0-6.5-.07-9.75,0-1.39,0-2.78,0-4.17.06-5.44.15-10.87.2-16.3,0-2.68,0-5.35-.06-8a3.13,3.13,0,0,0-.54-1.86c-1.33-1.88-2.65-3.78-4-5.68-.5-.72-1-1.41-1.48-2.17a2.85,2.85,0,0,1-.52-1.34q-.06-8.5,0-17c0-7,.06-14,.08-21,0-3.56,0-7.13,0-10.7,0-1-.06-2.09-.12-3.14,0-.46,0-.69.43-.68,2,0,4,0,5.95,0,.42,0,.48.28.48.74,0,4.1,0,8.19,0,12.29,0,5,0,9.92,0,14.89q0,8.31-.09,16.62c0,2.62-.08,5.24-.06,7.87a3,3,0,0,0,.53,1.58c1.3,1.79,2.66,3.49,4,5.25.74,1,1.46,2,2.11,3.12a3.34,3.34,0,0,1,.27,1.49c0,2.09,0,4.19,0,6.28-.07,4.72-.17,9.44-.25,14.16,0,.79,0,1.58,0,2.37Z"/><path class="monet-7" d="M140.1,49.5q0-7.41,0-14.82c0-.7.15-1,.71-1q2.7.09,5.4.12c.44,0,.57.2.57.79,0,5.49.06,11,.09,16.47,0,5.69.1,11.39.12,17.09q0,8.07,0,16.15a7.15,7.15,0,0,0,1.56,4.82c1.32,1.6,2.55,3.33,3.88,4.92a7.31,7.31,0,0,1,1.69,5.2c-.1,3.59-.09,7.19-.1,10.78q0,13.9-.06,27.81c0,3.18,0,6.36,0,9.54a3.47,3.47,0,0,0,.58,2.07c1.7,2.45,3.38,4.9,5.09,7.33a5.1,5.1,0,0,1,.88,3.28c-.12,4.64-.13,9.29-.19,13.94q-.12,9.28-.24,18.59c-.05,4.78-.08,9.56-.12,14.34,0,1,0,1.94,0,2.91,0,.39-.09.59-.4.6l-5.89,0c-.38,0-.44-.32-.44-.74,0-3.1.05-6.2.05-9.29,0-2.79,0-5.57,0-8.35,0-2.94.11-5.87.13-8.81,0-4,0-8.08.08-12.12.05-3.36,0-6.73.27-10.07a7.13,7.13,0,0,0-1.62-5.26c-1.55-2-3-4.07-4.51-6.11a2.45,2.45,0,0,1-.46-1.54c0-6.6,0-13.19,0-19.78,0-3.26.08-6.51.07-9.77q0-10.86-.1-21.74a2,2,0,0,0-.29-1c-1.62-2.32-3.26-4.61-4.9-6.91-.44-.62-.88-1.22-1.28-1.87a1.78,1.78,0,0,1-.18-.88c0-3.7,0-7.4-.08-11.11s-.06-7.5-.07-11.25c0-4.78,0-9.56,0-14.34Z"/><path class="monet-8" d="M181,34.2c.19,0,.35-.06.5-.06h5.47c.75,0,.82.09.82,1.09,0,3.63,0,7.25,0,10.88,0,6.64,0,13.28,0,19.93,0,3.33-.06,6.67-.08,10,0,2.71,0,5.41,0,8.11a12.42,12.42,0,0,1,0,1.73,3.57,3.57,0,0,0,.8,2.66q2.79,4,5.54,8a2.29,2.29,0,0,1,.34,1.17c0,6-.11,12-.14,18,0,6.64,0,13.28,0,19.93q0,6.33.06,12.67a2,2,0,0,0,.37,1c1.91,2.95,3.85,5.88,5.77,8.83a1.74,1.74,0,0,1,.21.86c0,3.44.06,6.87-.22,10.31-.2,2.39-.09,4.83-.1,7.24,0,4,0,7.93,0,11.9q0,8.36,0,16.7c0,1.45,0,2.89-.05,4.33,0,1-.14,1.12-.84,1.12-1.74,0-3.48,0-5.23,0-.4,0-.56-.18-.55-.74.05-3,.07-6,.1-9q.09-8.34.19-16.69c0-4.59.12-9.19.14-13.78,0-3.46,0-6.93,0-10.39a5,5,0,0,0-1.12-3.31c-1.71-2.13-3.36-4.35-5-6.57a2.2,2.2,0,0,1-.32-1.19c0-2.79,0-5.57,0-8.35q0-11.5,0-23,0-7.09.07-14.18c0-1.38,0-2.79.16-4.16a5.14,5.14,0,0,0-1.21-3.93c-1.48-1.93-2.92-3.9-4.37-5.86a10,10,0,0,1-.93-1.43,2.77,2.77,0,0,1-.25-1.16c0-6.8,0-13.6,0-20.4q0-8.47,0-16.94,0-6.76-.05-13.54Z"/><path class="monet-9" d="M219.67,159c-.65-1.1-1.18-2-1.71-2.86-.9-1.51-1.76-3.07-2.74-4.48a6.53,6.53,0,0,1-1.07-4q.07-6.81.11-13.62c.06-6.3.1-12.6.16-18.9q.08-8.27.19-16.52a4.67,4.67,0,0,0-.9-3c-1.82-2.51-3.61-5.06-5.39-7.6a1.36,1.36,0,0,1-.2-.7c0-2.13,0-4.26,0-6.38,0-1.08-.11-2.15-.1-3.23,0-6.22.11-12.44.15-18.66,0-5.28,0-10.56,0-15.84,0-2.86,0-5.72.06-8.58,0-.42.1-.58.4-.58h6.19c.39,0,.54.28.52.75,0,.81-.07,1.63-.07,2.44q-.06,8.43-.1,16.85c0,5.1,0,10.19-.08,15.28-.06,5.7-.16,11.4-.26,17.09a3.41,3.41,0,0,0,.62,2.13c.9,1.33,1.66,2.84,2.63,4.07a29.24,29.24,0,0,1,2.2,4.1,2.59,2.59,0,0,1,.14,1.21c-.11,6.59-.27,13.18-.34,19.77q-.19,17.17-.32,34.35c0,2-.05,4-.08,6C219.75,158.34,219.71,158.56,219.67,159Z"/><path class="monet-10" d="M113.44,148.51c.53.8,1,1.44,1.38,2.07,1.42,2.07,2.81,4.16,4.27,6.17a3.32,3.32,0,0,1,.58,2.2c-.09,2.94-.2,5.87-.21,8.81,0,3.09.11,6.19.11,9.28,0,3.83-.08,7.66-.1,11.5q-.06,9.48-.09,19c0,.92,0,1.84,0,2.75,0,.21-.25.58-.39.58q-2.82.07-5.64,0c-.13,0-.36-.45-.37-.7,0-1.76-.07-3.52-.05-5.28.1-11.55.23-23.1.33-34.65.06-6.75.1-13.49.16-20.24C113.37,149.57,113.41,149.14,113.44,148.51Z"/><path class="monet-11" d="M4.19,58.07a6.17,6.17,0,0,1-1.05.7,3.62,3.62,0,0,0-1.95,1.51L1,60.36V64H5.73l1-1.67c-.43-.78-.85-1.46-1.22-2.18A7.46,7.46,0,0,0,4.19,58.07Z"/><path class="monet-12" d="M207.19,182.9c.89,1.41,1.5,2.89,2.45,4.18a8.84,8.84,0,0,1,1.16-.66,3.63,3.63,0,0,0,1.95-1.51l.19-.08v-3.62h-4.73Z"/><path class="monet-13" d="M212.6,60.13a2.36,2.36,0,0,0-.68-.73c-.71-.55-1.57-.76-2.34-1.3-.79,1.4-1.56,2.77-2.38,4.21.36.58.7,1.15,1,1.68h4.72V60.38C212.83,60.3,212.67,60.24,212.6,60.13Z"/><path class="monet-14" d="M208.77,140.3v4.46l0,.09.08.07h4.84v-5h-4.62Z"/><path class="monet-15" d="M1,181.23v3.61c.11.08.28.13.34.24a2.55,2.55,0,0,0,.69.74c.7.54,1.56.76,2.32,1.29.8-1.43,1.58-2.83,2.38-4.24-.37-.61-.7-1.15-1-1.64Z"/><path class="monet-16" d="M108,5.85l2.35-4.15c-1-.64-1.9-1.44-3.14-1.51L107.11,0h-.23V.11a8.08,8.08,0,0,0-2.32.94,2.91,2.91,0,0,0-.89.73L106,5.85Z"/><path class="monet-17" d="M106,239.19l-2.3,4.08a3.11,3.11,0,0,0,.38.37,15.59,15.59,0,0,1,1.93,1.15h2l.18-.22a7.92,7.92,0,0,0,2.15-1.3c-.82-1.43-1.59-2.8-2.32-4.08Z"/><path class="monet-18" d="M208.8,104.81h4.92v-4.74h-5C208.79,101.7,208.71,103.26,208.8,104.81Z"/><path class="monet-19" d="M4.7,140H0v5H4.75C4.71,143.22,4.79,141.59,4.7,140Z"/><path class="monet-20" d="M4.7,100.07H0v4.74H4.75C4.71,103.18,4.79,101.62,4.7,100.07Z"/><path class="monet-21" d="M107.64,211.7l2.65-1.5L108,205.89h-2c-.78,1.46-1.64,2.86-2.36,4.31l2.69,1.5Z"/><path class="monet-22" d="M108,39.35,110.34,35l-2.67-1.46c-1.6-.29-2.7.8-4,1.47L106,39.35Z"/><path class="monet-23" d="M180.06,125.06H185v-4.89H180C180.05,121.83,180,123.47,180.06,125.06Z"/><path class="monet-24" d="M29,125.13c1.66,0,3.29,0,4.88,0v-4.91H29Z"/><path class="monet-25" d="M68.78,224.11,73,226.58c.81-1.38,1.62-2.76,2.45-4.2-1.33-1.06-2.88-1.69-4.25-2.61C70.38,221.22,69.49,222.64,68.78,224.11Z"/><path class="monet-26" d="M138.45,222.27c.74,1.48,1.66,2.85,2.4,4.32l4.31-2.44c-.68-1.49-1.63-2.84-2.44-4.32Z"/><path class="monet-27" d="M141.47,57.81l4.29,2.53,2.49-4.28L144,53.55Z"/><path class="monet-28" d="M33.92,41.36l2.43,4.23,4.25-2.5a39.09,39.09,0,0,0-2.47-4.24A36.52,36.52,0,0,0,33.92,41.36Z"/><path class="monet-29" d="M106.24,66.74a10.42,10.42,0,0,0-2.62,1.52l2.32,4.11h2l2.3-4.07C108.47,67,108.12,66.62,106.24,66.74Z"/><path class="monet-30" d="M145.19,21.06l-4.26-2.49c-.8,1.39-1.6,2.77-2.44,4.24,1.39,1,2.87,1.72,4.25,2.55C143.57,23.87,144.45,22.49,145.19,21.06Z"/><path class="monet-31" d="M72.42,187.39l-4.26-2.5c-.85,1.45-1.67,2.83-2.51,4.25l4.29,2.54Z"/><path class="monet-32" d="M74.45,23.47a2.56,2.56,0,0,0,.87-.7,11,11,0,0,0-1.17-2.16c-.54-.61-.58-1.54-1.27-2l-4.2,2.46c.74,1.49,1.66,2.85,2.43,4.28C72.21,24.74,73.32,24.07,74.45,23.47Z"/><path class="monet-33" d="M173.46,202a22.2,22.2,0,0,0,2.44,4.28,38.65,38.65,0,0,0,4.18-2.47c-.83-1.46-1.61-2.82-2.42-4.22Z"/><path class="monet-34" d="M180.09,41.26l-4.23-2.5A42.35,42.35,0,0,0,173.35,43l4.25,2.48C178.44,44.07,179.23,42.71,180.09,41.26Z"/><path class="monet-35" d="M72.39,57.77c-.85-1.47-1.67-2.89-2.49-4.29L65.6,56c1,1.43,1.6,3,2.56,4.23Z"/><path class="monet-36" d="M141.54,187.36c.85,1.48,1.68,2.9,2.47,4.26l4.31-2.5c-.88-1.48-1.71-2.88-2.54-4.26Z"/><path class="monet-37" d="M33.87,203.88a40.49,40.49,0,0,0,4.33,2.43c.41-.76.74-1.5,1.17-2.17a8.34,8.34,0,0,0,1.18-2.1l-4.24-2.42Z"/><path class="monet-38" d="M106,172.82,103.62,177l2.48,1.47h1.75l2.49-1.48L108,172.82Z"/><path class="monet-39" d="M35.36,79c-.06-.23-.06-.65-.27-.88A14,14,0,0,1,34,76.24c-.37-.55-.67-1.15-1-1.75-1.2.81-2.66,1.2-3.29,2.61v3.26h4.8Z"/><path class="monet-40" d="M181,74.56a1.09,1.09,0,0,0-.24.24c-.65,1.08-1.15,2.25-1.88,3.28a2.6,2.6,0,0,0-.25.92l.81,1.39h4.84V77.22C183.65,75.73,182.2,75.32,181,74.56Z"/><path class="monet-41" d="M64.37,95.06c-.9-1.43-1.79-2.83-2.69-4.24-1,1-2.56,1.25-3.09,2.68v3.22h4.8Z"/><path class="monet-42" d="M149.6,95.06l1,1.64h4.81V93.56c-.56-1.52-2.09-1.75-3.11-2.75Z"/><path class="monet-43" d="M33,170.74l1.63-2.91c.13-.24.19-.57.39-.73a.89.89,0,0,0,.28-.87l-.79-1.31H29.62c0,.94,0,1.84,0,2.74a1.51,1.51,0,0,0,.23.91,3.56,3.56,0,0,0,1.23,1.07A15.86,15.86,0,0,1,33,170.74Z"/><path class="monet-44" d="M178.62,166.2c0,.12-.08.36,0,.49.88,1.27,1.46,2.71,2.32,4a8.84,8.84,0,0,1,1.35-.84,3.56,3.56,0,0,0,1.92-1.73v-3.27h-4.8Z"/><path class="monet-45" d="M155.63,148.27H150.8l-.81,1.32a2.35,2.35,0,0,0,.19.82c.21.42.47.78.71,1.17l1.42,2.3c.23,0,.41,0,.52,0,.69-.43,1.38-.87,2-1.35a1.89,1.89,0,0,0,.78-1.71C155.59,150,155.63,149.13,155.63,148.27Z"/><path class="monet-46" d="M62.56,152.51c.42-.65.76-1.35,1.22-2a2.16,2.16,0,0,0,.25-.89c-.34-.59-.56-1-.8-1.39H58.41v3.28a6.37,6.37,0,0,0,3.27,2.35C62,153.4,62.27,153,62.56,152.51Z"/><path class="monet-47" d="M17,124.68l2.05.94c1.92.91,3.84,1.81,5.73,2.73a1.08,1.08,0,0,1,.57.64c.07.43.34.71.93,1q7.88,3.45,15.69,6.93c.34.15.66.52.61.75-.35,1.43.52,2.31,2.6,3.12,4.91,1.89,9.6,4,14.4,6,.6.25.85.5.85,1,0,2.83-.48,2.14,3.32,3.58q6.61,2.51,13.3,5c.68.25.9.54.89,1a21.4,21.4,0,0,0,.17,3.1,1.16,1.16,0,0,0,.81.75q5.19,1.35,10.45,2.61c1.41.34,1.52.42,1,1.46l-2.3-.46c-6.1-1.26-12.19-2.53-18.29-3.77-.78-.16-1.09-.38-1.07-.88.06-1.3,0-2.61.06-3.91,0-.46-.27-.72-.93-.93-5.35-1.67-10.69-3.37-16-5-.63-.2-.84-.43-.81-.83.1-1.22.14-2.44.27-3.65.06-.57-.13-.89-1.21-.78a9.2,9.2,0,0,1-4.64-.79c-3.55-1.44-7.23-2.78-10.87-4.13-.67-.25-.95-.54-.94-1,0-1.24,0-2.48,0-3.72,0-.54-.3-.74-1.21-.7s-2.12.06-3.18.05a3.16,3.16,0,0,1-1.05-.19c-3.57-1.47-7.1-3-10.68-4.42-.72-.29-1-.61-.93-1.13.14-1.17.18-2.35.26-3.53C16.85,125.16,16.9,125,17,124.68Z"/><path class="monet-48" d="M90.43,173c.37.6.06.83-.77,1-3.32.67-6.62,1.36-9.92,2.07-1.69.36-1.72.43-1.72,1.52,0,.89,0,1.79,0,2.67,0,.5-.24.74-1,1-3,.92-5.86,1.9-8.76,2.88-2.24.76-4.44,1.56-6.68,2.33-.86.29-1.25.7-1.21,1.31s.3,1.56-.19,2.14-1.78.79-2.71,1.17c-4.55,1.85-9.07,3.72-13.65,5.55-1.09.44-1.8.88-1.62,1.74.26,1.19-.58,2-2.31,2.63-4.63,1.85-9.08,3.86-13.64,5.78-.82.34-1.28.71-1.09,1.32.11.37-.14.59-.67.8-2.29,1-4.54,1.94-6.82,2.9a6.56,6.56,0,0,1-1.09.22,1.84,1.84,0,0,1-.25-.63c0-1.2-.09-2.41,0-3.61a.94.94,0,0,1,.6-.69c3.32-1.24,6.68-2.45,10-3.67a12.8,12.8,0,0,1,5.81-1.15c.68.06.77-.22.76-.55,0-1.31,0-2.61,0-3.92,0-.41.24-.64.81-.84,4.38-1.54,8.72-3.12,13.12-4.64a7.78,7.78,0,0,1,2.26-.28c.7,0,1-.15,1-.57a24.33,24.33,0,0,0,.1-3.41c-.08-.81.47-1.18,1.57-1.51,4.76-1.42,9.5-2.88,14.25-4.3,1.3-.39,2.07-.88,2-1.85a27.79,27.79,0,0,1,0-3.29c0-.37.19-.54.81-.64l20.13-3.35C89.8,173.08,90.1,173.06,90.43,173Z"/><path class="monet-49" d="M33.31,212.48c0-.91,0-1.67,0-2.42s-.3-1.81.26-2.5,2.07-1,3.14-1.55c2.36-1.13,4.71-2.27,7.09-3.39a2.78,2.78,0,0,1,1.11-.19c1.47,0,2.94,0,4.4.15.8.06.94-.13,1-.53.1-1.37.2-2.73.38-4.09a1.19,1.19,0,0,1,.65-.83c3.51-1.62,7.06-3.21,10.62-4.79a3,3,0,0,1,1.06-.18c1.5,0,3-.07,4.52-.08.72,0,1-.16,1-.63,0-1.2,0-2.4,0-3.6,0-.46.2-.77.83-1,4-1.67,7.91-3.35,11.87-5a3.29,3.29,0,0,1,.86-.15c.68,0,1.37,0,2-.08,1.8-.1,1.82-.11,1.88-1.23s.07-2.11.08-3.16c0-.34.12-.56.72-.72,4.09-1.12,8.16-2.27,12.23-3.4l1.28-.34a17.67,17.67,0,0,1,0,2.08c0,.18-.37.37-.65.51-2.73,1.32-5.48,2.62-8.19,4-.35.17-.48.5-.74.75a3.32,3.32,0,0,1-.76.62c-3.76,1.94-7.52,3.86-11.29,5.79-.5.25-1,.48-.78,1,.06.12-.15.35-.35.46-5,2.74-10,5.46-15,8.2-.77.43-1.34,1-2.06,1.46-.48.31-1.09.55-1.62.84-4.91,2.67-9.83,5.35-14.7,8a10.72,10.72,0,0,0-1.59,1.28A2.71,2.71,0,0,1,42,208c-2.59,1.36-5.19,2.7-7.8,4.05C34,212.2,33.74,212.3,33.31,212.48Z"/><path class="monet-50" d="M100.34,165.28c-.51-.14-.79-.2-1-.28-4.28-1.41-8.55-2.81-12.8-4.24a.79.79,0,0,1-.48-.66c0-1.28,0-2.57,0-3.85,0-.57-.34-.8-1.24-.79h-.11a24.37,24.37,0,0,1-4.24-.2,16.11,16.11,0,0,1-3.31-1.54c-2.58-1.2-5.18-2.38-7.74-3.6a1,1,0,0,1-.57-.71c0-1.26,0-2.53.11-3.79,0-.58-.23-.82-1.26-.78-1.43,0-2.88,0-4.31,0a5.44,5.44,0,0,1-3-.65,72.69,72.69,0,0,0-6.95-3.49c-1.94-.84-2.79-1.78-2.4-3.22a13.83,13.83,0,0,0,.2-2.73s.08-.11.2-.26l1.64.92,18.5,10.4q3.12,1.76,6.23,3.52c.16.09.37.24.34.35-.14.55.49.83,1,1.14q10.29,6,20.57,11.9a1.26,1.26,0,0,1,.58.86A9.24,9.24,0,0,1,100.34,165.28Z"/><path class="monet-51" d="M61.56,155.28c-.84.11-1.12.36-1.09.84s-.56.46-1.12.32c-3.9-1-7.78-2-11.69-2.91q-6.54-1.58-13.12-3.1c-.76-.17-1.07-.39-1-.89.06-1.22,0-2.45,0-3.67,0-.62-.3-1-1.3-1.32-5.05-1.49-10.06-3-15.08-4.55-.29-.09-.67-.3-.68-.46-.05-1.48,0-3,0-4.45l.38-.1c.72.22,1.45.42,2.14.67,1.79.66,3.54,1.35,5.34,2,.55.2.82.4.77.78s.07.5,0,.74c-.06.51.36.79,1.07,1,5.18,1.73,10.34,3.5,15.54,5.22.72.24.93.52.91,1,0,1,0,1.91,0,2.86,0,.56.32.89,1.14,1.11,3.69,1,7.36,2,11.05,3,1.93.53,3.87,1.05,5.8,1.59C60.94,155.07,61.25,155.18,61.56,155.28Z"/><path class="monet-52" d="M60.39,181.08c.11.88,1.21.42,1.9.7-.31.11-.53.21-.79.28-5.93,1.51-11.86,3-17.81,4.53-.86.22-1.22.52-1.22,1.07,0,1.2-.07,2.39-.18,3.59,0,.19-.32.44-.61.54-5.21,1.71-10.44,3.4-15.63,5.12-.37.13-.77.53-.71.77.35,1.32-.41,2.12-2.56,2.61-1.81.41-3.46,1.08-5.21,1.6-1,.3-1.28.19-1.3-.5,0-1.26-.06-2.53,0-3.79,0-.22.36-.53.69-.62q7.62-2.23,15.3-4.42c1-.27,1.37-.63,1.32-1.29-.09-1.2,0-2.4,0-3.6,0-.38.18-.59.83-.73q8.67-1.84,17.32-3.75C54.54,182.56,57.34,181.83,60.39,181.08Z"/><path class="monet-53" d="M49.8,181.94c-.88.19-1.75.39-2.64.57l-20,4.12a14.4,14.4,0,0,0-1.69.44.58.58,0,0,0-.35.45c0,.68.07,1.37,0,2a1,1,0,0,1-.69.61c-2.34.54-4.71,1-7.06,1.54-.81.19-1.07.05-1-.44.08-1.32.14-2.65.17-4,0-.42.43-.5,1-.6q9.47-1.67,18.94-3.36c2.59-.46,5.14-1,7.77-1.41,1.8-.25,3.71-.2,5.58-.29Z"/><path class="monet-54" d="M47.72,155.54a48,48,0,0,1-5.83-.39c-8.24-1.55-16.42-3.23-24.64-4.85-.7-.14-1-.33-1-.79.08-1.18.09-2.36.15-3.53,0-.71.24-.82,1.36-.54,2,.47,3.91,1,5.87,1.5,1.49.38,1.49.38,1.45,1.39-.07,1.75-.07,1.75,2.65,2.37L47,155c.27.06.52.15.78.23Z"/><path class="monet-55" d="M63,164.88c-.5,0-1,0-1.5-.06q-9.1-.8-18.2-1.61c-8.74-.79-17.48-1.61-26.22-2.41-.59-.05-.84-.18-.84-.55,0-1.38,0-2.77-.06-4.16,0-.37.25-.48.82-.4,2.47.34,4.95.67,7.4,1.05.28,0,.63.32.65.49a23.84,23.84,0,0,1,.12,2.8c0,.41.21.64.94.71,4.15.43,8.29.89,12.44,1.32l23.81,2.45a4.81,4.81,0,0,1,.66.13Z"/><path class="monet-56" d="M62.19,173c-.36.06-.71.16-1.08.19l-16.69,1.45-16.79,1.49-.31,0c-2,.31-2,.31-2,1.59,0,.77-.1,1.53-.12,2.3,0,.36-.24.55-.88.62-2.29.25-4.57.53-6.86.81-.86.11-1.26,0-1.25-.61,0-1.2-.08-2.4-.12-3.6,0-1,0-1,1.57-1.11L36,174.75l25.19-2c.32,0,.66,0,1,0Z"/><path class="monet-57" d="M74.88,165.17c-.71,0-1.44-.07-2.14-.15-5-.57-10-1.16-15-1.71Q46.41,162,35,160.84c-1.06-.11-1.33-.37-1.3-1,.06-1.24,0-2.48,0-3.72,0-.48.21-.66,1-.52,2.39.44,4.79.88,7.19,1.3.57.1.75.28.75.62,0,.83.05,1.66,0,2.48,0,.39.17.6.87.69q11.57,1.47,23.13,3l7.34,1a7.44,7.44,0,0,1,.95.28Z"/><path class="monet-58" d="M42.76,180.62a13.85,13.85,0,0,0-1.6,0c-2.1.28-4.2.6-6.31.88-1.24.17-1.31.13-1.31-.61,0-1.3,0-2.61,0-3.91,0-.39.17-.59.89-.66,5.53-.5,11-1,16.57-1.55q10.11-.94,20.23-1.89a3.52,3.52,0,0,1,.92.17,3.41,3.41,0,0,1-.88.31c-6.81.74-13.64,1.45-20.45,2.2-2.4.26-4.76.62-7.14.89-.74.09-1,.29-1,.71C42.78,178.34,42.76,179.52,42.76,180.62Z"/><path class="monet-59" d="M51.1,158.12c0-.66,0-1.32,0-2,0-.5.27-.69,1.13-.48,2.48.59,5,1.17,7.48,1.73.57.13.82.32.79.69a13.5,13.5,0,0,1,0,1.8c-.12.65.4.94,1.32,1.1l19.41,3.26c.59.1,1.2.19,1.76.34a2.11,2.11,0,0,1,.61.41,3.06,3.06,0,0,1-.87.13c-3.54-.48-7.08-1-10.61-1.5Q62,162.18,51.89,160.74c-.6-.09-.86-.24-.83-.63,0-.66,0-1.32,0-2Z"/><path class="monet-60" d="M34.13,124.43,51,134.11l-.08.17-1.54.05c-1.4,0-2.81.12-4.21.07a5.26,5.26,0,0,1-2-.43c-3-1.48-5.9-3-8.82-4.56a1.15,1.15,0,0,1-.63-.71c-.06-1.24,0-2.48,0-3.73a1.6,1.6,0,0,1,.14-.44Z"/><path class="monet-61" d="M60.43,179.89l-8.18,1.56c-1.16.23-1.21.21-1.19-.54,0-1.3.13-2.61.15-3.91,0-.36.25-.51.82-.57l8.07-1q10.65-1.24,21.31-2.49a4.37,4.37,0,0,1,1.1.16,3.89,3.89,0,0,1-1,.42l-18,2.43c-.9.13-1.79.3-2.64.51a.7.7,0,0,0-.5.5C60.4,178,60.43,178.91,60.43,179.89Z"/><path class="monet-62" d="M85.7,202.4a4.67,4.67,0,0,1-.08-.52,5.74,5.74,0,0,0,0-1.31c-.45-2,.7-3.74,2.34-5.44,3.89-4,7.65-8.13,11.46-12.2a1.53,1.53,0,0,1,.58-.38c0,.91.42,1.82-.28,2.7-2.31,2.91-4.61,5.83-6.92,8.73q-3.16,4-6.35,7.94c-.15.18-.35.35-.53.53Z"/><path class="monet-63" d="M99.91,187.62a6.64,6.64,0,0,1-.06,2.53,30.52,30.52,0,0,1-2.37,4.16c-3.54,5.52-7.11,11-10.66,16.55-.33.5-.62,1-.93,1.53l-.26,0a1.08,1.08,0,0,1-.16-.39,22,22,0,0,1,0-3.54,5.56,5.56,0,0,1,1.12-2q6.48-9.3,13-18.59A1.76,1.76,0,0,1,99.91,187.62Z"/><path class="monet-64" d="M85.9,191.88v-2.39c0-.18.11-.37.06-.55-.34-1.32.68-2.25,2.1-3.18,3.74-2.48,7.33-5,11-7.55.27-.19.54-.36,1-.68.2,1.24.27,2.32-.77,3.23-3,2.62-6,5.18-9,7.77l-3.43,2.95c-.18.16-.41.3-.61.45Z"/><path class="monet-65" d="M65.43,202.63l-15,10.2a4.76,4.76,0,0,1-.16-.88c0-1.3.06-2.61.16-3.91a1,1,0,0,1,.52-.69c2.74-1.46,5.53-2.89,8.26-4.37a4.58,4.58,0,0,1,2.61-.49C62.94,202.57,64.06,202.58,65.43,202.63Z"/><path class="monet-66" d="M100.21,155.34c-1.92-2.14-3.73-4.16-5.55-6.17l-8.83-9.75a1.24,1.24,0,0,1-.36-.63c0-1.34,0-2.69,0-4,0-.07.06-.15.18-.38.55.69,1,1.25,1.45,1.81q6.14,8,12.27,15.93A3.45,3.45,0,0,1,100.21,155.34Z"/><path class="monet-67" d="M68.59,202.41v-1.59c0-.93-.06-1.86,0-2.79a.9.9,0,0,1,.42-.72c2.61-1.64,5.27-3.24,7.91-4.87a3.22,3.22,0,0,1,1.92-.42c1.24.06,2.49,0,3.74,0l.14.18L69,202.51Z"/><path class="monet-68" d="M86.17,168.64c0-.62,0-1.24,0-1.86,0-.41.22-.59,1-.51q6.25.71,12.53,1.37c.63.07.89.23.83.62a11.51,11.51,0,0,0-.06,1.18c0,.79,0,.81-1.36.88-3.71.19-7.43.38-11.14.6-2,.11-2,.13-1.92-1,0-.41,0-.83,0-1.24Z"/><path class="monet-69" d="M86.19,145.08c.77.7,1.55,1.39,2.31,2.1,3.65,3.38,7.24,6.78,11,10.13a3.13,3.13,0,0,1,1,3.2c-.34-.22-.59-.36-.8-.52-4-3-7.92-6.08-12.06-9-1.31-.93-1.86-1.83-1.72-3a24.12,24.12,0,0,0,0-2.82Z"/><path class="monet-70" d="M64.64,134.41h-5c-1.92-1.26-4-2.81-6.41-4.15-1.8-1-2.33-2.12-2.19-3.5.08-.82,0-1.64,0-2.47l.35-.1,13.35,9.94Z"/><path class="monet-71" d="M99.93,149.67c-.73-1-1.48-2-2.18-3.06-3.75-5.49-7.43-11-11.26-16.46a7.53,7.53,0,0,1-1-5.65,3.85,3.85,0,0,1,.5.58q4.28,6.88,8.53,13.77c1.82,3,3.64,5.94,5.38,8.92a6,6,0,0,1,.44,1.86Z"/><path class="monet-72" d="M81.58,144.68c-1.41.45-3-.25-4.1.65-.41-.28-.84-.56-1.25-.86C74.16,143,72,141.53,70.07,140a3,3,0,0,1-1.2-1.79,24.66,24.66,0,0,1-.06-3.78Z"/><path class="monet-73" d="M42.64,166.45c0,1.38,0,2.68,0,4,0,.47-.31.66-1.11.66-2.36,0-4.72,0-7.09.08-.59,0-.88-.12-.88-.5,0-1.39,0-2.78.07-4.16,0-.17.52-.48.77-.47C37.14,166.15,39.86,166.3,42.64,166.45Z"/><path class="monet-74" d="M60.27,166.57v3.91c0,.32-.22.49-.81.5q-3.8,0-7.59.1c-.75,0-1-.12-1-.6.09-1.26.15-2.52.17-3.78,0-.46.39-.57,1-.53l7.17.34Z"/><path class="monet-75" d="M16.21,168.51c0-.67,0-1.33,0-2,0-.44.3-.59,1-.56,2.42.08,4.85.14,7.27.25.24,0,.62.27.63.42.07,1.25.09,2.52,0,3.77,0,.17-.49.47-.78.48-2.39.1-4.78.13-7.17.2-.73,0-1-.18-.94-.59,0-.66,0-1.32,0-2Z"/><path class="monet-76" d="M68.28,212.54a4.66,4.66,0,0,1-.08-.64c0-1.14,0-2.27.13-3.41a1.46,1.46,0,0,1,.48-1c2.73-2.33,5.51-4.64,8.29-6.95a2.36,2.36,0,0,1,.49-.13,10.44,10.44,0,0,1,0,1.26c-.07.57,0,1.06,1.62.95l-10.62,10Z"/><path class="monet-77" d="M77.89,166.76v4c-2.73.12-5.39.23-8,.36-.86,0-1.16-.17-1.12-.68.09-1.19.13-2.39.17-3.59,0-.45.29-.65,1.06-.59Z"/><path class="monet-78" d="M77.42,136.73c-.39-.3-.69-.49-.94-.7q-4-3.54-8-7.09a.85.85,0,0,1-.32-.5c-.1-1.32-.17-2.64-.25-4,0-.07,0-.15.29-.28l10,9.82C77.1,134.83,78,135.78,77.42,136.73Z"/><path class="monet-79" d="M103.34,47.57V48L97,44.35a1.76,1.76,0,0,0,0,.25c0,2.31,0,4.61,0,6.92,0,.26.17.33.34.43,1.89,1.09,3.77,2.19,5.67,3.26a.72.72,0,0,1,.43.76m0,13.88v.45L97,66.61a3.53,3.53,0,0,0,0,.38c0,2.23,0,4.46,0,6.69a.51.51,0,0,0,.29.51l5.94,3.42a.35.35,0,0,1,.21.35m0,14.28c0,.08,0,.16,0,.31l-6.39-3.68c0,.17,0,.27,0,.37,0,2.25,0,4.5,0,6.74a.44.44,0,0,0,.25.45l6,3.44a.36.36,0,0,1,.23.36M32.66,66.07q0-3.27,0-6.52a.59.59,0,0,0-.34-.58l-5.81-3.35-.26-.12a2.31,2.31,0,0,0,0,.32v6.77a.43.43,0,0,0,.25.43l5.78,3.34.39.2C32.65,66.36,32.66,66.21,32.66,66.07Zm51.4,23.31c0,2.17,0,4.35,0,6.52a.59.59,0,0,0,.34.58l5.81,3.35.26.12a2.43,2.43,0,0,0,0-.33V92.85a.41.41,0,0,0-.22-.41L84.4,89.05l-.32-.15C84.08,89.09,84.06,89.24,84.06,89.38ZM26.22,78c0,2.28,0,4.55,0,6.83a.4.4,0,0,0,.23.4l6,3.46.19.07c0-.14,0-.25,0-.37q0-3.33,0-6.66a.52.52,0,0,0-.29-.51c-2-1.12-3.93-2.26-5.89-3.39a1.38,1.38,0,0,0-.23-.09A1.38,1.38,0,0,0,26.22,78Zm64.28-.71V70.61a.45.45,0,0,0-.22-.44l-5.91-3.4-.26-.13a2.33,2.33,0,0,0,0,.34v6.74a.42.42,0,0,0,.23.43l6,3.44s.11,0,.23.09C90.49,77.53,90.5,77.43,90.5,77.33ZM64.78,55.85c0,2.24,0,4.47,0,6.71a.47.47,0,0,0,.29.48L71,66.45l.22.09c0-.13,0-.24,0-.35V59.45A.43.43,0,0,0,71,59c-2-1.12-3.92-2.26-5.88-3.39l-.29-.14ZM32.66,43.93q0-3.3,0-6.61a.64.64,0,0,0-.37-.64c-1.87-1.06-3.73-2.14-5.59-3.22a3.79,3.79,0,0,0-.47-.19c0,.15,0,.24,0,.33,0,2.21,0,4.42,0,6.63a.57.57,0,0,0,.33.58c1.95,1.11,3.89,2.24,5.83,3.36l.26.11C32.65,44.12,32.66,44,32.66,43.93Zm12.86,66.79q0-3.31,0-6.61a.61.61,0,0,0-.36-.62c-1.93-1.1-3.86-2.22-5.78-3.33l-.28-.14c0,.22,0,.39,0,.57v6.52a.45.45,0,0,0,.26.46l5.43,3.12.74.44Zm-6.43-77q0,3.3,0,6.6a.54.54,0,0,0,.31.53q2.89,1.66,5.78,3.34l.32.15c0-.14,0-.24,0-.33q0-3.36,0-6.72a.52.52,0,0,0-.3-.51l-5.64-3.25a5.18,5.18,0,0,0-.5-.22Zm32.11,11c0,2.23,0,4.46,0,6.69a.51.51,0,0,0,.3.51l5.88,3.39a1.16,1.16,0,0,0,.22.1c0-.1,0-.17,0-.25,0-2.29,0-4.59,0-6.89a.47.47,0,0,0-.2-.35c-1.81-1.06-3.64-2.1-5.46-3.16-.23-.12-.45-.25-.73-.42C71.22,44.52,71.2,44.62,71.2,44.72ZM39.09,55.82V62.6a.43.43,0,0,0,.24.43l5.86,3.37.31.16c0-.16,0-.27,0-.38V59.46a.43.43,0,0,0-.26-.44l-5.91-3.41c-.06,0-.13-.06-.23-.11C39.11,55.63,39.09,55.72,39.09,55.82Zm-6.43,54.93q0-3.36,0-6.71a.53.53,0,0,0-.3-.52l-5.86-3.37a1.94,1.94,0,0,0-.24-.11,2,2,0,0,0-.05.31v6.77a.45.45,0,0,0,.26.44q3,1.71,5.95,3.44l.19.06A1.88,1.88,0,0,0,32.66,110.75ZM90.5,55.1c0-2.24,0-4.48,0-6.72a.54.54,0,0,0-.31-.53l-5.88-3.38a1.46,1.46,0,0,0-.21-.09,2.14,2.14,0,0,0,0,.32q0,3.34,0,6.69a.55.55,0,0,0,.3.54c2,1.11,3.89,2.24,5.84,3.36l.28.13C90.48,55.28,90.5,55.19,90.5,55.1ZM64.78,100.36c0,2.26,0,4.51,0,6.77a.43.43,0,0,0,.25.42l5.86,3.38.3.16c0-.17,0-.3,0-.43q0-3.31,0-6.63a.52.52,0,0,0-.3-.51L65,100.13a1.15,1.15,0,0,0-.24-.1C64.79,100.16,64.78,100.26,64.78,100.36Zm-38.55-.82c0-2.21,0-4.42,0-6.63a.52.52,0,0,0-.3-.53L20.12,89l-.29-.14c0,.14,0,.24,0,.33,0,2.24,0,4.48,0,6.72a.5.5,0,0,0,.29.51L26,99.82l.25.13C26.21,99.78,26.23,99.66,26.23,99.54ZM45.52,88.48c0-2.24,0-4.47,0-6.71a.47.47,0,0,0-.26-.48l-6-3.44-.19-.07a3.44,3.44,0,0,0,0,.43q0,3.3,0,6.6a.5.5,0,0,0,.29.51l5.83,3.37.29.13C45.5,88.68,45.52,88.58,45.52,88.48Zm25.69,0c0-2.26,0-4.51,0-6.77a.4.4,0,0,0-.22-.38l-4.77-2.74-1.16-.68c-.23-.13-.29-.08-.29.16,0,2.29,0,4.57,0,6.86a.43.43,0,0,0,.18.33q3,1.76,6,3.49l.19.07C71.19,88.67,71.21,88.56,71.21,88.46Zm0-21.2c0,2.09,0,4.19,0,6.29a.67.67,0,0,0,.41.7c1.9,1.08,3.79,2.18,5.68,3.28l.31.16a3.66,3.66,0,0,0,0-.42V70.56a.41.41,0,0,0-.24-.4l-5.88-3.4-.32-.13Zm-45-12.61c0-2.08,0-4.15,0-6.23a.6.6,0,0,0-.35-.6l-4.31-2.47-1.38-.81c-.1-.06-.21-.1-.36-.18a2.63,2.63,0,0,0,0,.33v6.69a.53.53,0,0,0,.29.54Q23,53.6,26,55.3c.07,0,.15.06.28.12Zm45,34.65c0,2.21,0,4.42,0,6.63a.53.53,0,0,0,.29.52l5.91,3.41.19.09a2.42,2.42,0,0,0,0-.33V92.84a.41.41,0,0,0-.22-.41L71.48,89l-.26-.12C71.21,89.06,71.2,89.18,71.2,89.3ZM64.78,34c0,2.11,0,4.21,0,6.32a.46.46,0,0,0,.27.47l6,3.47.14,0c0-.13,0-.23,0-.34V37.21a.48.48,0,0,0-.26-.47l-5.8-3.33a2.08,2.08,0,0,0-.37-.14ZM26.22,77.38c0-2.28,0-4.57,0-6.85,0-.25-.15-.33-.31-.42l-4.16-2.39-1.65-1-.28-.13c0,.14,0,.23,0,.32,0,2.22,0,4.44,0,6.66a.61.61,0,0,0,.33.6C22.08,75.32,24,76.45,26,77.57c.06,0,.13.06.23.11C26.21,77.56,26.22,77.47,26.22,77.38ZM39.1,55q0-3.3,0-6.6a.54.54,0,0,0-.32-.55L33,44.52l-.31-.16c0,.14,0,.22,0,.31q0,3.38,0,6.75a.5.5,0,0,0,.3.5c2,1.12,3.91,2.26,5.86,3.38.06,0,.13.06.25.12A3.73,3.73,0,0,0,39.1,55Zm0,22.34c0-2.25,0-4.51,0-6.77a.43.43,0,0,0-.23-.41l-5.95-3.43-.21-.1a2.45,2.45,0,0,0-.06.34c0,2.23,0,4.45,0,6.68a.55.55,0,0,0,.31.54c1.94,1.1,3.87,2.22,5.81,3.34l.29.15A3.26,3.26,0,0,0,39.1,77.35ZM58.36,67c0,2.25,0,4.49,0,6.74a.49.49,0,0,0,.29.49l5.9,3.41.22.09c0-.13,0-.23,0-.32q0-3.37,0-6.75a.48.48,0,0,0-.29-.48l-5.81-3.35-.31-.16C58.37,66.77,58.36,66.86,58.36,67ZM77.63,78.07c0,2.25,0,4.49,0,6.74a.51.51,0,0,0,.28.5l5.9,3.41.22.08a2,2,0,0,0,0-.31c0-2.22,0-4.44,0-6.66a.59.59,0,0,0-.33-.6C81.83,80.15,79.93,79,78,77.94l-.35-.18A2.91,2.91,0,0,0,77.63,78.07ZM19.8,110.81c0-2.27,0-4.53,0-6.8a.47.47,0,0,0-.27-.47l-6-3.45L13.4,100c0,.11,0,.19,0,.28v6.85a.38.38,0,0,0,.23.4l5.88,3.39.29.14C19.79,111,19.8,110.88,19.8,110.81Zm32.14-10.23v6.55a.43.43,0,0,0,.23.43c2,1.13,3.94,2.27,5.91,3.41.07,0,.15.06.26.11,0-.14,0-.25,0-.36q0-3.31,0-6.65a.55.55,0,0,0-.31-.56c-1.94-1.1-3.86-2.22-5.79-3.33l-.33-.17Zm25.69-.2c0,2.21,0,4.42,0,6.63a.63.63,0,0,0,.36.62c1.92,1.09,3.83,2.2,5.74,3.31l.29.15a2.43,2.43,0,0,0,0-.33c0-2.25,0-4.5,0-6.74a.49.49,0,0,0-.29-.49L78,100.18l-.3-.16A3.25,3.25,0,0,0,77.63,100.38Zm19.29,10.25q0-3.28,0-6.57a.54.54,0,0,0-.31-.54l-5.86-3.37a2,2,0,0,0-.27-.12v.58c0,2.17,0,4.34,0,6.52a.44.44,0,0,0,.26.44l5.88,3.4c.07,0,.15.06.29.12ZM58.36,89.28V96a.46.46,0,0,0,.26.47l5.88,3.39c.07,0,.15.06.26.11,0-.13,0-.22,0-.31q0-3.36,0-6.74a.49.49,0,0,0-.28-.49L58.63,89l-.27-.12Zm0-23.09q0-3.36,0-6.72A.47.47,0,0,0,58.1,59l-5.89-3.4-.24-.1c0,.12,0,.22,0,.31v6.77a.44.44,0,0,0,.26.45l5.9,3.4a1.43,1.43,0,0,0,.26.11Zm6.42-11.37V48.33a.44.44,0,0,0-.25-.45l-5.88-3.39-.27-.12c0,.13,0,.22,0,.32q0,3.36,0,6.72a.53.53,0,0,0,.29.51q2.94,1.68,5.86,3.38l.28.13ZM19.8,44q0-3.37,0-6.77a.46.46,0,0,0-.26-.44l-5.72-3.29c-.12-.07-.27-.11-.43-.18,0,.13,0,.21,0,.29v6.77a.38.38,0,0,0,.23.42q3,1.71,5.95,3.44l.24.09ZM84.07,65.66c0-2,0-4,0-6A.65.65,0,0,0,83.7,59c-1.94-1.1-3.86-2.22-5.79-3.33a1.94,1.94,0,0,0-.24-.11c0,.13,0,.23,0,.32,0,2.26,0,4.52,0,6.78a.5.5,0,0,0,.2.38c2,1.16,3.94,2.29,5.92,3.44l.3.12ZM13.38,56c0,2.17,0,4.35,0,6.52a.51.51,0,0,0,.28.51c2,1.11,3.9,2.24,5.84,3.36l.29.14c0-.14,0-.24,0-.33,0-2.25,0-4.5,0-6.75a.48.48,0,0,0-.27-.47c-2-1.12-3.92-2.26-5.88-3.39l-.28-.14Zm6.43,32.4c0-2.22,0-4.45,0-6.68a.46.46,0,0,0-.25-.46c-2-1.13-3.95-2.28-5.93-3.42a1.94,1.94,0,0,0-.24-.11c0,.12,0,.22,0,.31v6.83a.36.36,0,0,0,.23.39l5.88,3.39c.08,0,.16.08.3.15C19.8,88.65,19.81,88.54,19.81,88.42ZM51.94,55.1q0-3.41,0-6.8a.39.39,0,0,0-.22-.39l-5.9-3.41-.27-.13a2.38,2.38,0,0,0,0,.34v6.8a.38.38,0,0,0,.22.38l6,3.44.22.09C51.93,55.28,51.94,55.19,51.94,55.1ZM39.09,99.58c0-2.24,0-4.47,0-6.71a.44.44,0,0,0-.24-.44L33,89l-.28-.15a2.63,2.63,0,0,0,0,.33q0,3.39,0,6.77a.47.47,0,0,0,.27.45l5.91,3.4c.06,0,.13,0,.23.1A2.6,2.6,0,0,0,39.09,99.58ZM58.36,44c0-2.28,0-4.55,0-6.83a.43.43,0,0,0-.24-.4l-5.79-3.33a2.29,2.29,0,0,0-.38-.16c0,.15,0,.24,0,.33v6.75a.41.41,0,0,0,.25.42L58,44.15l.3.15C58.35,44.15,58.36,44.07,58.36,44ZM77.63,33.71q0,3.28,0,6.57a.5.5,0,0,0,.3.51l5.69,3.28.41.22a1.92,1.92,0,0,0,0-.3V37.2a.47.47,0,0,0-.26-.45l-5.76-3.32a2.25,2.25,0,0,0-.42-.17Zm12.86.18c0,2.14,0,4.27,0,6.41a.51.51,0,0,0,.28.49c2,1.12,3.92,2.26,5.88,3.39l.24.1c0-.13,0-.22,0-.32V37.22a.47.47,0,0,0-.27-.48l-5.71-3.29a3,3,0,0,0-.45-.18Zm-45,55.36q0,3.38,0,6.75a.45.45,0,0,0,.26.44l5.88,3.4a2.9,2.9,0,0,0,.27.11c0-.14,0-.25,0-.36q0-3.36,0-6.71a.48.48,0,0,0-.28-.47c-2-1.12-3.92-2.26-5.88-3.39-.06,0-.13-.06-.25-.12C45.53,89.05,45.52,89.15,45.52,89.25Zm51.4-.78q0-3.33,0-6.66a.56.56,0,0,0-.32-.56c-2-1.11-3.89-2.24-5.84-3.36-.06,0-.13-.06-.24-.12,0,.14,0,.24,0,.35q0,3.38,0,6.77a.39.39,0,0,0,.22.39c2,1.14,4,2.3,6,3.45a1.59,1.59,0,0,0,.22.08C96.91,88.67,96.92,88.57,96.92,88.47Zm-45-10.39v6.8a.4.4,0,0,0,.23.41L58,88.66l.3.16a2.11,2.11,0,0,0,0-.31q0-3.37,0-6.75a.49.49,0,0,0-.28-.49c-1.28-.72-2.56-1.46-3.84-2.2L52.34,78l-.38-.2C52,77.9,51.94,78,51.94,78.08ZM90.5,55.88q0,3.33,0,6.66a.53.53,0,0,0,.31.53l5.81,3.35.28.13c0-.12,0-.2,0-.28v-6.8a.46.46,0,0,0-.25-.45l-5.9-3.4-.26-.12C90.51,55.67,90.5,55.77,90.5,55.88ZM52,76.59c0-2,0-4,0-6.06a.42.42,0,0,0-.16-.32c-2-1.18-4.05-2.34-6.08-3.51l-.14,0c0,.13,0,.23,0,.34V73.7a.48.48,0,0,0,.28.49q2.07,1.17,4.13,2.37c.57.32,1.13.66,1.7,1l.32.15Z"/><path class="monet-80" d="M103.34,114.51c0,.09-4.24-2.13-6.39-3.37a2.5,2.5,0,0,0,0,.32q0,3.42,0,6.83a.42.42,0,0,0,.24.4c1.93,1.1,3.85,2.22,5.76,3.33a.88.88,0,0,1,.15.12h.39Z"/><path class="monet-81" d="M103.34,92.24c0,.08,0,.16,0,.31l-6.39-3.68c0,.17,0,.27,0,.37,0,2.25,0,4.5,0,6.74a.44.44,0,0,0,.25.45l6,3.44a.36.36,0,0,1,.23.36Z"/><path class="monet-82" d="M103.34,69.85v.45L97,66.61a3.53,3.53,0,0,0,0,.38c0,2.23,0,4.46,0,6.69a.51.51,0,0,0,.29.51l5.94,3.42a.35.35,0,0,1,.21.35Z"/><path class="monet-83" d="M103.34,47.57V48L97,44.35a1.76,1.76,0,0,0,0,.25c0,2.31,0,4.61,0,6.92,0,.26.17.33.34.43,1.89,1.09,3.77,2.19,5.67,3.26a.72.72,0,0,1,.43.76Z"/><path class="monet-84" d="M90.52,122.14c0-.2,0-.39,0-.59,0-2.12,0-4.25,0-6.38a.51.51,0,0,0-.29-.51c-1.95-1.11-3.89-2.24-5.84-3.36l-.26-.14a2.86,2.86,0,0,0,0,.32q0,3.34,0,6.69a.59.59,0,0,0,.34.58L90.06,122l.18.13Z"/><path class="monet-85" d="M77.64,122.14c0-2.31,0-4.63,0-6.94a.57.57,0,0,0-.32-.56c-2-1.11-3.89-2.24-5.84-3.37l-.24-.09a2.33,2.33,0,0,0,0,.34c0,2.21,0,4.42,0,6.63a.61.61,0,0,0,.36.6c1.91,1.09,3.81,2.19,5.72,3.3a.76.76,0,0,1,.09.09Z"/><path class="monet-86" d="M26.25,122.14c0-.31,0-.62,0-.92,0-2,0-4,0-6a.5.5,0,0,0-.29-.51c-2-1.12-3.9-2.26-5.86-3.38a1.35,1.35,0,0,0-.26-.11c0,.13,0,.23,0,.33,0,2.21,0,4.42,0,6.63a.61.61,0,0,0,.35.63c1.9,1.08,3.78,2.17,5.67,3.26a.88.88,0,0,1,.15.12Z"/><path class="monet-87" d="M39.07,122.14a3,3,0,0,0,0-.31c0-2.21,0-4.42,0-6.63a.55.55,0,0,0-.32-.55c-1.91-1.09-3.82-2.2-5.73-3.31l-.36-.19a2.24,2.24,0,0,0,0,.31q0,3.36,0,6.72a.6.6,0,0,0,.34.57l5.57,3.2c.08,0,.15.13.23.19Z"/><path class="monet-88" d="M64.77,122.14c0-.5,0-1,0-1.49v-5.53a.43.43,0,0,0-.23-.43l-5.88-3.39a2.68,2.68,0,0,0-.29-.14c0,.13,0,.22,0,.31v6.8a.4.4,0,0,0,.24.42L64.36,122l.18.13Z"/><path class="monet-89" d="M52,122.14c0-2.31,0-4.62,0-6.94a.55.55,0,0,0-.32-.55c-2-1.13-4-2.28-5.93-3.42l-.14,0a2,2,0,0,0,0,.33v6.77a.42.42,0,0,0,.24.42c1.93,1.1,3.84,2.21,5.76,3.32a1.58,1.58,0,0,1,.15.12Z"/><path class="monet-90" d="M32.64,66.56c0-.2,0-.35,0-.49q0-3.27,0-6.52a.59.59,0,0,0-.34-.58l-5.81-3.35-.26-.12a2.31,2.31,0,0,0,0,.32v6.77a.43.43,0,0,0,.25.43l5.78,3.34Z"/><path class="monet-91" d="M84.08,88.9c0,.19,0,.34,0,.48,0,2.17,0,4.35,0,6.52a.59.59,0,0,0,.34.58l5.81,3.35.26.12a2.43,2.43,0,0,0,0-.33V92.85a.41.41,0,0,0-.22-.41L84.4,89.05Z"/><path class="monet-92" d="M26.26,77.78a1.38,1.38,0,0,0,0,.26c0,2.28,0,4.55,0,6.83a.4.4,0,0,0,.23.4l6,3.46.19.07c0-.14,0-.25,0-.37q0-3.33,0-6.66a.52.52,0,0,0-.29-.51c-2-1.12-3.93-2.26-5.89-3.39A1.38,1.38,0,0,0,26.26,77.78Z"/><path class="monet-93" d="M90.48,77.68c0-.15,0-.25,0-.35V70.61a.45.45,0,0,0-.22-.44l-5.91-3.4-.26-.13a2.33,2.33,0,0,0,0,.34v6.74a.42.42,0,0,0,.23.43l6,3.44S90.36,77.63,90.48,77.68Z"/><path class="monet-94" d="M64.78,55.48v.37c0,2.24,0,4.47,0,6.71a.47.47,0,0,0,.29.48L71,66.45l.22.09c0-.13,0-.24,0-.35V59.45A.43.43,0,0,0,71,59c-2-1.12-3.92-2.26-5.88-3.39Z"/><path class="monet-95" d="M32.64,44.28c0-.16,0-.25,0-.35q0-3.3,0-6.61a.64.64,0,0,0-.37-.64c-1.87-1.06-3.73-2.14-5.59-3.22a3.79,3.79,0,0,0-.47-.19c0,.15,0,.24,0,.33,0,2.21,0,4.42,0,6.63a.57.57,0,0,0,.33.58c1.95,1.11,3.89,2.24,5.83,3.36Z"/><path class="monet-96" d="M45.52,111.13v-.41q0-3.31,0-6.61a.61.61,0,0,0-.36-.62c-1.93-1.1-3.86-2.22-5.78-3.33l-.28-.14c0,.22,0,.39,0,.57v6.52a.45.45,0,0,0,.26.46l5.43,3.12Z"/><path class="monet-97" d="M39.09,33.26v.41q0,3.3,0,6.6a.54.54,0,0,0,.31.53q2.89,1.66,5.78,3.34l.32.15c0-.14,0-.24,0-.33q0-3.36,0-6.72a.52.52,0,0,0-.3-.51l-5.64-3.25A5.18,5.18,0,0,0,39.09,33.26Z"/><path class="monet-98" d="M71.24,44.34c0,.18,0,.28,0,.38,0,2.23,0,4.46,0,6.69a.51.51,0,0,0,.3.51l5.88,3.39a1.16,1.16,0,0,0,.22.1c0-.1,0-.17,0-.25,0-2.29,0-4.59,0-6.89a.47.47,0,0,0-.2-.35c-1.81-1.06-3.64-2.1-5.46-3.16C71.74,44.64,71.52,44.51,71.24,44.34Z"/><path class="monet-99" d="M39.12,55.5c0,.13,0,.22,0,.32V62.6a.43.43,0,0,0,.24.43l5.86,3.37.31.16c0-.16,0-.27,0-.38V59.46a.43.43,0,0,0-.26-.44l-5.91-3.41C39.29,55.57,39.22,55.55,39.12,55.5Z"/><path class="monet-100" d="M32.62,111.06a1.88,1.88,0,0,0,0-.31q0-3.36,0-6.71a.53.53,0,0,0-.3-.52l-5.86-3.37a1.94,1.94,0,0,0-.24-.11,2,2,0,0,0-.05.31v6.77a.45.45,0,0,0,.26.44q3,1.71,5.95,3.44Z"/><path class="monet-101" d="M90.47,55.42c0-.14,0-.23,0-.32,0-2.24,0-4.48,0-6.72a.54.54,0,0,0-.31-.53l-5.88-3.38a1.46,1.46,0,0,0-.21-.09,2.14,2.14,0,0,0,0,.32q0,3.34,0,6.69a.55.55,0,0,0,.3.54c2,1.11,3.89,2.24,5.84,3.36Z"/><path class="monet-102" d="M64.8,100c0,.13,0,.23,0,.33,0,2.26,0,4.51,0,6.77a.43.43,0,0,0,.25.42l5.86,3.38.3.16c0-.17,0-.3,0-.43q0-3.31,0-6.63a.52.52,0,0,0-.3-.51L65,100.13A1.15,1.15,0,0,0,64.8,100Z"/><path class="monet-103" d="M26.2,100c0-.17,0-.29,0-.41,0-2.21,0-4.42,0-6.63a.52.52,0,0,0-.3-.53L20.12,89l-.29-.14c0,.14,0,.24,0,.33,0,2.24,0,4.48,0,6.72a.5.5,0,0,0,.29.51L26,99.82Z"/><path class="monet-104" d="M45.49,88.82c0-.14,0-.24,0-.34,0-2.24,0-4.47,0-6.71a.47.47,0,0,0-.26-.48l-6-3.44-.19-.07a3.44,3.44,0,0,0,0,.43q0,3.3,0,6.6a.5.5,0,0,0,.29.51l5.83,3.37Z"/><path class="monet-105" d="M71.18,88.8c0-.13,0-.24,0-.34,0-2.26,0-4.51,0-6.77a.4.4,0,0,0-.22-.38l-4.77-2.74-1.16-.68c-.23-.13-.29-.08-.29.16,0,2.29,0,4.57,0,6.86a.43.43,0,0,0,.18.33q3,1.76,6,3.49Z"/><path class="monet-106" d="M71.2,66.63v.63c0,2.09,0,4.19,0,6.29a.67.67,0,0,0,.41.7c1.9,1.08,3.79,2.18,5.68,3.28l.31.16a3.66,3.66,0,0,0,0-.42V70.56a.41.41,0,0,0-.24-.4l-5.88-3.4Z"/><path class="monet-107" d="M26.23,55.42v-.77c0-2.08,0-4.15,0-6.23a.6.6,0,0,0-.35-.6l-4.31-2.47-1.38-.81c-.1-.06-.21-.1-.36-.18a2.63,2.63,0,0,0,0,.33v6.69a.53.53,0,0,0,.29.54Q23,53.6,26,55.3C26,55.34,26.1,55.36,26.23,55.42Z"/><path class="monet-108" d="M71.22,88.89c0,.17,0,.29,0,.41,0,2.21,0,4.42,0,6.63a.53.53,0,0,0,.29.52l5.91,3.41.19.09a2.42,2.42,0,0,0,0-.33V92.84a.41.41,0,0,0-.22-.41L71.48,89Z"/><path class="monet-109" d="M64.78,33.27V34c0,2.11,0,4.21,0,6.32a.46.46,0,0,0,.27.47l6,3.47.14,0c0-.13,0-.23,0-.34V37.21a.48.48,0,0,0-.26-.47l-5.8-3.33A2.08,2.08,0,0,0,64.78,33.27Z"/><path class="monet-110" d="M26.2,77.68c0-.12,0-.21,0-.3,0-2.28,0-4.57,0-6.85,0-.25-.15-.33-.31-.42l-4.16-2.39-1.65-1-.28-.13c0,.14,0,.23,0,.32,0,2.22,0,4.44,0,6.66a.61.61,0,0,0,.33.6C22.08,75.32,24,76.45,26,77.57,26,77.61,26.1,77.63,26.2,77.68Z"/><path class="monet-111" d="M39.06,55.42a3.73,3.73,0,0,0,0-.41q0-3.3,0-6.6a.54.54,0,0,0-.32-.55L33,44.52l-.31-.16c0,.14,0,.22,0,.31q0,3.38,0,6.75a.5.5,0,0,0,.3.5c2,1.12,3.91,2.26,5.86,3.38C38.87,55.34,38.94,55.36,39.06,55.42Z"/><path class="monet-112" d="M39.06,77.69a3.26,3.26,0,0,0,0-.34c0-2.25,0-4.51,0-6.77a.43.43,0,0,0-.23-.41l-5.95-3.43-.21-.1a2.45,2.45,0,0,0-.06.34c0,2.23,0,4.45,0,6.68a.55.55,0,0,0,.31.54c1.94,1.1,3.87,2.22,5.81,3.34Z"/><path class="monet-113" d="M58.38,66.62c0,.15,0,.24,0,.33,0,2.25,0,4.49,0,6.74a.49.49,0,0,0,.29.49l5.9,3.41.22.09c0-.13,0-.23,0-.32q0-3.37,0-6.75a.48.48,0,0,0-.29-.48l-5.81-3.35Z"/><path class="monet-114" d="M77.67,77.76a2.91,2.91,0,0,0,0,.31c0,2.25,0,4.49,0,6.74a.51.51,0,0,0,.28.5l5.9,3.41.22.08a2,2,0,0,0,0-.31c0-2.22,0-4.44,0-6.66a.59.59,0,0,0-.33-.6C81.83,80.15,79.93,79,78,77.94Z"/><path class="monet-115" d="M19.78,111.08c0-.12,0-.2,0-.27,0-2.27,0-4.53,0-6.8a.47.47,0,0,0-.27-.47l-6-3.45L13.4,100c0,.11,0,.19,0,.28v6.85a.38.38,0,0,0,.23.4l5.88,3.39Z"/><path class="monet-116" d="M51.94,100v7.12a.43.43,0,0,0,.23.43c2,1.13,3.94,2.27,5.91,3.41.07,0,.15.06.26.11,0-.14,0-.25,0-.36q0-3.31,0-6.65a.55.55,0,0,0-.31-.56c-1.94-1.1-3.86-2.22-5.79-3.33Z"/><path class="monet-117" d="M77.67,100a3.25,3.25,0,0,0,0,.36c0,2.21,0,4.42,0,6.63a.63.63,0,0,0,.36.62c1.92,1.09,3.83,2.2,5.74,3.31l.29.15a2.43,2.43,0,0,0,0-.33c0-2.25,0-4.5,0-6.74a.49.49,0,0,0-.29-.49L78,100.18Z"/><path class="monet-118" d="M96.92,111.09v-.46q0-3.28,0-6.57a.54.54,0,0,0-.31-.54l-5.86-3.37a2,2,0,0,0-.27-.12v.58c0,2.17,0,4.34,0,6.52a.44.44,0,0,0,.26.44l5.88,3.4C96.7,111,96.78,111,96.92,111.09Z"/><path class="monet-119" d="M58.36,88.89V96a.46.46,0,0,0,.26.47l5.88,3.39c.07,0,.15.06.26.11,0-.13,0-.22,0-.31q0-3.36,0-6.74a.49.49,0,0,0-.28-.49L58.63,89Z"/><path class="monet-120" d="M58.36,66.55v-.36q0-3.36,0-6.72A.47.47,0,0,0,58.1,59l-5.89-3.4-.24-.1c0,.12,0,.22,0,.31v6.77a.44.44,0,0,0,.26.45l5.9,3.4A1.43,1.43,0,0,0,58.36,66.55Z"/><path class="monet-121" d="M64.78,55.43v-7.1a.44.44,0,0,0-.25-.45l-5.88-3.39-.27-.12c0,.13,0,.22,0,.32q0,3.36,0,6.72a.53.53,0,0,0,.29.51q2.94,1.68,5.86,3.38Z"/><path class="monet-122" d="M19.8,44.28V44q0-3.37,0-6.77a.46.46,0,0,0-.26-.44l-5.72-3.29c-.12-.07-.27-.11-.43-.18,0,.13,0,.21,0,.29v6.77a.38.38,0,0,0,.23.42q3,1.71,5.95,3.44Z"/><path class="monet-123" d="M84.07,66.55v-.89c0-2,0-4,0-6A.65.65,0,0,0,83.7,59c-1.94-1.1-3.86-2.22-5.79-3.33a1.94,1.94,0,0,0-.24-.11c0,.13,0,.23,0,.32,0,2.26,0,4.52,0,6.78a.5.5,0,0,0,.2.38c2,1.16,3.94,2.29,5.92,3.44Z"/><path class="monet-124" d="M13.38,55.47V56c0,2.17,0,4.35,0,6.52a.51.51,0,0,0,.28.51c2,1.11,3.9,2.24,5.84,3.36l.29.14c0-.14,0-.24,0-.33,0-2.25,0-4.5,0-6.75a.48.48,0,0,0-.27-.47c-2-1.12-3.92-2.26-5.88-3.39Z"/><path class="monet-125" d="M19.79,88.82c0-.17,0-.28,0-.4,0-2.22,0-4.45,0-6.68a.46.46,0,0,0-.25-.46c-2-1.13-3.95-2.28-5.93-3.42a1.94,1.94,0,0,0-.24-.11c0,.12,0,.22,0,.31v6.83a.36.36,0,0,0,.23.39l5.88,3.39C19.57,88.72,19.65,88.75,19.79,88.82Z"/><path class="monet-126" d="M51.92,55.42c0-.14,0-.23,0-.32q0-3.41,0-6.8a.39.39,0,0,0-.22-.39l-5.9-3.41-.27-.13a2.38,2.38,0,0,0,0,.34v6.8a.38.38,0,0,0,.22.38l6,3.44Z"/><path class="monet-127" d="M39.06,99.94a2.6,2.6,0,0,0,0-.36c0-2.24,0-4.47,0-6.71a.44.44,0,0,0-.24-.44L33,89l-.28-.15a2.63,2.63,0,0,0,0,.33q0,3.39,0,6.77a.47.47,0,0,0,.27.45l5.91,3.4C38.89,99.88,39,99.89,39.06,99.94Z"/><path class="monet-128" d="M58.34,44.3c0-.15,0-.23,0-.31,0-2.28,0-4.55,0-6.83a.43.43,0,0,0-.24-.4l-5.79-3.33a2.29,2.29,0,0,0-.38-.16c0,.15,0,.24,0,.33v6.75a.41.41,0,0,0,.25.42L58,44.15Z"/><path class="monet-129" d="M77.63,33.26v.45q0,3.28,0,6.57a.5.5,0,0,0,.3.51l5.69,3.28.41.22a1.92,1.92,0,0,0,0-.3V37.2a.47.47,0,0,0-.26-.45l-5.76-3.32A2.25,2.25,0,0,0,77.63,33.26Z"/><path class="monet-130" d="M90.49,33.27v.62c0,2.14,0,4.27,0,6.41a.51.51,0,0,0,.28.49c2,1.12,3.92,2.26,5.88,3.39l.24.1c0-.13,0-.22,0-.32V37.22a.47.47,0,0,0-.27-.48l-5.71-3.29A3,3,0,0,0,90.49,33.27Z"/><path class="monet-131" d="M45.54,88.9c0,.15,0,.25,0,.35q0,3.38,0,6.75a.45.45,0,0,0,.26.44l5.88,3.4a2.9,2.9,0,0,0,.27.11c0-.14,0-.25,0-.36q0-3.36,0-6.71a.48.48,0,0,0-.28-.47c-2-1.12-3.92-2.26-5.88-3.39C45.73,89,45.66,89,45.54,88.9Z"/><path class="monet-132" d="M96.9,88.81c0-.14,0-.24,0-.34q0-3.33,0-6.66a.56.56,0,0,0-.32-.56c-2-1.11-3.89-2.24-5.84-3.36-.06,0-.13-.06-.24-.12,0,.14,0,.24,0,.35q0,3.38,0,6.77a.39.39,0,0,0,.22.39c2,1.14,4,2.3,6,3.45A1.59,1.59,0,0,0,96.9,88.81Z"/><path class="monet-133" d="M52,77.75c0,.15,0,.24,0,.33v6.8a.4.4,0,0,0,.23.41L58,88.66l.3.16a2.11,2.11,0,0,0,0-.31q0-3.37,0-6.75a.49.49,0,0,0-.28-.49c-1.28-.72-2.56-1.46-3.84-2.2L52.34,78Z"/><path class="monet-134" d="M90.51,55.5c0,.17,0,.27,0,.38q0,3.33,0,6.66a.53.53,0,0,0,.31.53l5.81,3.35.28.13c0-.12,0-.2,0-.28v-6.8a.46.46,0,0,0-.25-.45l-5.9-3.4Z"/><path class="monet-135" d="M52,77.7V76.59c0-2,0-4,0-6.06a.42.42,0,0,0-.16-.32c-2-1.18-4.05-2.34-6.08-3.51l-.14,0c0,.13,0,.23,0,.34V73.7a.48.48,0,0,0,.28.49q2.07,1.17,4.13,2.37c.57.32,1.13.66,1.7,1Z"/><polygon class="monet-136" points="144.86 102.61 106.87 128.07 68.87 102.61 106.87 77.16 144.86 102.61"/><polygon class="monet-137" points="144.86 103.18 106.87 128.63 68.87 103.18 106.87 77.72 144.86 103.18"/><polygon class="monet-138" points="144.86 103.74 106.87 129.19 68.87 103.74 106.87 78.29 144.86 103.74"/><polygon class="monet-139" points="144.86 104.3 106.87 129.76 68.87 104.3 106.87 78.85 144.86 104.3"/><polygon class="monet-140" points="144.86 104.87 106.87 130.32 68.87 104.87 106.87 79.41 144.86 104.87"/><polygon class="monet-141" points="144.86 105.43 106.87 130.88 68.87 105.43 106.87 79.98 144.86 105.43"/><polygon class="monet-142" points="144.86 105.99 106.87 131.45 68.87 105.99 106.87 80.54 144.86 105.99"/><polygon class="monet-143" points="144.86 106.56 106.87 132.01 68.87 106.56 106.87 81.1 144.86 106.56"/><polygon class="monet-144" points="144.86 107.12 106.87 132.57 68.87 107.12 106.87 81.67 144.86 107.12"/><polygon class="monet-145" points="144.86 107.68 106.87 133.14 68.87 107.68 106.87 82.23 144.86 107.68"/><polygon class="monet-146" points="144.86 108.25 106.87 133.7 68.87 108.25 106.87 82.79 144.86 108.25"/><polygon class="monet-147" points="144.86 108.81 106.87 134.26 68.87 108.81 106.87 83.36 144.86 108.81"/><polygon class="monet-148" points="144.86 109.37 106.87 134.83 68.87 109.37 106.87 83.92 144.86 109.37"/><polygon class="monet-149" points="144.86 109.94 106.87 135.39 68.87 109.94 106.87 84.48 144.86 109.94"/><polygon class="monet-150" points="144.86 110.5 106.87 135.96 68.87 110.5 106.87 85.05 144.86 110.5"/><polygon class="monet-151" points="144.86 111.06 106.87 136.52 68.87 111.06 106.87 85.61 144.86 111.06"/><polygon class="monet-152" points="144.86 111.63 106.87 137.08 68.87 111.63 106.87 86.17 144.86 111.63"/><polygon class="monet-153" points="144.86 112.19 106.87 137.65 68.87 112.19 106.87 86.74 144.86 112.19"/><polygon class="monet-154" points="144.86 112.75 106.87 138.21 68.87 112.75 106.87 87.3 144.86 112.75"/><polygon class="monet-155" points="144.86 113.32 106.87 138.77 68.87 113.32 106.87 87.86 144.86 113.32"/><polygon class="monet-156" points="144.86 113.88 106.87 139.34 68.87 113.88 106.87 88.43 144.86 113.88"/><polygon class="monet-157" points="144.86 114.44 106.87 139.9 68.87 114.44 106.87 88.99 144.86 114.44"/><polygon class="monet-158" points="144.86 115.01 106.87 140.46 68.87 115.01 106.87 89.55 144.86 115.01"/><polygon class="monet-159" points="144.86 115.57 106.87 141.03 68.87 115.57 106.87 90.12 144.86 115.57"/><polygon class="monet-160" points="144.86 116.14 106.87 141.59 68.87 116.14 106.87 90.68 144.86 116.14"/><polygon class="monet-161" points="144.86 116.7 106.87 142.15 68.87 116.7 106.87 91.24 144.86 116.7"/><polygon class="monet-162" points="144.86 117.26 106.87 142.72 68.87 117.26 106.87 91.81 144.86 117.26"/><polygon class="monet-163" points="144.86 117.83 106.87 143.28 68.87 117.83 106.87 92.37 144.86 117.83"/><polygon class="monet-164" points="144.86 118.39 106.87 143.84 68.87 118.39 106.87 92.93 144.86 118.39"/><polygon class="monet-165" points="144.86 118.95 106.87 144.41 68.87 118.95 106.87 93.5 144.86 118.95"/><polygon class="monet-166" points="144.86 119.52 106.87 144.97 68.87 119.52 106.87 94.06 144.86 119.52"/><polygon class="monet-167" points="144.86 120.08 106.87 145.53 68.87 120.08 106.87 94.62 144.86 120.08"/><polygon class="monet-168" points="144.86 120.64 106.87 146.1 68.87 120.64 106.87 95.19 144.86 120.64"/><polygon class="monet-169" points="144.86 121.2 106.87 146.66 68.87 121.2 106.87 95.75 144.86 121.2"/><polygon class="monet-170" points="144.86 121.77 106.87 147.22 68.87 121.77 106.87 96.31 144.86 121.77"/><polygon class="monet-171" points="144.86 122.33 106.87 147.79 68.87 122.33 106.87 96.88 144.86 122.33"/><polygon class="monet-172" points="144.86 122.89 106.87 148.35 68.87 122.89 106.87 97.44 144.86 122.89"/><polygon class="monet-173" points="144.86 123.46 106.87 148.91 68.87 123.46 106.87 98 144.86 123.46"/><polygon class="monet-174" points="144.86 124.02 106.87 149.48 68.87 124.02 106.87 98.57 144.86 124.02"/><polygon class="monet-175" points="144.86 124.58 106.87 150.04 68.87 124.58 106.87 99.13 144.86 124.58"/><polygon class="monet-176" points="144.86 125.15 106.87 150.6 68.87 125.15 106.87 99.69 144.86 125.15"/><polygon class="monet-177" points="144.86 125.71 106.87 151.17 68.87 125.71 106.87 100.26 144.86 125.71"/><polygon class="monet-178" points="144.86 126.28 106.87 151.73 68.87 126.28 106.87 100.82 144.86 126.28"/><polygon class="monet-179" points="144.86 126.84 106.87 152.29 68.87 126.84 106.87 101.38 144.86 126.84"/><polygon class="monet-180" points="144.86 127.4 106.87 152.86 68.87 127.4 106.87 101.95 144.86 127.4"/><polygon class="monet-181" points="144.86 127.97 106.87 153.42 68.87 127.97 106.87 102.51 144.86 127.97"/><polygon class="monet-182" points="144.86 128.53 106.87 153.98 68.87 128.53 106.87 103.07 144.86 128.53"/><polygon class="monet-183" points="144.86 129.09 106.87 154.55 68.87 129.09 106.87 103.64 144.86 129.09"/><polygon class="monet-184" points="144.86 129.66 106.87 155.11 68.87 129.66 106.87 104.2 144.86 129.66"/><polygon class="monet-185" points="144.86 130.22 106.87 155.67 68.87 130.22 106.87 104.76 144.86 130.22"/><polygon class="monet-186" points="144.86 130.78 106.87 156.24 68.87 130.78 106.87 105.33 144.86 130.78"/><polygon class="monet-187" points="144.86 131.34 106.87 156.8 68.87 131.34 106.87 105.89 144.86 131.34"/><polygon class="monet-188" points="144.86 131.91 106.87 157.36 68.87 131.91 106.87 106.45 144.86 131.91"/><polygon class="monet-189" points="144.86 132.47 106.87 157.93 68.87 132.47 106.87 107.02 144.86 132.47"/><polygon class="monet-190" points="144.86 133.03 106.87 158.49 68.87 133.03 106.87 107.58 144.86 133.03"/><polygon class="monet-191" points="144.86 133.6 106.87 159.05 68.87 133.6 106.87 108.14 144.86 133.6"/><polygon class="monet-192" points="144.86 134.16 106.87 159.62 68.87 134.16 106.87 108.71 144.86 134.16"/><polygon class="monet-193" points="144.86 134.72 106.87 160.18 68.87 134.72 106.87 109.27 144.86 134.72"/><polygon class="monet-194" points="144.86 135.29 106.87 160.74 68.87 135.29 106.87 109.83 144.86 135.29"/><polygon class="monet-195" points="144.86 135.85 106.87 161.31 68.87 135.85 106.87 110.4 144.86 135.85"/><polygon class="monet-196" points="144.86 136.41 106.87 161.87 68.87 136.41 106.87 110.96 144.86 136.41"/><polygon class="monet-197" points="144.86 136.98 106.87 162.43 68.87 136.98 106.87 111.52 144.86 136.98"/><polygon class="monet-198" points="144.86 137.54 106.87 163 68.87 137.54 106.87 112.09 144.86 137.54"/><polygon class="monet-199" points="144.86 138.1 106.87 163.56 68.87 138.1 106.87 112.65 144.86 138.1"/><polygon class="monet-200" points="144.86 138.67 106.87 164.12 68.87 138.67 106.87 113.21 144.86 138.67"/><polygon class="monet-201" points="144.86 139.23 106.87 164.69 68.87 139.23 106.87 113.78 144.86 139.23"/><polygon class="monet-202" points="144.86 139.79 106.87 165.25 68.87 139.79 106.87 114.34 144.86 139.79"/><polygon class="monet-203" points="144.86 140.36 106.87 165.81 68.87 140.36 106.87 114.9 144.86 140.36"/><polygon class="monet-204" points="144.86 140.92 106.87 166.38 68.87 140.92 106.87 115.47 144.86 140.92"/><polygon class="monet-205" points="144.86 141.49 106.87 166.94 68.87 141.49 106.87 116.03 144.86 141.49"/><polygon class="monet-206" points="144.86 142.05 106.87 167.5 68.87 142.05 106.87 116.59 144.86 142.05"/><polygon class="monet-207" points="144.86 142.61 106.87 168.07 68.87 142.61 106.87 117.16 144.86 142.61"/><polygon class="monet-136" points="144.86 102.61 106.87 128.07 68.87 102.61 106.87 77.16 144.86 102.61"/><polygon class="monet-208" points="144.86 102.61 106.87 128.07 68.87 102.61 106.87 77.16 144.86 102.61"/></g></g></svg>