<svg xmlns="http://www.w3.org/2000/svg" xmlns:xlink="http://www.w3.org/1999/xlink" viewBox="0 0 151.38 132.43">
  <defs>
    <style>
      .monetizable-1 {
        fill: none;
        stroke: #6a6c72;
        stroke-linecap: square;
        stroke-linejoin: bevel;
        stroke-width: 0.82px;
      }

      .monetizable-2 {
        fill: url(#radial-gradient);
      }

      .monetizable-3 {
        fill: url(#radial-gradient-2);
      }

      .monetizable-4 {
        fill: url(#radial-gradient-3);
      }

      .monetizable-5 {
        fill: url(#radial-gradient-4);
      }

      .monetizable-6 {
        fill: url(#radial-gradient-5);
      }

      .monetizable-7 {
        fill: url(#radial-gradient-6);
      }

      .monetizable-8 {
        fill: url(#radial-gradient-7);
      }

      .monetizable-9 {
        fill: url(#radial-gradient-8);
      }

      .monetizable-10 {
        fill: url(#radial-gradient-9);
      }

      .monetizable-11 {
        fill: url(#radial-gradient-10);
      }

      .monetizable-12 {
        fill: url(#radial-gradient-11);
      }

      .monetizable-13 {
        fill: url(#radial-gradient-12);
      }

      .monetizable-14 {
        fill: url(#radial-gradient-13);
      }

      .monetizable-15 {
        fill: url(#radial-gradient-14);
      }

      .monetizable-16 {
        fill: url(#radial-gradient-15);
      }

      .monetizable-17 {
        fill: url(#radial-gradient-16);
      }

      .monetizable-18 {
        fill: url(#radial-gradient-17);
      }

      .monetizable-19 {
        fill: url(#radial-gradient-18);
      }

      .monetizable-20 {
        fill: url(#radial-gradient-19);
      }

      .monetizable-21 {
        fill: url(#radial-gradient-20);
      }

      .monetizable-22 {
        fill: url(#radial-gradient-21);
      }

      .monetizable-23 {
        fill: url(#radial-gradient-22);
      }

      .monetizable-24 {
        fill: url(#radial-gradient-23);
      }

      .monetizable-25 {
        fill: url(#radial-gradient-24);
      }

      .monetizable-26 {
        fill: url(#radial-gradient-25);
      }

      .monetizable-27 {
        fill: url(#radial-gradient-26);
      }

      .monetizable-28 {
        fill: url(#radial-gradient-27);
      }

      .monetizable-29 {
        fill: url(#radial-gradient-28);
      }

      .monetizable-30 {
        fill: url(#radial-gradient-29);
      }

      .monetizable-31 {
        fill: url(#radial-gradient-30);
      }

      .monetizable-32 {
        fill: url(#radial-gradient-31);
      }

      .monetizable-33 {
        fill: url(#radial-gradient-32);
      }

      .monetizable-34 {
        fill: url(#radial-gradient-33);
      }

      .monetizable-35 {
        fill: url(#radial-gradient-34);
      }

      .monetizable-36 {
        fill: url(#radial-gradient-35);
      }

      .monetizable-37 {
        fill: url(#radial-gradient-36);
      }

      .monetizable-38 {
        fill: url(#radial-gradient-37);
      }

      .monetizable-39 {
        fill: url(#radial-gradient-38);
      }

      .monetizable-40 {
        fill: url(#radial-gradient-39);
      }

      .monetizable-41 {
        fill: url(#radial-gradient-40);
      }

      .monetizable-42 {
        fill: url(#radial-gradient-41);
      }

      .monetizable-43 {
        fill: url(#radial-gradient-42);
      }

      .monetizable-44 {
        fill: url(#radial-gradient-43);
      }

      .monetizable-45 {
        fill: url(#radial-gradient-44);
      }

      .monetizable-46 {
        fill: url(#radial-gradient-45);
      }

      .monetizable-47 {
        fill: url(#radial-gradient-46);
      }

      .monetizable-48 {
        fill: url(#radial-gradient-47);
      }

      .monetizable-49 {
        fill: url(#radial-gradient-48);
      }

      .monetizable-50 {
        fill: url(#radial-gradient-49);
      }

      .monetizable-51 {
        fill: url(#radial-gradient-50);
      }

      .monetizable-52 {
        fill: url(#radial-gradient-51);
      }

      .monetizable-53 {
        fill: url(#radial-gradient-52);
      }

      .monetizable-54 {
        fill: url(#radial-gradient-53);
      }

      .monetizable-55 {
        fill: url(#radial-gradient-54);
      }

      .monetizable-56 {
        fill: url(#radial-gradient-55);
      }

      .monetizable-57 {
        fill: url(#radial-gradient-56);
      }

      .monetizable-58 {
        fill: url(#radial-gradient-57);
      }

      .monetizable-59 {
        fill: #683bff;
      }

      .monetizable-60 {
        fill: #b5a0ff;
      }
    </style>
    <radialGradient id="radial-gradient" cx="33.01" cy="29.24" r="30.87" gradientUnits="userSpaceOnUse">
      <stop offset="0.23" stop-color="#a2f6ff" />
      <stop offset="1" stop-color="#a2f6ff" />
    </radialGradient>
    <radialGradient id="radial-gradient-2" cx="63.7" cy="61.85" r="3.32" xlink:href="#radial-gradient" />
    <radialGradient id="radial-gradient-3" cx="63.66" cy="45.64" r="3.39" xlink:href="#radial-gradient" />
    <radialGradient id="radial-gradient-4" cx="63.66" cy="29.3" r="3.38" xlink:href="#radial-gradient" />
    <radialGradient id="radial-gradient-5" cx="63.66" cy="13.07" r="3.45" xlink:href="#radial-gradient" />
    <radialGradient id="radial-gradient-6" cx="54.23" cy="61.86" r="3.31" xlink:href="#radial-gradient" />
    <radialGradient id="radial-gradient-7" cx="44.79" cy="61.86" r="3.3" xlink:href="#radial-gradient" />
    <radialGradient id="radial-gradient-8" cx="7.08" cy="61.86" r="3.3" xlink:href="#radial-gradient" />
    <radialGradient id="radial-gradient-9" cx="16.51" cy="61.85" r="3.31" xlink:href="#radial-gradient" />
    <radialGradient id="radial-gradient-10" cx="35.36" cy="61.86" r="3.3" xlink:href="#radial-gradient" />
    <radialGradient id="radial-gradient-11" cx="25.94" cy="61.86" r="3.3" xlink:href="#radial-gradient" />
    <radialGradient id="radial-gradient-12" cx="11.79" cy="21.04" r="3.32" xlink:href="#radial-gradient" />
    <radialGradient id="radial-gradient-13" cx="54.23" cy="45.55" r="3.32" xlink:href="#radial-gradient" />
    <radialGradient id="radial-gradient-14" cx="11.79" cy="37.38" r="3.31" xlink:href="#radial-gradient" />
    <radialGradient id="radial-gradient-15" cx="54.23" cy="29.21" r="3.32" xlink:href="#radial-gradient" />
    <radialGradient id="radial-gradient-16" cx="40.08" cy="21.03" r="3.32" xlink:href="#radial-gradient" />
    <radialGradient id="radial-gradient-17" cx="11.79" cy="4.72" r="3.31" xlink:href="#radial-gradient" />
    <radialGradient id="radial-gradient-18" cx="21.23" cy="53.73" r="3.33" xlink:href="#radial-gradient" />
    <radialGradient id="radial-gradient-19" cx="21.23" cy="4.72" r="3.31" xlink:href="#radial-gradient" />
    <radialGradient id="radial-gradient-20" cx="44.79" cy="12.86" r="3.32" xlink:href="#radial-gradient" />
    <radialGradient id="radial-gradient-21" cx="21.23" cy="21.04" r="3.32" xlink:href="#radial-gradient" />
    <radialGradient id="radial-gradient-22" cx="11.79" cy="53.71" r="3.31" xlink:href="#radial-gradient" />
    <radialGradient id="radial-gradient-23" cx="54.23" cy="12.88" r="3.32" xlink:href="#radial-gradient" />
    <radialGradient id="radial-gradient-24" cx="40.08" cy="53.72" r="3.32" xlink:href="#radial-gradient" />
    <radialGradient id="radial-gradient-25" cx="7.07" cy="45.54" r="3.32" xlink:href="#radial-gradient" />
    <radialGradient id="radial-gradient-26" cx="21.23" cy="37.38" r="3.32" xlink:href="#radial-gradient" />
    <radialGradient id="radial-gradient-27" cx="40.08" cy="37.39" r="3.3" xlink:href="#radial-gradient" />
    <radialGradient id="radial-gradient-28" cx="44.79" cy="29.21" r="3.32" xlink:href="#radial-gradient" />
    <radialGradient id="radial-gradient-29" cx="7.08" cy="12.87" r="3.32" xlink:href="#radial-gradient" />
    <radialGradient id="radial-gradient-30" cx="44.79" cy="45.54" r="3.32" xlink:href="#radial-gradient" />
    <radialGradient id="radial-gradient-31" cx="40.08" cy="4.71" r="3.31" xlink:href="#radial-gradient" />
    <radialGradient id="radial-gradient-32" cx="7.07" cy="29.21" r="3.32" xlink:href="#radial-gradient" />
    <radialGradient id="radial-gradient-33" cx="16.51" cy="12.87" r="3.32" xlink:href="#radial-gradient" />
    <radialGradient id="radial-gradient-34" cx="16.51" cy="29.22" r="3.32" xlink:href="#radial-gradient" />
    <radialGradient id="radial-gradient-35" cx="35.36" cy="29.2" r="3.32" xlink:href="#radial-gradient" />
    <radialGradient id="radial-gradient-36" cx="49.51" cy="37.37" r="3.32" xlink:href="#radial-gradient" />
    <radialGradient id="radial-gradient-37" cx="2.36" cy="53.71" r="3.32" xlink:href="#radial-gradient" />
    <radialGradient id="radial-gradient-38" cx="30.65" cy="53.71" r="3.32" xlink:href="#radial-gradient" />
    <radialGradient id="radial-gradient-39" cx="49.51" cy="53.71" r="3.32" xlink:href="#radial-gradient" />
    <radialGradient id="radial-gradient-40" cx="58.95" cy="53.72" r="3.32" xlink:href="#radial-gradient" />
    <radialGradient id="radial-gradient-41" cx="35.36" cy="45.54" r="3.32" xlink:href="#radial-gradient" />
    <radialGradient id="radial-gradient-42" cx="30.65" cy="21.04" r="3.32" xlink:href="#radial-gradient" />
    <radialGradient id="radial-gradient-43" cx="35.36" cy="12.88" r="3.32" xlink:href="#radial-gradient" />
    <radialGradient id="radial-gradient-44" cx="2.36" cy="4.72" r="3.31" xlink:href="#radial-gradient" />
    <radialGradient id="radial-gradient-45" cx="49.52" cy="21.04" r="3.32" xlink:href="#radial-gradient" />
    <radialGradient id="radial-gradient-46" cx="2.36" cy="21.03" r="3.32" xlink:href="#radial-gradient" />
    <radialGradient id="radial-gradient-47" cx="2.36" cy="37.37" r="3.32" xlink:href="#radial-gradient" />
    <radialGradient id="radial-gradient-48" cx="25.94" cy="12.87" r="3.32" xlink:href="#radial-gradient" />
    <radialGradient id="radial-gradient-49" cx="16.51" cy="45.54" r="3.32" xlink:href="#radial-gradient" />
    <radialGradient id="radial-gradient-50" cx="30.65" cy="4.72" r="3.31" xlink:href="#radial-gradient" />
    <radialGradient id="radial-gradient-51" cx="49.51" cy="4.72" r="3.31" xlink:href="#radial-gradient" />
    <radialGradient id="radial-gradient-52" cx="58.94" cy="4.71" r="3.31" xlink:href="#radial-gradient" />
    <radialGradient id="radial-gradient-53" cx="25.94" cy="45.55" r="3.32" xlink:href="#radial-gradient" />
    <radialGradient id="radial-gradient-54" cx="58.95" cy="37.38" r="3.31" xlink:href="#radial-gradient" />
    <radialGradient id="radial-gradient-55" cx="30.65" cy="37.37" r="3.32" xlink:href="#radial-gradient" />
    <radialGradient id="radial-gradient-56" cx="58.94" cy="21.04" r="3.32" xlink:href="#radial-gradient" />
    <radialGradient id="radial-gradient-57" cx="25.94" cy="29.22" r="3.32" xlink:href="#radial-gradient" />
  </defs>
  <g id="Layer_2" data-name="Layer 2">
    <g id="Layer_1-2" data-name="Layer 1">
      <path class="monetizable-1"
        d="M87,15.41h-.1q0-7,0-13.93c0-.43-.07-.62-.43-.63-1.35,0-2.7,0-4.06-.11-.44,0-.56.21-.55.75,0,1.13,0,2.27,0,3.41,0,4.77,0,9.55,0,14.33,0,2.64.08,5.28.1,7.92,0,3.93,0,7.86.07,11.79a1.76,1.76,0,0,0,.3.9c1.35,1.94,2.74,3.86,4.09,5.8a3.13,3.13,0,0,1,.7,1.35,35.82,35.82,0,0,1,.22,4.15c0,3.48,0,7,0,10.46,0,2.33,0,4.66,0,7,0,3.66-.1,7.32-.15,11,0,1.71,0,3.42,0,5.14a1.92,1.92,0,0,0,.24.93c1.36,2.17,2.77,4.29,4.13,6.46A2.78,2.78,0,0,1,92,93.41c0,3.18-.1,6.36-.13,9.53q-.09,7.26-.13,14.5c0,3.13,0,6.25,0,9.37,0,1.13,0,2.27,0,3.41,0,.42.14.62.48.61l4-.07c.21,0,.44,0,.45-.37,0-.6,0-1.19,0-1.79,0-1.54,0-3.08,0-4.62.05-4.06.11-8.13.15-12.19,0-3.51.06-7,.1-10.52,0-2.75.06-5.51.11-8.26a2,2,0,0,0-.39-1.23c-1.37-2-2.75-4.06-4.09-6.12a2,2,0,0,1-.29-1q0-3.52,0-7c0-5.62.08-11.25.09-16.88,0-4.22-.07-8.44,0-12.66a4.1,4.1,0,0,0-.87-2.63c-1.42-2-2.82-4-4.21-6a1.28,1.28,0,0,1-.2-.67c0-2.45-.08-4.89-.09-7.34,0-1.92,0-3.85,0-5.77Zm-5.26,96.26h0c0,1.56,0,3.12,0,4.68q-.06,6.91-.14,13.82c0,.65.1.77.6.76l3.65-.06c.63,0,.68-.07.69-.89q.12-10,.24-20.11c0-3.37,0-6.75.07-10.12,0-2.29.13-4.58.18-6.87a1.64,1.64,0,0,0-.26-.86c-1.39-2-2.8-4-4.21-6a2.27,2.27,0,0,1-.41-1.42c0-4,.06-7.93.07-11.9s0-7.66,0-11.5c0-4.41-.13-8.81-.15-13.22a3.14,3.14,0,0,0-.83-2.64,1.18,1.18,0,0,1-.14-.22c-.9-1.19-1.77-2.41-2.69-3.56a3.78,3.78,0,0,1-1-2.47c0-1.79,0-3.58-.07-5.37-.06-4.16-.1-8.32-.18-12.48,0-2.77-.13-5.54-.19-8.31s-.14-5.51-.19-8.26c0-1.08,0-2.16,0-3.23,0-.84.08-.84-.59-.89l-.57,0C74.5.5,73.31.47,72.12.41c-.26,0-.29.13-.29.41,0,1,.07,2,.08,3q.11,9.42.2,18.84c0,5.34.09,10.68.16,16a2.46,2.46,0,0,0,.31,1.2c1.27,2,2.58,4,3.88,5.91a2.85,2.85,0,0,1,.7,1.77c0,4,.08,8.05.13,12.08,0,1.36.09,2.73.08,4.1,0,1.77-.11,3.53-.12,5.3q0,7.86,0,15.73a1.79,1.79,0,0,0,.15.86C78.56,87.4,79.78,89.2,81,91a4.51,4.51,0,0,1,1,2.88c-.07,2.29,0,4.58-.07,6.88Q81.87,106.21,81.77,111.67ZM114.5,1.32v0c-.73,0-1.47,0-2.2,0-.31,0-.43.15-.42.55,0,.57,0,1.15,0,1.73v9.88q0,5.79,0,11.56c0,2.8,0,5.59,0,8.39,0,2,0,4,0,6.05a2,2,0,0,0,.37,1.34c1.41,1.8,2.82,3.59,4.21,5.41a2,2,0,0,1,.43.95c.08,1.25.11,2.5.11,3.75,0,2.31-.07,4.63-.07,6.94q0,13.66,0,27.34a1.94,1.94,0,0,0,.3,1c1.29,1.78,2.61,3.54,3.94,5.28a2.57,2.57,0,0,1,.56,1.74c0,1.13,0,2.27,0,3.4,0,3.12,0,6.24,0,9.36q0,6.06,0,12.13c0,3.18,0,6.36,0,9.53,0,.79,0,1.59-.06,2.37,0,.53,0,.7.44.69h4.1c.49,0,.58-.16.58-.8,0-1.65,0-3.3,0-5,0-3.83,0-7.67-.06-11.5,0-2.52-.09-5-.09-7.56,0-2.31.09-4.63.13-6.94,0-2,.06-4,0-6.06a2,2,0,0,0-.37-1,40.46,40.46,0,0,1-4-5.62,3.43,3.43,0,0,1-.36-1.38c-.06-.76,0-1.53,0-2.3,0-4.78,0-9.56,0-14.34,0-3.27.07-6.54.08-9.81,0-3.57,0-7.13-.07-10.7a2.36,2.36,0,0,0-.45-1.24c-1.3-1.81-2.63-3.58-4-5.35a3.48,3.48,0,0,1-.67-2.29c0-1.93,0-3.86.06-5.78,0-2.87,0-5.74,0-8.61s0-6,0-9c0-3.95,0-7.9,0-11.85a16.65,16.65,0,0,1,0-1.73c0-.4-.06-.52-.35-.51C116,1.33,115.23,1.32,114.5,1.32Zm-7.53,19h0c0-6.15,0-12.29,0-18.44,0-.52-.13-.67-.51-.66-1.34,0-2.67,0-4-.05-.59,0-.59,0-.59.76l.06,10.93q0,6.84.08,13.7c0,1.87,0,3.73,0,5.6q0,3.52,0,7a2.37,2.37,0,0,0,.5,1.54c.56.73,1.09,1.5,1.63,2.26.8,1.13,1.6,2.25,2.39,3.4a2.58,2.58,0,0,1,.57,1.57c0,2.91,0,5.82,0,8.73q0,11-.12,21.91c0,2.06-.05,4.12-.05,6.18a2.13,2.13,0,0,0,.17,1c.35.61.78,1.15,1.17,1.72q1.47,2.11,2.92,4.25a2.63,2.63,0,0,1,.5,1.55c0,2.82,0,5.63,0,8.44q0,5.79-.07,11.56,0,3.33-.06,6.64c0,1.35-.06,2.7-.06,4,0,2,0,4.08,0,6.12,0,.37.06.54.35.54,1.46,0,2.91,0,4.37,0,.34,0,.46-.2.46-.64,0-1.89,0-3.78,0-5.66,0-4.84,0-9.68,0-14.51,0-3.39,0-6.79,0-10.18,0-2.23.09-4.46.1-6.7a2.15,2.15,0,0,0-.22-1,12.53,12.53,0,0,0-1-1.46c-1.05-1.4-2.11-2.78-3.15-4.19a2.78,2.78,0,0,1-.53-1.77c0-2.22,0-4.43,0-6.65,0-3.12,0-6.24,0-9.36,0-2.83.11-5.66.11-8.5,0-4.14,0-8.28-.09-12.42a1.68,1.68,0,0,0-.24-.82c-1.41-2-2.85-3.93-4.27-5.9a1.94,1.94,0,0,1-.38-.94c-.09-1.38-.14-2.77-.15-4.16C107,30.63,107,25.48,107,20.34Zm34.54,44.54h0c0-.57,0-1.15,0-1.73.06-3.46.13-6.93.18-10.39,0-1.54,0-3.07,0-4.61a2.36,2.36,0,0,0-.2-1.09A24.73,24.73,0,0,0,140,44.77c-1-1.3-2-2.54-2.91-3.85a2.24,2.24,0,0,1-.39-1.17c0-1.92,0-3.85,0-5.77q0-6.1.06-12.2c0-3.64,0-7.28,0-10.92,0-3,0-6,0-9,0-.33,0-.54-.36-.54-1.45,0-2.91,0-4.36,0-.29,0-.34.17-.32.51.05.76.09,1.53.09,2.3,0,2.62,0,5.24,0,7.85,0,5.13-.05,10.25-.06,15.38q0,6.24,0,12.48a2.12,2.12,0,0,0,.38,1c.34.56.72,1.07,1.09,1.6,1,1.39,1.93,2.79,2.92,4.17a2.33,2.33,0,0,1,.39,1.36c0,2,.06,3.93,0,5.89,0,4-.1,8-.14,12,0,1,0,2,0,3.06,0,2.38.06,4.77,0,7.15,0,3.39-.11,6.78-.16,10.17a1.26,1.26,0,0,0,.12.6c.54.84,1.08,1.68,1.66,2.45.84,1.11,1.71,2.17,2.58,3.23a2.43,2.43,0,0,1,.58,1.67c0,1.93,0,3.85,0,5.78,0,2.16-.09,4.31-.11,6.47,0,3.1,0,6.2-.07,9.31s-.08,6.39-.11,9.58c0,1.66,0,3.31,0,5,0,.48.09.61.43.61,1.27,0,2.53,0,3.8,0,.85,0,.85,0,.85-1.13v-.11c0-2.49.09-5,.1-7.46,0-3.37,0-6.74,0-10.11,0-6.06,0-12.13,0-18.2a2.5,2.5,0,0,0-.3-1.16c-.37-.66-.82-1.24-1.23-1.85-.89-1.31-1.79-2.6-2.66-3.93a2.6,2.6,0,0,1-.51-1.54q0-5.93.06-11.85C141.52,70.62,141.51,67.75,141.51,64.88ZM92,12.58h.1c0,3.51,0,7,0,10.53,0,2.75,0,5.5,0,8.25s0,5.44.06,8.15a1.35,1.35,0,0,0,.13.65c.29.48.62.92.94,1.37,1.2,1.69,2.41,3.37,3.6,5.07a1.5,1.5,0,0,1,.21.77q.06,8,.08,16c0,2.39-.06,4.78-.06,7.17,0,4.83,0,9.67,0,14.51a1.77,1.77,0,0,0,.34,1.13c1.1,1.49,2.17,3,3.31,4.48A5.26,5.26,0,0,1,102,94.47c-.17,2.45-.17,4.93-.2,7.39,0,3,0,5.93-.06,8.89,0,2.16-.08,4.31-.1,6.47s0,4.08,0,6.12c0,2.27,0,4.55,0,6.82,0,.31,0,.55.32.55l4.32,0c.23,0,.3-.15.29-.44,0-.71,0-1.42,0-2.14,0-3.5,0-7,.09-10.52.05-4.54.12-9.09.18-13.64,0-3.41,0-6.82.14-10.23a3.76,3.76,0,0,0-.65-2.4c-1.25-1.78-2.49-3.58-3.73-5.38a2.49,2.49,0,0,1-.43-1.52c0-2.33,0-4.67,0-7q0-10.2.05-20.4c0-2.64,0-5.28.07-7.92A5.38,5.38,0,0,0,101,45.28c-1-1.16-1.88-2.43-2.85-3.61A5.24,5.24,0,0,1,97,38.13c0-4,0-7.9,0-11.85C97,22.1,97,17.92,97,13.74q0-6-.07-12.08c0-.44-.1-.57-.42-.58q-2,0-4-.09c-.41,0-.53.21-.53.72C92,5.34,92,9,92,12.58ZM122,1.36c0,.46,0,.87,0,1.27l0,9.94c0,4.14,0,8.28,0,12.42,0,5,0,10,0,15a2,2,0,0,0,.18.85,7.56,7.56,0,0,0,.68,1c1.07,1.44,2.12,2.88,3.2,4.3a3.78,3.78,0,0,1,.89,2.89c-.1,1-.1,2-.11,3.05,0,3.47-.05,6.93-.05,10.4,0,5.63,0,11.25,0,16.88,0,2,0,4.08,0,6.12a1.67,1.67,0,0,0,.23.88c1.21,1.63,2.42,3.25,3.67,4.82a3.7,3.7,0,0,1,.82,2.43c0,2.54,0,5.08,0,7.62q0,5.06-.11,10.11-.07,6.14-.14,12.25c0,2.2,0,4.39-.07,6.59,0,.41.1.54.4.54,1.28,0,2.56,0,3.84,0,.51,0,.61-.13.62-.82,0-1.06,0-2.12,0-3.18q0-6.14,0-12.26c0-2.91,0-5.82,0-8.72,0-1.78-.06-3.56.08-5.32.2-2.52.17-5,.16-7.56a1.28,1.28,0,0,0-.15-.63c-1.41-2.17-2.83-4.32-4.24-6.48a1.66,1.66,0,0,1-.27-.74q0-4.65,0-9.31c0-4.87,0-9.74,0-14.61,0-4.39.07-8.78.1-13.17a1.73,1.73,0,0,0-.25-.86q-2-3-4.06-5.86a2.56,2.56,0,0,1-.59-1.95,10.7,10.7,0,0,0,0-1.27c0-2,0-4,0-5.95,0-2.45.06-4.89.06-7.34,0-4.88,0-9.75,0-14.63,0-2.66,0-5.31,0-8,0-.74-.06-.8-.61-.8-1.33,0-2.67,0-4,0A2.47,2.47,0,0,0,122,1.36Zm28.39,91.58c0-.33.06-.49.06-.65,0-1.47,0-2.93,0-4.4.08-8.4.14-16.8.24-25.2.06-4.83.17-9.67.25-14.5a1.94,1.94,0,0,0-.1-.89,22.18,22.18,0,0,0-1.61-3c-.72-.9-1.28-2-1.94-3a2.56,2.56,0,0,1-.45-1.56c.07-4.18.15-8.36.19-12.54,0-3.73,0-7.47.06-11.21q0-6.18.07-12.36c0-.6,0-1.2.06-1.79,0-.35-.1-.56-.39-.56h-4.54c-.22,0-.29.12-.29.42,0,2.1,0,4.2-.05,6.3,0,3.87,0,7.75,0,11.62,0,4.56-.08,9.13-.11,13.69,0,.79.07,1.58.07,2.37,0,1.56,0,3.12,0,4.68a1,1,0,0,0,.14.51c1.31,1.87,2.62,3.74,4,5.58a3.4,3.4,0,0,1,.67,2.17q-.09,6.06-.14,12.12c-.05,4.63-.08,9.25-.12,13.87,0,3.33,0,6.67-.08,10a4.78,4.78,0,0,0,.79,2.94c.72,1,1.34,2.18,2,3.28ZM72.42,85.23c0,.46,0,.78,0,1.09q-.06,7.44-.11,14.86-.12,12.7-.25,25.42c0,1.29,0,2.59,0,3.88,0,.18.17.51.27.51,1.38,0,2.76,0,4.14,0,.1,0,.28-.27.29-.43,0-.67,0-1.34,0-2,0-4.64,0-9.28.07-13.92,0-2.81.07-5.62.07-8.43,0-2.27-.09-4.54-.08-6.81s.09-4.31.15-6.47a2.38,2.38,0,0,0-.42-1.61c-1.07-1.48-2.09-3-3.13-4.53C73.12,86.29,72.81,85.82,72.42,85.23Z" />
      <path class="monetizable-1"
        d="M87,15.41V25.59c0,1.92,0,3.85,0,5.77,0,2.45.05,4.89.09,7.34a1.28,1.28,0,0,0,.2.67c1.39,2,2.79,4,4.21,6A4.1,4.1,0,0,1,92.36,48c0,4.22,0,8.44,0,12.66,0,5.63-.06,11.26-.09,16.88q0,3.53,0,7a2,2,0,0,0,.29,1c1.34,2.06,2.72,4.09,4.09,6.12A2,2,0,0,1,97.1,93c0,2.75-.08,5.51-.11,8.26,0,3.51-.06,7-.1,10.52,0,4.06-.1,8.13-.15,12.19,0,1.54,0,3.08,0,4.62,0,.6,0,1.19,0,1.79,0,.41-.24.37-.45.37l-4,.07c-.34,0-.47-.19-.48-.61,0-1.14,0-2.28,0-3.41,0-3.12,0-6.24,0-9.37q0-7.25.13-14.5c0-3.17.11-6.35.13-9.53a2.78,2.78,0,0,0-.38-1.31c-1.36-2.17-2.77-4.29-4.13-6.46a1.92,1.92,0,0,1-.24-.93c0-1.72,0-3.43,0-5.14,0-3.66.12-7.32.15-11,0-2.33,0-4.66,0-7,0-3.49,0-7,0-10.46A35.82,35.82,0,0,0,87.21,47a3.13,3.13,0,0,0-.7-1.35c-1.35-1.94-2.74-3.86-4.09-5.8a1.76,1.76,0,0,1-.3-.9c0-3.93,0-7.86-.07-11.79,0-2.64-.09-5.28-.1-7.92,0-4.78,0-9.56,0-14.33,0-1.14,0-2.28,0-3.41,0-.54.11-.77.55-.75,1.36.07,2.71.1,4.06.11.36,0,.43.2.43.63q0,7,0,13.93Z" />
      <path class="monetizable-1"
        d="M81.77,111.67q.09-5.46.17-10.92c0-2.3,0-4.59.07-6.88A4.51,4.51,0,0,0,81,91c-1.22-1.79-2.44-3.59-3.64-5.41a1.79,1.79,0,0,1-.15-.86q0-7.87,0-15.73c0-1.77.11-3.53.12-5.3,0-1.37-.06-2.74-.08-4.1-.05-4-.12-8.06-.13-12.08a2.85,2.85,0,0,0-.7-1.77c-1.3-2-2.61-3.91-3.88-5.91a2.46,2.46,0,0,1-.31-1.2c-.07-5.34-.11-10.68-.16-16q-.09-9.42-.2-18.84c0-1,0-2-.08-2.95,0-.28,0-.42.29-.41,1.19.06,2.38.09,3.57.13l.57,0c.67.05.63.05.59.89,0,1.07,0,2.15,0,3.23,0,2.75.12,5.51.19,8.26s.15,5.54.19,8.31c.08,4.16.12,8.32.18,12.48,0,1.79.07,3.58.07,5.37a3.78,3.78,0,0,0,1,2.47c.92,1.15,1.79,2.37,2.69,3.56a1.18,1.18,0,0,0,.14.22A3.14,3.14,0,0,1,82.1,48c0,4.41.12,8.81.15,13.22,0,3.84,0,7.67,0,11.5s0,7.94-.07,11.9A2.27,2.27,0,0,0,82.61,86c1.41,2,2.82,4,4.21,6a1.64,1.64,0,0,1,.26.86c0,2.29-.15,4.58-.18,6.87,0,3.37,0,6.75-.07,10.12q-.1,10-.24,20.11c0,.82-.06.88-.69.89l-3.65.06c-.5,0-.6-.11-.6-.76q.07-6.91.14-13.82c0-1.56,0-3.12,0-4.68Z" />
      <path class="monetizable-1"
        d="M114.5,1.32c.73,0,1.47,0,2.2,0,.29,0,.39.11.35.51a16.65,16.65,0,0,0,0,1.73c0,4,0,7.9,0,11.85,0,3,0,6,0,9s0,5.74,0,8.61c0,1.92,0,3.85-.06,5.78a3.48,3.48,0,0,0,.67,2.29c1.32,1.77,2.65,3.54,4,5.35A2.36,2.36,0,0,1,122,47.7c0,3.57.07,7.13.07,10.7,0,3.27-.07,6.54-.08,9.81,0,4.78,0,9.56,0,14.34,0,.77-.06,1.54,0,2.3a3.43,3.43,0,0,0,.36,1.38,40.46,40.46,0,0,0,4,5.62,2,2,0,0,1,.37,1c0,2,0,4,0,6.06,0,2.31-.12,4.63-.13,6.94,0,2.52.07,5,.09,7.56,0,3.83,0,7.67.06,11.5,0,1.66,0,3.31,0,5,0,.64-.09.79-.58.8H122c-.4,0-.49-.16-.44-.69.08-.78,0-1.58.06-2.37,0-3.17,0-6.35,0-9.53q0-6.08,0-12.13c0-3.12,0-6.24,0-9.36,0-1.13,0-2.27,0-3.4a2.57,2.57,0,0,0-.56-1.74c-1.33-1.74-2.65-3.5-3.94-5.28a1.94,1.94,0,0,1-.3-1q0-13.67,0-27.34c0-2.31.06-4.63.07-6.94,0-1.25,0-2.5-.11-3.75a2,2,0,0,0-.43-.95c-1.39-1.82-2.8-3.61-4.21-5.41a2,2,0,0,1-.37-1.34c0-2,0-4,0-6.05,0-2.8,0-5.59,0-8.39q0-5.78,0-11.56V3.57c0-.58,0-1.16,0-1.73,0-.4.11-.55.42-.55.73,0,1.47,0,2.2,0Z" />
      <path class="monetizable-1"
        d="M107,20.34c0,5.14,0,10.29,0,15.43,0,1.39.06,2.78.15,4.16a1.94,1.94,0,0,0,.38.94c1.42,2,2.86,3.92,4.27,5.9a1.68,1.68,0,0,1,.24.82c0,4.14.09,8.28.09,12.42,0,2.84-.09,5.67-.11,8.5,0,3.12,0,6.24,0,9.36,0,2.22,0,4.43,0,6.65a2.78,2.78,0,0,0,.53,1.77c1,1.41,2.1,2.79,3.15,4.19a12.53,12.53,0,0,1,1,1.46,2.15,2.15,0,0,1,.22,1c0,2.24-.08,4.47-.1,6.7,0,3.39,0,6.79,0,10.18,0,4.83,0,9.67,0,14.51,0,1.88,0,3.77,0,5.66,0,.44-.12.64-.46.64-1.46,0-2.91,0-4.37,0-.29,0-.35-.17-.35-.54,0-2,0-4.08,0-6.12,0-1.34,0-2.69.06-4q0-3.32.06-6.64,0-5.78.07-11.56c0-2.81,0-5.62,0-8.44a2.63,2.63,0,0,0-.5-1.55q-1.45-2.13-2.92-4.25c-.39-.57-.82-1.11-1.17-1.72a2.13,2.13,0,0,1-.17-1c0-2.06,0-4.12.05-6.18q.06-11,.12-21.91c0-2.91,0-5.82,0-8.73a2.58,2.58,0,0,0-.57-1.57c-.79-1.15-1.59-2.27-2.39-3.4-.54-.76-1.07-1.53-1.63-2.26a2.37,2.37,0,0,1-.5-1.54q0-3.52,0-7c0-1.87,0-3.73,0-5.6q0-6.85-.08-13.7L101.83,2c0-.76,0-.77.59-.76,1.34,0,2.67.05,4,.05.38,0,.51.14.51.66,0,6.15,0,12.29,0,18.44Z" />
      <path class="monetizable-1"
        d="M141.51,64.88c0,2.87,0,5.74,0,8.61q0,5.92-.06,11.85a2.6,2.6,0,0,0,.51,1.54c.87,1.33,1.77,2.62,2.66,3.93.41.61.86,1.19,1.23,1.85a2.5,2.5,0,0,1,.3,1.16c0,6.07,0,12.14,0,18.2,0,3.37,0,6.74,0,10.11,0,2.49-.06,5-.1,7.46v.11c0,1.13,0,1.13-.85,1.13-1.27,0-2.53,0-3.8,0-.34,0-.44-.13-.43-.61,0-1.66,0-3.31,0-5,0-3.19.08-6.39.11-9.58s0-6.21.07-9.31c0-2.16.08-4.31.11-6.47,0-1.93,0-3.85,0-5.78a2.43,2.43,0,0,0-.58-1.67c-.87-1.06-1.74-2.12-2.58-3.23-.58-.77-1.12-1.61-1.66-2.45a1.26,1.26,0,0,1-.12-.6c.05-3.39.13-6.78.16-10.17,0-2.38,0-4.77,0-7.15,0-1,0-2,0-3.06,0-4,.11-8,.14-12,0-2,0-3.93,0-5.89a2.33,2.33,0,0,0-.39-1.36c-1-1.38-2-2.78-2.92-4.17-.37-.53-.75-1-1.09-1.6a2.12,2.12,0,0,1-.38-1q0-6.24,0-12.48c0-5.13,0-10.25.06-15.38,0-2.61,0-5.23,0-7.85,0-.77,0-1.54-.09-2.3,0-.34,0-.51.32-.51,1.45,0,2.91,0,4.36,0,.32,0,.36.21.36.54,0,3,0,6,0,9,0,3.64,0,7.28,0,10.92q0,6.11-.06,12.2c0,1.92-.06,3.85,0,5.77a2.24,2.24,0,0,0,.39,1.17c.95,1.31,1.95,2.55,2.91,3.85a24.73,24.73,0,0,1,1.54,2.29,2.36,2.36,0,0,1,.2,1.09c0,1.54,0,3.07,0,4.61-.05,3.46-.12,6.93-.18,10.39,0,.58,0,1.16,0,1.73Z" />
      <path class="monetizable-1"
        d="M92,12.58C92,9,92,5.34,92,1.71c0-.51.12-.74.53-.72q2,.06,4,.09c.32,0,.42.14.42.58q0,6,.07,12.08c0,4.18.07,8.36.08,12.54,0,3.95,0,7.9,0,11.85a5.24,5.24,0,0,0,1.14,3.54c1,1.18,1.87,2.45,2.85,3.61a5.38,5.38,0,0,1,1.24,3.81c-.08,2.64-.07,5.28-.07,7.92q0,10.2-.05,20.4c0,2.33,0,4.67,0,7a2.49,2.49,0,0,0,.43,1.52c1.24,1.8,2.48,3.6,3.73,5.38a3.76,3.76,0,0,1,.65,2.4c-.09,3.41-.1,6.82-.14,10.23-.06,4.55-.13,9.1-.18,13.64,0,3.51-.06,7-.09,10.52,0,.72,0,1.43,0,2.14,0,.29-.06.44-.29.44l-4.32,0c-.28,0-.32-.24-.32-.55,0-2.27,0-4.55,0-6.82,0-2,0-4.08,0-6.12s.08-4.31.1-6.47c0-3,0-5.93.06-8.89,0-2.46,0-4.94.2-7.39a5.26,5.26,0,0,0-1.19-3.86c-1.14-1.45-2.21-3-3.31-4.48A1.77,1.77,0,0,1,97.12,85c0-4.84,0-9.68,0-14.51,0-2.39.06-4.78.06-7.17q0-8-.08-16a1.5,1.5,0,0,0-.21-.77c-1.19-1.7-2.4-3.38-3.6-5.07-.32-.45-.65-.89-.94-1.37a1.35,1.35,0,0,1-.13-.65c0-2.71,0-5.43-.06-8.15s0-5.5,0-8.25c0-3.51,0-7,0-10.53Z" />
      <path class="monetizable-1"
        d="M122,1.36a2.47,2.47,0,0,1,.36,0c1.34,0,2.68,0,4,0,.55,0,.61.06.61.8,0,2.66,0,5.31,0,8,0,4.88,0,9.75,0,14.63,0,2.45,0,4.89-.06,7.34,0,2,0,4,0,5.95a10.7,10.7,0,0,1,0,1.27,2.56,2.56,0,0,0,.59,1.95q2,2.91,4.06,5.86a1.73,1.73,0,0,1,.25.86c0,4.39-.08,8.78-.1,13.17,0,4.87,0,9.74,0,14.61q0,4.67,0,9.31a1.66,1.66,0,0,0,.27.74c1.41,2.16,2.83,4.31,4.24,6.48a1.28,1.28,0,0,1,.15.63c0,2.52,0,5-.16,7.56-.14,1.76-.07,3.54-.08,5.32,0,2.9,0,5.81,0,8.72q0,6.14,0,12.26c0,1.06,0,2.12,0,3.18,0,.69-.11.82-.62.82-1.28,0-2.56,0-3.84,0-.3,0-.41-.13-.4-.54,0-2.2,0-4.39.07-6.59q.06-6.12.14-12.25.06-5.06.11-10.11c0-2.54,0-5.08,0-7.62a3.7,3.7,0,0,0-.82-2.43c-1.25-1.57-2.46-3.19-3.67-4.82a1.67,1.67,0,0,1-.23-.88c0-2,0-4.08,0-6.12,0-5.63,0-11.25,0-16.88,0-3.47,0-6.93.05-10.4,0-1,0-2.05.11-3.05a3.78,3.78,0,0,0-.89-2.89c-1.08-1.42-2.13-2.86-3.2-4.3a7.56,7.56,0,0,1-.68-1A2,2,0,0,1,122,40c0-5,0-10,0-15,0-4.14,0-8.28,0-12.42l0-9.94C122,2.23,122,1.82,122,1.36Z" />
      <path class="monetizable-1"
        d="M150.37,92.94l-1.25-2.1c-.67-1.1-1.29-2.25-2-3.28a4.78,4.78,0,0,1-.79-2.94c0-3.33.06-6.67.08-10,0-4.62.07-9.24.12-13.87q.06-6.06.14-12.12a3.4,3.4,0,0,0-.67-2.17c-1.33-1.84-2.64-3.71-4-5.58a1,1,0,0,1-.14-.51c0-1.56,0-3.12,0-4.68,0-.79-.07-1.58-.07-2.37,0-4.56.09-9.13.11-13.69,0-3.87,0-7.75,0-11.62,0-2.1,0-4.2.05-6.3,0-.3.07-.42.29-.42h4.54c.29,0,.4.21.39.56,0,.59-.06,1.19-.06,1.79q0,6.18-.07,12.36c0,3.74,0,7.48-.06,11.21,0,4.18-.12,8.36-.19,12.54a2.56,2.56,0,0,0,.45,1.56c.66,1,1.22,2.09,1.94,3a22.18,22.18,0,0,1,1.61,3,1.94,1.94,0,0,1,.1.89c-.08,4.83-.19,9.67-.25,14.5-.1,8.4-.16,16.8-.24,25.2,0,1.47,0,2.93,0,4.4C150.43,92.45,150.4,92.61,150.37,92.94Z" />
      <path class="monetizable-1"
        d="M72.42,85.23c.39.59.7,1.06,1,1.52,1,1.52,2.06,3,3.13,4.53A2.38,2.38,0,0,1,77,92.89c-.06,2.16-.14,4.31-.15,6.47s.08,4.54.08,6.81c0,2.81-.06,5.62-.07,8.43,0,4.64,0,9.28-.07,13.92,0,.68,0,1.35,0,2,0,.16-.19.43-.29.43-1.38,0-2.76,0-4.14,0-.1,0-.27-.33-.27-.51,0-1.29,0-2.59,0-3.88q.12-12.7.25-25.42.06-7.43.11-14.86C72.37,86,72.4,85.69,72.42,85.23Z" />
      <path class="monetizable-2"
        d="M66,11.17v.34l-4.69-2.7c0,.08,0,.13,0,.18v5.07c0,.2.12.25.24.32,1.39.8,2.77,1.61,4.16,2.39a.55.55,0,0,1,.32.56m0,10.19v.33l-4.7-2.71c0,.12,0,.2,0,.28,0,1.63,0,3.27,0,4.91a.37.37,0,0,0,.22.37c1.45.83,2.9,1.68,4.36,2.51a.27.27,0,0,1,.15.26m0,10.47c0,.06,0,.12,0,.23l-4.69-2.7c0,.13,0,.2,0,.27v4.95a.32.32,0,0,0,.18.33l4.37,2.52a.27.27,0,0,1,.17.27M14.15,24.74c0-1.59,0-3.19,0-4.78a.43.43,0,0,0-.25-.43L9.65,17.08l-.2-.1c0,.1,0,.17,0,.24,0,1.66,0,3.32,0,5a.32.32,0,0,0,.19.31L13.85,25l.28.15C14.14,25,14.15,24.85,14.15,24.74ZM51.87,41.85c0,1.59,0,3.19,0,4.78a.42.42,0,0,0,.25.42l4.26,2.46.19.09c0-.1,0-.17,0-.24v-5a.32.32,0,0,0-.16-.3L52.11,41.6l-.23-.11C51.88,41.64,51.87,41.74,51.87,41.85ZM9.43,33.53v5a.28.28,0,0,0,.17.29L14,41.37l.14.05c0-.1,0-.18,0-.27,0-1.63,0-3.26,0-4.88a.38.38,0,0,0-.22-.38L9.63,33.4a1.13,1.13,0,0,0-.18-.07A1.68,1.68,0,0,0,9.43,33.53ZM56.59,33V28.08a.33.33,0,0,0-.16-.33l-4.34-2.5-.19-.09c0,.1,0,.17,0,.25,0,1.65,0,3.3,0,4.95a.31.31,0,0,0,.18.31l4.36,2.52a.67.67,0,0,0,.18.07C56.58,33.15,56.59,33.08,56.59,33ZM37.72,17.24c0,1.64,0,3.29,0,4.93a.35.35,0,0,0,.21.35L42.26,25l.15.07c0-.1,0-.18,0-.26V19.89a.33.33,0,0,0-.19-.33c-1.44-.82-2.88-1.66-4.31-2.49l-.22-.1ZM14.15,8.49c0-1.61,0-3.22,0-4.84a.47.47,0,0,0-.27-.47C12.51,2.4,11.15,1.6,9.78.82A2.27,2.27,0,0,0,9.44.67c0,.12,0,.18,0,.25,0,1.62,0,3.24,0,4.86a.44.44,0,0,0,.25.43C11.1,7,12.52,7.85,14,8.67a.85.85,0,0,0,.19.09C14.14,8.64,14.15,8.57,14.15,8.49Zm9.44,49V52.66a.44.44,0,0,0-.26-.46l-4.24-2.44-.2-.1c0,.16,0,.28,0,.41v4.78a.36.36,0,0,0,.19.35q2,1.14,4,2.29l.55.32ZM18.87,1c0,1.61,0,3.23,0,4.84a.4.4,0,0,0,.23.39q2.13,1.21,4.24,2.45l.23.11c0-.1,0-.17,0-.24V3.59a.37.37,0,0,0-.22-.37L19.24.83a3.4,3.4,0,0,0-.37-.16ZM42.43,9.08V14a.38.38,0,0,0,.22.38L47,16.85l.16.07a.67.67,0,0,0,0-.18c0-1.69,0-3.37,0-5a.34.34,0,0,0-.15-.26q-2-1.17-4-2.32l-.53-.31A1.78,1.78,0,0,0,42.43,9.08ZM18.87,17.22v5a.32.32,0,0,0,.17.32q2.16,1.23,4.3,2.48l.23.11c0-.12,0-.2,0-.27V19.9a.35.35,0,0,0-.19-.33l-4.34-2.5a.68.68,0,0,0-.17-.08A2.15,2.15,0,0,0,18.87,17.22ZM14.15,57.53V52.6a.38.38,0,0,0-.21-.38l-4.3-2.47-.18-.08c0,.09,0,.15,0,.22v5a.33.33,0,0,0,.19.33c1.46.83,2.91,1.68,4.36,2.52l.14,0A1.92,1.92,0,0,0,14.15,57.53ZM56.59,16.69V11.77a.38.38,0,0,0-.23-.39L52.05,8.89l-.16-.06a2.15,2.15,0,0,0,0,.23c0,1.64,0,3.27,0,4.91a.41.41,0,0,0,.22.4c1.43.81,2.86,1.64,4.28,2.46l.21.1C56.58,16.82,56.59,16.76,56.59,16.69ZM37.72,49.9c0,1.66,0,3.31,0,5a.32.32,0,0,0,.18.31q2.16,1.23,4.3,2.48a1.24,1.24,0,0,0,.23.11c0-.12,0-.22,0-.31,0-1.62,0-3.24,0-4.86a.38.38,0,0,0-.21-.38l-4.32-2.49-.17-.07C37.73,49.76,37.72,49.83,37.72,49.9ZM9.43,49.3c0-1.62,0-3.24,0-4.86a.38.38,0,0,0-.23-.39L5,41.59l-.21-.1c0,.1,0,.17,0,.24,0,1.64,0,3.29,0,4.93a.37.37,0,0,0,.22.37l4.3,2.48.18.09C9.42,49.48,9.43,49.39,9.43,49.3Zm14.16-8.11V36.26a.36.36,0,0,0-.18-.35L19,33.39l-.14-.06c0,.12,0,.22,0,.32,0,1.61,0,3.23,0,4.84a.37.37,0,0,0,.22.38l4.28,2.47.21.09C23.58,41.33,23.59,41.26,23.59,41.19Zm18.85,0v-5a.28.28,0,0,0-.16-.28l-3.5-2c-.28-.17-.56-.34-.85-.5s-.21-.07-.21.12v5a.34.34,0,0,0,.14.25c1.46.86,2.94,1.71,4.41,2.56l.14.05A2.42,2.42,0,0,0,42.44,41.17Zm0-15.56c0,1.54,0,3.08,0,4.62a.51.51,0,0,0,.3.52c1.39.79,2.78,1.6,4.17,2.4l.23.12c0-.12,0-.22,0-.31,0-1.64,0-3.28,0-4.92a.31.31,0,0,0-.18-.3l-4.31-2.49-.24-.1Zm-33-9.24c0-1.53,0-3.05,0-4.58a.44.44,0,0,0-.26-.44L6,9.54,5,9a2.29,2.29,0,0,0-.27-.13c0,.1,0,.17,0,.24,0,1.63,0,3.27,0,4.9a.4.4,0,0,0,.22.4l4.3,2.48.2.09Zm33,25.42v4.86a.38.38,0,0,0,.21.38L47,49.54l.14.06c0-.09,0-.17,0-.24,0-1.66,0-3.32,0-5a.3.3,0,0,0-.17-.3l-4.35-2.51-.19-.1C42.44,41.61,42.43,41.7,42.43,41.79ZM37.72,1.19c0,1.54,0,3.09,0,4.64a.36.36,0,0,0,.2.35l4.41,2.54.09,0c0-.1,0-.17,0-.25,0-1.65,0-3.29,0-4.93a.34.34,0,0,0-.2-.35L38,.78a1.57,1.57,0,0,0-.27-.1ZM9.43,33c0-1.67,0-3.35,0-5,0-.18-.12-.24-.24-.3L6.15,26l-1.21-.7-.2-.09c0,.1,0,.16,0,.23,0,1.63,0,3.26,0,4.88a.45.45,0,0,0,.25.45c1.43.81,2.85,1.64,4.28,2.46l.17.08A2,2,0,0,0,9.43,33Zm9.45-16.41V11.79a.41.41,0,0,0-.23-.41L14.4,8.93l-.22-.11a1,1,0,0,0,0,.22c0,1.65,0,3.3,0,5a.39.39,0,0,0,.22.37c1.44.82,2.87,1.66,4.3,2.48l.19.09C18.86,16.8,18.88,16.72,18.88,16.63Zm0,16.39v-5a.31.31,0,0,0-.16-.31c-1.46-.83-2.91-1.68-4.37-2.52l-.15-.07a1.29,1.29,0,0,0,0,.25c0,1.63,0,3.27,0,4.9a.36.36,0,0,0,.22.39l4.26,2.46.22.11C18.86,33.16,18.87,33.09,18.87,33ZM33,25.39c0,1.65,0,3.3,0,4.95a.35.35,0,0,0,.21.35l4.34,2.51.15.06a2.12,2.12,0,0,0,0-.24V28.08a.35.35,0,0,0-.21-.36l-4.26-2.46L33,25.15C33,25.26,33,25.32,33,25.39Zm14.14,8.16v5a.37.37,0,0,0,.2.36l4.33,2.5.16.06a1.11,1.11,0,0,0,0-.23c0-1.62,0-3.25,0-4.88a.44.44,0,0,0-.25-.44l-4.2-2.41-.25-.14A1.31,1.31,0,0,0,47.15,33.55Zm-42.43,24v-5a.34.34,0,0,0-.19-.34L.14,49.71,0,49.65a1.65,1.65,0,0,0,0,.21c0,1.67,0,3.35,0,5a.31.31,0,0,0,.17.29q2.16,1.23,4.32,2.49l.21.1C4.71,57.68,4.72,57.62,4.72,57.57Zm23.58-7.5v4.8a.3.3,0,0,0,.17.31l4.33,2.5.19.09c0-.1,0-.18,0-.26V52.62a.4.4,0,0,0-.22-.4l-4.25-2.45a2.12,2.12,0,0,1-.24-.13Zm18.85-.15c0,1.62,0,3.24,0,4.86a.46.46,0,0,0,.26.46l4.22,2.42a.8.8,0,0,0,.21.11c0-.1,0-.17,0-.23V52.59a.35.35,0,0,0-.21-.36L47.4,49.77l-.23-.12C47.16,49.77,47.15,49.84,47.15,49.92ZM61.3,57.44c0-1.61,0-3.22,0-4.82a.41.41,0,0,0-.23-.4l-4.3-2.47a.85.85,0,0,0-.19-.09c0,.16,0,.29,0,.43v4.78a.32.32,0,0,0,.18.33l4.32,2.49a1.94,1.94,0,0,0,.21.08ZM33,41.77c0,1.64,0,3.27,0,4.91a.34.34,0,0,0,.2.34l4.32,2.49.19.09c0-.1,0-.16,0-.23V44.42a.36.36,0,0,0-.2-.36c-1.44-.82-2.88-1.66-4.32-2.49L33,41.49Zm0-16.94V19.9a.34.34,0,0,0-.19-.34L28.5,17.07,28.32,17a2.15,2.15,0,0,0,0,.23c0,1.66,0,3.32,0,5a.35.35,0,0,0,.19.33L32.82,25l.19.08Zm4.71-8.34V11.72a.32.32,0,0,0-.18-.32L33.22,8.91,33,8.82a2.12,2.12,0,0,0,0,.24c0,1.64,0,3.28,0,4.93a.37.37,0,0,0,.22.37l4.3,2.48a1.44,1.44,0,0,0,.2.09Zm-33-8v-5a.33.33,0,0,0-.19-.33L.34.81A2.37,2.37,0,0,0,0,.67c0,.1,0,.16,0,.22,0,1.65,0,3.31,0,5a.32.32,0,0,0,.17.31C1.63,7,3.08,7.85,4.54,8.69l.18.07ZM51.87,24.44c0-1.48,0-3,0-4.44a.48.48,0,0,0-.28-.48l-4.25-2.45L47.18,17c0,.1,0,.17,0,.24,0,1.66,0,3.32,0,5a.36.36,0,0,0,.15.28q2.16,1.27,4.34,2.52c.06,0,.12.05.22.1ZM0,17.37C0,19,0,20.56,0,22.15a.37.37,0,0,0,.21.38c1.43.81,2.85,1.64,4.28,2.46l.21.1c0-.1,0-.17,0-.24v-5a.34.34,0,0,0-.19-.34L.21,17.07,0,17ZM4.72,41.15V36.24a.33.33,0,0,0-.18-.33L.19,33.4,0,33.31a2.15,2.15,0,0,0,0,.23c0,1.67,0,3.34,0,5a.29.29,0,0,0,.17.29c1.44.82,2.88,1.66,4.32,2.49l.21.11C4.71,41.31,4.72,41.23,4.72,41.15ZM28.3,16.69v-5a.28.28,0,0,0-.15-.28l-4.34-2.5-.19-.1a1.21,1.21,0,0,0,0,.25v5a.28.28,0,0,0,.16.28l4.37,2.52.17.07C28.29,16.83,28.3,16.76,28.3,16.69ZM18.87,49.33c0-1.64,0-3.28,0-4.92a.31.31,0,0,0-.18-.32L14.39,41.6l-.21-.11c0,.1,0,.17,0,.24v5a.35.35,0,0,0,.19.33l4.34,2.49a.73.73,0,0,0,.17.07C18.86,49.49,18.87,49.41,18.87,49.33ZM33,8.54v-5a.3.3,0,0,0-.17-.29L28.59.79a1.49,1.49,0,0,0-.28-.11,2.27,2.27,0,0,0,0,.24c0,1.65,0,3.3,0,5a.33.33,0,0,0,.19.31l4.3,2.48.22.11C33,8.66,33,8.6,33,8.54ZM47.15,1c0,1.61,0,3.21,0,4.82a.37.37,0,0,0,.22.37L51.54,8.6l.3.16a1,1,0,0,0,0-.21v-5a.32.32,0,0,0-.19-.33L47.46.79,47.15.67Zm9.44.13c0,1.57,0,3.14,0,4.7a.36.36,0,0,0,.21.36l4.32,2.49a.73.73,0,0,0,.17.07,2.15,2.15,0,0,0,0-.23V3.57a.33.33,0,0,0-.19-.34L56.92.81c-.09-.05-.2-.08-.33-.14Zm-33,40.62c0,1.65,0,3.3,0,5a.33.33,0,0,0,.19.33l4.32,2.49.19.08c0-.1,0-.18,0-.26V44.41a.33.33,0,0,0-.2-.34c-1.44-.82-2.88-1.66-4.31-2.49l-.19-.09C23.59,41.61,23.59,41.68,23.59,41.75Zm37.71-.57c0-1.63,0-3.26,0-4.89a.41.41,0,0,0-.24-.41c-1.43-.81-2.85-1.64-4.28-2.47l-.17-.08a1.29,1.29,0,0,0,0,.25v5a.29.29,0,0,0,.15.29l4.39,2.53.16.06C61.29,41.32,61.3,41.25,61.3,41.18Zm-33-7.62v5a.3.3,0,0,0,.16.29q2.16,1.23,4.3,2.48l.23.11c0-.09,0-.16,0-.22v-5a.34.34,0,0,0-.2-.36L30,34.28l-1.4-.82-.28-.15C28.31,33.43,28.3,33.49,28.3,33.56ZM56.59,17.27c0,1.63,0,3.26,0,4.88a.39.39,0,0,0,.23.39L61.07,25l.21.09a1.68,1.68,0,0,0,0-.2v-5a.33.33,0,0,0-.18-.33l-4.33-2.49L56.6,17C56.6,17.11,56.59,17.19,56.59,17.27ZM28.3,32.46c0-1.48,0-3,0-4.45a.29.29,0,0,0-.12-.23l-4.46-2.57s0,0-.1,0a2.32,2.32,0,0,0,0,.24c0,1.65,0,3.29,0,4.93a.37.37,0,0,0,.21.36l3,1.74,1.24.73.23.11Z" />
      <path class="monetizable-3"
        d="M66,60.29c0,.06-3.12-1.57-4.7-2.48,0,.11,0,.18,0,.24v5a.3.3,0,0,0,.17.29L65.7,65.8l.11.08h.28Z" />
      <path class="monetizable-4"
        d="M66,43.94c0,.06,0,.12,0,.23l-4.69-2.7c0,.13,0,.2,0,.27v4.95a.32.32,0,0,0,.18.33l4.37,2.52a.27.27,0,0,1,.17.27Z" />
      <path class="monetizable-5"
        d="M66,27.52v.33l-4.7-2.71c0,.12,0,.2,0,.28,0,1.63,0,3.27,0,4.91a.37.37,0,0,0,.22.37c1.45.83,2.9,1.68,4.36,2.51a.27.27,0,0,1,.15.26Z" />
      <path class="monetizable-6"
        d="M66,11.17v.34l-4.69-2.7c0,.08,0,.13,0,.18v5.07c0,.2.12.25.24.32,1.39.8,2.77,1.61,4.16,2.39a1,1,0,0,1,.32.56Z" />
      <path class="monetizable-7"
        d="M56.61,65.88c0-.14,0-.28,0-.43V60.77a.36.36,0,0,0-.21-.37l-4.29-2.47-.19-.1c0,.1,0,.17,0,.24,0,1.63,0,3.27,0,4.9a.45.45,0,0,0,.25.43l4.16,2.39.13.09Z" />
      <path class="monetizable-8"
        d="M47.16,65.88c0-1.69,0-3.39,0-5.09a.41.41,0,0,0-.23-.41l-4.29-2.47a.73.73,0,0,0-.17-.07,1.29,1.29,0,0,0,0,.25c0,1.62,0,3.25,0,4.87a.45.45,0,0,0,.27.44l4.19,2.41.07.07Z" />
      <path class="monetizable-9"
        d="M9.45,65.88c0-.22,0-.45,0-.67,0-1.48,0-3,0-4.44a.38.38,0,0,0-.22-.38l-4.3-2.48-.19-.08a2.36,2.36,0,0,0,0,.25c0,1.62,0,3.24,0,4.87A.45.45,0,0,0,5,63.4c1.39.79,2.78,1.6,4.16,2.4l.11.08Z" />
      <path class="monetizable-10"
        d="M18.86,65.88c0-.07,0-.15,0-.22,0-1.62,0-3.24,0-4.86a.4.4,0,0,0-.24-.41c-1.4-.8-2.8-1.62-4.2-2.43l-.27-.14c0,.1,0,.17,0,.23,0,1.64,0,3.28,0,4.93a.43.43,0,0,0,.26.42c1.36.77,2.72,1.56,4.08,2.35a1.92,1.92,0,0,1,.17.13Z" />
      <path class="monetizable-11"
        d="M37.71,65.88c0-.36,0-.72,0-1.09V60.73a.3.3,0,0,0-.17-.31l-4.31-2.49a1.39,1.39,0,0,0-.21-.1c0,.09,0,.16,0,.22,0,1.67,0,3.33,0,5a.3.3,0,0,0,.19.31l4.22,2.44.14.09Z" />
      <path class="monetizable-12"
        d="M28.3,65.88V60.79a.4.4,0,0,0-.23-.4l-4.35-2.51-.11,0a2.32,2.32,0,0,0,0,.24c0,1.66,0,3.31,0,5a.32.32,0,0,0,.18.31L28,65.8l.11.08Z" />
      <path class="monetizable-13"
        d="M14.13,25.1c0-.15,0-.25,0-.36,0-1.59,0-3.19,0-4.78a.43.43,0,0,0-.25-.43L9.65,17.08l-.2-.1c0,.1,0,.17,0,.24,0,1.66,0,3.32,0,5a.32.32,0,0,0,.19.31L13.85,25Z" />
      <path class="monetizable-14"
        d="M51.88,41.49c0,.15,0,.25,0,.36,0,1.59,0,3.19,0,4.78a.42.42,0,0,0,.25.42l4.26,2.46.19.09c0-.1,0-.17,0-.24v-5a.32.32,0,0,0-.16-.3L52.11,41.6Z" />
      <path class="monetizable-15"
        d="M9.45,33.33a1.68,1.68,0,0,0,0,.2v5a.28.28,0,0,0,.17.29L14,41.37l.14.05c0-.1,0-.18,0-.27,0-1.63,0-3.26,0-4.88a.38.38,0,0,0-.22-.38L9.63,33.4A1.13,1.13,0,0,0,9.45,33.33Z" />
      <path class="monetizable-16"
        d="M56.58,33.26c0-.11,0-.18,0-.25V28.08a.33.33,0,0,0-.16-.33l-4.34-2.5-.19-.09c0,.1,0,.17,0,.25,0,1.65,0,3.3,0,4.95a.31.31,0,0,0,.18.31l4.36,2.52A.67.67,0,0,0,56.58,33.26Z" />
      <path class="monetizable-17"
        d="M37.72,17v.27c0,1.64,0,3.29,0,4.93a.35.35,0,0,0,.21.35L42.26,25l.15.07c0-.1,0-.18,0-.26V19.89a.33.33,0,0,0-.19-.33c-1.44-.82-2.88-1.66-4.31-2.49Z" />
      <path class="monetizable-18"
        d="M14.14,8.76c0-.12,0-.19,0-.27,0-1.61,0-3.22,0-4.84a.47.47,0,0,0-.27-.47C12.51,2.4,11.15,1.6,9.78.82A2.27,2.27,0,0,0,9.44.67c0,.12,0,.18,0,.25,0,1.62,0,3.24,0,4.86a.44.44,0,0,0,.25.43C11.1,7,12.52,7.85,14,8.67A.85.85,0,0,0,14.14,8.76Z" />
      <path class="monetizable-19"
        d="M23.59,57.81V52.66a.44.44,0,0,0-.26-.46l-4.24-2.44-.2-.1c0,.16,0,.28,0,.41v4.78a.36.36,0,0,0,.19.35q2,1.14,4,2.29Z" />
      <path class="monetizable-20"
        d="M18.87.67V1c0,1.61,0,3.23,0,4.84a.4.4,0,0,0,.23.39q2.13,1.21,4.24,2.45l.23.11c0-.1,0-.17,0-.24V3.59a.37.37,0,0,0-.22-.37L19.24.83A3.4,3.4,0,0,0,18.87.67Z" />
      <path class="monetizable-21"
        d="M42.46,8.8a1.78,1.78,0,0,0,0,.28V14a.38.38,0,0,0,.22.38L47,16.85l.16.07a.67.67,0,0,0,0-.18c0-1.69,0-3.37,0-5a.34.34,0,0,0-.15-.26q-2-1.17-4-2.32Z" />
      <path class="monetizable-22"
        d="M18.89,17a2.15,2.15,0,0,0,0,.23v5a.32.32,0,0,0,.17.32q2.16,1.23,4.3,2.48l.23.11c0-.12,0-.2,0-.27V19.9a.35.35,0,0,0-.19-.33l-4.34-2.5A.68.68,0,0,0,18.89,17Z" />
      <path class="monetizable-23"
        d="M14.12,57.75a1.92,1.92,0,0,0,0-.22V52.6a.38.38,0,0,0-.21-.38l-4.3-2.47-.18-.08c0,.09,0,.15,0,.22v5a.33.33,0,0,0,.19.33c1.46.83,2.91,1.68,4.36,2.52Z" />
      <path class="monetizable-24"
        d="M56.57,16.93c0-.11,0-.17,0-.24V11.77a.38.38,0,0,0-.23-.39L52.05,8.89l-.16-.06a2.15,2.15,0,0,0,0,.23c0,1.64,0,3.27,0,4.91a.41.41,0,0,0,.22.4c1.43.81,2.86,1.64,4.28,2.46Z" />
      <path class="monetizable-25"
        d="M37.74,49.66c0,.1,0,.17,0,.24,0,1.66,0,3.31,0,5a.32.32,0,0,0,.18.31q2.16,1.23,4.3,2.48a1.24,1.24,0,0,0,.23.11c0-.12,0-.22,0-.31,0-1.62,0-3.24,0-4.86a.38.38,0,0,0-.21-.38l-4.32-2.49Z" />
      <path class="monetizable-26"
        d="M9.41,49.6c0-.12,0-.21,0-.3,0-1.62,0-3.24,0-4.86a.38.38,0,0,0-.23-.39L5,41.59l-.21-.1c0,.1,0,.17,0,.24,0,1.64,0,3.29,0,4.93a.37.37,0,0,0,.22.37l4.3,2.48Z" />
      <path class="monetizable-27"
        d="M23.57,41.43c0-.1,0-.17,0-.24V36.26a.36.36,0,0,0-.18-.35L19,33.39l-.14-.06c0,.12,0,.22,0,.32,0,1.61,0,3.23,0,4.84a.37.37,0,0,0,.22.38l4.28,2.47Z" />
      <path class="monetizable-28"
        d="M42.41,41.42a2.42,2.42,0,0,0,0-.25v-5a.28.28,0,0,0-.16-.28l-3.5-2c-.28-.17-.56-.34-.85-.5s-.21-.07-.21.12v5a.34.34,0,0,0,.14.25c1.46.86,2.94,1.71,4.41,2.56Z" />
      <path class="monetizable-29"
        d="M42.43,25.15v.46c0,1.54,0,3.08,0,4.62a.51.51,0,0,0,.3.52c1.39.79,2.78,1.6,4.17,2.4l.23.12c0-.12,0-.22,0-.31,0-1.64,0-3.28,0-4.92a.31.31,0,0,0-.18-.3l-4.31-2.49Z" />
      <path class="monetizable-30"
        d="M9.43,16.93v-.56c0-1.53,0-3.05,0-4.58a.44.44,0,0,0-.26-.44L6,9.54,5,9a2.29,2.29,0,0,0-.27-.13c0,.1,0,.17,0,.24,0,1.63,0,3.27,0,4.9a.4.4,0,0,0,.22.4l4.3,2.48Z" />
      <path class="monetizable-31"
        d="M42.45,41.48c0,.13,0,.22,0,.31v4.86a.38.38,0,0,0,.21.38L47,49.54l.14.06c0-.09,0-.17,0-.24,0-1.66,0-3.32,0-5a.3.3,0,0,0-.17-.3l-4.35-2.51Z" />
      <path class="monetizable-32"
        d="M37.72.68v.51c0,1.54,0,3.09,0,4.64a.36.36,0,0,0,.2.35l4.41,2.54.09,0c0-.1,0-.17,0-.25,0-1.65,0-3.29,0-4.93a.34.34,0,0,0-.2-.35L38,.78A1.57,1.57,0,0,0,37.72.68Z" />
      <path class="monetizable-33"
        d="M9.41,33.26a2,2,0,0,0,0-.22c0-1.67,0-3.35,0-5,0-.18-.12-.24-.24-.3L6.15,26l-1.21-.7-.2-.09c0,.1,0,.16,0,.23,0,1.63,0,3.26,0,4.88a.45.45,0,0,0,.25.45c1.43.81,2.85,1.64,4.28,2.46Z" />
      <path class="monetizable-34"
        d="M18.85,16.93c0-.13,0-.21,0-.3V11.79a.41.41,0,0,0-.23-.41L14.4,8.93l-.22-.11a1,1,0,0,0,0,.22c0,1.65,0,3.3,0,5a.39.39,0,0,0,.22.37c1.44.82,2.87,1.66,4.3,2.48Z" />
      <path class="monetizable-35"
        d="M18.85,33.27c0-.11,0-.18,0-.25v-5a.31.31,0,0,0-.16-.31c-1.46-.83-2.91-1.68-4.37-2.52l-.15-.07a1.29,1.29,0,0,0,0,.25c0,1.63,0,3.27,0,4.9a.36.36,0,0,0,.22.39l4.26,2.46Z" />
      <path class="monetizable-36"
        d="M33,25.15c0,.11,0,.17,0,.24,0,1.65,0,3.3,0,4.95a.35.35,0,0,0,.21.35l4.34,2.51.15.06a2.12,2.12,0,0,0,0-.24V28.08a.35.35,0,0,0-.21-.36l-4.26-2.46Z" />
      <path class="monetizable-37"
        d="M47.18,33.32a1.31,1.31,0,0,0,0,.23v5a.37.37,0,0,0,.2.36l4.33,2.5.16.06a1.11,1.11,0,0,0,0-.23c0-1.62,0-3.25,0-4.88a.44.44,0,0,0-.25-.44l-4.2-2.41Z" />
      <path class="monetizable-38"
        d="M4.7,57.77c0-.09,0-.15,0-.2v-5a.34.34,0,0,0-.19-.34L.14,49.71,0,49.65a1.65,1.65,0,0,0,0,.21c0,1.67,0,3.35,0,5a.31.31,0,0,0,.17.29q2.16,1.23,4.32,2.49Z" />
      <path class="monetizable-39"
        d="M28.3,49.64v5.23a.3.3,0,0,0,.17.31l4.33,2.5.19.09c0-.1,0-.18,0-.26V52.62a.4.4,0,0,0-.22-.4l-4.25-2.45A2.12,2.12,0,0,1,28.3,49.64Z" />
      <path class="monetizable-40"
        d="M47.17,49.65c0,.12,0,.19,0,.27,0,1.62,0,3.24,0,4.86a.46.46,0,0,0,.26.46l4.22,2.42a.8.8,0,0,0,.21.11c0-.1,0-.17,0-.23V52.59a.35.35,0,0,0-.21-.36L47.4,49.77Z" />
      <path class="monetizable-41"
        d="M61.3,57.77v-.33c0-1.61,0-3.22,0-4.82a.41.41,0,0,0-.23-.4l-4.3-2.47a.85.85,0,0,0-.19-.09c0,.16,0,.29,0,.43v4.78a.32.32,0,0,0,.18.33l4.32,2.49A1.94,1.94,0,0,0,61.3,57.77Z" />
      <path class="monetizable-42"
        d="M33,41.49v.28c0,1.64,0,3.27,0,4.91a.34.34,0,0,0,.2.34l4.32,2.49.19.09c0-.1,0-.16,0-.23V44.42a.36.36,0,0,0-.2-.36c-1.44-.82-2.88-1.66-4.32-2.49Z" />
      <path class="monetizable-43"
        d="M33,25.1V19.9a.34.34,0,0,0-.19-.34L28.5,17.07,28.32,17a2.15,2.15,0,0,0,0,.23c0,1.66,0,3.32,0,5a.35.35,0,0,0,.19.33L32.82,25Z" />
      <path class="monetizable-44"
        d="M37.72,16.93V11.72a.32.32,0,0,0-.18-.32L33.22,8.91,33,8.82a2.12,2.12,0,0,0,0,.24c0,1.64,0,3.28,0,4.93a.37.37,0,0,0,.22.37l4.3,2.48A1.44,1.44,0,0,0,37.72,16.93Z" />
      <path class="monetizable-45"
        d="M4.72,8.76V3.55a.33.33,0,0,0-.19-.33L.34.81A2.37,2.37,0,0,0,0,.67c0,.1,0,.16,0,.22,0,1.65,0,3.31,0,5a.32.32,0,0,0,.17.31C1.63,7,3.08,7.85,4.54,8.69Z" />
      <path class="monetizable-46"
        d="M51.87,25.1v-.66c0-1.48,0-3,0-4.44a.48.48,0,0,0-.28-.48l-4.25-2.45L47.18,17c0,.1,0,.17,0,.24,0,1.66,0,3.32,0,5a.36.36,0,0,0,.15.28q2.16,1.27,4.34,2.52C51.71,25,51.77,25.05,51.87,25.1Z" />
      <path class="monetizable-47"
        d="M0,17v.4C0,19,0,20.56,0,22.15a.37.37,0,0,0,.21.38c1.43.81,2.85,1.64,4.28,2.46l.21.1c0-.1,0-.17,0-.24v-5a.34.34,0,0,0-.19-.34L.21,17.07Z" />
      <path class="monetizable-48"
        d="M4.7,41.44c0-.13,0-.21,0-.29V36.24a.33.33,0,0,0-.18-.33L.19,33.4,0,33.31a2.15,2.15,0,0,0,0,.23c0,1.67,0,3.34,0,5a.29.29,0,0,0,.17.29c1.44.82,2.88,1.66,4.32,2.49Z" />
      <path class="monetizable-49"
        d="M28.29,16.93c0-.1,0-.17,0-.24v-5a.28.28,0,0,0-.15-.28l-4.34-2.5-.19-.1a1.21,1.21,0,0,0,0,.25v5a.28.28,0,0,0,.16.28l4.37,2.52Z" />
      <path class="monetizable-50"
        d="M18.85,49.59c0-.1,0-.18,0-.26,0-1.64,0-3.28,0-4.92a.31.31,0,0,0-.18-.32L14.39,41.6l-.21-.11c0,.1,0,.17,0,.24v5a.35.35,0,0,0,.19.33l4.34,2.49A.73.73,0,0,0,18.85,49.59Z" />
      <path class="monetizable-51"
        d="M33,8.77c0-.11,0-.17,0-.23v-5a.3.3,0,0,0-.17-.29L28.59.79a1.49,1.49,0,0,0-.28-.11,2.27,2.27,0,0,0,0,.24c0,1.65,0,3.3,0,5a.33.33,0,0,0,.19.31l4.3,2.48Z" />
      <path class="monetizable-52"
        d="M47.15.67V1c0,1.61,0,3.21,0,4.82a.37.37,0,0,0,.22.37L51.54,8.6l.3.16a1,1,0,0,0,0-.21v-5a.32.32,0,0,0-.19-.33L47.46.79Z" />
      <path class="monetizable-53"
        d="M56.59.67v.46c0,1.57,0,3.14,0,4.7a.36.36,0,0,0,.21.36l4.32,2.49a.73.73,0,0,0,.17.07,2.15,2.15,0,0,0,0-.23V3.57a.33.33,0,0,0-.19-.34L56.92.81C56.83.76,56.72.73,56.59.67Z" />
      <path class="monetizable-54"
        d="M23.6,41.49c0,.12,0,.19,0,.26,0,1.65,0,3.3,0,5a.33.33,0,0,0,.19.33l4.32,2.49.19.08c0-.1,0-.18,0-.26V44.41a.33.33,0,0,0-.2-.34c-1.44-.82-2.88-1.66-4.31-2.49Z" />
      <path class="monetizable-55"
        d="M61.29,41.43c0-.11,0-.18,0-.25,0-1.63,0-3.26,0-4.89a.41.41,0,0,0-.24-.41c-1.43-.81-2.85-1.64-4.28-2.47l-.17-.08a1.29,1.29,0,0,0,0,.25v5a.29.29,0,0,0,.15.29l4.39,2.53Z" />
      <path class="monetizable-56"
        d="M28.31,33.31c0,.12,0,.18,0,.25v5a.3.3,0,0,0,.16.29q2.16,1.23,4.3,2.48l.23.11c0-.09,0-.16,0-.22v-5a.34.34,0,0,0-.2-.36L30,34.28l-1.4-.82Z" />
      <path class="monetizable-57"
        d="M56.6,17c0,.12,0,.2,0,.28,0,1.63,0,3.26,0,4.88a.39.39,0,0,0,.23.39L61.07,25l.21.09a1.68,1.68,0,0,0,0-.2v-5a.33.33,0,0,0-.18-.33l-4.33-2.49Z" />
      <path class="monetizable-58"
        d="M28.3,33.28v-.82c0-1.48,0-3,0-4.45a.29.29,0,0,0-.12-.23l-4.46-2.57s0,0-.1,0a2.32,2.32,0,0,0,0,.24c0,1.65,0,3.29,0,4.93a.37.37,0,0,0,.21.36l3,1.74,1.24.73Z" />
      <path class="monetizable-59"
        d="M1.63,67.75l1.51.69c1.41.66,2.82,1.32,4.21,2a.81.81,0,0,1,.42.47c.05.32.25.52.68.71Q14.23,74.14,20,76.7c.25.11.49.38.45.55-.26,1,.38,1.7,1.91,2.29,3.6,1.39,7,2.92,10.56,4.39.44.18.63.37.63.7,0,2.07-.36,1.57,2.43,2.62q4.86,1.84,9.76,3.64c.5.18.66.4.66.74a15.62,15.62,0,0,0,.11,2.27.9.9,0,0,0,.6.55c2.54.66,5.1,1.29,7.67,1.92,1,.25,1.12.31.76,1.06l-1.68-.33q-6.72-1.39-13.43-2.77c-.57-.12-.79-.28-.78-.64,0-1,0-1.92,0-2.87,0-.34-.19-.53-.68-.68-3.93-1.23-7.84-2.48-11.78-3.7-.46-.15-.61-.32-.59-.61.07-.89.11-1.79.2-2.68,0-.42-.1-.65-.89-.57a6.75,6.75,0,0,1-3.4-.58c-2.61-1.06-5.31-2-8-3-.49-.19-.7-.4-.69-.74,0-.91,0-1.82,0-2.74,0-.39-.22-.54-.88-.51s-1.56,0-2.34,0a2.39,2.39,0,0,1-.77-.14C7.25,73.8,4.65,72.71,2,71.64c-.53-.22-.73-.45-.68-.83.1-.86.13-1.73.19-2.59C1.55,68.1,1.59,68,1.63,67.75Z" />
      <path class="monetizable-59"
        d="M55.54,103.22c.27.44,0,.61-.56.73-2.44.49-4.86,1-7.28,1.52-1.24.27-1.27.32-1.26,1.12,0,.65,0,1.31,0,2,0,.36-.18.54-.74.71-2.17.68-4.3,1.4-6.43,2.12-1.64.55-3.26,1.14-4.9,1.7-.63.22-.92.52-.89,1s.23,1.14-.13,1.57-1.31.57-2,.86c-3.33,1.36-6.65,2.73-10,4.07-.8.32-1.32.64-1.19,1.28.19.87-.43,1.42-1.69,1.93-3.4,1.35-6.67,2.83-10,4.23-.6.26-.94.53-.8,1,.08.27-.11.43-.49.59-1.69.69-3.33,1.41-5,2.12a4.53,4.53,0,0,1-.8.16,1.46,1.46,0,0,1-.18-.46c0-.89-.07-1.77,0-2.65a.68.68,0,0,1,.44-.51c2.44-.91,4.9-1.79,7.35-2.69a9.48,9.48,0,0,1,4.27-.85c.49,0,.56-.16.56-.4,0-1,0-1.91,0-2.87,0-.3.17-.47.59-.62,3.21-1.13,6.4-2.29,9.63-3.41a6.19,6.19,0,0,1,1.66-.2c.51,0,.74-.11.75-.42a17.4,17.4,0,0,0,.07-2.5c-.06-.6.35-.87,1.15-1.11,3.5-1,7-2.11,10.47-3.15,1-.29,1.51-.65,1.42-1.36a19.55,19.55,0,0,1,0-2.42c0-.27.14-.39.6-.47l14.76-2.45C55.08,103.26,55.3,103.25,55.54,103.22Z" />
      <path class="monetizable-59"
        d="M13.63,132.17c0-.66,0-1.22,0-1.78s-.23-1.32.19-1.83a8.21,8.21,0,0,1,2.3-1.14l5.2-2.48a2.14,2.14,0,0,1,.82-.15c1.08,0,2.16,0,3.23.12.58,0,.69-.1.71-.39.07-1,.15-2,.28-3a.85.85,0,0,1,.48-.61c2.57-1.19,5.18-2.36,7.79-3.52a2.3,2.3,0,0,1,.77-.13c1.11,0,2.21-.05,3.32-.06.53,0,.76-.11.75-.46,0-.88,0-1.76,0-2.64,0-.34.14-.57.61-.76,2.91-1.23,5.8-2.47,8.7-3.69a2.14,2.14,0,0,1,.64-.11c.5,0,1,0,1.5-.06,1.32-.08,1.33-.08,1.38-.9s0-1.55,0-2.33c0-.25.1-.4.53-.52,3-.82,6-1.67,9-2.5l.94-.24a12.51,12.51,0,0,1,0,1.52c0,.13-.27.27-.47.37-2,1-4,1.92-6,2.9-.26.13-.35.37-.54.55a2.55,2.55,0,0,1-.56.46L46.87,113c-.36.19-.74.36-.57.72.05.09-.11.26-.26.34-3.66,2-7.35,4-11,6-.57.32-1,.73-1.51,1.07-.36.23-.8.4-1.19.62-3.6,2-7.21,3.92-10.79,5.9a7.21,7.21,0,0,0-1.16.94,2.68,2.68,0,0,1-.36.29l-5.72,3C14.13,132,13.94,132,13.63,132.17Z" />
      <path class="monetizable-59"
        d="M62.81,97.54,62,97.33q-4.71-1.55-9.39-3.11a.57.57,0,0,1-.35-.48c0-.94,0-1.89,0-2.83,0-.41-.25-.59-.91-.58h-.08a17.62,17.62,0,0,1-3.12-.14,12.15,12.15,0,0,1-2.42-1.13c-1.89-.89-3.8-1.75-5.68-2.64a.74.74,0,0,1-.42-.53c0-.92,0-1.85.08-2.77,0-.43-.17-.61-.92-.58-1.05,0-2.11,0-3.17,0a4,4,0,0,1-2.2-.48,52.57,52.57,0,0,0-5.09-2.56c-1.43-.62-2.06-1.31-1.77-2.36a9.63,9.63,0,0,0,.15-2s.06-.08.14-.2l1.21.67,13.57,7.64,4.57,2.58c.12.07.28.18.26.26-.11.4.35.61.75.84q7.54,4.35,15.09,8.73a.93.93,0,0,1,.43.63A7.1,7.1,0,0,1,62.81,97.54Z" />
      <path class="monetizable-59"
        d="M34.36,90.2c-.62.08-.83.26-.8.62s-.41.34-.83.23c-2.86-.71-5.71-1.44-8.57-2.13-3.2-.78-6.41-1.53-9.63-2.28-.56-.13-.79-.29-.77-.65,0-.9,0-1.8,0-2.69,0-.46-.22-.76-1-1Q7.29,80.68,1.78,79c-.21-.07-.5-.22-.5-.34,0-1.09,0-2.18,0-3.26l.28-.08c.52.17,1.06.31,1.57.5,1.31.48,2.59,1,3.91,1.45.4.14.6.29.57.57s0,.37,0,.55c0,.37.27.58.78.75C12.2,80.4,16,81.69,19.8,83c.53.17.69.38.68.72,0,.7,0,1.4,0,2.1,0,.41.23.65.84.81l8.1,2.22L33.66,90C33.9,90,34.13,90.12,34.36,90.2Z" />
      <path class="monetizable-59"
        d="M33.5,109.13c.08.65.88.31,1.39.51-.22.08-.39.16-.58.21-4.35,1.11-8.7,2.23-13.06,3.32-.64.16-.9.39-.9.79,0,.88-.05,1.76-.13,2.64,0,.13-.24.32-.45.39-3.82,1.26-7.66,2.49-11.47,3.76-.27.09-.56.39-.52.56.26,1-.3,1.56-1.88,1.92-1.33.3-2.54.79-3.82,1.17-.74.22-.94.14-1-.37,0-.92,0-1.85,0-2.78,0-.16.27-.38.51-.45q5.6-1.65,11.23-3.24c.7-.2,1-.47,1-1-.07-.88,0-1.76,0-2.64,0-.28.13-.44.6-.54q6.37-1.35,12.71-2.75C29.21,110.22,31.26,109.68,33.5,109.13Z" />
      <path class="monetizable-59"
        d="M25.73,109.76c-.65.14-1.29.29-1.94.42l-14.71,3a9.37,9.37,0,0,0-1.24.33.41.41,0,0,0-.26.33c0,.5.06,1,0,1.5a.71.71,0,0,1-.51.45c-1.71.4-3.45.75-5.17,1.13-.6.14-.79,0-.77-.32.06-1,.11-2,.13-2.92,0-.3.32-.37.7-.43l13.9-2.47c1.9-.34,3.77-.78,5.7-1,1.32-.18,2.72-.15,4.09-.21Z" />
      <path class="monetizable-59"
        d="M24.2,90.39a33.19,33.19,0,0,1-4.28-.29c-6.05-1.14-12-2.37-18.07-3.55-.52-.1-.74-.24-.71-.58.06-.87.07-1.73.11-2.6,0-.52.18-.59,1-.39,1.44.35,2.87.73,4.3,1.1,1.1.28,1.1.28,1.07,1,0,1.28-.06,1.29,2,1.74L23.7,90a5.36,5.36,0,0,1,.57.17Z" />
      <path class="monetizable-59"
        d="M35.42,97.24c-.37,0-.74,0-1.1,0L21,96q-9.61-.87-19.23-1.77c-.44,0-.62-.13-.62-.4,0-1,0-2,0-3,0-.28.18-.36.6-.3,1.81.25,3.63.49,5.43.77.2,0,.46.23.48.37a19.89,19.89,0,0,1,.09,2c0,.31.15.48.69.53l9.12,1L35,97a3.71,3.71,0,0,1,.48.1Z" />
      <path class="monetizable-59"
        d="M34.82,103.21a7.27,7.27,0,0,1-.79.14l-12.25,1.07L9.46,105.51l-.22,0c-1.49.24-1.49.24-1.51,1.17,0,.56-.06,1.13-.08,1.69,0,.27-.18.4-.64.45-1.69.19-3.36.39-5,.6-.63.08-.92,0-.92-.45,0-.88-.05-1.76-.08-2.64,0-.72,0-.72,1.14-.81l13.48-1.05L34.07,103a5.77,5.77,0,0,1,.72,0Z" />
      <path class="monetizable-59"
        d="M44.13,97.45c-.52,0-1.05,0-1.57-.1-3.66-.42-7.31-.85-11-1.26q-8.34-.93-16.71-1.81c-.78-.08-1-.27-1-.72.05-.91,0-1.82,0-2.73,0-.35.16-.48.75-.38q2.64.49,5.28,1c.42.08.55.21.55.46,0,.61,0,1.21,0,1.82,0,.29.13.44.64.5l17,2.18,5.39.71a4,4,0,0,1,.7.21Z" />
      <path class="monetizable-59"
        d="M20.56,108.8a11.31,11.31,0,0,0-1.17,0l-4.63.65c-.91.12-1,.09-1-.45,0-1,0-1.91,0-2.87,0-.29.13-.43.66-.48l12.15-1.14,14.84-1.39a2.4,2.4,0,0,1,.68.13,2.43,2.43,0,0,1-.64.22c-5,.55-10,1.07-15,1.62-1.76.19-3.49.45-5.24.66-.54.06-.7.2-.7.51C20.57,107.12,20.56,108,20.56,108.8Z" />
      <path class="monetizable-59"
        d="M26.68,92.29c0-.49,0-1,0-1.46s.2-.5.83-.35c1.82.44,3.66.86,5.49,1.27.42.09.6.23.58.5a9.67,9.67,0,0,1,0,1.32c-.09.49.3.7,1,.81l14.24,2.4a12.8,12.8,0,0,1,1.29.25,1.27,1.27,0,0,1,.45.3,2.47,2.47,0,0,1-.64.09c-2.59-.35-5.19-.73-7.78-1.1L27.26,94.21c-.44-.07-.63-.18-.61-.46,0-.49,0-1,0-1.46Z" />
      <path class="monetizable-59"
        d="M14.23,67.57l12.34,7.09-.05.13-1.14,0c-1,0-2.06.08-3.08,0a3.85,3.85,0,0,1-1.5-.31c-2.19-1.09-4.34-2.22-6.47-3.35-.24-.12-.46-.34-.47-.52,0-.91,0-1.82,0-2.74a2.44,2.44,0,0,1,.11-.32Z" />
      <path class="monetizable-59"
        d="M33.53,108.26l-6,1.15c-.84.16-.89.15-.87-.4,0-1,.1-1.92.11-2.87,0-.27.18-.37.6-.42,2-.22,3.95-.46,5.93-.69q7.82-.93,15.63-1.83a3.35,3.35,0,0,1,.81.11,2.79,2.79,0,0,1-.71.31l-13.18,1.79a16.89,16.89,0,0,0-1.93.37.53.53,0,0,0-.37.36C33.51,106.84,33.53,107.54,33.53,108.26Z" />
      <path class="monetizable-59"
        d="M52.07,124.78a2.63,2.63,0,0,1-.06-.39,4.32,4.32,0,0,0,0-1c-.33-1.48.51-2.75,1.72-4,2.85-3,5.61-6,8.4-9a1.28,1.28,0,0,1,.43-.28c0,.67.31,1.34-.2,2-1.7,2.14-3.39,4.28-5.09,6.41-1.54,1.94-3.1,3.88-4.65,5.82a4.78,4.78,0,0,1-.39.39Z" />
      <path class="monetizable-59"
        d="M62.49,113.93a4.79,4.79,0,0,1,0,1.86,21.82,21.82,0,0,1-1.74,3c-2.59,4-5.21,8.09-7.82,12.14-.24.37-.46.75-.68,1.13l-.19,0c0-.1-.12-.19-.12-.28a15,15,0,0,1,0-2.6,4.26,4.26,0,0,1,.82-1.45q4.76-6.83,9.53-13.64S62.36,114.05,62.49,113.93Z" />
      <path class="monetizable-59"
        d="M52.22,117.05c0-.58,0-1.16,0-1.74,0-.14.07-.28,0-.41-.25-1,.5-1.65,1.54-2.34,2.74-1.81,5.38-3.69,8.07-5.54l.75-.5a2.29,2.29,0,0,1-.56,2.38c-2.17,1.92-4.42,3.8-6.64,5.7l-2.51,2.16a5.4,5.4,0,0,1-.46.33Z" />
      <path class="monetizable-59"
        d="M37.19,124.94l-11,7.49a3.27,3.27,0,0,1-.12-.65c0-1,.05-1.91.12-2.86a.7.7,0,0,1,.38-.51c2-1.08,4.06-2.13,6.06-3.21a3.37,3.37,0,0,1,1.92-.36C35.37,124.9,36.19,124.91,37.19,124.94Z" />
      <path class="monetizable-59"
        d="M62.72,90.24c-1.41-1.57-2.74-3-4.08-4.52-2.15-2.39-4.32-4.77-6.47-7.16a.8.8,0,0,1-.27-.46c0-1,0-2,0-3,0-.06.05-.11.13-.28.41.5.74.91,1.06,1.33q4.52,5.84,9,11.69A2.5,2.5,0,0,1,62.72,90.24Z" />
      <path class="monetizable-59"
        d="M39.51,124.78c0-.39,0-.78,0-1.16,0-.69,0-1.37,0-2.05a.66.66,0,0,1,.31-.53c1.91-1.2,3.87-2.38,5.8-3.57a2.28,2.28,0,0,1,1.41-.31c.91,0,1.83,0,2.75,0l.09.14-10,7.54Z" />
      <path class="monetizable-59"
        d="M52.42,100c0-.45,0-.9,0-1.36s.16-.44.73-.37l9.2,1c.46,0,.65.17.61.45a5.08,5.08,0,0,0-.05.87c0,.58,0,.6-1,.65l-8.17.43c-1.45.09-1.44.11-1.41-.76,0-.3,0-.6,0-.91Z" />
      <path class="monetizable-59"
        d="M52.43,82.71l1.7,1.54c2.67,2.48,5.3,5,8,7.44A2.29,2.29,0,0,1,62.87,94l-.59-.38c-2.94-2.22-5.81-4.47-8.85-6.63a2.29,2.29,0,0,1-1.26-2.2,17.87,17.87,0,0,0,0-2.07Z" />
      <path class="monetizable-59"
        d="M36.61,74.89H33c-1.4-.93-2.93-2.07-4.7-3a2.49,2.49,0,0,1-1.6-2.57c.06-.6,0-1.2,0-1.81l.26-.07,9.79,7.3Z" />
      <path class="monetizable-59"
        d="M62.51,86.08c-.54-.74-1.09-1.49-1.6-2.24-2.75-4-5.45-8.07-8.26-12.08a5.56,5.56,0,0,1-.78-4.15,3.66,3.66,0,0,1,.38.43c2.09,3.37,4.18,6.73,6.25,10.11,1.34,2.17,2.68,4.35,4,6.54a4.34,4.34,0,0,1,.32,1.37Z" />
      <path class="monetizable-59"
        d="M49.05,82.42c-1,.34-2.18-.18-3,.48-.31-.21-.62-.41-.92-.63C43.6,81.18,42,80.11,40.6,79a2.23,2.23,0,0,1-.88-1.31,18,18,0,0,1,0-2.77Z" />
      <path class="monetizable-59"
        d="M20.47,98.4c0,1,0,2,0,2.92,0,.34-.22.48-.81.48-1.74,0-3.47,0-5.2.06-.44,0-.65-.09-.65-.37,0-1,0-2,0-3,0-.13.38-.35.57-.34C16.44,98.17,18.43,98.29,20.47,98.4Z" />
      <path class="monetizable-59"
        d="M33.41,98.49v2.87c0,.23-.16.35-.59.36-1.86,0-3.72,0-5.58.08-.54,0-.76-.1-.74-.44.07-.93.11-1.85.13-2.78,0-.34.28-.41.76-.39l5.25.25Z" />
      <path class="monetizable-59"
        d="M1.08,99.9c0-.48,0-1,0-1.45,0-.32.22-.43.73-.41,1.78.06,3.56.1,5.34.18.17,0,.45.2.46.31,0,.92.06,1.84,0,2.77,0,.12-.36.34-.56.35-1.76.07-3.51.09-5.27.14-.53,0-.7-.12-.69-.43,0-.48,0-1,0-1.46Z" />
      <path class="monetizable-59"
        d="M39.29,132.22a4,4,0,0,1-.06-.47c0-.84,0-1.67.09-2.51a1.09,1.09,0,0,1,.36-.72c2-1.7,4-3.4,6.08-5.09a1.41,1.41,0,0,1,.36-.1c0,.34,0,.63,0,.93s0,.77,1.19.69l-7.79,7.31Z" />
      <path class="monetizable-59"
        d="M46.34,98.62v2.91l-5.91.26c-.63,0-.85-.12-.82-.49q.09-1.32.12-2.64c0-.33.22-.47.78-.43Z" />
      <path class="monetizable-59"
        d="M46,76.59c-.29-.22-.52-.36-.69-.52l-5.85-5.19a.66.66,0,0,1-.23-.37c-.08-1-.13-1.94-.18-2.91,0-.06,0-.11.2-.21l7.36,7.2C45.76,75.19,46.42,75.89,46,76.59Z" />
      <polygon class="monetizable-60"
        points="45.53 54.16 45.53 81.07 68.83 94.52 92.13 81.07 92.13 54.16 68.83 40.71 45.53 54.16" />
    </g>
  </g>
</svg>