<svg xmlns="http://www.w3.org/2000/svg" xmlns:xlink="http://www.w3.org/1999/xlink" viewBox="0 0 136.56 157.57">
  <defs>
    <style>
      .private-1 {
        fill: #683bff;
      }

      .private-2 {
        fill: url(#radial-gradient);
      }

      .private-3 {
        fill: url(#radial-gradient-2);
      }

      .private-4 {
        fill: none;
        stroke: #6a6c72;
        stroke-linejoin: round;
        stroke-width: 0.73px;
      }
    </style>
    <radialGradient id="radial-gradient" cx="51.27" cy="86.79" r="38.77" gradientUnits="userSpaceOnUse">
      <stop offset="0.23" stop-color="#8599ff" />
      <stop offset="1" stop-color="#8599ff" />
    </radialGradient>
    <radialGradient id="radial-gradient-2" cx="31.06" cy="96.65" r="24.29" gradientUnits="userSpaceOnUse">
      <stop offset="0.23" stop-color="#a2f6ff" />
      <stop offset="1" stop-color="#a2f6ff" />
    </radialGradient>
  </defs>
  <g id="Layer_2" data-name="Layer 2">
    <g id="Layer_1-2" data-name="Layer 1">
      <path class="private-1"
        d="M122.06,96.5V57.37a16.7,16.7,0,0,0-8.35-14.46L79.82,23.34a16.7,16.7,0,0,0-16.69,0L29.23,42.91a16.69,16.69,0,0,0-8.34,14.46V96.5A16.72,16.72,0,0,0,29.23,111l33.9,19.56a16.7,16.7,0,0,0,16.69,0L113.71,111A16.73,16.73,0,0,0,122.06,96.5Z" />
      <path class="private-2"
        d="M88.7,96.58V77A20.49,20.49,0,0,0,78.46,59.26L61.51,49.48a20.49,20.49,0,0,0-20.49,0L24.08,59.26A20.5,20.5,0,0,0,13.83,77V96.58a20.49,20.49,0,0,0,10.25,17.74L41,124.11a20.49,20.49,0,0,0,20.49,0l16.95-9.79A20.48,20.48,0,0,0,88.7,96.58Z" />
      <path class="private-3"
        d="M55.35,96.65h0a24.3,24.3,0,0,0-12.14-21h0a24.29,24.29,0,0,0-24.29,0h0a24.29,24.29,0,0,0-12.15,21h0a24.29,24.29,0,0,0,12.15,21h0a24.29,24.29,0,0,0,24.29,0h0A24.3,24.3,0,0,0,55.35,96.65Z" />
      <polygon class="private-4" points="98.87 61.13 136.2 39.58 68.28 0.36 68.28 43.47 98.87 61.13" />
      <polygon class="private-4" points="0.36 39.58 37.69 61.13 68.28 43.47 68.28 0.36 0.36 39.58" />
      <polygon class="private-4" points="136.2 118 98.87 96.45 98.87 61.13 136.2 39.58 136.2 118" />
      <polygon class="private-4" points="0.36 39.58 37.69 61.13 37.69 96.45 0.36 118 0.36 39.58" />
      <polygon class="private-4" points="37.69 96.45 0.36 118 68.28 157.21 68.28 114.11 37.69 96.45" />
      <polygon class="private-4" points="136.2 118 98.87 96.45 68.28 114.11 68.28 157.21 136.2 118" />
    </g>
  </g>
</svg>