<svg xmlns="http://www.w3.org/2000/svg" viewBox="0 0 160.42 154.43">
  <defs>
    <style>
      .resilient-1,
      .resilient-2 {
        fill: none;
        stroke: #6a6c72;
      }

      .resilient-1 {
        stroke-linejoin: round;
        stroke-width: 0.84px;
      }

      .resilient-2 {
        stroke-miterlimit: 10;
        stroke-width: 0.56px;
      }

      .resilient-3 {
        fill: #2d00ff;
      }

      .resilient-4 {
        fill: #683bff;
      }

      .resilient-5 {
        fill: #a2f6ff;
      }

      .resilient-6 {
        fill: #d58eff;
      }

      .resilient-7 {
        fill: #e9b4ff;
      }
    </style>
  </defs>
  <g id="Layer_2" data-name="Layer 2">
    <g id="Layer_3" data-name="Layer 3">
      <polygon class="resilient-1" points="30.89 35.63 91.87 0.42 152.85 35.63 91.87 67.65 30.89 35.63" />
      <polygon class="resilient-1" points="84.72 154.01 23.74 118.8 23.74 48.39 84.72 80.41 84.72 154.01" />
      <polygon class="resilient-1" points="99.02 80.41 160 48.39 160 118.8 99.02 154.01 99.02 80.41" />
      <line class="resilient-2" x1="5.11" y1="123.91" x2="5.11" y2="130.08" />
      <line class="resilient-2" x1="5.11" y1="107.52" x2="5.11" y2="113.69" />
      <line class="resilient-2" x1="22.79" y1="107.52" x2="22.79" y2="113.69" />
      <line class="resilient-2" x1="40.46" y1="123.91" x2="40.46" y2="130.08" />
      <line class="resilient-2" x1="40.46" y1="107.52" x2="40.46" y2="113.69" />
      <line class="resilient-2" x1="58.13" y1="107.52" x2="58.13" y2="113.69" />
      <line class="resilient-2" x1="5.11" y1="91.13" x2="5.11" y2="97.3" />
      <line class="resilient-2" x1="22.79" y1="91.13" x2="22.79" y2="97.3" />
      <line class="resilient-2" x1="40.46" y1="91.13" x2="40.46" y2="97.3" />
      <line class="resilient-2" x1="58.13" y1="91.13" x2="58.13" y2="97.3" />
      <line class="resilient-2" x1="17.68" y1="118.8" x2="10.66" y2="118.8" />
      <line class="resilient-2" x1="35.13" y1="118.8" x2="28.11" y2="118.8" />
      <line class="resilient-2" x1="52.59" y1="118.8" x2="45.57" y2="118.8" />
      <line class="resilient-2" x1="17.68" y1="102.41" x2="10.66" y2="102.41" />
      <line class="resilient-2" x1="17.68" y1="86.02" x2="10.66" y2="86.02" />
      <line class="resilient-2" x1="35.13" y1="102.41" x2="28.11" y2="102.41" />
      <line class="resilient-2" x1="35.13" y1="86.02" x2="28.11" y2="86.02" />
      <line class="resilient-2" x1="52.59" y1="102.41" x2="45.57" y2="102.41" />
      <line class="resilient-2" x1="52.59" y1="86.02" x2="45.57" y2="86.02" />
      <line class="resilient-2" x1="22.79" y1="74.73" x2="22.79" y2="80.91" />
      <line class="resilient-2" x1="58.13" y1="74.73" x2="58.13" y2="80.91" />
      <path class="resilient-3"
        d="M53,73.74V65.51a1,1,0,0,1,1-1h8.23a1,1,0,0,1,1,1v8.23a1,1,0,0,1-1,1H54A1,1,0,0,1,53,73.74Z" />
      <path class="resilient-3"
        d="M53,90.13V81.9a1,1,0,0,1,1-1h8.23a1,1,0,0,1,1,1v8.23a1,1,0,0,1-1,1H54A1,1,0,0,1,53,90.13Z" />
      <path class="resilient-4"
        d="M53,106.52V98.29a1,1,0,0,1,1-1h8.23a1,1,0,0,1,1,1v8.23a1,1,0,0,1-1,1H54A1,1,0,0,1,53,106.52Z" />
      <path class="resilient-5"
        d="M53,122.92v-8.23a1,1,0,0,1,1-1h8.23a1,1,0,0,1,1,1v8.23a1,1,0,0,1-1,1H54A1,1,0,0,1,53,122.92Z" />
      <path class="resilient-4"
        d="M35.35,90.13V81.9a1,1,0,0,1,1-1h8.24a1,1,0,0,1,1,1v8.23a1,1,0,0,1-1,1H36.34A1,1,0,0,1,35.35,90.13Z" />
      <path class="resilient-4"
        d="M35.35,106.52V98.29a1,1,0,0,1,1-1h8.24a1,1,0,0,1,1,1v8.23a1,1,0,0,1-1,1H36.34A1,1,0,0,1,35.35,106.52Z" />
      <path class="resilient-5"
        d="M35.35,122.92v-8.23a1,1,0,0,1,1-1h8.24a1,1,0,0,1,1,1v8.23a1,1,0,0,1-1,1H36.34A1,1,0,0,1,35.35,122.92Z" />
      <path class="resilient-5"
        d="M35.35,139.31v-8.23a1,1,0,0,1,1-1h8.24a1,1,0,0,1,1,1v8.23a1,1,0,0,1-1,1H36.34A1,1,0,0,1,35.35,139.31Z" />
      <path class="resilient-4"
        d="M17.68,73.74V65.51a1,1,0,0,1,1-1H26.9a1,1,0,0,1,1,1v8.23a1,1,0,0,1-1,1H18.67A1,1,0,0,1,17.68,73.74Z" />
      <path class="resilient-4"
        d="M17.68,90.13V81.9a1,1,0,0,1,1-1H26.9a1,1,0,0,1,1,1v8.23a1,1,0,0,1-1,1H18.67A1,1,0,0,1,17.68,90.13Z" />
      <path class="resilient-6"
        d="M17.68,106.52V98.29a1,1,0,0,1,1-1H26.9a1,1,0,0,1,1,1v8.23a1,1,0,0,1-1,1H18.67A1,1,0,0,1,17.68,106.52Z" />
      <path class="resilient-7"
        d="M17.68,122.92v-8.23a1,1,0,0,1,1-1H26.9a1,1,0,0,1,1,1v8.23a1,1,0,0,1-1,1H18.67A1,1,0,0,1,17.68,122.92Z" />
      <path class="resilient-6" d="M0,90.13V81.9a1,1,0,0,1,1-1H9.23a1,1,0,0,1,1,1v8.23a1,1,0,0,1-1,1H1A1,1,0,0,1,0,90.13Z" />
      <path class="resilient-6"
        d="M0,106.52V98.29a1,1,0,0,1,1-1H9.23a1,1,0,0,1,1,1v8.23a1,1,0,0,1-1,1H1A1,1,0,0,1,0,106.52Z" />
      <path class="resilient-7"
        d="M0,122.92v-8.23a1,1,0,0,1,1-1H9.23a1,1,0,0,1,1,1v8.23a1,1,0,0,1-1,1H1A1,1,0,0,1,0,122.92Z" />
      <path class="resilient-7"
        d="M0,139.31v-8.23a1,1,0,0,1,1-1H9.23a1,1,0,0,1,1,1v8.23a1,1,0,0,1-1,1H1A1,1,0,0,1,0,139.31Z" />
    </g>
  </g>
</svg>