<svg xmlns="http://www.w3.org/2000/svg" xmlns:xlink="http://www.w3.org/1999/xlink" viewBox="0 0 227.84 183.77"><defs><style>.robust-1{fill:url(#Indigo_320);}.robust-2{fill:url(#Indigo_328);}.robust-3{fill:url(#Indigo_320-2);}.robust-4{fill:url(#Indigo_320-3);}.robust-5{fill:url(#linear-gradient);}.robust-6{fill:#cffaff;stroke:#3b00ff;stroke-miterlimit:10;stroke-width:0.46px;}.robust-6,.robust-9{opacity:0.8;}.robust-7{fill:url(#Indigo_319);}.robust-8,.robust-9{fill:#3b00ff;}.robust-8{opacity:0.5;}.robust-10{fill:#cffaff;}.robust-11,.robust-12,.robust-13,.robust-14,.robust-15,.robust-16,.robust-17,.robust-18,.robust-19,.robust-20,.robust-21,.robust-22,.robust-23,.robust-24,.robust-25,.robust-26,.robust-27,.robust-28,.robust-29,.robust-30,.robust-31,.robust-32,.robust-33,.robust-34,.robust-35,.robust-36,.robust-37,.robust-38,.robust-39,.robust-40,.robust-41,.robust-42,.robust-43,.robust-44,.robust-45,.robust-46,.robust-47,.robust-48,.robust-49,.robust-50,.robust-51,.robust-52,.robust-53,.robust-54,.robust-55,.robust-56,.robust-57,.robust-58,.robust-59,.robust-60,.robust-61,.robust-62,.robust-63,.robust-64,.robust-65,.robust-66,.robust-67,.robust-68,.robust-69,.robust-70{fill:none;stroke-linecap:square;stroke-linejoin:round;stroke-width:2.29px;}.robust-11{stroke:url(#Indigo_203);}.robust-12,.robust-15,.robust-18,.robust-21,.robust-24,.robust-27,.robust-30,.robust-33,.robust-36,.robust-39,.robust-42,.robust-45,.robust-48,.robust-51,.robust-54,.robust-57,.robust-60,.robust-63,.robust-66,.robust-69{stroke-dasharray:0.02 10.04;}.robust-12{stroke:url(#Indigo_203-2);}.robust-13{stroke:url(#Indigo_203-3);}.robust-14{stroke:url(#Indigo_203-4);}.robust-15{stroke:url(#Indigo_203-5);}.robust-16{stroke:url(#Indigo_203-6);}.robust-17{stroke:url(#Indigo_203-7);}.robust-18{stroke:url(#Indigo_203-8);}.robust-19{stroke:url(#Indigo_203-9);}.robust-20{stroke:url(#Indigo_203-10);}.robust-21{stroke:url(#Indigo_203-11);}.robust-22{stroke:url(#Indigo_203-12);}.robust-23{stroke:url(#Indigo_203-13);}.robust-24{stroke:url(#Indigo_203-14);}.robust-25{stroke:url(#Indigo_203-15);}.robust-26{stroke:url(#Indigo_203-16);}.robust-27{stroke:url(#Indigo_203-17);}.robust-28{stroke:url(#Indigo_203-18);}.robust-29{stroke:url(#Indigo_203-19);}.robust-30{stroke:url(#Indigo_203-20);}.robust-31{stroke:url(#Indigo_203-21);}.robust-32{stroke:url(#Indigo_203-22);}.robust-33{stroke:url(#Indigo_203-23);}.robust-34{stroke:url(#Indigo_203-24);}.robust-35{stroke:url(#Indigo_203-25);}.robust-36{stroke:url(#Indigo_203-26);}.robust-37{stroke:url(#Indigo_203-27);}.robust-38{stroke:url(#Indigo_203-28);}.robust-39{stroke:url(#Indigo_203-29);}.robust-40{stroke:url(#Indigo_203-30);}.robust-41,.robust-42{stroke:url(#Indigo_203-31);}.robust-43{stroke:url(#Indigo_203-33);}.robust-44,.robust-45{stroke:url(#Indigo_203-34);}.robust-46{stroke:url(#Indigo_203-36);}.robust-47,.robust-48{stroke:url(#Indigo_203-37);}.robust-49{stroke:url(#Indigo_203-39);}.robust-50,.robust-51{stroke:url(#Indigo_203-40);}.robust-52{stroke:url(#Indigo_203-42);}.robust-53,.robust-54{stroke:url(#Indigo_203-43);}.robust-55{stroke:url(#Indigo_203-45);}.robust-56,.robust-57{stroke:url(#Indigo_203-46);}.robust-58{stroke:url(#Indigo_203-48);}.robust-59,.robust-60{stroke:url(#Indigo_203-49);}.robust-61{stroke:url(#Indigo_203-51);}.robust-62,.robust-63{stroke:url(#Indigo_203-52);}.robust-64{stroke:url(#Indigo_203-54);}.robust-65,.robust-66{stroke:url(#Indigo_203-55);}.robust-67{stroke:url(#Indigo_203-57);}.robust-68,.robust-69{stroke:url(#Indigo_203-58);}.robust-70{stroke:url(#Indigo_203-60);}</style><linearGradient id="Indigo_320" x1="0.39" y1="91.56" x2="191.87" y2="91.56" gradientUnits="userSpaceOnUse"><stop offset="0" stop-color="#6c40ff"/><stop offset="0.5" stop-color="#cffaff"/><stop offset="1" stop-color="#b6a1ff"/></linearGradient><linearGradient id="Indigo_328" x1="36.37" y1="91.56" x2="227.84" y2="91.56" gradientUnits="userSpaceOnUse"><stop offset="0" stop-color="#3b00ff"/><stop offset="0.5" stop-color="#b6a1ff"/><stop offset="1" stop-color="#cffaff"/></linearGradient><linearGradient id="Indigo_320-2" x1="66.95" y1="62.93" x2="161.29" y2="62.93" xlink:href="#Indigo_320"/><linearGradient id="Indigo_320-3" x1="66.95" y1="121.82" x2="161.29" y2="121.82" xlink:href="#Indigo_320"/><linearGradient id="linear-gradient" x1="36.37" y1="164.5" x2="227.84" y2="164.5" gradientUnits="userSpaceOnUse"><stop offset="0.12" stop-color="#3b00ff"/><stop offset="0.49" stop-color="#d58eff"/><stop offset="1" stop-color="#cffaff"/></linearGradient><linearGradient id="Indigo_319" x1="0.39" y1="18.62" x2="191.87" y2="18.62" gradientUnits="userSpaceOnUse"><stop offset="0" stop-color="#b6a1ff"/><stop offset="0.5" stop-color="#e9b4ff"/><stop offset="1" stop-color="#e9b4ff"/></linearGradient><linearGradient id="Indigo_203" x1="94.01" y1="92.73" x2="94.01" y2="90.44" gradientUnits="userSpaceOnUse"><stop offset="0" stop-color="#683bff"/><stop offset="0.5" stop-color="#e9b4ff"/><stop offset="1" stop-color="#f0d7ff"/></linearGradient><linearGradient id="Indigo_203-2" x1="116.63" y1="92.73" x2="116.63" y2="90.44" xlink:href="#Indigo_203"/><linearGradient id="Indigo_203-3" x1="134.22" y1="92.73" x2="134.22" y2="90.44" xlink:href="#Indigo_203"/><linearGradient id="Indigo_203-4" x1="94.01" y1="102.71" x2="94.01" y2="100.41" xlink:href="#Indigo_203"/><linearGradient id="Indigo_203-5" x1="116.63" y1="102.71" x2="116.63" y2="100.41" xlink:href="#Indigo_203"/><linearGradient id="Indigo_203-6" x1="134.22" y1="102.71" x2="134.22" y2="100.41" xlink:href="#Indigo_203"/><linearGradient id="Indigo_203-7" x1="94.01" y1="112.68" x2="94.01" y2="110.38" xlink:href="#Indigo_203"/><linearGradient id="Indigo_203-8" x1="116.63" y1="112.68" x2="116.63" y2="110.38" xlink:href="#Indigo_203"/><linearGradient id="Indigo_203-9" x1="134.22" y1="112.68" x2="134.22" y2="110.38" xlink:href="#Indigo_203"/><linearGradient id="Indigo_203-10" x1="94.01" y1="122.65" x2="94.01" y2="120.36" xlink:href="#Indigo_203"/><linearGradient id="Indigo_203-11" x1="116.63" y1="122.65" x2="116.63" y2="120.36" xlink:href="#Indigo_203"/><linearGradient id="Indigo_203-12" x1="134.22" y1="122.65" x2="134.22" y2="120.36" xlink:href="#Indigo_203"/><linearGradient id="Indigo_203-13" x1="94.01" y1="132.62" x2="94.01" y2="130.33" xlink:href="#Indigo_203"/><linearGradient id="Indigo_203-14" x1="116.63" y1="132.62" x2="116.63" y2="130.33" xlink:href="#Indigo_203"/><linearGradient id="Indigo_203-15" x1="134.22" y1="132.62" x2="134.22" y2="130.33" xlink:href="#Indigo_203"/><linearGradient id="Indigo_203-16" x1="134.22" y1="92.68" x2="134.22" y2="90.39" xlink:href="#Indigo_203"/><linearGradient id="Indigo_203-17" x1="111.61" y1="92.68" x2="111.61" y2="90.39" xlink:href="#Indigo_203"/><linearGradient id="Indigo_203-18" x1="94.01" y1="92.68" x2="94.01" y2="90.39" xlink:href="#Indigo_203"/><linearGradient id="Indigo_203-19" x1="134.22" y1="82.71" x2="134.22" y2="80.42" xlink:href="#Indigo_203"/><linearGradient id="Indigo_203-20" x1="111.61" y1="82.71" x2="111.61" y2="80.42" xlink:href="#Indigo_203"/><linearGradient id="Indigo_203-21" x1="94.01" y1="82.71" x2="94.01" y2="80.42" xlink:href="#Indigo_203"/><linearGradient id="Indigo_203-22" x1="134.22" y1="72.74" x2="134.22" y2="70.45" xlink:href="#Indigo_203"/><linearGradient id="Indigo_203-23" x1="111.61" y1="72.74" x2="111.61" y2="70.45" xlink:href="#Indigo_203"/><linearGradient id="Indigo_203-24" x1="94.01" y1="72.74" x2="94.01" y2="70.45" xlink:href="#Indigo_203"/><linearGradient id="Indigo_203-25" x1="134.22" y1="62.77" x2="134.22" y2="60.47" xlink:href="#Indigo_203"/><linearGradient id="Indigo_203-26" x1="111.61" y1="62.77" x2="111.61" y2="60.47" xlink:href="#Indigo_203"/><linearGradient id="Indigo_203-27" x1="94.01" y1="62.77" x2="94.01" y2="60.47" xlink:href="#Indigo_203"/><linearGradient id="Indigo_203-28" x1="134.22" y1="52.8" x2="134.22" y2="50.5" xlink:href="#Indigo_203"/><linearGradient id="Indigo_203-29" x1="111.61" y1="52.8" x2="111.61" y2="50.5" xlink:href="#Indigo_203"/><linearGradient id="Indigo_203-30" x1="94.01" y1="52.8" x2="94.01" y2="50.5" xlink:href="#Indigo_203"/><linearGradient id="Indigo_203-31" x1="114.09" y1="112.82" x2="114.09" y2="70.31" xlink:href="#Indigo_203"/><linearGradient id="Indigo_203-33" x1="114.09" y1="112.82" x2="114.09" y2="70.31" xlink:href="#Indigo_203"/><linearGradient id="Indigo_203-34" x1="104.12" y1="112.82" x2="104.12" y2="70.31" xlink:href="#Indigo_203"/><linearGradient id="Indigo_203-36" x1="104.12" y1="112.82" x2="104.12" y2="70.31" xlink:href="#Indigo_203"/><linearGradient id="Indigo_203-37" x1="94.15" y1="112.82" x2="94.15" y2="70.31" xlink:href="#Indigo_203"/><linearGradient id="Indigo_203-39" x1="94.15" y1="112.82" x2="94.15" y2="70.31" xlink:href="#Indigo_203"/><linearGradient id="Indigo_203-40" x1="84.18" y1="112.82" x2="84.18" y2="70.31" xlink:href="#Indigo_203"/><linearGradient id="Indigo_203-42" x1="84.18" y1="112.82" x2="84.18" y2="70.31" xlink:href="#Indigo_203"/><linearGradient id="Indigo_203-43" x1="74.21" y1="112.82" x2="74.21" y2="70.31" xlink:href="#Indigo_203"/><linearGradient id="Indigo_203-45" x1="74.21" y1="112.82" x2="74.21" y2="70.31" xlink:href="#Indigo_203"/><linearGradient id="Indigo_203-46" x1="154.03" y1="112.82" x2="154.03" y2="70.31" xlink:href="#Indigo_203"/><linearGradient id="Indigo_203-48" x1="154.03" y1="112.82" x2="154.03" y2="70.31" xlink:href="#Indigo_203"/><linearGradient id="Indigo_203-49" x1="144.06" y1="112.82" x2="144.06" y2="70.31" xlink:href="#Indigo_203"/><linearGradient id="Indigo_203-51" x1="144.06" y1="112.82" x2="144.06" y2="70.31" xlink:href="#Indigo_203"/><linearGradient id="Indigo_203-52" x1="134.09" y1="112.82" x2="134.09" y2="70.31" xlink:href="#Indigo_203"/><linearGradient id="Indigo_203-54" x1="134.09" y1="112.82" x2="134.09" y2="70.31" xlink:href="#Indigo_203"/><linearGradient id="Indigo_203-55" x1="124.12" y1="112.82" x2="124.12" y2="70.31" xlink:href="#Indigo_203"/><linearGradient id="Indigo_203-57" x1="124.12" y1="112.82" x2="124.12" y2="70.31" xlink:href="#Indigo_203"/><linearGradient id="Indigo_203-58" x1="114.14" y1="112.82" x2="114.14" y2="70.31" xlink:href="#Indigo_203"/><linearGradient id="Indigo_203-60" x1="114.14" y1="112.82" x2="114.14" y2="70.31" xlink:href="#Indigo_203"/></defs><g id="Layer_2" data-name="Layer 2"><g id="Layer_1-2" data-name="Layer 1"><polyline class="robust-1" points="36.37 183.12 0.39 147.52 0.39 0 191.87 0 191.87 145.89 66.95 145.89 66.95 62.92 36.27 37.33"/><polyline class="robust-2" points="191.87 0 227.84 30.52 227.84 183.12 36.37 183.12 36.37 37.24 161.29 37.24 161.29 120.59 191.77 145.99"/><line class="robust-3" x1="66.95" y1="62.93" x2="161.29" y2="62.93"/><line class="robust-4" x1="66.95" y1="121.82" x2="161.29" y2="121.82"/><polygon class="robust-5" points="227.84 183.12 181.44 146.72 66.95 145.89 36.37 183.12 227.84 183.12"/><polygon class="robust-6" points="0.39 147.52 47.01 123.88 67.52 145.19 36.37 183.12 0.39 147.52"/><polygon class="robust-6" points="36.27 37.33 66.95 62.92 67.52 145.19 36.37 183.12 36.27 37.33"/><polygon class="robust-7" points="0.39 0 46.8 36.4 161.29 37.24 191.87 0 0.39 0"/><polygon class="robust-8" points="227.84 28.92 181.44 54.41 161.29 37.93 192.44 0 227.84 28.92"/><polygon class="robust-9" points="192.53 145.79 161.85 120.2 161.29 37.93 192.44 0 192.53 145.79"/><rect class="robust-10" x="67.33" y="62.93" width="93.95" height="53.74"/><line class="robust-11" x1="94.01" y1="91.59" x2="94.02" y2="91.59"/><line class="robust-12" x1="104.05" y1="91.59" x2="129.2" y2="91.59"/><line class="robust-13" x1="134.22" y1="91.59" x2="134.23" y2="91.59"/><line class="robust-14" x1="94.01" y1="101.56" x2="94.02" y2="101.56"/><line class="robust-15" x1="104.05" y1="101.56" x2="129.2" y2="101.56"/><line class="robust-16" x1="134.22" y1="101.56" x2="134.23" y2="101.56"/><line class="robust-17" x1="94.01" y1="111.53" x2="94.02" y2="111.53"/><line class="robust-18" x1="104.05" y1="111.53" x2="129.2" y2="111.53"/><line class="robust-19" x1="134.22" y1="111.53" x2="134.23" y2="111.53"/><line class="robust-20" x1="94.01" y1="121.5" x2="94.02" y2="121.5"/><line class="robust-21" x1="104.05" y1="121.5" x2="129.2" y2="121.5"/><line class="robust-22" x1="134.22" y1="121.5" x2="134.23" y2="121.5"/><line class="robust-23" x1="94.01" y1="131.47" x2="94.02" y2="131.47"/><line class="robust-24" x1="104.05" y1="131.47" x2="129.2" y2="131.47"/><line class="robust-25" x1="134.22" y1="131.47" x2="134.23" y2="131.47"/><line class="robust-26" x1="134.23" y1="91.54" x2="134.22" y2="91.54"/><line class="robust-27" x1="124.18" y1="91.54" x2="99.04" y2="91.54"/><line class="robust-28" x1="94.02" y1="91.54" x2="94.01" y2="91.54"/><line class="robust-29" x1="134.23" y1="81.56" x2="134.22" y2="81.56"/><line class="robust-30" x1="124.18" y1="81.56" x2="99.04" y2="81.56"/><line class="robust-31" x1="94.02" y1="81.56" x2="94.01" y2="81.56"/><line class="robust-32" x1="134.23" y1="71.59" x2="134.22" y2="71.59"/><line class="robust-33" x1="124.18" y1="71.59" x2="99.04" y2="71.59"/><line class="robust-34" x1="94.02" y1="71.59" x2="94.01" y2="71.59"/><line class="robust-35" x1="134.23" y1="61.62" x2="134.22" y2="61.62"/><line class="robust-36" x1="124.18" y1="61.62" x2="99.04" y2="61.62"/><line class="robust-37" x1="94.02" y1="61.62" x2="94.01" y2="61.62"/><line class="robust-38" x1="134.23" y1="51.65" x2="134.22" y2="51.65"/><line class="robust-39" x1="124.18" y1="51.65" x2="99.04" y2="51.65"/><line class="robust-40" x1="94.02" y1="51.65" x2="94.01" y2="51.65"/><line class="robust-41" x1="114.09" y1="71.45" x2="114.09" y2="71.46"/><line class="robust-42" x1="114.09" y1="81.5" x2="114.09" y2="106.64"/><line class="robust-43" x1="114.09" y1="111.66" x2="114.09" y2="111.67"/><line class="robust-44" x1="104.12" y1="71.45" x2="104.12" y2="71.46"/><line class="robust-45" x1="104.12" y1="81.5" x2="104.12" y2="106.64"/><line class="robust-46" x1="104.12" y1="111.66" x2="104.12" y2="111.67"/><line class="robust-47" x1="94.15" y1="71.45" x2="94.15" y2="71.46"/><line class="robust-48" x1="94.15" y1="81.5" x2="94.15" y2="106.64"/><line class="robust-49" x1="94.15" y1="111.66" x2="94.15" y2="111.67"/><line class="robust-50" x1="84.18" y1="71.45" x2="84.18" y2="71.46"/><line class="robust-51" x1="84.18" y1="81.5" x2="84.18" y2="106.64"/><line class="robust-52" x1="84.18" y1="111.66" x2="84.18" y2="111.67"/><line class="robust-53" x1="74.21" y1="71.45" x2="74.21" y2="71.46"/><line class="robust-54" x1="74.21" y1="81.5" x2="74.21" y2="106.64"/><line class="robust-55" x1="74.21" y1="111.66" x2="74.21" y2="111.67"/><line class="robust-56" x1="154.03" y1="71.45" x2="154.03" y2="71.46"/><line class="robust-57" x1="154.03" y1="81.5" x2="154.03" y2="106.64"/><line class="robust-58" x1="154.03" y1="111.66" x2="154.03" y2="111.67"/><line class="robust-59" x1="144.06" y1="71.45" x2="144.06" y2="71.46"/><line class="robust-60" x1="144.06" y1="81.5" x2="144.06" y2="106.64"/><line class="robust-61" x1="144.06" y1="111.66" x2="144.06" y2="111.67"/><line class="robust-62" x1="134.09" y1="71.45" x2="134.09" y2="71.46"/><line class="robust-63" x1="134.09" y1="81.5" x2="134.09" y2="106.64"/><line class="robust-64" x1="134.09" y1="111.66" x2="134.09" y2="111.67"/><line class="robust-65" x1="124.12" y1="71.45" x2="124.12" y2="71.46"/><line class="robust-66" x1="124.12" y1="81.5" x2="124.12" y2="106.64"/><line class="robust-67" x1="124.12" y1="111.66" x2="124.12" y2="111.67"/><line class="robust-68" x1="114.14" y1="71.45" x2="114.14" y2="71.46"/><line class="robust-69" x1="114.14" y1="81.5" x2="114.14" y2="106.64"/><line class="robust-70" x1="114.14" y1="111.66" x2="114.14" y2="111.67"/></g></g></svg>