<svg xmlns="http://www.w3.org/2000/svg" viewBox="0 0 145.83 157.9">
  <defs>
    <style>
      .scalable-1 {
        fill: none;
        stroke: #6a6c72;
        stroke-miterlimit: 10;
        stroke-width: 0.74px;
      }

      .scalable-2 {
        fill: #8ff6ff;
      }

      .scalable-3 {
        fill: #ccfbff;
      }

      .scalable-4 {
        fill: #3defff;
      }

      .scalable-5 {
        fill: #d58eff;
      }

      .scalable-6 {
        fill: #e5baff;
      }

      .scalable-7 {
        fill: #b942ff;
      }

      .scalable-8 {
        fill: #a8a8ff;
      }

      .scalable-9 {
        fill: #d1d1ff;
      }

      .scalable-10 {
        fill: #7a7aff;
      }
    </style>
  </defs>
  <g id="Layer_2" data-name="Layer 2">
    <g id="Layer_3" data-name="Layer 3">
      <polygon class="scalable-1" points="45.72 13.52 45.72 39.7 68.4 52.8 91.08 39.7 91.08 13.52 68.4 0.43 45.72 13.52" />
      <polygon class="scalable-1" points="23.05 26.61 23.05 52.8 45.73 65.89 68.4 52.8 68.4 26.61 45.73 13.52 23.05 26.61" />
      <polygon class="scalable-1" points="23.05 52.8 23.05 78.98 45.72 92.08 68.4 78.98 68.4 52.8 45.72 39.71 23.05 52.8" />
      <polygon class="scalable-1"
        points="113.75 78.98 113.75 52.8 91.07 39.71 68.4 52.8 68.4 78.98 91.07 92.08 113.75 78.98" />
      <polygon class="scalable-1"
        points="113.75 52.8 113.75 26.61 91.08 13.52 68.4 26.61 68.4 52.8 91.08 65.89 113.75 52.8" />
      <polygon class="scalable-1" points="0.37 39.7 0.37 65.89 23.05 78.98 45.72 65.89 45.72 39.7 23.05 26.61 0.37 39.7" />
      <polygon class="scalable-1"
        points="0.37 65.89 0.37 92.08 23.05 105.17 45.72 92.08 45.72 65.89 23.05 52.8 0.37 65.89" />
      <polygon class="scalable-1"
        points="68.4 105.17 68.4 78.98 45.72 65.89 23.05 78.98 23.05 105.17 45.72 118.26 68.4 105.17" />
      <polygon class="scalable-1" points="91.07 65.89 91.07 39.7 68.4 26.61 45.72 39.7 45.72 65.89 68.4 78.98 91.07 65.89" />
      <polygon class="scalable-1"
        points="0.37 92.18 0.37 118.37 23.05 131.46 45.72 118.37 45.72 92.18 23.05 79.09 0.37 92.18" />
      <polygon class="scalable-1"
        points="68.4 131.46 68.4 105.27 45.72 92.18 23.05 105.27 23.05 131.46 45.72 144.55 68.4 131.46" />
      <polygon class="scalable-1"
        points="91.07 118.37 91.07 92.18 68.4 79.09 45.72 92.18 45.72 118.37 68.4 131.46 91.07 118.37" />
      <polygon class="scalable-1"
        points="91.08 144.38 91.08 118.19 68.4 105.1 45.72 118.19 45.72 144.38 68.4 157.47 91.08 144.38" />
      <polygon class="scalable-1"
        points="113.75 131.29 113.75 105.1 91.07 92.01 68.4 105.1 68.4 131.29 91.07 144.38 113.75 131.29" />
      <polygon class="scalable-1"
        points="113.75 105.1 113.75 78.92 91.08 65.82 68.4 78.92 68.4 105.1 91.08 118.19 113.75 105.1" />
      <polygon class="scalable-1"
        points="136.42 118.26 136.42 92.08 113.75 78.99 91.07 92.08 91.07 118.26 113.75 131.35 136.42 118.26" />
      <polygon class="scalable-1"
        points="136.43 92.01 136.43 65.83 113.75 52.73 91.07 65.83 91.07 92.01 113.75 105.1 136.43 92.01" />
      <polygon class="scalable-1"
        points="136.43 65.82 136.43 39.64 113.75 26.55 91.08 39.64 91.08 65.82 113.75 78.92 136.43 65.82" />
      <polygon class="scalable-2" points="145.82 100.93 135.33 94.62 124.83 100.93 135.33 106.67 145.82 100.93" />
      <polygon class="scalable-3" points="135.33 133.68 145.82 127.37 145.82 100.93 135.33 106.67 135.33 133.68" />
      <polygon class="scalable-4" points="135.33 106.67 124.83 100.93 124.83 127.37 135.33 133.68 135.33 106.67" />
      <polygon class="scalable-5" points="135.33 116.45 124.83 110.13 114.34 116.45 124.83 122.19 135.33 116.45" />
      <polygon class="scalable-6" points="124.83 139.99 135.33 133.68 135.33 116.45 124.83 122.19 124.83 139.99" />
      <polygon class="scalable-7" points="124.83 122.19 114.34 116.45 114.34 133.68 124.83 139.99 124.83 122.19" />
      <polygon class="scalable-8" points="124.83 127.36 114.34 121.05 103.84 127.36 114.34 133.1 124.83 127.36" />
      <polygon class="scalable-9" points="114.34 146.3 124.83 139.99 124.83 127.36 114.34 133.1 114.34 146.3" />
      <polygon class="scalable-10" points="114.34 133.1 103.84 127.36 103.84 139.99 114.34 146.3 114.34 133.1" />
    </g>
  </g>
</svg>