<svg xmlns="http://www.w3.org/2000/svg" viewBox="0 0 174.24 120.29">
  <defs>
    <style>
      .secure-1,
      .secure-2,
      .secure-3 {
        fill: none;
      }

      .secure-2,
      .secure-3 {
        stroke: #000;
        stroke-linecap: round;
        stroke-linejoin: round;
      }

      .secure-2 {
        stroke-width: 0;
      }

      .secure-3 {
        stroke-width: 0.75px;
      }

      .secure-4 {
        fill: #a2f6ff;
      }

      .secure-5 {
        fill: #687bff;
      }

      .secure-6 {
        fill: #2d00ff;
      }
    </style>
  </defs>
  <g id="Layer_2" data-name="Layer 2">
    <g id="Layer_1-2" data-name="Layer 1">
      <path class="secure-1"
        d="M167.16,112.53a1.79,1.79,0,1,0-2.73,1.5l-.63,2.73h3.14l-.62-2.73A1.77,1.77,0,0,0,167.16,112.53Z" />
      <path class="secure-1"
        d="M171.88,107.21v-4.49a3.09,3.09,0,0,0-.58-1.88,1.7,1.7,0,0,0-1.37-.69h-9.28a1.7,1.7,0,0,0-1.37.69,3.09,3.09,0,0,0-.58,1.88v4.49Z" />
      <path
        d="M173.23,107.27v-4.55a4.39,4.39,0,0,0-.86-2.71,3,3,0,0,0-2.44-1.21h-9.28a3,3,0,0,0-2.44,1.21,4.39,4.39,0,0,0-.86,2.71v4.6a1.4,1.4,0,0,0-.84,1.27v10.32a1.38,1.38,0,0,0,1.38,1.38h15a1.38,1.38,0,0,0,1.38-1.38V108.59A1.37,1.37,0,0,0,173.23,107.27Zm-13.95-6.43a1.7,1.7,0,0,1,1.37-.69h9.28a1.7,1.7,0,0,1,1.37.69,3.09,3.09,0,0,1,.58,1.88v4.49H158.7v-4.49A3.09,3.09,0,0,1,159.28,100.84Zm7.66,15.92H163.8l.63-2.73a1.79,1.79,0,1,1,1.89,0Zm6.29-9.23Z" />
      <line class="secure-2" x1="173.23" y1="107.53" x2="173.23" y2="107.53" />
      <polyline class="secure-3"
        points="23.84 119.83 0.38 96.6 0.38 0.38 125.28 0.38 125.28 95.53 43.79 95.53 43.79 41.42 23.78 24.73" />
      <polyline class="secure-3"
        points="125.28 0.38 148.74 20.28 148.74 119.83 23.84 119.83 23.84 24.66 105.33 24.66 105.33 79.04 125.21 95.6" />
      <line class="secure-3" x1="43.79" y1="41.42" x2="105.33" y2="41.42" />
      <line class="secure-3" x1="43.79" y1="79.84" x2="105.33" y2="79.84" />
      <path class="secure-4"
        d="M72.92,21.11A11.46,11.46,0,1,1,61.46,32.57,11.45,11.45,0,0,1,72.92,21.11Zm0,31.5q-10,0-20.05,9.38h0V87H93V62Q82.94,52.62,72.92,52.61Z" />
      <path class="secure-5"
        d="M84.12,43.75a8.37,8.37,0,1,1-8.37,8.37A8.37,8.37,0,0,1,84.12,43.75ZM97.21,91.88H70.94c-.84,0-1.52-4.76-1.52-5.59V76.56c0-.44.2-3.13.54-3.41q7-6.37,14.11-6.38h.15q7,0,14,6.38c.34.28.54,3,.54,3.42v9.7c0,.84-.68,5.61-1.52,5.61" />
      <path class="secure-6" d="M95.32,66.39A5.29,5.29,0,1,1,90,71.68,5.28,5.28,0,0,1,95.32,66.39Z" />
      <path class="secure-6"
        d="M101.45,96.79H89a3,3,0,0,1-3-3V86.62a3,3,0,0,1,1.07-2.31,12.81,12.81,0,0,1,8.18-3.38h.09a12.85,12.85,0,0,1,8.18,3.38,3,3,0,0,1,1.07,2.31v7.14a3,3,0,0,1-3,3" />
    </g>
  </g>
</svg>