<svg xmlns="http://www.w3.org/2000/svg" xmlns:xlink="http://www.w3.org/1999/xlink" viewBox="0 0 240.92 230.19"><defs><style>.trustless-1{fill:url(#Indigo_172);}.trustless-2{fill:none;}.trustless-3{fill:#2d00ff;}.trustless-4{fill:#906dff;}</style><linearGradient id="Indigo_172" x1="87.99" y1="112.6" x2="195.78" y2="112.6" gradientUnits="userSpaceOnUse"><stop offset="0" stop-color="#683bff"/><stop offset="0.5" stop-color="#b5a0ff"/><stop offset="1" stop-color="#b5a0ff"/></linearGradient></defs><g id="Layer_2" data-name="Layer 2"><g id="Layer_1-2" data-name="Layer 1"><path class="trustless-1" d="M88,225.2,174.34,0h21.44l-87,225.2Z"/><polygon class="trustless-2" points="193.98 106.78 193.98 101.79 188.23 106.78 193.98 106.78"/><polygon class="trustless-2" points="200.68 114.3 200.68 119.37 206.52 114.3 200.68 114.3"/><polygon class="trustless-2" points="227.41 106.78 227.41 101.71 221.57 106.78 227.41 106.78"/><polygon class="trustless-2" points="200.68 107.55 200.68 113.73 206.92 113.73 206.92 101.79 200.68 107.19 200.68 107.55"/><polygon class="trustless-2" points="200.68 146.72 200.68 151.79 206.53 146.72 200.68 146.72"/><polygon class="trustless-2" points="193.98 139.2 193.98 134.21 188.23 139.2 193.98 139.2"/><polygon class="trustless-2" points="200.29 106.78 206.53 101.37 194.65 101.37 194.65 106.78 200.29 106.78"/><polygon class="trustless-2" points="200.05 78.33 200.2 78.33 206.44 72.92 194.56 72.92 194.56 78.33 200.05 78.33"/><polygon class="trustless-2" points="200.59 85.86 200.59 90.92 206.44 85.86 200.59 85.86"/><polygon class="trustless-2" points="193.98 78.33 193.98 73.26 188.14 78.33 193.98 78.33"/><polygon class="trustless-2" points="200.68 146.15 206.92 146.15 206.92 134.21 200.68 139.62 200.68 146.15"/><polygon class="trustless-2" points="234.02 113.73 240.34 113.73 240.34 101.71 234.02 107.19 234.02 113.73"/><polygon class="trustless-2" points="200.59 78.75 200.59 85.27 206.92 85.27 206.92 73.26 200.59 78.75"/><rect class="trustless-2" x="227.99" y="101.37" width="5.21" height="5.41"/><polygon class="trustless-2" points="234.02 85.56 234.02 85.56 234.02 85.56 234.02 86.02 240.34 86.02 240.34 74 234.02 79.48 234.02 85.56"/><polygon class="trustless-2" points="227.41 79.07 227.41 74 221.57 79.07 227.41 79.07"/><polygon class="trustless-2" points="239.86 101.37 233.77 101.37 233.77 106.65 239.86 101.37"/><polygon class="trustless-2" points="234.02 114.3 234.02 119.37 239.86 114.3 234.02 114.3"/><polygon class="trustless-2" points="233.48 79.07 233.63 79.07 239.86 73.66 227.99 73.66 227.99 79.07 233.48 79.07"/><polygon class="trustless-2" points="234.02 86.59 234.02 91.66 239.86 86.59 234.02 86.59"/><path class="trustless-2" d="M220.55,120.77l-.2-.09-.09-.2V114.3H207.4l-6.72,5.83v.35l-.08.2-.2.09h-5.75v12.45H207.2l.05,0a.27.27,0,0,1,.24.46v12.45h12.77v-6.67l.09-.2.2-.08h.15l6.81-5.91a.29.29,0,0,1,.1,0l.09,0h5.75V120.77Z"/><polygon class="trustless-2" points="234.02 146.72 234.02 151.79 239.86 146.72 234.02 146.72"/><rect class="trustless-2" x="227.99" y="133.79" width="5.46" height="5.41"/><polygon class="trustless-2" points="234.02 146.15 240.34 146.15 240.34 134.13 234.02 139.62 234.02 146.15"/><polygon class="trustless-2" points="194.65 139.2 200.29 139.2 206.53 133.79 194.65 133.79 194.65 139.2"/><polygon class="trustless-2" points="239.86 133.79 234.02 133.79 234.02 138.86 239.86 133.79"/><polygon class="trustless-2" points="227.41 139.2 227.41 134.13 221.57 139.2 227.41 139.2"/><path class="trustless-3" d="M240.92,73.37l0-.09s0-.07,0-.09h0l-.09,0s-.06,0-.1,0H227.7l-.09,0s-.07,0-.1,0l-6.81,5.91h-.15l-.2.08-.09.2v5.92H207.49V72.64l0-.1s0-.07,0-.09h0l-.1,0s-.06,0-.1,0H194.27l-.09,0a.38.38,0,0,0-.1,0l-6.81,5.91h-.15l-.2.08-.09.21V91.55l.09.2.2.08h13.19l.09,0s.07,0,.09,0l6.83-5.91h12.94v6.44l.09.2.2.08H233.2v8.23h-5.5l-.09,0s-.07,0-.1,0l-6.89,6h0l0,.09s0,.07,0,.1h0v.22l-.17.07-.09.2v6.18H207.49V101.28a.29.29,0,0,0,0-.39.27.27,0,0,0-.26-.07l-.05,0H194.65V92.29a.29.29,0,0,0-.58,0h0v8.59h0l0,.12-6.74,5.85h0l0,.09s0,.07,0,.1h0v13.42l.08.2.2.09h6.61V133.3h0l0,.12-6.74,5.85h0l0,.1s0,.06,0,.09h0v12.94l0,.09s0,.07,0,.1h0l.09,0a.26.26,0,0,0,.1,0h13l.09,0s.07,0,.09,0l6.82-5.92h12.86v5.7l.09.2.2.09h13.19l.09,0s.07,0,.09,0l6.9-6h0l0-.09a.26.26,0,0,0,0-.1h0V133.51l0-.1s0-.07,0-.09h0l-.09,0s-.06,0-.1,0H234v-13.1l6.8-5.89h0l0-.1a.18.18,0,0,0,0-.09h0V101.08l0-.09a.38.38,0,0,0,0-.1h0l-.09,0s-.06,0-.1,0h-6.87V92.56l.06,0s.07,0,.09,0l6.9-6h0l0-.1a.18.18,0,0,0,0-.09h0Zm-46.94,5h-5.84L194,73.26Zm6.61,7.53h5.85l-5.85,5.06Zm0-.59V78.75l6.33-5.49v12Zm5.85-12.35-6.24,5.41h-5.64V72.92Zm26.76,28.45v5.41H228v-5.41Zm7.14.34v12H234v-6.54Zm-12.93,5.07h-5.84l5.84-5.07Zm-20.49-5v11.94h-6.24v-6.54Zm-12.94,5h-5.75l5.75-5Zm6.7,7.52h5.84l-5.84,5.07Zm5.84-12.93-6.23,5.41h-5.64v-5.41ZM194,139.2h-5.75l5.75-5Zm6.7,7.52h5.84l-5.84,5.07Zm6.24-.57h-6.24v-6.53l6.24-5.41Zm-6.63-7h-5.64v-5.41h11.87Zm40.05-5.07v12H234v-6.54ZM234,146.72h5.84L234,151.79Zm-.57-7.52H228v-5.41h5.46Zm-6,0h-5.84l5.84-5.07Zm12.45-5.41L234,138.86v-5.07Zm-12.16-.57-.09,0a.29.29,0,0,0-.1,0l-6.81,5.91h-.15l-.2.08-.09.2v6.67H207.49V133.7a.27.27,0,0,0-.24-.46l-.05,0H194.65V120.77h5.75l.2-.09.08-.2v-.35l6.72-5.83h12.86v6.18l.09.2.2.09h12.9v12.45ZM234,114.3h5.84L234,119.37Zm5.84-12.93-6.09,5.28v-5.28Zm-12.45-22.3h-5.84L227.41,74ZM240.34,74V86H234v-.46h0V79.48ZM234,86.59h5.84L234,91.66Zm5.84-12.93-6.23,5.41H228V73.66Z"/><path d="M82.6,145.74h0a1.17,1.17,0,0,0,.42-1.58,1.15,1.15,0,1,0-.42,1.58Zm-.55.15h0a1.15,1.15,0,0,0-.2-2.29h0a1.15,1.15,0,1,0,.2,2.29Zm-9.35-1.45h0a1.15,1.15,0,1,0,.89-2.12h0a1.15,1.15,0,1,0-.89,2.12Zm-7.6-5.62h0a1.15,1.15,0,1,0,1.77-1.47h0a1.15,1.15,0,0,0-1.77,1.47ZM61,130.26h0a1.16,1.16,0,0,0,1.34.92,1.15,1.15,0,1,0-1.34-.92Zm.89-9.47h0a1.15,1.15,0,1,0,2.14.82h0a1.15,1.15,0,0,0-2.14-.82Zm5.48-7.72h0a1.15,1.15,0,0,0,1.5,1.75h0a1.15,1.15,0,0,0-1.5-1.75Zm8.44-4.27h0a1.15,1.15,0,0,0,.52,2.25h0a1.15,1.15,0,0,0-.52-2.25Zm9.39,1.26h0a1.16,1.16,0,0,0-1.58.42,1.17,1.17,0,0,0,.43,1.58,1.15,1.15,0,0,0,1.15-2Zm7.79,4.5h0a1.15,1.15,0,1,0-1.15,2h0a1.15,1.15,0,0,0,1.15-2Zm7.79,4.5h0a1.15,1.15,0,1,0-1.15,2h0a1.15,1.15,0,0,0,1.15-2Zm7.79,4.5h0a1.15,1.15,0,1,0-1.15,2h0a1.15,1.15,0,0,0,1.15-2Zm7.79,4.5h0a1.15,1.15,0,1,0-1.15,2h0a1.15,1.15,0,0,0,1.15-2Zm7.8,4.5h0a1.15,1.15,0,1,0-1.16,2h0a1.15,1.15,0,1,0,1.15-2Zm7.79,4.49h0a1.15,1.15,0,1,0-1.15,2,1.15,1.15,0,0,0,1.15-2Zm7.79,4.5h0a1.14,1.14,0,0,0-1.57.42,1.16,1.16,0,0,0,.42,1.58h0a1.15,1.15,0,1,0,1.15-2Zm7.62,1.83h0a1.15,1.15,0,0,0,.39,2.27h0a1.15,1.15,0,1,0-.39-2.27Zm7.72-3.27h0a1.15,1.15,0,1,0,1.61.24A1.15,1.15,0,0,0,155.11,140.11Zm5.42-6.38h0a1.15,1.15,0,0,0,2.06,1,1.15,1.15,0,1,0-2.06-1Zm1.62-8.1h0a1.15,1.15,0,1,0,2.29-.2h0a1.15,1.15,0,0,0-1.25-1,1.14,1.14,0,0,0-1,1.24Zm-3-7.7h0a1.15,1.15,0,1,0,1.85-1.36h0a1.15,1.15,0,1,0-1.85,1.36Zm-6.42-5.38h0a1.14,1.14,0,1,0,1-2h0a1.15,1.15,0,0,0-1.55.51,1.16,1.16,0,0,0,.52,1.55Zm-8.17-1.92h0a1.15,1.15,0,0,0,1.15-1.15,1.14,1.14,0,0,0-1.14-1.15h0a1.15,1.15,0,1,0,0,2.3Zm-7.42,3.62h0a1.15,1.15,0,0,0-1.15-2,1.15,1.15,0,0,0,1.15,2Zm-7.79,4.49h0a1.15,1.15,0,1,0-1.58-.42A1.15,1.15,0,0,0,129.35,118.74Zm-7.8,4.5h0a1.15,1.15,0,1,0-1.57-.42A1.16,1.16,0,0,0,121.55,123.24Zm-7.79,4.5h0a1.15,1.15,0,1,0-1.57-.42A1.15,1.15,0,0,0,113.76,127.74Zm-7.79,4.5h0a1.15,1.15,0,1,0-1.57-.42A1.15,1.15,0,0,0,106,132.24Zm-7.79,4.5h0a1.15,1.15,0,1,0-1.57-.42A1.15,1.15,0,0,0,98.18,136.74Zm-7.79,4.5h0a1.15,1.15,0,0,0,.42-1.57,1.15,1.15,0,1,0-.42,1.57Z"/><polyline class="trustless-4" points="163.21 217.55 215.22 188.56 214.73 187.69 162.72 216.67"/><polyline class="trustless-4" points="159.99 59.84 218.43 27.27 217.95 26.39 159.5 58.96"/><polyline class="trustless-4" points="0.49 59.84 58.93 27.27 58.44 26.39 0 58.96"/><polyline class="trustless-4" points="0.49 219.34 58.93 186.77 58.45 185.89 0.01 218.46"/><polygon class="trustless-4" points="57.98 59.47 57.98 186.95 162.05 186.95 162.05 185.95 58.98 185.95 58.98 59.47 57.98 59.47 57.98 59.47"/><polygon class="trustless-4" points="162.05 186.95 218.49 186.95 218.49 26.44 57.98 26.44 57.98 59.47 58.98 59.47 58.98 27.44 217.49 27.44 217.49 185.95 162.05 185.95 162.05 186.95 162.05 186.95"/><path class="trustless-4" d="M159,60.29v157.5H1.45V60.29H159m1-1H.45v159.5H160Z"/><path d="M203.24,192.08a12.71,12.71,0,1,0,12.7,12.7A12.71,12.71,0,0,0,203.24,192.08Z"/><polygon points="196.18 230.19 203.24 224.54 210.29 230.19 210.29 218.9 196.18 218.9 196.18 230.19"/></g></g></svg>