<svg xmlns="http://www.w3.org/2000/svg" viewBox="0 0 179.9 141.27">
  <defs>
    <style>
      .trustless-1,
      .trustless-10,
      .trustless-11,
      .trustless-12,
      .trustless-13,
      .trustless-14,
      .trustless-15,
      .trustless-16,
      .trustless-17,
      .trustless-2,
      .trustless-3,
      .trustless-4,
      .trustless-5,
      .trustless-6,
      .trustless-7,
      .trustless-8,
      .trustless-9 {
        fill: none;
      }

      .trustless-1 {
        stroke: #000;
        stroke-linejoin: bevel;
        stroke-width: 0.82px;
      }

      .trustless-1,
      .trustless-10,
      .trustless-11,
      .trustless-12,
      .trustless-13,
      .trustless-14,
      .trustless-15,
      .trustless-16,
      .trustless-2,
      .trustless-3,
      .trustless-4,
      .trustless-5,
      .trustless-6,
      .trustless-7,
      .trustless-8,
      .trustless-9 {
        stroke-linecap: square;
      }

      .trustless-10,
      .trustless-11,
      .trustless-12,
      .trustless-13,
      .trustless-14,
      .trustless-15,
      .trustless-16,
      .trustless-2,
      .trustless-3,
      .trustless-4,
      .trustless-5,
      .trustless-6,
      .trustless-7,
      .trustless-8,
      .trustless-9 {
        stroke: #683bff;
      }

      .trustless-10,
      .trustless-11,
      .trustless-12,
      .trustless-13,
      .trustless-14,
      .trustless-15,
      .trustless-16,
      .trustless-17,
      .trustless-2,
      .trustless-3,
      .trustless-4,
      .trustless-5,
      .trustless-6,
      .trustless-7,
      .trustless-8,
      .trustless-9 {
        stroke-linejoin: round;
      }

      .trustless-12,
      .trustless-2,
      .trustless-3 {
        stroke-width: 2.58px;
      }

      .trustless-11,
      .trustless-3,
      .trustless-5,
      .trustless-7,
      .trustless-9 {
        stroke-dasharray: 0.02 11.28;
      }

      .trustless-13,
      .trustless-4,
      .trustless-5 {
        stroke-width: 2.35px;
      }

      .trustless-14,
      .trustless-6,
      .trustless-7 {
        stroke-width: 2.13px;
      }

      .trustless-15,
      .trustless-8,
      .trustless-9 {
        stroke-width: 1.9px;
      }

      .trustless-10,
      .trustless-11,
      .trustless-16 {
        stroke-width: 1.68px;
      }

      .trustless-12,
      .trustless-13,
      .trustless-14,
      .trustless-15,
      .trustless-16 {
        stroke-dasharray: 0.02 11.28;
      }

      .trustless-17 {
        stroke: #2d00ff;
        stroke-linecap: round;
        stroke-width: 0.38px;
      }

      .trustless-18 {
        fill: #2d00ff;
      }

      .trustless-19 {
        fill-rule: evenodd;
      }
    </style>
  </defs>
  <g id="Layer_2" data-name="Layer 2">
    <g id="Layer_1-2" data-name="Layer 1">
      <rect class="trustless-1" x="115.53" y="0.43" width="63.98" height="63.98" />
      <polyline class="trustless-1" points="179.33 1.17 161.67 12.96 161.63 76.94 179.28 65.14" />
      <line class="trustless-2" x1="62.74" y1="71.19" x2="62.75" y2="71.19" />
      <line class="trustless-3" x1="74.03" y1="71.19" x2="102.3" y2="71.19" />
      <line class="trustless-2" x1="107.94" y1="71.19" x2="107.95" y2="71.19" />
      <line class="trustless-4" x1="62.74" y1="82.4" x2="62.75" y2="82.4" />
      <line class="trustless-5" x1="74.03" y1="82.4" x2="102.3" y2="82.4" />
      <line class="trustless-4" x1="107.94" y1="82.4" x2="107.95" y2="82.4" />
      <line class="trustless-6" x1="62.74" y1="93.61" x2="62.75" y2="93.61" />
      <line class="trustless-7" x1="74.03" y1="93.61" x2="102.3" y2="93.61" />
      <line class="trustless-6" x1="107.94" y1="93.61" x2="107.95" y2="93.61" />
      <line class="trustless-8" x1="62.74" y1="104.82" x2="62.75" y2="104.82" />
      <line class="trustless-9" x1="74.03" y1="104.82" x2="102.3" y2="104.82" />
      <line class="trustless-8" x1="107.94" y1="104.82" x2="107.95" y2="104.82" />
      <line class="trustless-10" x1="62.74" y1="116.03" x2="62.75" y2="116.03" />
      <line class="trustless-11" x1="74.03" y1="116.03" x2="102.3" y2="116.03" />
      <line class="trustless-10" x1="107.94" y1="116.03" x2="107.95" y2="116.03" />
      <line class="trustless-2" x1="107.95" y1="71.13" x2="107.94" y2="71.13" />
      <line class="trustless-3" x1="96.66" y1="71.13" x2="68.39" y2="71.13" />
      <line class="trustless-2" x1="62.75" y1="71.13" x2="62.74" y2="71.13" />
      <line class="trustless-4" x1="107.95" y1="59.92" x2="107.94" y2="59.92" />
      <line class="trustless-5" x1="96.66" y1="59.92" x2="68.39" y2="59.92" />
      <line class="trustless-4" x1="62.75" y1="59.92" x2="62.74" y2="59.92" />
      <line class="trustless-6" x1="107.95" y1="48.71" x2="107.94" y2="48.71" />
      <line class="trustless-7" x1="96.66" y1="48.71" x2="68.39" y2="48.71" />
      <line class="trustless-6" x1="62.75" y1="48.71" x2="62.74" y2="48.71" />
      <line class="trustless-8" x1="107.95" y1="37.5" x2="107.94" y2="37.5" />
      <line class="trustless-9" x1="96.66" y1="37.5" x2="68.39" y2="37.5" />
      <line class="trustless-8" x1="62.75" y1="37.5" x2="62.74" y2="37.5" />
      <line class="trustless-10" x1="107.95" y1="26.29" x2="107.94" y2="26.29" />
      <line class="trustless-11" x1="96.66" y1="26.29" x2="68.39" y2="26.29" />
      <line class="trustless-10" x1="62.75" y1="26.29" x2="62.74" y2="26.29" />
      <line class="trustless-2" x1="85.31" y1="48.55" x2="85.31" y2="48.56" />
      <line class="trustless-12" x1="85.31" y1="59.84" x2="85.31" y2="88.11" />
      <line class="trustless-2" x1="85.31" y1="93.75" x2="85.31" y2="93.76" />
      <line class="trustless-4" x1="74.1" y1="48.55" x2="74.1" y2="48.56" />
      <line class="trustless-13" x1="74.1" y1="59.84" x2="74.1" y2="88.11" />
      <line class="trustless-4" x1="74.1" y1="93.75" x2="74.1" y2="93.76" />
      <line class="trustless-6" x1="62.89" y1="48.55" x2="62.89" y2="48.56" />
      <line class="trustless-14" x1="62.89" y1="59.84" x2="62.89" y2="88.11" />
      <line class="trustless-6" x1="62.89" y1="93.75" x2="62.89" y2="93.76" />
      <line class="trustless-8" x1="51.68" y1="48.55" x2="51.68" y2="48.56" />
      <line class="trustless-15" x1="51.68" y1="59.84" x2="51.68" y2="88.11" />
      <line class="trustless-8" x1="51.68" y1="93.75" x2="51.68" y2="93.76" />
      <line class="trustless-10" x1="40.47" y1="48.55" x2="40.47" y2="48.56" />
      <line class="trustless-16" x1="40.47" y1="59.84" x2="40.47" y2="88.11" />
      <line class="trustless-10" x1="40.47" y1="93.75" x2="40.47" y2="93.76" />
      <line class="trustless-10" x1="130.21" y1="48.55" x2="130.21" y2="48.56" />
      <line class="trustless-16" x1="130.21" y1="59.84" x2="130.21" y2="88.11" />
      <line class="trustless-10" x1="130.21" y1="93.75" x2="130.21" y2="93.76" />
      <line class="trustless-8" x1="119" y1="48.55" x2="119" y2="48.56" />
      <line class="trustless-15" x1="119" y1="59.84" x2="119" y2="88.11" />
      <line class="trustless-8" x1="119" y1="93.75" x2="119" y2="93.76" />
      <line class="trustless-6" x1="107.79" y1="48.55" x2="107.79" y2="48.56" />
      <line class="trustless-14" x1="107.79" y1="59.84" x2="107.79" y2="88.11" />
      <line class="trustless-6" x1="107.79" y1="93.75" x2="107.79" y2="93.76" />
      <line class="trustless-4" x1="96.58" y1="48.55" x2="96.58" y2="48.56" />
      <line class="trustless-13" x1="96.58" y1="59.84" x2="96.58" y2="88.11" />
      <line class="trustless-4" x1="96.58" y1="93.75" x2="96.58" y2="93.76" />
      <line class="trustless-2" x1="85.37" y1="48.55" x2="85.37" y2="48.56" />
      <line class="trustless-12" x1="85.37" y1="59.84" x2="85.37" y2="88.11" />
      <line class="trustless-2" x1="85.37" y1="93.75" x2="85.37" y2="93.76" />
      <path class="trustless-1"
        d="M64.84,83l40.85-23.58c7.18-.57,13.16,4.76,13.61,10.87.5,6.67-5.7,13.25-13.61,12.71L64.84,59.37c-7.2-.69-13.32,4.92-13.48,11.49C51.19,77.63,57.41,83.64,64.84,83Z" />
      <polyline class="trustless-1" points="0.57 140.44 18.29 128.75 18.71 64.77 0.99 76.47" />
      <rect class="trustless-1" x="0.79" y="76.67" width="63.98" height="63.98"
        transform="translate(0.72 -0.21) rotate(0.38)" />
      <rect class="trustless-17" x="142.7" y="52.3" width="8.67" height="8.67"
        transform="translate(203.67 -90.4) rotate(90)" />
      <rect class="trustless-17" x="165.1" y="52.3" width="8.67" height="8.67"
        transform="translate(226.07 -112.79) rotate(90)" />
      <rect class="trustless-17" x="142.7" y="74.03" width="8.67" height="8.67"
        transform="translate(225.39 -68.67) rotate(90)" />
      <rect class="trustless-17" x="165.1" y="74.03" width="8.67" height="8.67"
        transform="translate(247.79 -91.07) rotate(90)" />
      <rect class="trustless-17" x="138.14" y="56.31" width="8.67" height="8.67"
        transform="translate(203.11 -81.83) rotate(90)" />
      <line class="trustless-17" x1="138.14" y1="64.97" x2="142.76" y2="60.97" />
      <line class="trustless-17" x1="146.8" y1="56.31" x2="151.43" y2="52.3" />
      <line class="trustless-17" x1="138.14" y1="56.31" x2="142.76" y2="52.3" />
      <rect class="trustless-17" x="160.48" y="56.31" width="8.67" height="8.67"
        transform="translate(225.45 -104.17) rotate(90)" />
      <line class="trustless-17" x1="160.48" y1="64.97" x2="165.1" y2="60.97" />
      <line class="trustless-17" x1="169.14" y1="56.31" x2="173.76" y2="52.3" />
      <line class="trustless-17" x1="160.48" y1="56.31" x2="165.1" y2="52.3" />
      <line class="trustless-17" x1="138.14" y1="86.7" x2="142.76" y2="82.69" />
      <line class="trustless-17" x1="146.8" y1="78.03" x2="151.43" y2="74.03" />
      <line class="trustless-17" x1="138.14" y1="78.03" x2="142.76" y2="74.03" />
      <rect class="trustless-17" x="160.48" y="78.03" width="8.67" height="8.67"
        transform="translate(247.18 -82.44) rotate(90)" />
      <line class="trustless-17" x1="160.48" y1="86.7" x2="165.1" y2="82.69" />
      <line class="trustless-17" x1="169.14" y1="78.03" x2="173.76" y2="74.03" />
      <line class="trustless-17" x1="160.48" y1="78.03" x2="165.1" y2="74.03" />
      <line class="trustless-17" x1="146.8" y1="64.97" x2="151.43" y2="60.97" />
      <line class="trustless-17" x1="146.8" y1="86.7" x2="151.43" y2="82.69" />
      <line class="trustless-17" x1="169.14" y1="86.7" x2="173.76" y2="82.69" />
      <line class="trustless-17" x1="169.14" y1="64.97" x2="173.76" y2="60.97" />
      <polyline class="trustless-17" points="142.76 46.41 142.76 56.31 142.76 82.69 169.14 82.69 169.14 60.97 146.8 60.97" />
      <line class="trustless-17" x1="169.14" y1="41.9" x2="142.76" y2="41.9" />
      <rect class="trustless-17" x="165.1" y="33.74" width="8.67" height="8.67"
        transform="translate(207.5 -131.36) rotate(90)" />
      <rect class="trustless-17" x="160.48" y="37.74" width="8.67" height="8.67"
        transform="translate(206.89 -122.73) rotate(90)" />
      <line class="trustless-17" x1="160.48" y1="46.41" x2="165.1" y2="42.4" />
      <line class="trustless-17" x1="169.14" y1="37.74" x2="173.76" y2="33.74" />
      <line class="trustless-17" x1="160.48" y1="37.74" x2="165.1" y2="33.74" />
      <line class="trustless-17" x1="169.14" y1="46.41" x2="173.76" y2="42.4" />
      <line class="trustless-17" x1="168.97" y1="56.64" x2="168.97" y2="46.41" />
      <rect class="trustless-17" x="142.7" y="33.24" width="8.67" height="8.67"
        transform="translate(184.61 -109.46) rotate(90)" />
      <rect class="trustless-17" x="138.08" y="37.25" width="8.67" height="8.67"
        transform="translate(184 -100.83) rotate(90)" />
      <line class="trustless-17" x1="138.08" y1="45.92" x2="142.7" y2="41.91" />
      <line class="trustless-17" x1="146.74" y1="37.25" x2="151.37" y2="33.24" />
      <line class="trustless-17" x1="138.08" y1="37.25" x2="142.7" y2="33.24" />
      <line class="trustless-17" x1="146.74" y1="45.92" x2="151.37" y2="41.91" />
      <rect class="trustless-18" x="137.91" y="37.25" width="8.67" height="8.67"
        transform="translate(183.83 -100.66) rotate(90)" />
      <rect class="trustless-18" x="160.31" y="37.74" width="8.67" height="8.67"
        transform="translate(206.72 -122.56) rotate(90)" />
      <rect class="trustless-18" x="138.14" y="78.03" width="8.67" height="8.67"
        transform="translate(224.84 -60.11) rotate(90)" />
      <rect class="trustless-18" x="160.31" y="78.03" width="8.67" height="8.67"
        transform="translate(247.01 -82.27) rotate(90)" />
      <rect class="trustless-18" x="160.31" y="56.64" width="8.67" height="8.67"
        transform="translate(225.61 -103.67) rotate(90)" />
      <rect class="trustless-18" x="138.14" y="56.64" width="8.67" height="8.67"
        transform="translate(203.44 -81.5) rotate(90)" />
      <path class="trustless-19"
        d="M155.84,124.05v7.8l4.87-3.9,4.87,3.9v-7.8m-4.87-18.51a8.77,8.77,0,1,1-8.77,8.77A8.77,8.77,0,0,1,160.71,105.54Z" />
    </g>
  </g>
</svg>