<svg xmlns="http://www.w3.org/2000/svg" xmlns:xlink="http://www.w3.org/1999/xlink" viewBox="0 0 248.45 226.67">
  <defs>
    <style>
      .unlimited-1 {
        fill: url(#Indigo_200);
      }

      .unlimited-2 {
        fill: url(#Indigo_143);
      }

      .unlimited-3 {
        stroke: blue;
        fill: url(#linear-gradient);
      }

      .unlimited-3,
      .unlimited-4,
      .unlimited-5 {
        stroke-linejoin: round;
        stroke-width: 1.15px;
      }

      .unlimited-4,
      .unlimited-5 {
        fill: none;
      }

      .unlimited-4 {
        stroke: #5252ff;
      }

      .unlimited-5 {
        stroke: url(#linear-gradient-2);
      }

      .unlimited-6 {
        fill: #683bff;
      }

      .unlimited-7 {
        fill: url(#radial-gradient);
      }

      .unlimited-8 {
        fill: url(#Indigo_200-2);
      }

      .unlimited-9 {
        fill: url(#Indigo_143-2);
      }
    </style>
    <linearGradient id="Indigo_200" x1="149.09" y1="114.89" x2="248.45" y2="114.89" gradientUnits="userSpaceOnUse">
      <stop offset="0" stop-color="#a2f6ff" />
      <stop offset="0.5" stop-color="#2d00ff" />
      <stop offset="1" stop-color="#a18cff" />
    </linearGradient>
    <linearGradient id="Indigo_143" x1="102.51" y1="62.1" x2="201.87" y2="62.1" gradientUnits="userSpaceOnUse">
      <stop offset="0" stop-color="#e0a3ff" />
      <stop offset="0.5" stop-color="#8a80ff" />
      <stop offset="1" stop-color="#8a80ff" />
    </linearGradient>
    <linearGradient id="linear-gradient" x1="149.16" y1="201.52" x2="247.96" y2="201.52" gradientUnits="userSpaceOnUse">
      <stop offset="0" stop-color="#9e96ff" />
      <stop offset="1" stop-color="blue" />
    </linearGradient>
    <linearGradient id="linear-gradient-2" x1="0" y1="26.64" x2="102.75" y2="26.64" xlink:href="#linear-gradient" />
    <radialGradient id="radial-gradient" cx="88.36" cy="-16.96" r="65.54"
      gradientTransform="translate(27.12 131.76) scale(1.15 1.15)" gradientUnits="userSpaceOnUse">
      <stop offset="0" stop-color="#a2f6ff" />
      <stop offset="0.5" stop-color="#b5a0ff" />
      <stop offset="0.8" stop-color="#2d00ff" stop-opacity="0" />
    </radialGradient>
    <linearGradient id="Indigo_200-2" x1="0.05" y1="114.89" x2="99.41" y2="114.89" xlink:href="#Indigo_200" />
    <linearGradient id="Indigo_143-2" x1="49.73" y1="164.57" x2="149.09" y2="164.57" xlink:href="#Indigo_143" />
  </defs>
  <g id="Layer_2" data-name="Layer 2">
    <g id="Layer_1-2" data-name="Layer 1">
      <polygon class="unlimited-1" points="248.45 176.99 149.09 152.15 149.09 52.79 248.45 77.63 248.45 176.99" />
      <polygon class="unlimited-2" points="201.87 124.2 102.51 99.36 102.51 0 201.87 24.84 201.87 124.2" />
      <line class="unlimited-3" x1="149.16" y1="226.14" x2="247.96" y2="176.9" />
      <line class="unlimited-4" x1="149.5" y1="151.5" x2="200.93" y2="124.16" />
      <line class="unlimited-4" x1="50.23" y1="102.73" x2="98.9" y2="78.06" />
      <line class="unlimited-5" x1="0.26" y1="52.77" x2="102.49" y2="0.51" />
      <circle class="unlimited-6" cx="128.43" cy="112.32" r="55.83" />
      <circle class="unlimited-7" cx="128.43" cy="112.32" r="75.14" />
      <polygon class="unlimited-8" points="99.41 176.99 0.05 152.15 0.05 52.79 99.41 77.63 99.41 176.99" />
      <polygon class="unlimited-9" points="149.09 226.67 49.73 201.83 49.73 102.47 149.09 127.31 149.09 226.67" />
    </g>
  </g>
</svg>