<svg xmlns="http://www.w3.org/2000/svg" xmlns:xlink="http://www.w3.org/1999/xlink" viewBox="0 0 251.01 197.06">
  <defs>
    <style>
      .yours-1 {
        fill: url(#linear-gradient);
      }

      .yours-2 {
        fill: url(#linear-gradient-2);
      }

      .yours-3 {
        fill: url(#linear-gradient-3);
      }

      .yours-4 {
        fill: url(#linear-gradient-4);
      }

      .yours-5 {
        fill: url(#linear-gradient-5);
      }

      .yours-6 {
        fill: url(#linear-gradient-6);
      }

      .yours-7 {
        fill: url(#linear-gradient-7);
      }

      .yours-8 {
        fill: url(#linear-gradient-8);
      }

      .yours-9 {
        fill: url(#linear-gradient-9);
      }

      .yours-10 {
        fill: url(#linear-gradient-10);
      }

      .yours-11 {
        fill: url(#linear-gradient-11);
      }

      .yours-12 {
        fill: url(#linear-gradient-12);
      }

      .yours-13 {
        fill: url(#linear-gradient-13);
      }

      .yours-14 {
        fill: url(#linear-gradient-14);
      }
    </style>
    <linearGradient id="linear-gradient" x1="-4317.26" y1="-2527.11" x2="-4316.26" y2="-2527.11"
      gradientTransform="matrix(184.73, -63.62, -63.62, -184.73, 636819.55, -741432.68)" gradientUnits="userSpaceOnUse">
      <stop offset="0" stop-color="#2d00ff" />
      <stop offset="0.5" stop-color="#b5a0ff" />
      <stop offset="1" stop-color="#b5a0ff" />
    </linearGradient>
    <linearGradient id="linear-gradient-2" x1="-4317.26" y1="-2527.11" x2="-4316.26" y2="-2527.11"
      gradientTransform="matrix(184.73, -63.62, -63.62, -184.73, 636852.87, -741335.95)"
      xlink:href="#linear-gradient" />
    <linearGradient id="linear-gradient-3" x1="-4317.26" y1="-2527.11" x2="-4316.26" y2="-2527.11"
      gradientTransform="matrix(184.73, -63.62, -63.62, -184.73, 636851.18, -741340.83)"
      xlink:href="#linear-gradient" />
    <linearGradient id="linear-gradient-4" x1="-4317.26" y1="-2527.11" x2="-4316.26" y2="-2527.11"
      gradientTransform="matrix(184.73, -63.62, -63.62, -184.73, 636837.58, -741380.33)"
      xlink:href="#linear-gradient" />
    <linearGradient id="linear-gradient-5" x1="-4317.26" y1="-2527.11" x2="-4316.26" y2="-2527.11"
      gradientTransform="matrix(184.73, -63.62, -63.62, -184.73, 636857.54, -741322.38)"
      xlink:href="#linear-gradient" />
    <linearGradient id="linear-gradient-6" x1="-4317.26" y1="-2527.11" x2="-4316.26" y2="-2527.11"
      gradientTransform="matrix(184.73, -63.62, -63.62, -184.73, 636834.89, -741388.16)"
      xlink:href="#linear-gradient" />
    <linearGradient id="linear-gradient-7" x1="-4317.26" y1="-2527.11" x2="-4316.26" y2="-2527.11"
      gradientTransform="matrix(184.73, -63.62, -63.62, -184.73, 636856.08, -741326.61)"
      xlink:href="#linear-gradient" />
    <linearGradient id="linear-gradient-8" x1="-4317.26" y1="-2527.11" x2="-4316.26" y2="-2527.11"
      gradientTransform="matrix(184.73, -63.62, -63.62, -184.73, 636831.32, -741398.51)"
      xlink:href="#linear-gradient" />
    <linearGradient id="linear-gradient-9" x1="-4317.26" y1="-2527.11" x2="-4316.26" y2="-2527.11"
      gradientTransform="matrix(184.73, -63.62, -63.62, -184.73, 636848.94, -741347.35)"
      xlink:href="#linear-gradient" />
    <linearGradient id="linear-gradient-10" x1="-4317.26" y1="-2527.11" x2="-4316.26" y2="-2527.11"
      gradientTransform="matrix(184.73, -63.62, -63.62, -184.73, 636854.56, -741331.02)"
      xlink:href="#linear-gradient" />
    <linearGradient id="linear-gradient-11" x1="-4317.26" y1="-2527.11" x2="-4316.26" y2="-2527.11"
      gradientTransform="matrix(184.73, -63.62, -63.62, -184.73, 636842.03, -741367.42)"
      xlink:href="#linear-gradient" />
    <linearGradient id="linear-gradient-12" x1="-4317.26" y1="-2527.11" x2="-4316.26" y2="-2527.11"
      gradientTransform="matrix(184.73, -63.62, -63.62, -184.73, 636826.59, -741412.25)"
      xlink:href="#linear-gradient" />
    <linearGradient id="linear-gradient-13" x1="-4317.26" y1="-2527.11" x2="-4316.26" y2="-2527.11"
      gradientTransform="matrix(184.73, -63.62, -63.62, -184.73, 636846.44, -741354.61)"
      xlink:href="#linear-gradient" />
    <linearGradient id="linear-gradient-14" x1="-4317.26" y1="-2527.11" x2="-4316.26" y2="-2527.11"
      gradientTransform="matrix(184.73, -63.62, -63.62, -184.73, 636821.9, -741425.88)" xlink:href="#linear-gradient" />
  </defs>
  <g id="Layer_2" data-name="Layer 2">
    <g id="Layer_1-2" data-name="Layer 1">
      <polygon fill="#b5a0ff"
        points="250.44 0.64 250.44 0.06 161.19 0 160.62 0.57 160.56 89.82 161.13 90.39 250.37 90.45 250.95 89.88 251.01 0.64 250.44 0.06 250.44 0.64 249.86 0.64 249.8 89.31 161.7 89.25 161.76 1.15 250.44 1.21 250.44 0.64 249.86 0.64 250.44 0.64" />
      <polygon fill="#b5a0ff"
        points="249.83 1.15 225.2 17.61 224.95 18.09 224.88 107.33 225.78 107.81 250.88 91.03 250.24 90.08 226.03 106.26 226.09 18.39 250.94 1.78 250.3 0.83 249.83 1.15" />
      <path class="yours-1"
        d="M142.58,22.74l3.42,0a70.39,70.39,0,0,0-9.3-3.46c1.22.95,2.45,1.88,3.7,2.77A4,4,0,0,0,142.58,22.74Z" />
      <path class="yours-2"
        d="M80.54,139.65c9.62-.1,19.23-.17,28.85-.31a3.42,3.42,0,0,0,1.81-.78c2.21-1.67,4.27-3.73,6.59-5.08a23.16,23.16,0,0,1,14.5-3.19,26.06,26.06,0,0,1,7.14,1.78,30.89,30.89,0,0,1,9.21,6.31,3.25,3.25,0,0,0,2.07.91c3.49,0,7,0,10.47,0,1.07-.87,2.11-1.79,3.12-2.72l-7.77,0a3.3,3.3,0,0,1-2.27-1,35.45,35.45,0,0,0-13.73-9.09,29.91,29.91,0,0,0-18.23-.86,34.37,34.37,0,0,0-15.87,9.4,5.48,5.48,0,0,1-4.18,1.82c-10,0-20.1.13-30.15.22-.91,0-1.82,0-2.73,0,1,.92,2.07,1.8,3.13,2.66Q76.52,139.7,80.54,139.65Z" />
      <path class="yours-3"
        d="M69.74,134.13c10.72-.09,21.44-.19,32.16-.22a3.29,3.29,0,0,0,2.55-1.14,36,36,0,0,1,8-6.32,33.61,33.61,0,0,1,19-5,31.71,31.71,0,0,1,16,4.85c2.74,1.73,5.23,4.08,7.87,6.07a4,4,0,0,0,2.17.92c3.4,0,6.8,0,10.19,0,1.12-1.19,2.21-2.4,3.25-3.66-2.51,0-5,.05-7.51,0a3,3,0,0,1-2-.85,46.2,46.2,0,0,0-11.68-9.17,52.55,52.55,0,0,0-8.81-3.59,47.68,47.68,0,0,0-8.1-1.48,35,35,0,0,0-12,1,39.68,39.68,0,0,0-10.43,4.18,43,43,0,0,0-11.06,8.76,3.81,3.81,0,0,1-3,1.38c-8.85,0-17.7.12-26.55.19-1.44,0-1.47,0-1.57,1.72-.08,1.3-.77,1.35-1.55,1.35H65.4c.89.94,1.8,1.86,2.74,2.75v-.08C68.28,134.14,68.32,134.14,69.74,134.13Z" />
      <path class="yours-4"
        d="M164.75,85.21c-1.19,0-1.62-.45-1.67-1.94,0-.72-.13-1.24-.82-1.18s-1.31-.27-1.43,1c-.09,1-.57,1.09-1.33.4a46.49,46.49,0,0,0-4.73-4.12,62.47,62.47,0,0,0-8.17-4.85,48.42,48.42,0,0,0-8.14-2.89c-6.23-1.72-12.49-1.24-18.7.24a30.87,30.87,0,0,0-10,4.52c-2.91,2-5.7,4.21-8.59,6.25a14.86,14.86,0,0,1-8.39,2.87,40.3,40.3,0,0,1-5.71,0c-2.22-.27-4,.73-5.8,2.11a18.08,18.08,0,0,1-2.77,2,2,2,0,0,1-1.76-.06c-2-1.17-3.9-2.52-5.86-3.74a2.64,2.64,0,0,0-1.37-.24Q58.72,85.41,48,85.34a1.44,1.44,0,0,1-1.34-1c0,.49,0,1,0,1.46A70.3,70.3,0,0,0,47,93.35a4.22,4.22,0,0,1,1.41-.14c7-.13,14-.24,21-.48,1.92-.06,3.49.94,5.12,1.83a7.74,7.74,0,0,0,1.81,1,3.62,3.62,0,0,0,2.21-.1c1.25-.53,2.4-1.43,3.64-2A8.76,8.76,0,0,1,85,92.74c1.8-.16,3.6-.16,5.4-.22a9.61,9.61,0,0,0,6.64-3.28,61.24,61.24,0,0,1,16-12.29,33.19,33.19,0,0,1,18.22-3.67,60.45,60.45,0,0,1,11,2,38.09,38.09,0,0,1,14.12,7.94c2,1.68,3.8,3.59,5.66,5.46a10.91,10.91,0,0,0,7.82,3.6c5.47,0,10.93-.14,16.4-.2.19-2.07.3-4.16.3-6.28,0-.38,0-.75,0-1.13a2,2,0,0,1-.61.15Q175.33,85,164.75,85.21Z" />
      <path class="yours-5"
        d="M117.29,155a69.52,69.52,0,0,0,19.36-2.76,3.11,3.11,0,0,1-.42-.45c-2.33-3-5.6-4.05-8.91-2.61a8.07,8.07,0,0,0-3.53,2.92c-.33.49-1.21.56-1.83.57-4.34.07-8.68,0-13,.08l-10.21.12A69.28,69.28,0,0,0,115.82,155Z" />
      <path class="yours-6"
        d="M47.7,82.37c4.44-.06,8.88-.08,13.32-.12a67.09,67.09,0,0,0,7.51-.16c2.09-.25,3.67,1,5.36,2a32.7,32.7,0,0,0,2.92,1.87,2,2,0,0,0,1.76-.08c1.4-.86,2.68-2,4.08-2.85a6.44,6.44,0,0,1,2.84-.9c2.4-.13,4.81-.14,7.21,0a12.92,12.92,0,0,0,9.59-3.82,46.17,46.17,0,0,1,10.62-6.81,35.55,35.55,0,0,1,12-3.82,40.62,40.62,0,0,1,9.48,0,37.08,37.08,0,0,1,9,2.27,71.14,71.14,0,0,1,9.41,4.78c1.89,1.1,3.6,2.66,5.42,3.95a2.55,2.55,0,0,0,1.39.47c1.63,0,3.26,0,4.89-.06.82,0,1.37.23,1.37,1.42s.64,1.09,1.28,1.09c4.11,0,8.22.12,12.32-.06a11.65,11.65,0,0,1,6,1.79c.34.18.67.38,1,.57a70.21,70.21,0,0,0-.94-9.69H179v.12c-2.53,0-5.07,0-7.61,0-1,0-1.44-.39-1.39-1.64,0-.78-.06-1.57,0-2.35,0-1-.36-1.32-1.09-1.31q-6.81.09-13.62.15c-.71,0-1,.43-1.06,1.29a18.34,18.34,0,0,1-.09,2.1c-.09.63-.35.86-.93.54a101,101,0,0,0-10-5.27,31.49,31.49,0,0,0-15.78-2.42,46.67,46.67,0,0,0-7.22,1.28,40.37,40.37,0,0,0-6.63,2.75c-2.22,1.11-4.31,2.61-6.54,3.67a15.13,15.13,0,0,1-4.64,1.35c-3.13.41-6.29.64-9.44.82-2.33.14-4.67.12-7,.1a2.26,2.26,0,0,0-1.93,1c-3.12,4.05-7.22,4.82-11.09,2-.7-.51-1.22-1.41-1.91-2a3.38,3.38,0,0,0-1.84-.93c-3.2,0-6.41,0-9.61.08-.2,0-.45,0-.58-.1-1.11-1.08-2.41-.81-3.66-.82-2.54,0-5.08,0-7.62,0h-.19A69.81,69.81,0,0,0,46.65,83l.09-.25C46.88,82.47,47.37,82.38,47.7,82.37Z" />
      <path class="yours-7"
        d="M143.57,147.76a3.66,3.66,0,0,1-2.68-1.09c-3.78-3.52-8-5.18-12.77-4.48a14.11,14.11,0,0,0-8.7,4.54,3.63,3.63,0,0,1-2.8,1.32q-15.47,0-30.91.09c1.15.55,2.33,1.08,3.52,1.57h3.59c9.25,0,18.5,0,27.75,0a2.54,2.54,0,0,0,1.85-.86c3.5-4.43,9.81-5.14,13.75-1.65a6.92,6.92,0,0,0,5.22,1.67h4.45c.8-.36,1.59-.73,2.38-1.12Z" />
      <path class="yours-8"
        d="M58.44,72.21a3.67,3.67,0,0,0,1,.32c3.74,0,7.48-.09,11.22-.2a1.85,1.85,0,0,1,1.85,1.12c2.33,4.18,7.33,4.3,9.73.2a2.29,2.29,0,0,1,2.28-1.33c3.6.06,7.21,0,10.82,0,.19,0,.45,0,.58-.09,1.41-1.32,3.09-.91,4.64-1a20,20,0,0,0,9-2.84A39.54,39.54,0,0,1,121,63.67c2.26-.46,4.52-1,6.8-1.37a25.31,25.31,0,0,1,10,.94,67.33,67.33,0,0,1,7.07,2.24,39.59,39.59,0,0,1,4.84,2.31c1.17.62,1.33.58,1.46-1,.08-.87.48-1.24,1.14-1.23q9.51.06,19,.16c1.11,0,1.42.47,1.44,1.81,0,.49,0,1,0,1.48,0,1.8.12,1.93,1.62,1.93l10.5,0a67.86,67.86,0,0,0-2.06-7.43h-.58c-1.32,0-1.59-.31-1.61-1.93,0-1.25,0-2.5,0-3.76-.42-1-.87-1.9-1.33-2.84l-21.92.13q-6.16,0-12.32.09c-1.53,0-1.64.17-1.63,2.07l0,4.71c0,.95-.32,1.33-1.13,1.14-2.13-.52-4.25-1.06-6.4-1.44a32,32,0,0,0-11.66.06c-5.53,1.06-11,2.35-16.7,2-3.09-.21-6.2,0-9.31.07a1.42,1.42,0,0,0-1.43.83,1.75,1.75,0,0,1-1.35.72q-4.71.12-9.42.09a2.5,2.5,0,0,0-2.2,1.13c-2.19,2.91-4.9,4-8.06,3.3a8.31,8.31,0,0,1-5.11-3.59,1.66,1.66,0,0,0-1.55-.82c-3.18,0-6.35,0-9.52,0a1.69,1.69,0,0,1-1.7-1,1.48,1.48,0,0,0-1.2-.57c-2.21,0-4.43,0-6.64,0A68.37,68.37,0,0,0,48,71.79c2.95,0,5.9-.1,8.85-.1A5.64,5.64,0,0,1,58.44,72.21Z" />
      <path class="yours-9"
        d="M68,128.79c0-1.34.55-1.66,1.51-1.66,8.72-.08,17.43-.16,26.15-.33a3.73,3.73,0,0,0,2.44-1.06,60.75,60.75,0,0,1,8.53-7.29,42.64,42.64,0,0,1,12.87-6,40.51,40.51,0,0,1,17.92-.84,41,41,0,0,1,17.25,7.41c2.65,2,5.12,4.3,7.7,6.41a3.11,3.11,0,0,0,1.7.82c3.11,0,6.22,0,9.32,0,1-1.39,2-2.82,2.88-4.28h-8.42a2.53,2.53,0,0,1-2.2-1.12,49.35,49.35,0,0,0-13.86-12.59,72.63,72.63,0,0,0-8.22-3.81,37.7,37.7,0,0,0-18.09-2.42,29.54,29.54,0,0,0-11.56,3.24,93.21,93.21,0,0,0-9.3,5.37A39.83,39.83,0,0,0,93.94,121.4a2.78,2.78,0,0,1-2.51,1.24l-7.21.07c-4.94,0-9.89.05-14.83.05-.66,0-1.13.13-1.33,1.09a1.36,1.36,0,0,1-1,.86c-2.79.06-5.58.1-8.37.14,1.25,1.83,2.59,3.59,4,5.28h.51c1.24,0,2.47-.06,3.7-.11C67.5,130,68,129.74,68,128.79Z" />
      <path class="yours-10"
        d="M115.6,145.16a3.5,3.5,0,0,0,2.18-.93c4.9-4.68,10.43-6.11,16.42-4.76a18.36,18.36,0,0,1,7.75,4.42,2.7,2.7,0,0,0,1.66.63l10.37,0c1-.6,1.89-1.22,2.81-1.86l-5.81.08a16,16,0,0,1-2.5-.12,1.94,1.94,0,0,1-1-.61,30.42,30.42,0,0,0-6.9-5.41,21.75,21.75,0,0,0-11.7-2.68c-6.09.25-11.41,2.94-16,7.79a3.22,3.22,0,0,1-2.44,1.14q-15.54,0-31.06.1l-2.56,0c1.19.82,2.42,1.6,3.67,2.35q13.74,0,27.47-.09C110.46,145.18,113,145.26,115.6,145.16Z" />
      <path class="yours-11"
        d="M161,91.26c-2.56-2.3-5-4.78-7.68-6.88a36.13,36.13,0,0,0-11.38-5.89,39.05,39.05,0,0,0-11.67-2,31.35,31.35,0,0,0-11.58,1.72,41.66,41.66,0,0,0-9.77,4.66c-2.2,1.54-4.35,3.2-6.43,5-2.3,2-4.46,4.17-6.75,6.15a7.77,7.77,0,0,1-5,1.92,33,33,0,0,1-4.1,0c-2.34-.26-4.25,1.15-6.28,2.14A8.09,8.09,0,0,1,78,99.19a4.86,4.86,0,0,1-2.26-.76c-1.3-.63-2.57-1.37-3.87-2A4.23,4.23,0,0,0,70.08,96c-7.37,0-14.75-.06-22.13-.09-.21,0-.42,0-.63,0a67.2,67.2,0,0,0,1.45,7.24q8.19,0,16.39-.19a32.42,32.42,0,0,0,3.68-.31c2.78-.36,5.2,1,7.64,2.3l0,.4a9.5,9.5,0,0,1-1.4.23,38.43,38.43,0,0,0-4.8,0c-6,.86-12,.48-18,.48-.9,0-1.8,0-2.69-.07a68.74,68.74,0,0,0,2.57,7c1.83-.05,3.67-.09,5.5-.15q4.45-.12,8.91-.29c.33,0,.76,0,1-.25.82-1,1.83-.88,2.82-.9q8.72-.19,17.43-.37a5.6,5.6,0,0,0,4-1.91c2-2.17,4-4.45,6.11-6.56a50.49,50.49,0,0,1,14.64-10.43,42.67,42.67,0,0,1,12.28-3.83,41.53,41.53,0,0,1,17,1.29,40.84,40.84,0,0,1,14.67,7.24,76.11,76.11,0,0,1,11.25,11.43,5.36,5.36,0,0,0,4.08,2.29c3.36,0,6.73.05,10.09.06.72-1.85,1.35-3.75,1.9-5.67l-4.3.1c-2.1,0-4.21,0-6.31.14a10.28,10.28,0,0,1-8.18-3.51A126.68,126.68,0,0,0,155.69,93a41.24,41.24,0,0,0-11.47-7.16,38.1,38.1,0,0,0-19.07-2.39,43.61,43.61,0,0,0-12.58,3.9A45.55,45.55,0,0,0,97,99.62c-1.63,2-3.16,4.2-5.38,5.25a5.52,5.52,0,0,1-2.12.53c-3.21.09-6.41.11-9.62.12a6,6,0,0,1-1.21-.26l0-.37c2-1.07,3.85-2.4,6.11-2.36,1,0,2-.13,3-.09,2.68.11,4.78-1.06,6.62-3.56a49.61,49.61,0,0,1,15.42-13.45,39.59,39.59,0,0,1,25.75-5.05,38.79,38.79,0,0,1,16.52,6.34,70.24,70.24,0,0,1,11.92,10.35c1.17,1.22,2.44,2.29,3.67,3.42a5.9,5.9,0,0,0,4.34,1.52c4.18-.09,8.37-.1,12.55-.12a67.9,67.9,0,0,0,1.26-6.74c-5.49,0-11,0-16.48.11C166.16,95.3,163.5,93.53,161,91.26Z" />
      <path class="yours-12"
        d="M142.1,51.75h19.84v-.13h15.58q-1.56-2.74-3.36-5.33l-5.64.06-29.65.37c-.77,0-1.54.06-2.31,0s-1.14.52-1.17,1.43c0,1.24-.11,2.48-.11,3.72,0,1.09-.36,1.53-1.26,1.53q-15.78,0-31.56.11c-1.47,0-2.94,0-4.41,0-.84,0-1.26.37-1.2,1.45s-.47,1.57-1.21,1.58c-4,.05-8,.09-11.92,0-.56,0-1.25-.75-1.65-1.38-1.66-2.63-3.8-3.32-6.33-2.59a5.66,5.66,0,0,0-3.13,2.9,2.16,2.16,0,0,1-2.1,1.29c-3.74-.08-7.48-.08-11.22-.09-.86,0-1.27-.59-1.23-1.54.07-1.34-.46-1.55-1.39-1.54-.73,0-1.45,0-2.18,0a71.1,71.1,0,0,0-3.4,7.54c1.87,0,3.74-.1,5.61-.09.54,0,1.08.45,1.63.67a4.21,4.21,0,0,0,1.48.51c3.67.06,7.34,0,11,.11a2.36,2.36,0,0,1,1.71,1.15c2.57,4.43,6.87,4.29,9.41.35a3,3,0,0,1,2.82-1.63c3.51,0,7,0,10.52-.12.52,0,1-.49,1.57-.75s.88-.62,1.32-.63c5.44-.13,10.88-.14,16.32-.32a40.55,40.55,0,0,0,4.32-.82,90.65,90.65,0,0,1,10.45-1.3,78.44,78.44,0,0,1,9.77.79c1.28.13,1.42,0,1.41-1.52,0-1.24,0-2.48,0-3.72C140.41,52.06,140.65,51.75,142.1,51.75Z" />
      <path class="yours-13"
        d="M164.72,109.07a38.1,38.1,0,0,0-10.13-9.73,69,69,0,0,0-9.66-5.28,37.64,37.64,0,0,0-13.48-2.75,39,39,0,0,0-13.06,1.8,54.18,54.18,0,0,0-11.71,5.65,42.69,42.69,0,0,0-9.47,8.4c-1.41,1.57-2.78,3.2-4.25,4.66a7.34,7.34,0,0,1-5.4,2.47c-2.94-.06-5.88,0-8.82,0v.31c-3.1,0-6.21,0-9.31,0a1.66,1.66,0,0,0-1.14.31,3.61,3.61,0,0,1-2.84.85l-12,0q1.47,3.06,3.23,5.94,5-.15,9.93-.35a1.51,1.51,0,0,0,1.22-.74,1.59,1.59,0,0,1,1.69-1.18c7.18-.06,14.36-.16,21.54-.21a2.42,2.42,0,0,0,2-1.07A50.89,50.89,0,0,1,107,105.65,45.53,45.53,0,0,1,124.65,99c6.67-.94,13.13.19,19.51,2.22a48.15,48.15,0,0,1,7.72,3.68c5.67,3,10.25,7.91,14.74,13a3.08,3.08,0,0,0,2.46,1.12l9-.12c.89-1.63,1.7-3.3,2.46-5-2.21,0-4.41.1-6.62.22C170.15,114.3,167.22,112.51,164.72,109.07Z" />
      <path class="yours-14"
        d="M133.84,43.21c8.54-.06,17.09-.16,25.63-.18q6.14,0,12.28,0-1.35-1.74-2.81-3.37l-19,.11c-7.81,0-15.63.15-23.44.22-1.31,0-1.47.16-1.47,1.76,0,1-.41,1.42-1.15,1.46-2.16.13-4.33.31-6.5.35-6.41.13-12.82.2-19.23.28-1.07,0-1.48-.45-1.48-1.59s.67-1.36,1.44-1.38c7.61-.22,15.21-.47,22.82-.66,1,0,1.37-.42,1.37-1.65,0-1.76.1-1.85,1.57-1.87l34.05-.31H162v.1h3.88c-.76-.74-1.52-1.47-2.31-2.18h-1.7c-12.69,0-25.38,0-38.07.18a8.41,8.41,0,0,1-6.19-2.61,6,6,0,0,1,1.41-.33q5.56-.06,11.12,0l30.16,0c-.58-.46-1.16-.93-1.75-1.37H133.3a20.42,20.42,0,0,1-3.5-.12A7.25,7.25,0,0,1,127.42,29c-1-.65-2-1.5-3.06-2.11a4.13,4.13,0,0,0-2-.55c-7.64.08-15.29.2-22.93.31-.53,0-1.07,0-1.6,0-.75,0-1.32-.23-1.31-1.38s.56-1.45,1.36-1.46c5-.07,9.95-.13,14.92-.25,3.51-.08,7-.41,10.51-.27,1.22,0,2.45,1.09,3.63,1.8.89.54,1.67,1.36,2.56,1.9a3.37,3.37,0,0,0,1.73.48c7.21,0,14.42-.06,21.63-.06h1.63c-1-.62-1.94-1.21-2.93-1.77l-11.1,0c-1.61,0-2.68-1.37-3.93-2.24-2.06-1.43-4-3-6.09-4.49a2.75,2.75,0,0,0-1.56-.31q-12.47.13-24.94.33c-2,0-4,.13-6,.15a2.75,2.75,0,0,1-.52-.06c-.62.17-1.26.34-1.88.53.74,0,1.18.34,1.2,1.36s-.42,1.84-1.34,1.86c-1.94,0-3.87,0-5.81,0v0a22.38,22.38,0,0,1-2.59,0,69,69,0,0,0-8.45,4.62H95.2c1.22.07,1.55.42,1.54,1.64s-.35,1.63-1.55,1.63q-9.81,0-19.61.06h-1.8A68.39,68.39,0,0,0,67.6,36.1h.09a8.38,8.38,0,0,0,6.57-2.29c2.15-2,4-1.76,6.15,0a7.81,7.81,0,0,0,6.1,2.08c2.89-.31,5.81-.14,8.71-.16,1.32,0,1.69.4,1.65,1.75,0,1.13-.61,1.6-1.77,1.58-1.73,0-3.46,0-5.2,0v.24c-1.73,0-3.47.08-5.2,0a5.8,5.8,0,0,1-2.36-.82c-1.42-.82-2.75-1.84-4.16-2.67a1.48,1.48,0,0,0-1.37,0c-1.45.85-2.82,1.87-4.25,2.73a4.26,4.26,0,0,1-2,.76c-2.06.07-4.12.1-6.18.13a69.31,69.31,0,0,0-4.59,5.67c2.29-.1,4.58-.14,6.87-.2.61,0,1.21,0,1.81,0a3.7,3.7,0,0,0,3.08-1.58c3.3-4,8.6-3.93,11.91.1A2.84,2.84,0,0,0,86,44.61c3.1-.13,6.2-.15,9.31-.2,1.47,0,1.78.49,1.5,2.26-.13.82-.52,1.21-1.18,1.21h-6.3v.27c-1.6,0-3.21-.08-4.81,0a2.22,2.22,0,0,1-2.24-1.39,5.29,5.29,0,0,0-9.58-.06,2.49,2.49,0,0,1-2.4,1.49c-3.6-.08-7.21,0-10.81,0-.62,0-1.14-.06-1.29-.81-.7,1-1.36,2.1-2,3.18h.55c1.42,0,1.61.24,1.54,2,0,1,.51.93,1,.93,2.27,0,4.54,0,6.81,0a6.68,6.68,0,0,1,1,0c2,.3,3.46-.6,5-2.28a6.74,6.74,0,0,1,8.47-1.68,9.33,9.33,0,0,1,3.4,2.9,2,2,0,0,0,1.77.89c3.21,0,6.41,0,9.62,0,.84,0,1.34-.25,1.28-1.45s.69-1.36,1.43-1.36c3,0,6.08,0,9.12,0l23.34-.2c1.81,0,1.87-.11,1.9-2.31,0-1,0-2.06,0-3.09S132.9,43.21,133.84,43.21ZM96.54,33c0-1.05.52-1.33,1.24-1.34l11.2-.14c2,0,3.93-.05,5.9,0a7.17,7.17,0,0,1,1.34.3c-1.13,1.56-2.11,2.92-3.87,2.91-4.53,0-9.06.15-13.59.24a3.62,3.62,0,0,1-1.09-.05C96.86,34.7,96.54,34,96.54,33Z" />
      <polygon fill="#b5a0ff"
        points="1.11 196.39 25.83 180.07 26.09 179.6 26.68 90.35 25.79 89.87 0.59 106.5 1.22 107.46 25.53 91.42 24.94 179.28 0 195.75 0.63 196.7 1.11 196.39" />
      <polygon fill="#b5a0ff"
        points="90.65 107.24 90.65 106.67 1.41 106.07 0.83 106.64 0.24 195.89 0.81 196.47 90.05 197.06 90.63 196.49 91.22 107.24 90.65 106.67 90.65 107.24 90.08 107.23 89.49 195.91 1.39 195.32 1.97 107.22 90.64 107.81 90.65 107.24 90.08 107.23 90.65 107.24" />
    </g>
  </g>
</svg>